<svg width="682" height="278" viewBox="0 0 682 278" fill="none" xmlns="http://www.w3.org/2000/svg">
<path d="M288.407 601.885C299.64 609.245 311.524 615.705 323.985 621.192L326.388 615.737C273.555 592.476 231.142 551.067 206.923 499.116C180.47 442.329 177.921 378.49 199.754 319.353C222.083 258.856 267.007 210.677 326.245 183.677L323.772 178.254C263.075 205.912 217.043 255.29 194.16 317.29C171.773 377.929 174.393 443.392 201.518 501.636C220.632 542.639 250.818 577.254 288.407 601.885Z" fill="#F08300"/>
<path d="M272.092 625.543C290.084 637.332 309.627 647.101 330.46 654.607C351.887 662.322 374.127 667.426 396.567 669.78L397.225 663.504C375.295 661.209 353.555 656.218 332.604 648.671C264.865 624.274 211.002 575.327 180.956 510.866C151.306 447.226 148.458 375.671 172.927 309.39C197.961 241.59 248.302 187.588 314.692 157.336C380.465 127.35 454.024 124.272 521.788 148.685C549.717 158.736 575.459 173.021 598.265 191.109L602.19 186.161C578.83 167.638 552.509 153.034 523.923 142.743C454.591 117.769 379.349 120.916 312.072 151.591C244.132 182.548 192.616 237.814 167.004 307.207C141.949 375.076 144.875 448.356 175.236 513.538C196.754 559.703 230.204 598.095 272.092 625.543Z" fill="#F08300"/>
<path d="M253.223 654.45C273.44 667.696 295.402 678.68 318.812 687.109C396.709 715.161 481.239 711.632 556.848 677.163C594.007 660.23 626.89 636.776 654.599 607.444L650.013 603.112C622.866 631.843 590.644 654.834 554.228 671.418C480.137 705.195 397.29 708.655 320.953 681.159C244.655 653.677 183.977 598.543 150.126 525.933C116.725 454.241 113.517 373.638 141.078 298.97C169.267 222.598 225.986 161.763 300.774 127.689C313.302 121.981 326.254 117.066 339.297 113.071L337.455 107.034C324.146 111.106 310.925 116.12 298.155 121.944C221.825 156.729 163.937 218.818 135.156 296.787C107.008 373.043 110.294 455.371 144.406 528.605C168.579 580.479 206.157 623.609 253.223 654.45Z" fill="#F08300"/>
</svg>
