<svg width="280" height="617" viewBox="0 0 280 617" fill="none" xmlns="http://www.w3.org/2000/svg">
<path d="M180.152 77.3995L174.999 80.5472C256.845 214.379 231.197 390.176 113.992 498.565C78.4693 531.419 37.5731 555.95 -7.57684 571.467L-5.61169 577.178C40.334 561.383 81.9597 536.424 118.099 502.995C237.401 392.664 263.494 213.672 180.152 77.3995Z" fill="#00672A"/>
<path d="M72.7701 31.4919L69.3268 35.6941C78.8016 43.4312 87.882 51.9092 96.3316 60.8779C147.537 115.262 174.308 186.553 171.713 261.609C169.058 338.387 136.207 409.655 79.229 462.291C22.779 514.454 -50.5138 542.031 -127.133 539.948C-145.901 539.437 -164.572 537.135 -182.639 533.105L-183.818 538.412C-165.413 542.514 -146.387 544.858 -127.275 545.381C-49.2219 547.508 25.4316 519.414 82.9255 466.283C140.981 412.651 174.452 340.034 177.157 261.8C179.803 185.287 152.51 112.609 100.307 57.1564C91.6799 48.0157 82.418 39.3822 72.7701 31.4919Z" fill="#00672A"/>
<path d="M-50.0825 28.5414C-67.9671 23.7586 -86.5745 21.0454 -105.627 20.5296C-125.22 20.0028 -144.774 21.8296 -163.75 25.9581L-162.595 31.2652C-144.052 27.2256 -124.937 25.4418 -105.778 25.9594C-43.8336 27.6288 13.3922 53.1068 55.3349 97.6883C96.7336 141.706 118.361 199.421 116.239 260.193C114.065 322.359 87.4849 380.075 41.3827 422.706C-4.28734 464.955 -63.5784 487.311 -125.548 485.634C-151.086 484.952 -175.978 480.22 -199.497 471.587L-201.37 476.69C-177.282 485.528 -151.83 490.366 -125.691 491.066C-62.2878 492.778 -1.63959 469.913 45.0734 426.696C92.2525 383.069 119.452 324.005 121.668 260.38C123.841 198.152 101.685 139.047 59.2894 93.9616C29.2509 62.034 -8.44311 39.6768 -50.0825 28.5414Z" fill="#00672A"/>
</svg>
