<svg width="45" height="53" viewBox="0 0 45 53" fill="none" xmlns="http://www.w3.org/2000/svg">
<g clip-path="url(#clip0)">
<path fill-rule="evenodd" clip-rule="evenodd" d="M16.4375 46.6208L20.4104 46.9382L24.0845 47.2985C24.6504 47.3614 25.1873 47.4901 25.7474 47.4272C25.9244 47.5788 26.1247 47.5387 26.4207 47.6102L26.7341 47.7732C26.7399 47.7818 26.7515 47.8075 26.7544 47.8132C26.7573 47.8218 26.766 47.8504 26.7689 47.859C26.7718 47.8647 26.7747 47.8904 26.7805 47.9047L28.6466 47.9019L32.8053 48.3737L35.1125 48.5195C34.3841 48.5824 33.6934 48.5767 32.9388 48.551C32.5006 48.5367 30.8551 48.4166 30.4749 48.6997L36.6013 49.2144C37.3326 49.2944 38.3222 49.4117 38.5718 48.7797C38.656 48.7054 38.6589 48.734 38.743 48.6082C38.8272 48.4795 38.7952 48.5138 38.8475 48.388C38.981 47.9419 38.6734 47.2814 38.5921 46.8582C38.6618 46.7524 38.624 46.8467 38.6937 46.6409C38.7256 46.5494 38.7546 46.415 38.772 46.3206C38.8098 46.109 38.8301 45.8745 38.8533 45.6601L39.2393 42.8921L39.2886 42.6176L39.4308 41.2765L39.4889 40.7561L39.7123 36.9502L39.901 38.7059C40.049 38.114 40.078 35.8264 40.0519 34.9857L39.959 34.5253C40.1563 33.8791 40.1999 30.5078 40.2289 29.5127L40.2028 28.7063L40.1854 26.6818L40.1767 25.5066L40.0374 20.4254C40.0257 20.1194 40.0751 19.9307 39.9271 19.7334C40.0025 19.2987 39.9416 19.1329 39.9271 18.7154C39.9126 18.4323 40.3334 17.3171 40.1621 17.0712C40.2608 16.5794 40.1099 15.8502 39.8748 15.5271C39.6282 15.1868 38.9752 15.021 38.4557 14.9466L37.321 14.6264C34.7526 14.2775 32.0508 14.2546 29.4563 14.2432L28.841 14.3319C28.5305 14.2232 28.0401 14.2575 27.6802 14.2832L25.8287 14.3033C24.3863 14.3776 22.3839 14.0974 20.8515 14.0402C16.8699 13.8944 15.0996 13.8486 11.0686 14.0116C8.45377 14.1203 9.3215 13.9573 6.54999 14.3776L5.41236 14.5778C4.68394 14.635 4.18478 14.6635 4.04838 15.3555C3.9497 15.8588 3.82201 16.9854 3.89456 17.4687C3.75236 17.6574 3.73205 18.1664 3.70593 18.4895L3.27061 22.8873C3.63628 22.2611 3.42733 21.1517 3.79299 20.5369L3.85394 21.2203C3.85394 21.5262 3.7988 22.0152 3.93229 22.2211C3.81911 22.7329 3.88586 23.2362 3.87715 23.7538L3.88586 24.9633L3.92068 26.9935C3.91778 27.1394 3.90617 27.3195 3.91198 27.4625C3.91488 27.5483 3.91778 27.634 3.93229 27.717C3.97002 27.9314 3.93519 27.8113 3.99614 27.9314C3.85974 28.3832 3.95551 28.9494 3.9381 29.4126C3.92939 29.8701 3.85394 30.6708 4.02806 30.9996C3.89166 31.4943 3.88296 33.4473 3.86845 34.0993C3.84233 35.1601 3.78719 36.221 3.72334 37.279C3.59855 39.3693 3.36348 39.5666 3.24449 41.6482L3.23579 42.243L3.22708 43.6785C3.24449 44.6478 3.19226 45.7001 3.37509 45.9174C6.38457 46.7467 12.035 46.3721 16.4375 46.6208ZM12.9781 51.8451L2.53058 51.7336C0.583266 51.6335 0.591972 51.1731 0.124734 49.4946C0.0753979 48.9971 -0.177085 46.4693 0.214699 45.9803C0.14795 46.4521 0.31337 48.5395 0.472986 48.937L0.560049 44.8194L0.484594 43.078C0.609385 42.7577 0.560049 42.5118 0.557147 42.1401L0.542636 40.9763L0.57456 39.5666L0.449769 31.8832L0.475888 31.2598C0.472986 31.1283 0.481692 30.9567 0.472986 30.8309C0.455573 30.5049 0.507811 30.5964 0.377217 30.4049C0.493301 29.9388 0.446867 29.4012 0.426552 28.9122C0.429454 28.5062 0.507811 27.7742 0.345293 27.4968L0.406238 26.8277C0.420748 26.19 0.568755 23.9453 0.365608 23.5736L0.432357 23.0189C0.449769 22.5985 0.545538 21.7407 0.394629 21.4376C0.510713 21.1202 0.472986 21.0459 0.484594 20.6913L0.609385 15.733L0.641308 14.7551L0.789315 14.3862C0.838651 14.1975 0.856063 14.0173 0.882182 13.8343C0.98956 13.4197 1.12306 12.9393 1.26816 12.5104C1.40746 12.0958 1.72669 11.5982 1.74701 11.1693C1.91533 11.0835 1.79344 11.3151 1.92114 10.9863C2.13589 10.4687 2.49285 9.80819 2.8411 9.43074C3.3896 8.83598 3.51149 8.85313 4.32698 8.55003C4.87257 8.55289 5.82156 8.65011 6.20464 8.31269L7.113 8.23835C7.31905 8.20975 7.51349 8.1783 7.72824 8.14971C7.72824 8.14971 8.02716 8.10681 8.04167 8.10109L8.32898 7.98672L12.4151 7.76082C12.7315 7.7551 12.6125 7.79227 12.7866 7.66932C13.1233 7.78084 13.576 7.7408 13.962 7.74366L14.4263 7.72937L16.8496 7.72651C17.4097 7.71507 18.4428 7.83517 18.8462 7.59497C19.3076 7.69505 19.5311 7.60641 19.9693 7.62071C20.5526 7.74652 17.5403 7.93239 17.2413 7.96384L14.287 8.30983C14.078 8.36988 14.1535 8.34701 14.0577 8.39562C14.9661 8.47854 20.9734 8.33557 21.4059 8.0868C21.847 8.18402 22.1575 8.11253 22.5841 8.10967C22.9962 8.08394 24.041 8.10681 24.308 7.96384C24.9406 8.11825 28.249 7.81515 29.2067 7.80085C32.5296 7.74652 36.1485 7.68075 39.454 7.94954C40.4756 8.03247 43.5837 8.65583 44.2193 8.5872C44.6604 9.07617 44.7242 8.6158 44.8171 9.55942L44.9216 10.0198C44.7794 10.5173 44.9245 12.7849 44.9535 13.4626L44.9941 14.3805C44.9796 15.8216 44.5617 17.32 44.6082 18.7697C44.6604 20.4682 44.1409 22.5099 44.0452 24.2999C43.813 28.6349 43.7433 32.8468 43.4647 36.9902C43.4125 37.8537 43.1687 39.578 43.3196 40.1156L43.1774 40.596C43.1542 40.7818 43.1513 41.042 43.1397 41.2365C43.1165 41.6197 43.0729 42 43.0555 42.3831L42.8437 44.2361L42.7305 44.9137C42.6783 45.4942 42.4461 46.1004 42.5274 46.6666L42.5883 48.2393L42.2023 49.8549L41.9934 50.3153L41.8396 50.9729C41.7641 51.0416 41.7699 51.0244 41.6857 51.1416C41.6364 51.2103 41.6219 51.2417 41.5755 51.3218C41.4971 51.459 41.4478 51.5648 41.381 51.7021C41.0154 52.254 40.8441 52.2826 40.5278 52.6257C40.2782 52.7086 40.1767 52.7973 39.9242 52.8602C39.7907 52.8916 39.7123 52.8888 39.5933 52.9088C39.486 52.9259 39.5208 52.9145 39.4308 52.9345C39.2219 52.9831 39.3554 52.9345 39.2364 53.0032C38.6066 52.843 36.9727 53.0289 36.1717 53.0003C35.1067 52.9631 34.3173 52.966 33.2667 52.9259C31.2324 52.8487 28.9978 52.7286 26.9924 52.7372L20.1405 52.3455L15.9064 51.988L15.1547 51.9452L12.9781 51.8451ZM21.9485 46.638L21.2985 46.6552L20.541 46.7066C21.2375 46.7981 22.9991 47.044 23.5795 46.9068C23.478 46.7467 23.7653 46.8753 23.4054 46.7495C23.327 46.7238 23.06 46.6923 22.9643 46.6809C22.6015 46.6409 22.3142 46.6409 21.9485 46.638Z" fill="#FEFEFE"/>
<path d="M37.4284 2.56824C37.6344 2.57968 37.8115 2.70264 37.9653 2.94283C38.0785 3.14585 38.1539 3.48899 38.1917 3.96937C38.2294 4.44976 38.122 5.11316 37.8724 5.95956C37.6228 6.80595 37.3994 7.57229 37.1991 8.2557C36.9989 8.93911 36.8073 9.50814 36.6187 9.95993C36.4272 10.5118 36.2356 10.9979 36.0499 11.4183C35.5798 12.5506 35.1793 13.5714 34.8426 14.4807C34.5089 15.39 34.2709 16.0048 34.1316 16.3279L34.0562 16.571C33.8211 17.1543 33.5744 17.7434 33.3161 18.3439C33.0578 18.9415 32.8112 19.5648 32.5732 20.2139C31.8709 21.8638 31.1541 23.6196 30.4198 25.4839C29.6856 27.3483 28.9949 29.3842 28.3477 31.6003L28.3419 31.6975C28.3274 31.9606 28.2461 32.3695 28.0952 32.9242C27.9443 33.479 27.7905 34.0394 27.6367 34.6113C27.4829 35.1803 27.3349 35.7036 27.1869 36.1754C27.0389 36.6472 26.9402 36.9475 26.8938 37.079L26.888 37.1762C26.6993 37.6623 26.4904 38.1227 26.2611 38.5573C26.0318 38.992 25.7852 39.418 25.5182 39.8327L25.4514 39.9299C25.405 40.0586 25.2715 40.2358 25.0538 40.456C24.8362 40.6762 24.6098 40.905 24.3718 41.1394C24.1339 41.3739 23.8959 41.5941 23.6608 41.7971C23.4258 42.0001 23.2429 42.1488 23.1152 42.2403L22.9875 42.3318C22.6799 42.7121 22.1082 43.0152 21.2753 43.2383L21.2114 43.284C20.959 43.4041 20.7384 43.4842 20.5527 43.5242C20.3669 43.5643 20.187 43.6129 20.0216 43.6701C19.8533 43.7272 19.6878 43.7701 19.5224 43.793L19.4615 43.7901L19.3367 43.833C19.1684 43.8902 18.942 43.8874 18.6576 43.8245C18.3732 43.7616 18.0801 43.6643 17.7783 43.5328C17.4764 43.4013 17.1775 43.2469 16.8757 43.0667C16.5768 42.8866 16.3301 42.6921 16.1357 42.4834C15.2795 41.5483 14.6614 40.5447 14.2841 39.4667C13.9069 38.3915 13.5847 37.2849 13.3148 36.1468C13.0827 35.0774 12.8911 33.9937 12.7402 32.8985C12.5922 31.8005 12.4413 30.7196 12.2904 29.6559L12.2933 29.6073C12.1366 28.6408 12.0118 27.66 11.9189 26.6649C11.826 25.6698 11.7419 24.689 11.6693 23.7282C11.6055 23.3622 11.5736 23.0219 11.5678 22.7074C11.562 22.3928 11.53 22.0526 11.4662 21.6866C11.3994 21.3863 11.3646 21.0861 11.3588 20.7887C11.353 20.4913 11.3182 20.1911 11.2514 19.8908C11.1789 18.93 11.0918 17.975 10.996 17.0285C10.9003 16.082 10.8161 15.127 10.7407 14.1662C10.6797 13.7344 10.6623 13.3026 10.6826 12.8737C10.7058 12.4448 10.7058 11.9987 10.6884 11.5355L10.7552 10.2516C10.7232 10.0857 10.7145 9.85413 10.7291 9.55675C10.6971 9.35659 10.6884 9.15929 10.6971 8.96198C10.7058 8.76468 10.7174 8.56738 10.7291 8.36722L11.1586 3.63196C11.2166 3.30598 11.3066 2.92853 11.4314 2.50533C11.5562 2.08213 11.7506 1.68753 12.0176 1.32152C12.2817 0.955508 12.6386 0.649546 13.0827 0.409352C13.5267 0.166298 14.0984 0.0290445 14.8007 0.00044997C15.1722 -0.0138473 15.651 0.0519202 16.2401 0.197752C16.8293 0.343585 17.2036 0.483698 17.3604 0.623811C17.7115 1.79619 18.0511 3.39176 18.379 5.40768C18.7069 7.4236 19.0175 9.6025 19.3077 11.9444C19.5979 14.2891 19.8678 16.6625 20.1145 19.0702C20.3611 21.4778 20.5788 23.6682 20.7645 25.644C20.9503 27.6199 21.1041 29.2384 21.226 30.4994C21.3478 31.7604 21.4059 32.4095 21.403 32.441L21.7454 36.57L31.0467 9.18502C31.2759 8.70177 31.5487 8.18707 31.8651 7.64091C32.1814 7.09476 32.4977 6.5486 32.8112 6.00245C33.1652 5.52492 33.5599 5.05597 33.9952 4.59845C34.4305 4.14094 34.86 3.7492 35.2895 3.42322C35.7191 3.09724 36.1225 2.85419 36.4997 2.6912C36.8741 2.53107 37.1846 2.48818 37.4284 2.56824Z" fill="#FF4F12"/>
</g>
<defs>
<clipPath id="clip0">
<rect width="45" height="53" fill="white"/>
</clipPath>
</defs>
</svg>
