<svg width="851" height="880" viewBox="0 0 851 880" fill="none" xmlns="http://www.w3.org/2000/svg">
<circle cx="727" cy="571" r="150" fill="#F08300"/>
<path d="M740.861 129.478L733.381 131.685C741.222 158.29 746.688 185.883 749.617 213.688C762.31 334.526 726.708 453.217 649.363 547.904C570.247 644.76 457.466 704.794 331.801 716.933C282.75 721.673 233.747 718.95 186.146 708.828L184.53 716.457C232.908 726.747 282.708 729.519 332.55 724.699C460.302 712.359 574.963 651.326 655.404 552.842C734.07 456.532 770.284 335.8 757.37 212.873C754.389 184.602 748.834 156.543 740.861 129.478Z" fill="#00672A"/>
<path d="M780.224 301.442L772.451 300.791C753.148 531.7 568.779 715.757 334.055 738.425C282.506 743.414 231.005 740.517 180.994 729.815L179.363 737.438C230.161 748.308 282.465 751.249 334.81 746.186C573.278 723.158 760.603 536.115 780.224 301.442Z" fill="#00672A"/>
<path d="M330.284 703.206C297.664 706.36 264.779 706.1 232.548 702.425L233.429 694.671C265.124 698.283 297.455 698.541 329.535 695.44C449.306 683.875 556.795 626.658 632.203 534.346C705.922 444.102 739.852 330.974 727.753 215.8C719.827 140.465 692.371 68.2942 648.358 7.0913L646.626 4.79575L652.812 0.000266244L654.693 2.53669C699.496 64.8434 727.444 138.302 735.511 214.981C747.828 332.238 713.285 447.407 638.246 539.274C561.506 633.219 452.142 691.429 330.284 703.206Z" fill="#00672A"/>
</svg>
