<svg width="580" height="637" viewBox="0 0 580 637" fill="none" xmlns="http://www.w3.org/2000/svg">
<path d="M147.265 612.812L153.873 612.114C132.962 409.75 257.666 221.04 450.4 163.414C492.725 150.749 536.276 144.896 579.834 146.019L579.975 139.177C535.732 138.037 491.502 143.982 448.522 156.84C252.715 215.384 126.016 407.149 147.265 612.812Z" fill="#F5871F"/>
<path d="M207.667 754.594L213.569 751.478C202.742 729.8 193.743 706.884 186.832 683.374C156.828 581.196 167.56 473.041 217.057 378.823C267.686 282.447 352.379 212.375 455.534 181.528C495.798 169.487 537.219 163.891 578.656 164.904L578.783 158.06C536.67 157.029 494.574 162.712 453.661 174.951C348.794 206.309 262.688 277.547 211.211 375.543C160.871 471.375 149.954 581.391 180.478 685.334C187.508 709.238 196.656 732.541 207.667 754.594Z" fill="#F5871F"/>
<path d="M322.709 844.98C344.143 864.509 368.001 881.613 393.974 895.904C403.042 900.892 412.398 905.553 421.778 909.742L424.228 903.882C414.999 899.762 405.8 895.183 396.876 890.275C311.901 843.518 249.928 766.112 222.365 672.307C195.171 579.696 204.902 481.666 249.76 396.271C295.646 308.918 372.403 245.415 465.893 217.456C558.514 189.745 656.337 200.24 741.335 247.009C764.208 259.593 785.711 274.594 805.231 291.583L809.212 286.712C789.36 269.43 767.493 254.175 744.236 241.379C657.8 193.819 558.331 183.15 464.147 211.326C369.059 239.761 290.988 304.354 244.307 393.217C198.657 480.117 188.76 579.884 216.436 674.139C236.054 740.9 272.804 799.509 322.709 844.98Z" fill="#F5871F"/>
<path d="M335.214 830.9C355.558 849.436 378.204 865.669 402.852 879.231C416.334 886.655 430.379 893.233 444.599 898.791L446.778 892.823C432.806 887.361 419.003 880.892 405.754 873.602C325.191 829.261 266.414 755.867 240.282 666.921C214.493 579.102 223.72 486.152 266.252 405.175C309.764 322.345 382.547 262.13 471.202 235.619C559.032 209.342 651.789 219.288 732.387 263.635L735.289 258.005C653.251 212.867 558.843 202.733 469.451 229.484C379.203 256.467 305.102 317.777 260.803 402.116C217.474 484.594 208.083 579.29 234.349 668.748C252.97 732.123 287.849 787.743 335.214 830.9Z" fill="#F5871F"/>
<path d="M347.593 816.629C366.802 834.13 388.18 849.454 411.454 862.26C466.685 892.65 528.636 906.481 590.61 902.262L590.223 896.582C529.281 900.736 468.362 887.136 414.041 857.247C337.888 815.346 282.348 745.982 257.649 661.923C245.306 619.882 241.394 576.63 246.037 533.36L240.548 532.71C235.828 576.748 239.805 620.769 252.363 663.551C269.937 723.368 302.876 775.887 347.593 816.629Z" fill="white"/>
<path d="M331.301 772.241L335.488 768.526C308.151 735.803 288.085 698.1 275.854 656.481C264.18 616.712 260.5 575.804 264.92 534.884C278.364 410.404 363.519 307.104 481.871 271.711C507.816 263.947 534.526 259.662 561.256 258.974L561.096 253.274C533.893 253.972 506.71 258.338 480.309 266.24C359.814 302.273 273.109 407.47 259.418 534.238C254.911 575.928 258.661 617.61 270.555 658.117C283.012 700.506 303.448 738.909 331.301 772.241Z" fill="white"/>
<path d="M372.989 788.172C390.031 803.7 408.995 817.299 429.648 828.661C498.364 866.47 577.447 874.956 652.33 852.554C673.056 846.36 693.054 837.858 711.768 827.302L709.207 822.5C690.83 832.869 671.193 841.216 650.831 847.3C577.285 869.301 499.619 860.972 432.134 823.842C364.666 786.72 315.46 725.258 293.576 650.779C271.983 577.249 279.707 499.413 315.324 431.612C351.761 362.254 412.705 311.832 486.935 289.631C543.856 272.599 603.443 273.625 659.256 292.603L660.901 287.408C604.07 268.083 543.397 267.036 485.44 284.372C409.841 306.979 347.766 358.337 310.654 428.985C274.357 498.081 266.489 577.404 288.495 652.341C304.089 705.424 333.316 752.023 372.989 788.172Z" fill="white"/>
<path d="M353.327 738.562L356.785 735.737C336.178 708.948 320.816 678.647 311.119 645.66C290.893 576.781 298.125 503.865 331.491 440.347C365.62 375.376 422.712 328.147 492.25 307.351C561.142 286.736 633.895 294.544 697.115 329.33C748.797 357.77 788.981 401.175 813.326 454.845L817.332 452.925C792.578 398.345 751.719 354.213 699.19 325.304C634.943 289.955 561.008 282.022 491.005 302.968C420.33 324.107 362.3 372.116 327.602 438.164C293.673 502.754 286.316 576.907 306.887 646.967C316.743 680.506 332.366 711.321 353.327 738.562Z" fill="white"/>
<path d="M316.41 588.953L320.823 588.57C310.667 470.398 384.828 360.246 497.178 326.651C531.231 316.467 566.101 313.728 600.828 318.521L601.398 313.996C566.058 309.12 530.568 311.902 495.923 322.266C381.562 356.464 306.067 468.626 316.41 588.953Z" fill="white"/>
<path d="M412.326 743.852C425.941 756.258 441.092 767.118 457.584 776.195C512.472 806.401 575.635 813.176 635.451 795.278C640.119 793.884 644.816 792.318 649.407 790.621L647.9 786.329C643.387 787.994 638.782 789.531 634.203 790.901C575.505 808.468 513.516 801.818 459.655 772.175C405.817 742.554 366.536 693.496 349.069 634.053C331.836 575.37 338.003 513.247 366.426 459.132C395.506 403.779 444.149 363.532 503.395 345.816C562.097 328.253 624.087 334.903 677.948 364.546C698.691 375.963 717.433 390.355 733.638 407.294L736.787 404.101C720.266 386.823 701.168 372.158 680.027 360.525C625.135 330.325 561.968 323.545 502.155 341.439C441.764 359.497 392.186 400.521 362.543 456.954C333.552 512.145 327.269 575.504 344.843 635.364C357.294 677.757 380.631 714.973 412.326 743.852Z" fill="white"/>
<path d="M371.905 656.088L375.534 654.412C371.84 645.986 368.646 637.192 366.026 628.28C350.159 574.25 355.835 517.051 382.007 467.227C408.778 416.26 453.566 379.213 508.11 362.899C562.153 346.727 619.231 352.852 668.823 380.136C680.97 386.819 692.47 394.68 703.01 403.504L705.514 400.317C694.775 391.33 683.056 383.321 670.687 376.514C620.169 348.716 562.029 342.482 506.986 358.955C451.41 375.576 405.776 413.326 378.497 465.26C351.817 516.051 346.031 574.363 362.205 629.452C364.885 638.54 368.147 647.5 371.905 656.088Z" fill="white"/>
<path d="M437.098 716.236C448.537 726.66 461.268 735.792 475.13 743.418C521.257 768.796 574.337 774.493 624.605 759.453C649.309 752.066 671.925 740.083 691.834 723.832L689.357 720.615C669.852 736.531 647.69 748.279 623.481 755.512C574.222 770.25 522.199 764.668 476.997 739.794C431.818 714.932 398.853 673.762 384.191 623.881C369.728 574.633 374.906 522.501 398.763 477.084C423.162 430.631 463.988 396.857 513.708 381.994C522.036 379.504 530.559 377.564 539.057 376.224L538.444 372.168C529.774 373.532 521.075 375.511 512.584 378.052C461.838 393.228 420.172 427.698 395.26 475.123C370.896 521.505 365.613 574.754 380.382 625.061C390.851 660.695 410.466 691.97 437.098 716.236Z" fill="white"/>
<path d="M451.52 699.509C461.706 708.79 473.04 716.917 485.382 723.71C498.076 730.694 511.511 736.074 525.315 739.704L526.285 735.728C512.794 732.185 499.662 726.924 487.25 720.093C447.12 698.012 417.843 661.444 404.824 617.141C391.979 573.403 396.578 527.1 417.767 486.766C439.444 445.508 475.697 415.512 519.856 402.308C563.606 389.218 609.82 394.173 649.964 416.267C666.511 425.367 681.314 436.983 693.945 450.771L696.837 447.957C683.9 433.838 668.763 421.961 651.828 412.646C610.753 390.042 563.482 384.973 518.732 398.365C473.542 411.876 436.443 442.574 414.263 484.803C392.566 526.104 387.862 573.524 401.014 618.321C410.338 650.049 427.806 677.902 451.52 699.509Z" fill="white"/>
<path d="M463.805 685.894C470.165 691.688 477.01 696.964 484.303 701.669L486.29 698.386C455.369 678.441 432.572 647.803 422.078 612.099C410.619 573.073 414.717 531.764 433.622 495.778C452.959 458.964 485.308 432.205 524.709 420.42L523.648 416.698C483.277 428.769 450.129 456.195 430.313 493.923C410.928 530.823 406.729 573.184 418.478 613.211C426.76 641.39 442.526 666.505 463.805 685.894Z" fill="white"/>
<path d="M468.857 663.612L470.92 661.558C456.305 645.962 445.78 627.473 439.645 606.598C429.54 572.184 433.155 535.757 449.824 504.03C466.876 471.57 495.397 447.974 530.143 437.588C564.567 427.292 600.915 431.19 632.503 448.567C640.67 453.063 648.371 458.389 655.394 464.398L657.229 462.119C650.06 455.985 642.196 450.545 633.852 445.958C601.603 428.212 564.481 424.232 529.332 434.744C493.845 445.356 464.712 469.46 447.296 502.619C430.259 535.051 426.564 572.28 436.895 607.455C443.165 628.782 453.916 647.677 468.857 663.612Z" fill="white"/>
<path d="M489.059 657.728C495.975 664.029 503.669 669.55 512.047 674.154C529.472 683.743 549.029 688.817 568.599 688.82L568.591 685.859C549.489 685.85 530.404 680.904 513.391 671.542C486.187 656.574 466.35 631.789 457.523 601.76C448.817 572.12 451.932 540.736 466.289 513.397C480.979 485.434 505.56 465.099 535.491 456.149L534.681 453.298C504.009 462.473 478.819 483.311 463.762 511.978C449.037 540.012 445.843 572.197 454.774 602.607C461.103 624.151 472.961 643.06 489.059 657.728Z" fill="white"/>
<path d="M501.641 643.576C507.48 648.896 513.979 653.553 521.052 657.451C530.169 662.467 539.889 666.013 549.931 667.991L550.462 665.079C540.7 663.157 531.259 659.709 522.396 654.83C499.531 642.251 482.859 621.421 475.442 596.187C468.13 571.273 470.742 544.904 482.814 521.93C495.162 498.428 515.811 481.338 540.969 473.814C565.895 466.355 592.22 469.179 615.095 481.767C635.356 492.917 650.571 510.202 659.074 531.757L661.736 530.648C652.969 508.446 637.311 490.636 616.434 479.15C592.894 466.198 565.804 463.292 540.154 470.966C514.259 478.711 492.993 496.305 480.278 520.511C467.842 544.184 465.146 571.361 472.688 597.039C478.034 615.223 488.047 631.19 501.641 643.576Z" fill="white"/>
<path d="M490.608 591.855C484.464 570.929 486.661 548.778 496.799 529.481C507.16 509.756 524.489 495.417 545.596 489.102C566.501 482.846 588.578 485.218 607.757 495.773C626.949 506.333 640.939 523.817 647.171 545.005C651.787 560.72 651.706 577.282 646.934 592.895C638.833 619.417 618.37 639.923 592.183 647.758C571.278 654.013 549.201 651.642 530.022 641.086C524.255 637.91 518.964 634.119 514.202 629.78C503.125 619.687 494.968 606.678 490.608 591.855ZM606.412 498.385C587.891 488.194 566.583 485.909 546.406 491.945C526.04 498.034 509.323 511.865 499.325 530.891C489.56 549.488 487.438 570.833 493.361 591.003C499.362 611.427 512.859 628.288 531.362 638.471C549.874 648.662 571.187 650.943 591.364 644.907C616.63 637.35 636.374 617.574 644.185 591.992C648.778 576.952 648.86 560.997 644.409 545.848C640.212 531.563 632.347 519.019 621.668 509.288C617.085 505.113 611.976 501.445 606.412 498.385Z" fill="white"/>
<path d="M507.759 586.724C502.961 570.376 504.676 553.077 512.591 538.007C520.682 522.604 534.214 511.405 550.698 506.473C567.02 501.591 584.258 503.442 599.242 511.682C614.225 519.922 625.161 533.584 630.024 550.131C633.633 562.407 633.565 575.344 629.837 587.535C623.517 608.25 607.53 624.261 587.081 630.378C570.759 635.259 553.521 633.408 538.542 625.173C534.038 622.697 529.905 619.728 526.189 616.342C517.532 608.462 511.164 598.304 507.759 586.724ZM597.893 514.298C583.58 506.418 567.107 504.658 551.509 509.324C535.766 514.032 522.845 524.722 515.122 539.431C507.571 553.801 505.936 570.298 510.508 585.877C515.146 601.665 525.583 614.699 539.882 622.566C554.196 630.447 570.668 632.207 586.266 627.54C605.795 621.701 621.059 606.417 627.093 586.645C630.646 575.022 630.707 562.694 627.272 550.991C624.026 539.945 617.946 530.257 609.69 522.735C606.144 519.495 602.189 516.663 597.893 514.298Z" fill="white"/>
<path d="M458.811 193.087C485.578 185.08 513.114 179.974 540.651 177.918L541.157 184.748C514.079 186.771 487.007 191.788 460.683 199.662C362.4 229.048 281.708 295.811 233.469 387.637C186.309 477.405 176.086 580.458 204.675 677.815C223.385 741.494 257.917 799.279 304.531 844.923L306.348 846.621L301.945 851.759L299.965 849.877C252.513 803.41 217.364 744.594 198.32 679.779C169.215 580.661 179.623 475.749 227.626 384.366C276.717 290.917 358.817 222.994 458.811 193.087Z" fill="#F5871F"/>
</svg>
