<svg width="167" height="113" viewBox="0 0 167 113" fill="none" xmlns="http://www.w3.org/2000/svg">
<path d="M166.676 93.4711H7.85123C7.78128 93.4711 7.71419 93.4433 7.66473 93.3938C7.61527 93.3444 7.58748 93.2773 7.58748 93.2074C7.58748 93.1374 7.61527 93.0704 7.66473 93.0209C7.71419 92.9714 7.78128 92.9437 7.85123 92.9437H166.676C166.746 92.9437 166.813 92.9714 166.863 93.0209C166.912 93.0704 166.94 93.1374 166.94 93.2074C166.94 93.2773 166.912 93.3444 166.863 93.3938C166.813 93.4433 166.746 93.4711 166.676 93.4711Z" fill="#D1D3D4"/>
<path d="M59.9049 112.252C80.7525 112.252 97.6528 111.595 97.6528 110.785C97.6528 109.976 80.7525 109.319 59.9049 109.319C39.0573 109.319 22.157 109.976 22.157 110.785C22.157 111.595 39.0573 112.252 59.9049 112.252Z" fill="#E6E7E8"/>
<path d="M131.038 111.608C136.457 111.608 140.85 111.004 140.85 110.258C140.85 109.512 136.457 108.908 131.038 108.908C125.62 108.908 121.227 109.512 121.227 110.258C121.227 111.004 125.62 111.608 131.038 111.608Z" fill="#E6E7E8"/>
<path d="M56.9298 66.1462C56.9298 66.1462 46.7913 78.2237 44.9925 78.1235C43.1937 78.0233 16.5075 70.2546 16.5075 70.2546C16.5075 70.2546 18.9129 66.1145 18.0583 67.0111C17.2038 67.9077 21.4502 65.5238 21.4502 65.5238L43.0302 67.9235L49.3549 56.5L56.9298 66.1462Z" fill="white"/>
<path d="M44.9925 78.3714H44.9556C43.141 78.2554 17.4834 70.8137 16.3915 70.4973C16.353 70.4845 16.3176 70.4638 16.2877 70.4366C16.2577 70.4093 16.2337 70.3761 16.2174 70.3391C16.2004 70.3027 16.1916 70.2631 16.1916 70.223C16.1916 70.1829 16.2004 70.1433 16.2174 70.107C16.7976 69.1155 17.4043 67.9974 17.7155 67.3803L17.6838 67.3487C17.515 67.1272 17.7366 66.8951 17.8104 66.8213C17.8843 66.7474 18.1111 66.5048 18.3379 66.6683C18.3743 66.6932 18.4049 66.7255 18.4276 66.7633C19.0817 66.4732 20.2317 65.8667 21.2708 65.2865C21.3191 65.26 21.3743 65.249 21.4291 65.2549L42.835 67.6335L49.107 56.3787C49.1286 56.3411 49.1592 56.3094 49.196 56.2864C49.2328 56.2634 49.2747 56.2498 49.318 56.2469C49.3611 56.2442 49.4042 56.2518 49.4436 56.2693C49.4831 56.2867 49.5178 56.3134 49.5448 56.3471L57.125 65.9933C57.1622 66.0406 57.1824 66.0991 57.1824 66.1594C57.1824 66.2196 57.1622 66.2781 57.125 66.3255C55.437 68.3349 46.9126 78.3714 44.9925 78.3714ZM16.8662 70.0754C26.1766 72.7809 43.6052 77.749 44.9978 77.844C46.2532 77.844 52.6887 70.7504 56.5711 66.1409L49.3918 56.9747L43.2254 68.0501C43.2004 68.0954 43.1625 68.1322 43.1164 68.1557C43.0703 68.1792 43.0182 68.1884 42.9669 68.182L21.4713 65.7928C20.4555 66.3952 19.3978 66.924 18.3063 67.375C17.873 68.2993 17.3923 69.2006 16.8662 70.0754Z" fill="#231F20"/>
<path d="M67.886 58.7468C67.886 58.7468 59.7045 70.6608 53.5802 76.304L43.5577 65.4975C43.5577 65.4975 53.4694 46.9804 57.2305 43.9953C63.1912 42.0334 67.886 58.7468 67.886 58.7468Z" fill="#231F20"/>
<path d="M53.5802 76.5677C53.5067 76.5658 53.4367 76.5355 53.385 76.4833L43.3625 65.6768C43.3248 65.6374 43.3008 65.5868 43.2941 65.5326C43.2875 65.4785 43.2985 65.4236 43.3256 65.3762C43.7265 64.6167 53.3059 46.7747 57.0406 43.7896C57.0645 43.7714 57.0912 43.7572 57.1197 43.7474C57.5875 43.5966 58.0817 43.5454 58.5705 43.5972C59.0593 43.6489 59.5319 43.8025 59.9577 44.0481C64.6524 46.5427 67.9651 58.1824 68.1023 58.6729C68.1136 58.7102 68.1161 58.7496 68.1097 58.788C68.1033 58.8264 68.0881 58.8628 68.0653 58.8944C67.9862 59.0105 59.7994 70.8981 53.7226 76.4991C53.6824 76.5347 53.6331 76.5584 53.5802 76.5677ZM43.89 65.4659L53.596 75.9401C59.3036 70.5869 66.7835 59.8648 67.6011 58.7046C67.2372 57.4546 63.9983 46.78 59.7467 44.5174C59.3918 44.307 58.9966 44.1734 58.5868 44.1253C58.177 44.0771 57.7617 44.1155 57.3676 44.2379C53.8545 47.0859 44.8817 63.62 43.89 65.4659Z" fill="#231F20"/>
<path d="M21.3236 65.2549C21.3236 65.2549 19.261 60.7983 18.5542 60.9829C17.8473 61.1675 0.619187 66.0302 0.819637 66.9479C1.02009 67.8655 1.79551 69.0047 3.98464 69.0575C6.17376 69.1102 15.4208 70.0806 16.4969 70.2177C17.6381 68.1655 19.3037 66.4529 21.3236 65.2549Z" fill="#231F20"/>
<path d="M16.4706 70.4971H16.4336C15.3312 70.3547 6.09465 69.4423 3.953 69.3421C1.47903 69.2525 0.787999 67.8443 0.566449 67.011C0.476774 66.6471 0.365998 66.1935 9.25965 63.4405C13.659 62.0798 18.1427 60.8035 18.4909 60.7296C19.2505 60.5398 20.6009 63.0186 21.5609 65.144C21.5877 65.2053 21.5907 65.2744 21.5692 65.3378C21.5478 65.4012 21.5034 65.4543 21.4449 65.4868C19.4613 66.6655 17.8237 68.3464 16.6974 70.36C16.676 70.4016 16.6434 70.4364 16.6034 70.4606C16.5633 70.4848 16.5174 70.4975 16.4706 70.4971ZM1.09923 66.9635C1.32605 67.7916 2.01707 68.7462 3.96882 68.8147C6.03662 68.8886 14.6401 69.7588 16.3229 69.9539C17.4499 67.9872 19.0511 66.3337 20.9807 65.144C20.0998 63.2823 18.9656 61.3203 18.5911 61.2412C16.4389 61.8055 2.11203 65.9615 1.09923 66.9635Z" fill="#231F20"/>
<path d="M28.756 74.0256H28.6875C28.6537 74.0164 28.6222 74.0007 28.5946 73.9792C28.567 73.9578 28.5439 73.9311 28.5268 73.9007C28.5096 73.8703 28.4986 73.8367 28.4945 73.802C28.4904 73.7673 28.4932 73.7322 28.5028 73.6986L30.5548 66.489C30.5642 66.4544 30.5803 66.4219 30.6021 66.3935C30.624 66.3651 30.6513 66.3413 30.6824 66.3234C30.7135 66.3055 30.7479 66.2939 30.7834 66.2893C30.819 66.2847 30.8551 66.2871 30.8898 66.2965C30.9244 66.3058 30.9569 66.3219 30.9853 66.3438C31.0137 66.3657 31.0375 66.393 31.0554 66.4241C31.0733 66.4552 31.0849 66.4895 31.0895 66.5251C31.0941 66.5606 31.0917 66.5968 31.0823 66.6314L29.0092 73.8357C28.9941 73.8909 28.9609 73.9395 28.9151 73.9739C28.8693 74.0083 28.8133 74.0264 28.756 74.0256Z" fill="#231F20"/>
<path d="M13.4586 62.718L12.5301 60.9091L11.1428 61.3204L11.2905 63.6041L13.4586 62.718Z" fill="#231F20"/>
<path d="M11.2905 63.8836C11.2422 63.8846 11.1946 63.8718 11.1534 63.8466C11.1181 63.8246 11.0886 63.7945 11.0675 63.7586C11.0464 63.7228 11.0342 63.6825 11.032 63.6409L10.8791 61.3573C10.8755 61.2976 10.8924 61.2384 10.9269 61.1895C10.9614 61.1407 11.0115 61.105 11.069 61.0883L12.4563 60.677C12.5147 60.6604 12.577 60.6645 12.6327 60.6885C12.6885 60.7125 12.7342 60.755 12.7622 60.8088L13.6959 62.6178C13.7101 62.6511 13.7175 62.687 13.7175 62.7233C13.7175 62.7595 13.7101 62.7954 13.6959 62.8288C13.6833 62.8631 13.6636 62.8944 13.6382 62.9208C13.6127 62.9471 13.5821 62.9678 13.5482 62.9817L11.3802 63.8677C11.3513 63.8775 11.321 63.8828 11.2905 63.8836ZM11.4171 61.5366L11.5279 63.2401L13.1104 62.602L12.3983 61.2465L11.4171 61.5366Z" fill="#231F20"/>
<path d="M17.6363 61.4523L16.7079 59.6433L15.3206 60.06L15.4683 62.3383L17.6363 61.4523Z" fill="#231F20"/>
<path d="M15.4525 62.6022C15.4038 62.6011 15.3563 62.5865 15.3154 62.56C15.2798 62.5383 15.2501 62.5082 15.2289 62.4723C15.2078 62.4365 15.1958 62.3959 15.194 62.3543L15.0411 60.0759C15.0372 60.0169 15.0533 59.9583 15.0868 59.9095C15.1203 59.8607 15.1692 59.8246 15.2257 59.807L16.6183 59.3903C16.6767 59.3747 16.7386 59.3793 16.7941 59.4032C16.8496 59.4271 16.8955 59.469 16.9242 59.5222L17.8526 61.3364C17.8682 61.3694 17.8762 61.4054 17.8762 61.4419C17.8762 61.4784 17.8682 61.5144 17.8526 61.5474C17.84 61.5811 17.8202 61.6117 17.7947 61.6372C17.7693 61.6626 17.7387 61.6824 17.7049 61.6951L15.5369 62.5811C15.5105 62.5938 15.4818 62.6009 15.4525 62.6022ZM15.5791 60.25L15.6899 61.9588L17.2724 61.3206L16.5761 59.9599L15.5791 60.25Z" fill="#231F20"/>
<path d="M4.82338 65.7453L3.88971 63.9363L2.50238 64.353L2.65536 66.6313L4.82338 65.7453Z" fill="#231F20"/>
<path d="M2.65534 66.8952C2.58805 66.8953 2.52326 66.8697 2.47422 66.8236C2.42519 66.7775 2.39563 66.7145 2.39159 66.6473L2.26499 64.3689C2.26326 64.3096 2.28084 64.2513 2.31508 64.2028C2.34933 64.1543 2.39839 64.1182 2.45489 64.1L3.84222 63.6833C3.90135 63.6664 3.9645 63.6703 4.02113 63.6943C4.07776 63.7183 4.12446 63.7609 4.15344 63.8152L5.08184 65.6294C5.09606 65.6628 5.10339 65.6986 5.10339 65.7349C5.10339 65.7711 5.09606 65.807 5.08184 65.8404C5.06659 65.8785 5.0423 65.9123 5.01105 65.939C4.97981 65.9656 4.94255 65.9843 4.90249 65.9933L2.73447 66.8793C2.7094 66.8898 2.68251 66.8952 2.65534 66.8952ZM2.77667 64.543L2.89272 66.2517L4.47522 65.6136L3.77892 64.2529L2.77667 64.543Z" fill="#231F20"/>
<path d="M59.3405 11.5811C59.3405 11.5811 49.9141 9.67723 46.5117 10.5263C45.52 10.7848 33.3875 27.7407 33.3875 27.7407C33.3875 27.7407 28.2866 31.691 29.1675 33.405C30.0484 35.1191 32.9919 37.5926 34.2737 37.7719C35.1757 37.8932 36.141 36.9914 38.0981 34.8027C38.7258 34.1012 38.8893 29.9558 38.8893 29.9558L50.3783 17.5619L56.9509 18.9911" fill="white"/>
<path d="M34.4425 38.0409C34.374 38.0461 34.3052 38.0461 34.2368 38.0409C32.8336 37.8457 29.8058 35.2773 28.9301 33.5316C28.0545 31.7859 32.554 28.0888 33.2187 27.5667C36.0988 23.5373 45.4461 10.5422 46.4484 10.289C49.8666 9.42406 59.0082 11.2541 59.3932 11.3438C59.4279 11.3507 59.4608 11.3644 59.4902 11.3841C59.5195 11.4037 59.5447 11.429 59.5643 11.4583C59.5839 11.4877 59.5975 11.5207 59.6043 11.5553C59.6112 11.59 59.6112 11.6256 59.6042 11.6602C59.5973 11.6949 59.5836 11.7278 59.564 11.7571C59.5443 11.7865 59.5191 11.8117 59.4897 11.8313C59.4603 11.8509 59.4273 11.8645 59.3927 11.8713C59.358 11.8782 59.3224 11.8781 59.2877 11.8712C59.1928 11.8712 49.8771 9.98838 46.575 10.8164C45.7732 11.2014 38.2036 21.5121 33.6249 27.92C33.6102 27.9418 33.5924 27.9613 33.5721 27.9781C31.6678 29.4548 28.851 32.1973 29.4049 33.3101C30.2436 34.9925 33.1712 37.3764 34.3106 37.5293C35.086 37.6348 36.0408 36.7277 37.9029 34.6497C38.3143 34.1909 38.5623 31.5327 38.6256 29.9664C38.6267 29.9035 38.6511 29.8434 38.6941 29.7976L50.1884 17.4037C50.219 17.3697 50.2581 17.3445 50.3016 17.3306C50.3452 17.3167 50.3917 17.3146 50.4363 17.3245L57.0089 18.7538C57.0427 18.7607 57.0748 18.7742 57.1033 18.7937C57.1318 18.8132 57.1561 18.8381 57.1748 18.8671C57.1935 18.8961 57.2062 18.9286 57.2121 18.9625C57.218 18.9965 57.2171 19.0313 57.2094 19.065C57.1942 19.1328 57.1533 19.1922 57.0952 19.2305C57.0372 19.2689 56.9666 19.2832 56.8982 19.2707L50.4732 17.8678L39.1478 30.0613C39.1109 30.9526 38.9262 34.2805 38.2932 34.9767C36.4628 37.0283 35.4395 38.0409 34.4425 38.0409Z" fill="#231F20"/>
<path d="M93.2851 30.4782L100.865 36.5591L114.348 29.8242C114.348 29.8242 116.374 26.1324 117.35 25.7948C118.326 25.4573 122.709 22.8045 123.368 25.9478C123.637 27.2557 124.576 30.3832 120.029 33.5213C118.8 34.2858 117.452 34.8418 116.041 35.1668C116.041 35.1668 104.394 43.679 101.134 45.2929C98.9135 46.3846 87.9468 35.8471 87.9468 35.8471L93.2851 30.4782Z" fill="white"/>
<path d="M100.786 45.6196C97.8269 45.6196 88.8383 37.0652 87.7675 36.0367C87.7182 35.9877 87.6899 35.9216 87.6883 35.8521C87.6875 35.8167 87.6941 35.7815 87.7077 35.7488C87.7214 35.7161 87.7417 35.6866 87.7675 35.6623L93.1005 30.2933C93.1489 30.2496 93.2119 30.2254 93.2772 30.2254C93.3425 30.2254 93.4054 30.2496 93.4539 30.2933L100.907 36.2477L114.153 29.6024C114.501 28.9801 116.263 25.879 117.26 25.5256C117.397 25.4781 117.613 25.3779 117.877 25.2566C119.133 24.6712 121.237 23.6744 122.582 24.3653C122.863 24.5167 123.104 24.7314 123.288 24.9923C123.471 25.2532 123.59 25.5532 123.637 25.8684L123.674 26.0636C124.001 27.5403 124.671 30.6203 120.193 33.7162C118.948 34.4968 117.583 35.067 116.152 35.4038C115.255 36.0578 104.426 43.9478 101.25 45.5141C101.107 45.5867 100.947 45.6229 100.786 45.6196ZM88.3266 35.8416C92.5466 39.8657 99.5465 45.7831 101.018 45.0553C104.22 43.4731 115.788 35.0347 115.883 34.9556C115.914 34.9345 115.948 34.9185 115.983 34.9081C117.359 34.5936 118.676 34.0594 119.882 33.3259C124.07 30.4304 123.448 27.5825 123.152 26.2165L123.11 26.0214C123.086 25.7799 123.003 25.5479 122.87 25.3449C122.737 25.142 122.557 24.9742 122.345 24.8558C121.227 24.2968 119.18 25.2408 118.099 25.7471C117.819 25.879 117.571 25.9844 117.434 26.0425C116.796 26.2692 115.324 28.5582 114.575 29.9452C114.552 29.9927 114.513 30.0302 114.464 30.0507L100.981 36.7909C100.935 36.8118 100.885 36.8199 100.835 36.8144C100.784 36.8088 100.737 36.7898 100.696 36.7593L93.3115 30.826L88.3266 35.8416Z" fill="#231F20"/>
<path d="M67.6011 12.6833C84.6974 16.3752 101.493 34.7235 101.493 34.7235L93.2218 42.7031L86.57 37.1601C84.9875 40.4141 76.9643 52.7395 76.9643 52.7395C76.9643 52.7395 65.7338 51.3788 57.241 43.9952C56.5975 45.6302 66.3721 16.3224 67.6011 12.6833Z" fill="#7800FF"/>
<path d="M76.7058 18.1155C76.7058 18.1155 74.5431 24.149 78.1353 26.4696C81.026 28.3366 82.4872 24.6026 82.4872 24.6026L76.7058 18.1155Z" fill="#231F20"/>
<path d="M79.6967 27.2607C79.0857 27.2394 78.4939 27.0415 77.9929 26.6911C74.2687 24.2862 76.3629 18.2843 76.4579 18.0312C76.4729 17.988 76.4987 17.9493 76.5329 17.9189C76.567 17.8884 76.6084 17.8672 76.653 17.8571C76.6981 17.8494 76.7444 17.8531 76.7877 17.8678C76.831 17.8826 76.87 17.9079 76.901 17.9415L82.7035 24.4286C82.7352 24.4648 82.7564 24.509 82.7648 24.5564C82.7731 24.6038 82.7684 24.6526 82.751 24.6975C82.7193 24.7767 81.9703 26.6489 80.4511 27.1447C80.2069 27.2212 79.9526 27.2603 79.6967 27.2607ZM76.8166 18.643C76.4209 20.0353 75.4451 24.4444 78.283 26.2481C78.5619 26.4621 78.8866 26.6087 79.2316 26.6764C79.5766 26.7441 79.9326 26.7311 80.2717 26.6384C81.3267 26.3008 81.9808 25.0562 82.1813 24.6501L76.8166 18.643Z" fill="#231F20"/>
<path d="M73.3351 53.6835C73.3351 53.6835 91.2964 57.5124 93.111 60.9616C94.9256 64.4108 87.0395 99.1666 87.0395 99.1666L79.3169 101.329L81.5008 69.2524L71.4361 64.2104" fill="white"/>
<path d="M79.3169 101.572C79.2547 101.573 79.1944 101.55 79.1481 101.508C79.1162 101.481 79.0909 101.447 79.0744 101.409C79.058 101.37 79.0507 101.329 79.0532 101.287L81.2265 69.3843L71.32 64.4109C71.2571 64.3795 71.2092 64.3243 71.1869 64.2575C71.1647 64.1908 71.1699 64.1179 71.2013 64.0549C71.2328 63.992 71.288 63.9441 71.3548 63.9219C71.4216 63.8996 71.4944 63.9048 71.5574 63.9363L81.6221 68.9782C81.6685 69.0013 81.7069 69.0378 81.7322 69.0829C81.7576 69.1281 81.7689 69.1798 81.7645 69.2314L79.6018 100.939L86.818 98.9347C89.5451 86.9046 94.2768 63.72 92.8789 61.0672C91.1435 57.7657 73.4617 53.9631 73.2823 53.9209C73.2477 53.9136 73.2148 53.8996 73.1856 53.8796C73.1564 53.8597 73.1314 53.8341 73.112 53.8045C73.0927 53.7749 73.0794 53.7417 73.0728 53.707C73.0663 53.6722 73.0667 53.6365 73.074 53.6018C73.0812 53.5672 73.0953 53.5343 73.1152 53.5051C73.1352 53.4759 73.1607 53.4509 73.1904 53.4316C73.22 53.4122 73.2532 53.3989 73.2879 53.3924C73.3227 53.3859 73.3585 53.3862 73.3931 53.3935C74.1316 53.5517 91.4969 57.2857 93.3484 60.8088C95.1999 64.3318 87.6198 97.8007 87.298 99.2195C87.2875 99.2655 87.2649 99.308 87.2324 99.3423C87.1999 99.3766 87.1588 99.4016 87.1134 99.4146L79.3855 101.556L79.3169 101.572Z" fill="#231F20"/>
<path d="M76.9643 52.7398L83.8534 55.688L77.7872 68.7517C77.7872 68.7517 61.1815 66.0356 56.8612 56.5688C54.0338 50.3612 57.241 43.9955 57.241 43.9955L76.9643 52.7398Z" fill="#231F20"/>
<path d="M77.7872 69.0151H77.745C74.7054 68.4489 71.7272 67.5923 68.8513 66.4572C64.5258 64.7432 58.8921 61.6526 56.6239 56.6792C53.7754 50.4347 56.972 43.9477 57.0037 43.8844C57.0333 43.8231 57.086 43.776 57.1502 43.7533C57.2144 43.7306 57.2849 43.7341 57.3465 43.7631L77.0698 52.5074L83.9536 55.4451C84.0181 55.4745 84.069 55.5272 84.0961 55.5927C84.1105 55.6251 84.1179 55.6602 84.1179 55.6956C84.1179 55.731 84.1105 55.7661 84.0961 55.7984L78.0298 68.8622C78.009 68.9088 77.9748 68.9482 77.9317 68.9754C77.8885 69.0026 77.8382 69.0164 77.7872 69.0151ZM57.3677 44.3696C56.8402 45.5457 54.651 51.1151 57.1039 56.4999C61.0654 65.1809 75.7616 68.1555 77.6342 68.4983L83.5 55.8248L76.864 52.9821L57.3677 44.3696Z" fill="#231F20"/>
<path d="M80.1767 88.9721C80.1068 88.9721 80.0397 88.9443 79.9902 88.8948C79.9408 88.8454 79.913 88.7783 79.913 88.7084C79.913 88.6384 79.9408 88.5714 79.9902 88.5219C80.0397 88.4725 80.1068 88.4447 80.1767 88.4447H89.2972C89.3672 88.4447 89.4342 88.4725 89.4837 88.5219C89.5332 88.5714 89.561 88.6384 89.561 88.7084C89.5596 88.7779 89.5314 88.8442 89.4822 88.8934C89.433 88.9425 89.3667 88.9707 89.2972 88.9721H80.1767Z" fill="#231F20"/>
<path d="M64.2568 64.2265H64.183C64.1091 64.2265 56.5184 61.9692 55.2946 51.5688C55.2869 51.4989 55.3073 51.4288 55.3513 51.3739C55.3953 51.319 55.4594 51.2838 55.5293 51.2761C55.5993 51.2684 55.6694 51.2888 55.7243 51.3329C55.7792 51.3769 55.8144 51.4409 55.8221 51.5108C56.9984 61.5684 64.2621 63.7202 64.3254 63.7413C64.3927 63.7609 64.4497 63.8061 64.4842 63.8672C64.5187 63.9283 64.528 64.0004 64.51 64.0682C64.4887 64.1171 64.4532 64.1584 64.408 64.1866C64.3628 64.2149 64.3101 64.2288 64.2568 64.2265Z" fill="white"/>
<path d="M116.516 26.5173C117.727 25.8256 119.05 25.3525 120.425 25.1197C120.557 25.0822 120.695 25.0731 120.83 25.0931C120.966 25.1131 121.096 25.1617 121.211 25.2357C121.314 25.3472 121.376 25.4897 121.388 25.6406C121.401 25.7915 121.362 25.9423 121.28 26.069C121.106 26.3165 120.879 26.522 120.615 26.6703C119.676 27.2926 118.748 27.9343 117.83 28.5953C117.683 28.6795 117.569 28.8117 117.508 28.9697C117.49 29.0655 117.49 29.164 117.508 29.2598C117.71 30.486 117.434 31.7429 116.738 32.7723" fill="white"/>
<path d="M116.733 33.0359C116.68 33.0349 116.628 33.0184 116.585 32.9884C116.528 32.9489 116.489 32.8886 116.476 32.8205C116.463 32.7524 116.478 32.682 116.516 32.6245C117.18 31.6547 117.446 30.4674 117.26 29.3072C117.233 29.1749 117.233 29.0386 117.26 28.9063C117.329 28.6849 117.477 28.4969 117.677 28.3789C118.589 27.7197 119.534 27.071 120.472 26.4434C120.704 26.3127 120.904 26.1327 121.058 25.916C121.11 25.8436 121.137 25.757 121.137 25.6681C121.137 25.5792 121.11 25.4926 121.058 25.4202C120.937 25.3095 120.699 25.3306 120.483 25.3622C119.138 25.5917 117.843 26.0559 116.659 26.7334C116.598 26.7566 116.53 26.7568 116.469 26.7341C116.408 26.7113 116.357 26.6671 116.326 26.6097C116.295 26.5523 116.286 26.4856 116.301 26.422C116.315 26.3584 116.353 26.3023 116.405 26.2641C117.646 25.5614 118.999 25.0796 120.404 24.8401C120.574 24.7949 120.752 24.788 120.926 24.8199C121.099 24.8518 121.263 24.9217 121.406 25.0247C121.553 25.1765 121.646 25.3734 121.668 25.5838C121.69 25.7942 121.64 26.0059 121.527 26.1849C121.337 26.4685 121.082 26.7034 120.784 26.8706C119.845 27.4982 118.911 28.1416 118.004 28.7956C117.93 28.8483 117.803 28.938 117.788 29.0118C117.781 29.0696 117.781 29.128 117.788 29.1859C118.003 30.4835 117.713 31.8146 116.975 32.904C116.951 32.9463 116.915 32.981 116.872 33.0043C116.83 33.0275 116.781 33.0385 116.733 33.0359Z" fill="#231F20"/>
<path d="M79.3275 99.6625C79.3275 99.6625 84.671 100.506 87.3455 97.69C87.8693 98.6683 88.5856 99.5304 89.4513 100.225C90.3171 100.919 91.3143 101.431 92.3831 101.73C96.1231 102.859 99.3461 103.913 99.325 104.831C99.3039 105.749 97.6053 106.361 97.6053 106.361C97.6053 106.361 81.0524 109.182 78.4624 107.51C75.8723 105.838 79.3275 99.6625 79.3275 99.6625Z" fill="#231F20"/>
<path d="M82.1074 108.296C80.3456 108.296 78.9424 108.138 78.32 107.732C75.5611 105.944 78.953 99.8208 79.1007 99.5307C79.1276 99.485 79.1676 99.4485 79.2156 99.4259C79.2636 99.4033 79.3173 99.3957 79.3697 99.4041C79.4224 99.4041 84.6077 100.19 87.1556 97.5107C87.1858 97.4793 87.2232 97.4557 87.2645 97.4419C87.3059 97.4281 87.3499 97.4246 87.393 97.4316C87.4352 97.44 87.4749 97.4582 87.5088 97.4848C87.5427 97.5114 87.5699 97.5455 87.5881 97.5846C88.1002 98.5253 88.7952 99.3542 89.6322 100.023C90.4692 100.691 91.4314 101.185 92.4622 101.477C97.3099 102.938 99.6151 103.813 99.5835 104.842C99.5518 105.87 97.8849 106.54 97.695 106.608C97.1411 106.703 87.72 108.296 82.1074 108.296ZM79.4699 99.9473C78.9424 100.902 76.4632 105.912 78.5995 107.289C80.5829 108.565 91.8661 107.073 97.5579 106.102C97.906 105.97 99.0401 105.427 99.056 104.826C99.056 104.019 94.5036 102.642 92.304 101.983C90.1976 101.384 88.3983 100.005 87.2716 98.1278C84.7449 100.459 80.4352 100.069 79.4752 99.9473H79.4699Z" fill="#231F20"/>
<path d="M79.5912 16.2276C78.5995 15.331 78.4466 13.8543 78.3938 12.6096C78.2567 9.57179 78.1564 5.95382 80.2506 3.48557C82.4345 0.917126 87.2294 -0.206241 90.4208 0.600684C94.8993 1.72405 97.3363 6.76602 94.5775 10.711C94.05 11.481 93.7282 11.7658 92.842 11.5179C91.9558 11.27 91.1593 10.9483 90.252 11.4019C89.4741 11.8682 88.8378 12.5373 88.411 13.3374C87.9859 14.123 87.4532 14.8455 86.8285 15.484C85.494 16.7075 83.3945 16.7497 81.6801 16.8552C81.3075 16.8999 80.9296 16.8673 80.5702 16.7593C80.2108 16.6513 79.8775 16.4703 79.5912 16.2276Z" fill="#FFBF08"/>
<path d="M81.4269 17.1294C80.6892 17.1566 79.9687 16.902 79.4119 16.4175C78.3885 15.4945 78.1933 14.0441 78.13 12.6149C78.0034 9.78801 77.8346 5.91688 80.0501 3.31152C82.3922 0.558481 87.3349 -0.448858 90.4841 0.336971C91.6342 0.615952 92.6996 1.16953 93.5889 1.95028C94.4782 2.73103 95.1649 3.71568 95.5903 4.81989C95.9648 5.81425 96.0881 6.88567 95.9492 7.9391C95.8102 8.99252 95.4133 9.99536 94.7937 10.8586C94.2663 11.6234 93.8601 12.0611 92.7734 11.7658L92.4675 11.6708C91.729 11.4546 91.096 11.2753 90.3839 11.6234C89.6531 12.0714 89.0557 12.707 88.6537 13.464L88.5165 13.6855C88.1191 14.412 87.62 15.0779 87.0342 15.6633C85.7155 16.871 83.7796 16.987 82.0757 17.0873H81.7223L81.4269 17.1294ZM79.7653 16.0324C80.0277 16.2524 80.3329 16.4157 80.6615 16.5119C80.9902 16.6081 81.3352 16.6352 81.6748 16.5915H82.0283C83.6477 16.4966 85.4834 16.3911 86.6597 15.3099C87.208 14.7549 87.6767 14.1266 88.0523 13.4429L88.1895 13.2214C88.6302 12.3597 89.3048 11.6396 90.1359 11.1434C91.0274 10.7004 91.8239 10.9272 92.5994 11.1434L92.9106 11.2278C93.6385 11.4282 93.8495 11.2647 94.3612 10.5316C94.9274 9.74226 95.2913 8.82604 95.421 7.86333C95.5507 6.90061 95.4422 5.92078 95.105 5.00975C94.7092 3.98453 94.0704 3.07071 93.2435 2.34681C92.4166 1.6229 91.4262 1.11057 90.3575 0.853826C87.4246 0.120738 82.6349 1.09116 80.451 3.6596C78.3674 6.10675 78.5362 9.85657 78.6575 12.6254C78.7156 13.9387 78.8896 15.2624 79.7653 16.0588V16.0324Z" fill="#231F20"/>
<path d="M92.0877 13.7803C92.0877 13.7803 92.8684 17.5882 92.2037 18.047C91.5391 18.5058 90.3417 17.5196 90.3417 17.5196" fill="white"/>
<path d="M91.7765 18.4162C91.1929 18.345 90.6429 18.1048 90.194 17.7253C90.1665 17.7042 90.1435 17.6778 90.1264 17.6476C90.1093 17.6174 90.0985 17.5841 90.0946 17.5497C90.0906 17.5152 90.0937 17.4803 90.1035 17.4471C90.1133 17.4138 90.1297 17.3829 90.1518 17.3561C90.1953 17.3018 90.2585 17.2669 90.3277 17.259C90.3969 17.2511 90.4663 17.2708 90.521 17.3139C90.7953 17.5354 91.6604 18.0892 92.0719 17.8097C92.3462 17.6198 92.2407 15.7528 91.845 13.812C91.8324 13.7436 91.8468 13.673 91.8852 13.615C91.9235 13.5569 91.9829 13.516 92.0508 13.5008C92.0847 13.4939 92.1197 13.4937 92.1537 13.5003C92.1877 13.5069 92.2201 13.5201 92.249 13.5392C92.2779 13.5583 92.3028 13.5829 92.3221 13.6116C92.3415 13.6403 92.3551 13.6726 92.362 13.7065C92.6046 14.9037 93.1005 17.7411 92.362 18.2422C92.1891 18.3584 91.9848 18.4191 91.7765 18.4162Z" fill="#231F20"/>
<path d="M94.1344 6.8926C94.9837 8.43261 92.8684 13.2214 92.2829 14.6085C91.4635 16.6021 90.6001 18.5746 89.6928 20.5259C89.1126 21.7653 85.821 20.4732 85.3937 19.8614L82.1496 24.8559C82.1496 24.8559 81.2159 26.2904 79.0584 24.0015C76.901 21.7126 76.7058 18.0999 76.7058 18.0999L80.6093 13.9545C80.6093 13.9545 82.772 14.8405 85.093 12.7731C87.414 10.7057 88.9543 6.72383 88.9543 6.72383C88.9543 6.72383 93.3009 5.38423 94.1344 6.8926Z" fill="white"/>
<path d="M81.2317 25.5785C80.5249 25.5785 79.7284 25.1144 78.8685 24.1967C76.6741 21.8656 76.4473 18.2845 76.442 18.1316C76.44 18.0961 76.445 18.0606 76.4568 18.0271C76.4686 17.9937 76.4869 17.9628 76.5106 17.9364L80.4194 13.7805C80.4562 13.7427 80.5033 13.7165 80.5549 13.7052C80.6065 13.694 80.6603 13.6981 80.7095 13.7172C80.7939 13.7541 82.7562 14.5136 84.9295 12.5886C87.1767 10.5897 88.7064 6.6764 88.7222 6.63421C88.7368 6.59752 88.7596 6.56465 88.7889 6.53814C88.8181 6.51163 88.8531 6.49217 88.891 6.48126C89.3552 6.33359 93.475 5.11002 94.3823 6.75551C95.1261 8.11094 93.9498 11.3386 92.7049 14.3237L92.5466 14.7035C91.729 16.6918 90.8533 18.6853 89.946 20.6315C89.8398 20.8348 89.6787 21.0042 89.481 21.1208C89.2834 21.2373 89.0571 21.2961 88.8277 21.2907C87.6249 21.2882 86.4513 20.9204 85.4623 20.2359L82.387 24.9825C82.27 25.1423 82.1198 25.275 81.9469 25.3714C81.7739 25.4679 81.5822 25.526 81.3847 25.5416L81.2317 25.5785ZM76.9748 18.1949C77.0328 18.8066 77.3968 21.8445 79.2536 23.817C80.2453 24.8718 80.9205 25.0564 81.3109 25.03C81.431 25.0224 81.5482 24.9892 81.6546 24.9329C81.761 24.8765 81.8542 24.7981 81.928 24.703L85.1774 19.698C85.2004 19.6612 85.2323 19.6309 85.2701 19.6097C85.3079 19.5885 85.3504 19.5771 85.3937 19.5767C85.4358 19.5773 85.4773 19.5876 85.5148 19.6068C85.5523 19.626 85.5849 19.6536 85.61 19.6874C85.8474 20.0249 87.6145 20.8477 88.775 20.7422C88.9109 20.7494 89.0463 20.7199 89.167 20.6568C89.2876 20.5937 89.3891 20.4993 89.4607 20.3836C90.368 18.4427 91.2384 16.4544 92.0508 14.4767L92.209 14.0917C92.8737 12.5095 94.6355 8.29025 93.9128 6.98757C93.3431 5.93277 90.3364 6.5762 89.1653 6.91901C88.8858 7.62045 87.4246 11.0486 85.2829 12.9578C83.2257 14.7878 81.2898 14.4134 80.7042 14.2393L76.9748 18.1949Z" fill="#231F20"/>
<path d="M90.2415 19.0175C89.5892 18.8281 89.0049 18.4557 88.558 17.9444C88.1111 17.433 87.8202 16.8042 87.72 16.1326" fill="white"/>
<path d="M90.2414 19.2811H90.1781C89.4749 19.0766 88.8442 18.6765 88.3596 18.1275C87.8749 17.5785 87.5561 16.9031 87.4404 16.18C87.4306 16.1101 87.449 16.0391 87.4916 15.9827C87.5341 15.9264 87.5973 15.8892 87.6672 15.8794C87.7372 15.8696 87.8082 15.888 87.8646 15.9305C87.921 15.9731 87.9581 16.0362 87.9679 16.1062C88.0648 16.7238 88.337 17.3006 88.7522 17.7681C89.1674 18.2356 89.7081 18.574 90.31 18.7432C90.3782 18.7607 90.4368 18.8041 90.4732 18.8642C90.5097 18.9244 90.5212 18.9964 90.5052 19.0649C90.494 19.1263 90.4613 19.1818 90.413 19.2214C90.3647 19.261 90.3039 19.2822 90.2414 19.2811Z" fill="#231F20"/>
<path d="M87.72 13.501C87.8672 12.9839 87.8672 12.436 87.72 11.9188C87.6626 11.5037 87.5416 11.0999 87.3613 10.7216C87.2704 10.5328 87.1384 10.3666 86.9751 10.2352C86.8117 10.1038 86.6211 10.0105 86.4171 9.96218C86.2295 9.93256 86.0378 9.94461 85.8555 9.99748C85.6731 10.0504 85.5047 10.1427 85.3621 10.2681C85.096 10.5123 84.8855 10.8109 84.7449 11.1436C84.4098 11.8821 84.2748 12.6958 84.3535 13.503C84.4322 14.3102 84.7218 15.0825 85.1933 15.7425L85.1353 15.579" fill="white"/>
<path d="M85.1933 16.0008C85.1524 16.0003 85.1122 15.9906 85.0756 15.9724C85.039 15.9541 85.0071 15.9277 84.9823 15.8953C84.4851 15.1959 84.1796 14.3785 84.0963 13.5245C84.013 12.6705 84.1548 11.8096 84.5075 11.0274C84.6685 10.6484 84.916 10.3125 85.2302 10.0464C85.4002 9.90125 85.5991 9.79378 85.8136 9.73106C86.0282 9.66833 86.2537 9.65178 86.4751 9.68248C86.7193 9.7374 86.9479 9.84714 87.1434 10.0034C87.339 10.1596 87.4965 10.3583 87.6039 10.5843C87.7992 10.9848 87.9292 11.4139 87.989 11.8554C88.1517 12.4241 88.1517 13.0271 87.989 13.5958C87.9631 13.6609 87.9127 13.7134 87.8487 13.742C87.7846 13.7705 87.712 13.773 87.6461 13.7487C87.6134 13.7365 87.5835 13.7178 87.5581 13.6939C87.5326 13.67 87.5122 13.6412 87.498 13.6093C87.4837 13.5774 87.476 13.543 87.4752 13.5081C87.4743 13.4732 87.4805 13.4385 87.4932 13.4059C87.6288 12.932 87.6288 12.4295 87.4932 11.9556C87.4404 11.5664 87.3284 11.1875 87.1608 10.8322C87.0893 10.6774 86.9839 10.5407 86.8524 10.4321C86.7209 10.3234 86.5668 10.2457 86.4012 10.2046C86.2552 10.1866 86.107 10.1994 85.9662 10.2421C85.8254 10.2848 85.6951 10.3564 85.5836 10.4525C85.3325 10.6716 85.1356 10.946 85.0086 11.2541C84.7076 11.9055 84.5713 12.6209 84.6117 13.3373C84.6522 14.0538 84.8682 14.7493 85.2407 15.3626C85.2723 15.3754 85.3009 15.3947 85.3245 15.4192C85.3481 15.4437 85.3663 15.473 85.3779 15.505L85.4412 15.6685C85.4643 15.7284 85.4647 15.7947 85.4423 15.8549C85.42 15.9151 85.3764 15.9651 85.3199 15.9955C85.2788 16.0079 85.2352 16.0097 85.1933 16.0008Z" fill="#231F20"/>
<path d="M85.3937 19.8613C85.3937 19.8613 83.9062 18.6483 83.5844 17.1663C83.5844 17.1663 81.8331 19.9563 84.1119 21.9129L85.3937 19.8613Z" fill="#231F20"/>
<path d="M84.0855 22.1503C84.0218 22.1509 83.9599 22.1285 83.9115 22.087C81.5166 20.0354 83.3418 17.0556 83.384 17.024C83.4118 16.9797 83.4524 16.9449 83.5004 16.9242C83.5485 16.9034 83.6017 16.8978 83.653 16.9079C83.7045 16.9156 83.7524 16.9389 83.7902 16.9748C83.8279 17.0107 83.8537 17.0573 83.864 17.1083C84.1647 18.4849 85.5678 19.6451 85.5836 19.6557C85.6338 19.697 85.6669 19.7554 85.6766 19.8196C85.6863 19.8839 85.672 19.9495 85.6364 20.0038L84.3282 22.029C84.3072 22.0602 84.28 22.0866 84.2482 22.1066C84.2164 22.1265 84.1807 22.1396 84.1436 22.145L84.0855 22.1503ZM83.5317 17.8573C83.1941 18.6747 82.8037 20.2306 84.0328 21.4805L85.0509 19.8983C84.4124 19.327 83.8957 18.6328 83.5317 17.8573Z" fill="#231F20"/>
<path d="M91.369 12.271C91.5902 11.9095 91.6551 11.5465 91.5139 11.4602C91.3728 11.3738 91.0791 11.5969 90.8579 11.9584C90.6367 12.3198 90.5718 12.6828 90.713 12.7692C90.8541 12.8555 91.1478 12.6325 91.369 12.271Z" fill="#231F20"/>
<path d="M92.3356 11.8607C92.299 11.861 92.2627 11.8536 92.2291 11.8391C92.1955 11.8246 92.1653 11.8032 92.1404 11.7764L91.0063 10.5739C90.9642 10.522 90.9434 10.4561 90.9481 10.3894C90.9527 10.3228 90.9825 10.2604 91.0314 10.2148C91.0803 10.1693 91.1447 10.144 91.2115 10.1441C91.2783 10.1442 91.3426 10.1696 91.3914 10.2153L92.5255 11.4177C92.5501 11.4418 92.5696 11.4705 92.5829 11.5022C92.5962 11.5339 92.6031 11.5679 92.6031 11.6023C92.6031 11.6367 92.5962 11.6707 92.5829 11.7024C92.5696 11.7341 92.5501 11.7628 92.5255 11.7869C92.4743 11.8355 92.4061 11.862 92.3356 11.8607Z" fill="#231F20"/>
<path d="M81.9966 108.096L81.7012 110.11L80.2559 110.168L79.6545 107.964L81.9966 108.096Z" fill="#231F20"/>
<path d="M80.2559 110.432C80.1979 110.433 80.1414 110.414 80.0955 110.378C80.0495 110.343 80.0169 110.293 80.0027 110.237L79.4013 108.033C79.3913 107.992 79.3908 107.949 79.4 107.908C79.4091 107.867 79.4276 107.828 79.4541 107.795C79.4805 107.764 79.5137 107.739 79.5512 107.723C79.5887 107.706 79.6294 107.699 79.6703 107.7L82.0072 107.832C82.0439 107.835 82.0797 107.846 82.1123 107.863C82.145 107.88 82.1738 107.904 82.1971 107.932C82.2207 107.96 82.2382 107.992 82.2482 108.026C82.2582 108.061 82.2606 108.097 82.2551 108.133L81.965 110.147C81.9553 110.209 81.9249 110.265 81.8787 110.306C81.8326 110.347 81.7736 110.371 81.7118 110.374L80.2664 110.432H80.2559ZM80.0079 108.243L80.451 109.9L81.4744 109.857L81.696 108.344L80.0079 108.243Z" fill="#231F20"/>
<path d="M86.0795 107.711L85.7893 109.725L84.3387 109.783L83.7426 107.579L86.0795 107.711Z" fill="#231F20"/>
<path d="M84.3387 110.047C84.281 110.047 84.2249 110.028 84.1792 109.992C84.1334 109.957 84.1005 109.908 84.0855 109.852L83.5 107.658C83.4893 107.618 83.488 107.577 83.4962 107.536C83.5045 107.496 83.522 107.458 83.5475 107.426C83.5739 107.393 83.6078 107.367 83.6463 107.349C83.6848 107.332 83.7268 107.324 83.769 107.326L86.1058 107.463C86.1426 107.464 86.1786 107.473 86.2115 107.489C86.2443 107.505 86.2731 107.529 86.2957 107.558C86.3188 107.585 86.3359 107.617 86.3459 107.652C86.3559 107.686 86.3586 107.723 86.3538 107.758L86.0584 109.773C86.0509 109.834 86.0218 109.89 85.9763 109.932C85.9308 109.974 85.872 109.998 85.8104 110L84.3598 110.058L84.3387 110.047ZM84.0908 107.864L84.5392 109.514L85.5625 109.472L85.7788 107.959L84.0908 107.864Z" fill="#231F20"/>
<path d="M96.7666 106.339L96.4765 108.349L95.0259 108.412L94.4298 106.202L96.7666 106.339Z" fill="#231F20"/>
<path d="M95.0259 108.671C94.9688 108.671 94.9133 108.652 94.8676 108.618C94.822 108.584 94.7886 108.536 94.7727 108.481L94.1766 106.271C94.1659 106.231 94.1646 106.19 94.1728 106.149C94.181 106.109 94.1986 106.071 94.2241 106.039C94.2516 106.008 94.2857 105.983 94.3241 105.966C94.3624 105.95 94.4039 105.942 94.4456 105.944L96.7824 106.076C96.8189 106.078 96.8547 106.087 96.8874 106.103C96.92 106.12 96.949 106.143 96.9723 106.171C97.0158 106.23 97.0347 106.304 97.0251 106.376L96.735 108.386C96.7274 108.447 96.6983 108.503 96.6529 108.545C96.6074 108.587 96.5486 108.611 96.487 108.613L95.0364 108.671H95.0259ZM94.7779 106.487L95.2263 108.138L96.2444 108.096L96.4659 106.582L94.7779 106.487Z" fill="#231F20"/>
<path d="M69.5423 12.9839C65.4571 11.519 61.1795 10.659 56.8454 10.4313L52.6254 20.3306L67.1475 26.7069L69.5423 12.9839Z" fill="#7800FF"/>
<path d="M68.7986 26.8178H68.7089L54.9939 21.6703C54.9612 21.6581 54.9313 21.6394 54.9058 21.6155C54.8804 21.5916 54.86 21.5628 54.8457 21.5309C54.8315 21.499 54.8238 21.4646 54.8229 21.4297C54.8221 21.3948 54.8282 21.3601 54.8409 21.3275C54.8658 21.2628 54.9151 21.2104 54.9783 21.1818C55.0415 21.1531 55.1134 21.1506 55.1785 21.1746L68.8935 26.322C68.9635 26.3346 69.0256 26.3745 69.0661 26.4328C69.1067 26.4912 69.1224 26.5633 69.1098 26.6332C69.0972 26.7031 69.0574 26.7652 68.999 26.8058C68.9406 26.8463 68.8685 26.862 68.7986 26.8494V26.8178Z" fill="#231F20"/>
<path d="M54.2712 73.8093C54.2355 73.8088 54.2003 73.8011 54.1676 73.7866C54.135 73.7721 54.1056 73.7511 54.0813 73.7249L45.1402 64.3214C45.0919 64.2703 45.0659 64.2022 45.0679 64.1319C45.0699 64.0617 45.0997 63.9951 45.1508 63.9469C45.2018 63.8986 45.27 63.8726 45.3402 63.8746C45.4104 63.8766 45.477 63.9064 45.5253 63.9574L54.4875 73.3768C54.5122 73.4014 54.5319 73.4305 54.5452 73.4627C54.5586 73.4948 54.5655 73.5293 54.5655 73.5641C54.5655 73.5989 54.5586 73.6333 54.5452 73.6655C54.5319 73.6976 54.5122 73.7268 54.4875 73.7513C54.4581 73.7766 54.4234 73.7949 54.386 73.8049C54.3485 73.815 54.3093 73.8165 54.2712 73.8093Z" fill="white"/>
<path d="M76.3576 67.5385C76.3175 67.538 76.278 67.529 76.2416 67.5121C76.2104 67.4969 76.1825 67.4757 76.1595 67.4497C76.1365 67.4237 76.1188 67.3935 76.1075 67.3606C76.0963 67.3278 76.0916 67.2931 76.0938 67.2584C76.096 67.2238 76.105 67.1899 76.1203 67.1588L81.7909 55.5559C81.8061 55.5248 81.8274 55.4969 81.8534 55.4739C81.8794 55.451 81.9097 55.4333 81.9425 55.4221C81.9753 55.4108 82.01 55.4061 82.0446 55.4083C82.0793 55.4104 82.1131 55.4194 82.1443 55.4346C82.1755 55.4499 82.2034 55.4711 82.2263 55.4971C82.2493 55.5231 82.2669 55.5534 82.2782 55.5862C82.2894 55.619 82.2941 55.6537 82.292 55.6883C82.2898 55.7229 82.2809 55.7568 82.2656 55.788L76.595 67.3908C76.5723 67.4345 76.5383 67.4712 76.4966 67.4972C76.4548 67.5231 76.4068 67.5374 76.3576 67.5385Z" fill="white"/>
<path d="M79.5701 48.9529C79.5197 48.9519 79.4705 48.9374 79.4277 48.9107C79.3687 48.8719 79.3273 48.8114 79.3125 48.7423C79.2977 48.6733 79.3106 48.6011 79.3486 48.5415C79.4224 48.4308 86.8444 37.0336 88.5904 32.7195C88.617 32.6544 88.6683 32.6026 88.7331 32.5754C88.7979 32.5482 88.8709 32.5479 88.9359 32.5744C89.001 32.601 89.0528 32.6523 89.08 32.7171C89.1072 32.7819 89.1076 32.8548 89.081 32.9199C87.3138 37.2868 80.1135 48.3675 79.7917 48.8369C79.7669 48.8727 79.7338 48.902 79.6952 48.9222C79.6566 48.9424 79.6137 48.953 79.5701 48.9529Z" fill="#231F20"/>
<path d="M153.267 88.7087C153.267 90.213 152.924 91.6975 152.264 93.0494C151.603 94.4013 150.644 95.585 149.458 96.5106C148.272 97.4362 146.89 98.0793 145.418 98.3911C143.946 98.7028 142.422 98.6751 140.963 98.31C139.503 97.9448 138.146 97.2518 136.994 96.2837C135.842 95.3156 134.927 94.0977 134.316 92.7227C133.706 91.3477 133.417 89.8516 133.471 88.3483C133.526 86.8449 133.922 85.3737 134.631 84.0464C135.707 82.0383 137.441 80.4611 139.542 79.5793C140.753 79.0712 142.054 78.8095 143.369 78.8095C144.683 78.8095 145.984 79.0712 147.196 79.5793C149.296 80.4599 151.029 82.0376 152.101 84.0464C152.872 85.4793 153.273 87.0818 153.267 88.7087Z" fill="#FFBF08"/>
<path d="M143.366 78.809C144.681 78.8044 145.984 79.0664 147.196 79.579C149.296 80.4596 151.029 82.0373 152.101 84.0461C152.925 85.5885 153.325 87.3214 153.261 89.0686C153.197 90.8157 152.671 92.5148 151.737 93.9929C150.907 95.3083 149.779 96.4097 148.444 97.2078C147.109 98.0059 145.604 98.4783 144.053 98.5866C142.501 98.6948 140.945 98.436 139.512 97.8311C138.079 97.2262 136.809 96.2922 135.804 95.1048C134.799 93.9174 134.089 92.51 133.73 90.9967C133.37 89.4835 133.373 87.9069 133.737 86.3948C134.101 84.8827 134.816 83.4776 135.825 82.2934C136.833 81.1093 138.107 80.1793 139.542 79.579C140.751 79.0668 142.052 78.8048 143.366 78.809ZM143.366 78.2816C141.982 78.2783 140.611 78.5546 139.336 79.0938C137.114 80.0251 135.284 81.6966 134.155 83.8243C133.027 85.952 132.67 88.4047 133.145 90.7658C133.62 93.1269 134.898 95.2507 136.762 96.7766C138.625 98.3024 140.96 99.1362 143.369 99.1362C145.777 99.1362 148.112 98.3024 149.976 96.7766C151.839 95.2507 153.117 93.1269 153.592 90.7658C154.068 88.4047 153.71 85.952 152.582 83.8243C151.453 81.6966 149.623 80.0251 147.401 79.0938C146.125 78.5546 144.752 78.2783 143.366 78.2816Z" fill="#231F20"/>
<path d="M143.366 85.1324L139.61 87.8644L141.045 92.284H145.692L147.127 87.8644L143.366 85.1324Z" fill="white"/>
<path d="M139.61 79.6264L138.175 84.046H134.631C135.707 82.0379 137.441 80.4607 139.542 79.5789L139.61 79.6264Z" fill="white"/>
<path d="M152.101 84.046H148.562L147.127 79.6264L147.196 79.5789C149.296 80.4595 151.029 82.0372 152.101 84.046Z" fill="white"/>
<path d="M139.61 97.7904L138.175 93.3708H134.631C135.705 95.38 137.44 96.9576 139.542 97.8378L139.61 97.7904Z" fill="white"/>
<path d="M152.101 93.3708H148.562L147.127 97.7904L147.196 97.8378C149.297 96.9591 151.03 95.381 152.101 93.3708Z" fill="white"/>
</svg>
