<svg width="139" height="107" viewBox="0 0 139 107" fill="none" xmlns="http://www.w3.org/2000/svg">
<path d="M117.063 22.2346C117.063 31.986 110.841 36.4993 103.165 36.4993C95.4883 36.4993 89.2612 31.986 89.2612 22.2346C89.2612 12.4831 95.4837 1.18823 103.165 1.18823C110.846 1.18823 117.063 12.4784 117.063 22.2346Z" fill="#7800FF"/>
<path d="M103.16 36.7098C99.1114 36.7098 95.68 35.4891 93.1835 33.1787C90.4767 30.6531 89.0415 26.8648 89.0415 22.2346C89.1079 17.1874 90.5252 12.2503 93.1461 7.93712C95.9511 3.44256 99.4995 0.968445 103.16 0.968445C106.821 0.968445 110.374 3.44256 113.169 7.93712C115.792 12.2494 117.21 17.1871 117.274 22.2346C117.274 26.8648 115.839 30.6531 113.132 33.1787C110.64 35.4891 107.213 36.7098 103.16 36.7098ZM103.16 1.39405C95.5771 1.39405 89.4716 12.7965 89.4716 22.2346C89.4716 29.0255 93.0666 36.2655 103.16 36.2655C113.253 36.2655 116.844 29.0068 116.844 22.2346C116.848 12.8105 110.743 1.39405 103.16 1.39405V1.39405Z" fill="#231F20"/>
<path d="M103.646 10.0089L105.105 48.2524H101.225L103.646 10.0089Z" fill="white"/>
<path d="M105.105 48.4677H101.22C101.162 48.4671 101.106 48.4435 101.066 48.4022C101.027 48.3568 101.007 48.2982 101.009 48.2385L103.436 10.0043C103.438 9.95015 103.461 9.89899 103.501 9.86152C103.54 9.82405 103.592 9.80317 103.646 9.80322V9.80322C103.701 9.80436 103.753 9.82627 103.792 9.86449C103.831 9.90271 103.854 9.95439 103.857 10.009L105.311 48.2572C105.312 48.2854 105.308 48.3136 105.298 48.3401C105.288 48.3666 105.274 48.3909 105.254 48.4115C105.213 48.4484 105.16 48.4684 105.105 48.4677V48.4677ZM101.449 48.0421H104.88L103.595 14.2136L101.449 48.0421Z" fill="#231F20"/>
<path d="M91.2154 21.8792C91.2629 22.812 91.1811 23.7469 90.9723 24.6573C90.6901 26.3253 90.0013 27.8979 88.9667 29.236C87.8774 30.5409 86.6946 30.8543 85.1706 31.3266C83.7681 31.7522 82.4544 32.4304 81.0145 32.7858C77.7836 33.5671 74.4181 33.6087 71.169 32.9074C68.3079 32.2807 65.559 30.6812 64.0676 28.1603C62.5763 25.6394 62.5997 22.1504 64.5351 19.9476C65.3673 19.0122 66.6155 17.408 67.9385 17.3893C67.8123 16.5241 67.471 15.6682 67.6206 14.7608C67.663 14.3333 67.8268 13.9269 68.0927 13.5895C68.3587 13.2522 68.7156 12.9981 69.1213 12.8573C69.4486 12.7731 69.8833 12.7217 69.9535 12.3896C69.9668 12.2564 69.9492 12.122 69.902 11.9968C69.5187 10.5937 70.4069 9.19058 71.3326 8.04004C71.8901 7.30539 72.5702 6.67251 73.3428 6.16926C75.4419 4.91583 79.4203 4.81294 81.3698 6.26747C82.0267 6.75908 82.5706 7.38581 82.9649 8.10545C83.3593 8.82509 83.5949 9.62092 83.6559 10.4393C83.5998 9.62086 87.0172 11.5805 87.3117 12.2306C88.0092 14.0075 88.0358 15.9777 87.3865 17.7728C88.8919 17.6512 90.2804 18.8064 90.8414 20.2095C91.0498 20.7439 91.1759 21.3069 91.2154 21.8792V21.8792Z" fill="#7800FF"/>
<path d="M75.844 33.6136C74.2567 33.617 72.6736 33.4492 71.1222 33.1132C67.9339 32.421 65.2972 30.6531 63.8853 28.2679C62.2678 25.5318 62.4828 21.9727 64.3528 19.8072L64.5912 19.536C65.3907 18.6006 66.4612 17.3659 67.6721 17.1975C67.6393 17.0151 67.5973 16.8327 67.5599 16.6503C67.3889 16.0264 67.3303 15.3771 67.3869 14.7327C67.4371 14.2637 67.6205 13.8189 67.9155 13.4509C68.2104 13.0829 68.6045 12.8071 69.0512 12.6562L69.1868 12.6234C69.4813 12.5533 69.6963 12.4925 69.7244 12.3475C69.7302 12.265 69.7191 12.1823 69.6917 12.1043V12.0575C69.2616 10.472 70.3275 8.92863 71.1643 7.90905C71.74 7.14794 72.4421 6.49141 73.24 5.96811C75.3157 4.73339 79.3783 4.5089 81.5054 6.08036C82.135 6.55043 82.6656 7.1403 83.0668 7.8161C83.4679 8.49189 83.7317 9.2403 83.8429 10.0184C84.675 9.9903 87.2369 11.5056 87.5174 12.1277C88.2014 13.8559 88.2674 15.7675 87.7044 17.5389C89.2472 17.581 90.5375 18.8251 91.0517 20.1159C91.2692 20.6758 91.4001 21.2657 91.4398 21.8651C91.4908 22.8166 91.409 23.7705 91.1967 24.6993C90.91 26.4042 90.2048 28.0113 89.1443 29.3763C88.0691 30.6578 86.9284 31.0132 85.4791 31.4575L85.2454 31.5277C84.6704 31.7054 84.086 31.9346 83.5203 32.1591C82.7264 32.4909 81.9111 32.7691 81.08 32.9916C79.3663 33.4106 77.6081 33.6195 75.844 33.6136V33.6136ZM77.4475 5.40687C76.0605 5.37577 74.6883 5.69763 73.4597 6.34227C72.7073 6.83934 72.0449 7.4609 71.5009 8.18031C70.7248 9.1157 69.7337 10.5515 70.0984 11.9219C70.1522 12.0715 70.1714 12.2314 70.1545 12.3896C70.0657 12.8105 69.6169 12.9181 69.2943 12.9929L69.1634 13.0256C68.7988 13.1544 68.4787 13.3849 68.2409 13.6899C68.0031 13.9949 67.8577 14.3616 67.8217 14.7468C67.7695 15.3411 67.825 15.94 67.9853 16.5147C68.0414 16.7812 68.1022 17.0478 68.1396 17.3144C68.144 17.3453 68.1418 17.3767 68.1329 17.4066C68.124 17.4365 68.1087 17.4641 68.0881 17.4875C68.068 17.51 68.0436 17.5282 68.0163 17.5411C67.989 17.5539 67.9594 17.5612 67.9292 17.5623C66.8212 17.5623 65.7226 18.8485 64.9232 19.7745L64.6847 20.0458C62.9036 22.0756 62.7166 25.4243 64.2453 27.9966C65.5917 30.2836 68.1302 31.9767 71.2064 32.6455C74.4233 33.3371 77.7543 33.2972 80.9537 32.5286C81.765 32.3064 82.5613 32.033 83.338 31.7101C83.913 31.4856 84.5021 31.2424 85.0958 31.0694L85.3295 30.9992C86.732 30.5736 87.8026 30.2369 88.7937 29.0489C89.8088 27.7392 90.4834 26.1982 90.7572 24.5637C90.9591 23.6729 91.0378 22.7586 90.991 21.8464V21.8464C90.9561 21.29 90.8347 20.7424 90.631 20.2235C90.1401 18.9888 88.8685 17.8008 87.3912 17.9177C87.3555 17.9204 87.3197 17.9141 87.287 17.8994C87.2544 17.8847 87.2259 17.8621 87.2042 17.8336C87.1837 17.8048 87.1705 17.7714 87.1656 17.7364C87.1607 17.7014 87.1643 17.6658 87.1762 17.6324C87.8072 15.8907 87.7823 13.9786 87.106 12.2539C86.8723 11.7348 84.3478 10.2896 83.8335 10.3832C83.826 10.4342 83.8003 10.4808 83.7613 10.5145C83.7222 10.5481 83.6724 10.5667 83.6208 10.5667C83.5693 10.5667 83.5194 10.5481 83.4804 10.5145C83.4413 10.4808 83.4157 10.4342 83.4081 10.3832C83.3512 9.59571 83.1255 8.82974 82.7464 8.13732C82.3672 7.4449 81.8435 6.84224 81.2109 6.37033C80.0828 5.67556 78.7705 5.33961 77.4475 5.40687V5.40687Z" fill="#231F20"/>
<path d="M85.1051 17.3284L78.6817 21.5844L78.3544 10.8835L77.7327 13.2173L77.5924 25.022L70.5285 18.7689L70.4443 19.4471L77.5223 26.2895L76.6481 42.5887H79.3268L78.7425 23.5254L84.5114 18.7689L85.1051 17.3284Z" fill="white"/>
<path d="M79.3175 42.8039H76.6387C76.5908 42.799 76.5462 42.7775 76.5125 42.7431C76.4722 42.7001 76.4503 42.643 76.4517 42.5841L77.3072 26.3737L70.2947 19.6015C70.2715 19.5777 70.2539 19.5489 70.2434 19.5173C70.2328 19.4857 70.2296 19.4521 70.234 19.4191L70.3181 18.7409C70.3226 18.7024 70.3376 18.6658 70.3615 18.6353C70.3854 18.6048 70.4173 18.5814 70.4537 18.5679C70.4906 18.5535 70.5307 18.5499 70.5696 18.5573C70.6085 18.5647 70.6445 18.583 70.6734 18.61L77.382 24.5497L77.5176 13.2128C77.515 13.1957 77.515 13.1784 77.5176 13.1613L78.1347 10.8228C78.1488 10.7734 78.1802 10.7307 78.223 10.7024C78.2659 10.6741 78.3175 10.6621 78.3685 10.6685C78.4197 10.6732 78.4674 10.6969 78.502 10.735C78.5366 10.7731 78.5557 10.8228 78.5555 10.8743L78.8734 21.1917L84.9789 17.1461C85.0159 17.1201 85.06 17.1062 85.1052 17.1062C85.1503 17.1062 85.1944 17.1201 85.2314 17.1461C85.2672 17.175 85.2926 17.215 85.3036 17.2598C85.3146 17.3046 85.3106 17.3517 85.2921 17.394L84.6984 18.8345C84.687 18.868 84.6658 18.8973 84.6377 18.9187L78.9482 23.5956L79.5325 42.556C79.5331 42.5845 79.5281 42.6128 79.5176 42.6393C79.5072 42.6658 79.4916 42.6899 79.4718 42.7104C79.4541 42.736 79.4313 42.7576 79.4047 42.7737C79.3781 42.7898 79.3484 42.8001 79.3175 42.8039V42.8039ZM76.8631 42.3783H79.0978L78.5181 23.5348C78.5178 23.5019 78.5248 23.4694 78.5386 23.4395C78.5523 23.4095 78.5724 23.383 78.5975 23.3618L84.3244 18.638L84.633 17.8897L78.7892 21.7623C78.7564 21.7807 78.7194 21.7904 78.6817 21.7904C78.644 21.7904 78.607 21.7807 78.5742 21.7623C78.5402 21.7438 78.5117 21.7168 78.4912 21.6841C78.4707 21.6513 78.459 21.6138 78.4573 21.5752L78.1861 12.3429L77.9477 13.2408L77.8075 25.0174C77.8055 25.059 77.7923 25.0992 77.7692 25.1338C77.7462 25.1684 77.7142 25.1961 77.6766 25.2139C77.6395 25.2298 77.5987 25.2347 77.5589 25.2281C77.5191 25.2215 77.482 25.2035 77.4522 25.1764L70.6921 19.1899L70.6687 19.363L77.6812 26.1305C77.7039 26.1511 77.7215 26.1765 77.7329 26.2048C77.7442 26.2332 77.7489 26.2638 77.7467 26.2942L76.8631 42.3783Z" fill="#231F20"/>
<path d="M55.4002 52.6301C55.4002 52.6301 56.3352 45.6661 75.1895 41.9994C94.0437 38.3327 114.029 46.4004 121.004 52.9996C127.98 59.5988 129.419 65.8285 129.419 65.8285C129.419 65.8285 102.487 87.2724 90.0279 83.0584C77.569 78.8445 55.4002 52.6301 55.4002 52.6301Z" fill="#231F20"/>
<path d="M93.7258 83.8162C92.4566 83.8334 91.1932 83.6422 89.9858 83.2503C77.5924 79.0691 55.475 53.0325 55.2459 52.7659C55.2273 52.7442 55.2135 52.7188 55.2054 52.6914C55.1973 52.664 55.1952 52.6352 55.1992 52.6069C55.2366 52.3122 56.3492 45.4511 75.1474 41.7984C93.7352 38.1878 113.796 45.8954 121.131 52.8501C128.059 59.3978 129.602 65.7164 129.616 65.7819C129.625 65.8193 129.623 65.8586 129.611 65.8951C129.599 65.9315 129.576 65.9637 129.546 65.9877C128.545 66.7874 106.989 83.8162 93.7258 83.8162ZM55.6246 52.5648C56.9616 54.1362 78.1628 78.8166 90.0934 82.8528C101.912 86.8516 127.325 67.1943 129.186 65.7398C128.929 64.8278 127.143 59.1032 120.85 53.14C113.576 46.2462 93.6791 38.6087 75.2269 42.196C57.8966 45.5727 55.8209 51.7791 55.6246 52.5648Z" fill="#231F20"/>
<path d="M33.6007 101.935C33.6007 101.935 48.4625 83.6056 50.4541 83.0584C52.4456 82.5112 70.435 93.6891 92.4075 89.84C114.38 85.9909 138.026 71.3286 137.844 67.4795C137.662 63.6303 134.104 60.5108 130.785 60.5108C127.465 60.5108 96.615 70.7767 96.615 70.7767C96.615 70.7767 73.4036 48.7202 46.2325 49.3328C29.9261 49.6976 5.74238 85.9909 5.37773 86.3557C5.01308 86.7205 33.6007 101.935 33.6007 101.935Z" fill="white"/>
<path d="M33.6006 102.14C33.5684 102.148 33.5348 102.148 33.5025 102.14C20.6275 95.2887 5.26079 86.9965 5.17664 86.4165C5.17213 86.3817 5.17568 86.3463 5.18703 86.313C5.19838 86.2798 5.21722 86.2496 5.24209 86.2248L5.70959 85.5747C13.3345 74.7241 32.5534 49.4451 46.2512 49.1364C72.333 48.5425 95.0395 69.0276 96.6898 70.5523C99.0927 69.7525 127.577 60.3144 130.817 60.3144C134.057 60.3144 137.895 63.3825 138.092 67.4888C138.293 71.6981 114.067 86.2902 92.4776 90.0692C75.8626 92.9736 61.5244 87.3238 54.6101 84.6065C52.5671 83.8021 50.9496 83.166 50.5195 83.2829C48.9206 83.7179 37.897 97.0051 33.7736 102.089C33.7502 102.11 33.7226 102.125 33.6928 102.134C33.6629 102.143 33.6315 102.145 33.6006 102.14V102.14ZM5.66284 86.3464C7.14482 87.4829 22.8902 95.9902 33.5445 101.663C35.0172 99.8534 48.411 83.3952 50.3745 82.8527C50.9168 82.703 52.1043 83.1567 54.7363 84.1903C61.5899 86.8936 75.8486 92.5153 92.3514 89.6296C114.403 85.7664 137.778 71.0153 137.61 67.4888C137.423 63.6163 133.842 60.726 130.761 60.726C127.535 60.726 96.9749 70.875 96.6664 70.9779C96.6298 70.9912 96.5902 70.9939 96.5521 70.9857C96.514 70.9774 96.4791 70.9585 96.4513 70.9311C96.2223 70.7113 72.9922 48.9494 46.2231 49.548C32.7217 49.852 13.6103 75.0047 6.01814 85.8038L5.66284 86.3464Z" fill="#231F20"/>
<path d="M59.7993 57.948C59.7993 57.948 68.9577 62.5314 75.3718 62.7138C81.7859 62.8962 96.255 62.8962 100.472 64.7296C104.689 66.563 106.881 72.7927 104.866 74.8084C102.851 76.8242 72.2582 78.6576 57.0504 76.277" fill="white"/>
<path d="M76.045 77.6237C69.0792 77.6237 62.1789 77.2963 57.0224 76.4872C56.9946 76.4832 56.9679 76.4737 56.9439 76.4593C56.9198 76.4448 56.8989 76.4257 56.8824 76.403C56.8658 76.3804 56.854 76.3546 56.8475 76.3273C56.8411 76.3 56.8401 76.2717 56.8448 76.244C56.8487 76.2162 56.8582 76.1895 56.8727 76.1655C56.8871 76.1414 56.9062 76.1205 56.9289 76.1039C56.9515 76.0874 56.9773 76.0755 57.0046 76.069C57.0319 76.0626 57.0602 76.0616 57.0879 76.0663C72.7725 78.5217 102.936 76.4451 104.721 74.6632C105.357 74.0271 105.568 72.8392 105.296 71.3893C104.866 69.107 103.146 66.1044 100.392 64.907C96.83 63.359 85.8999 63.1298 78.6349 62.9801C77.4148 62.9568 76.2974 62.9334 75.3624 62.9053C68.9764 62.7229 59.79 58.1629 59.6965 58.1208C59.6465 58.0939 59.6088 58.0487 59.5914 57.9946C59.574 57.9406 59.5781 57.8819 59.603 57.8308C59.629 57.7811 59.6733 57.7435 59.7266 57.726C59.7799 57.7086 59.8378 57.7126 59.8882 57.7373C59.9817 57.784 69.0839 62.302 75.3718 62.4797C76.3068 62.5078 77.4148 62.5312 78.6443 62.5545C85.9233 62.7042 96.9235 62.9334 100.561 64.5142C103.459 65.7723 105.264 68.9199 105.703 71.3098C106.007 72.9 105.759 74.1908 105.011 74.9391C103.627 76.3563 89.71 77.6237 76.045 77.6237Z" fill="#231F20"/>
<path d="M103.529 34.6987C103.529 43.3043 98.3635 47.2844 91.9868 47.2844C85.6101 47.2844 80.4442 43.3043 80.4442 34.6987C80.4442 26.0931 85.6147 16.1265 91.9868 16.1265C98.3588 16.1265 103.529 26.0978 103.529 34.6987Z" fill="#7800FF"/>
<path d="M91.9868 47.4994C83.3193 47.4994 80.2525 40.8722 80.2525 34.6986C80.2964 30.2678 81.4694 25.9215 83.6606 22.0708C85.9981 18.0954 88.9527 15.9019 92.0055 15.9019C95.0582 15.9019 98.0175 18.1047 100.355 22.0801C102.548 25.9305 103.722 30.2768 103.768 34.7079C103.744 40.8722 100.654 47.4994 91.9868 47.4994ZM91.9868 16.3415C85.7129 16.3415 80.6592 26.3829 80.6592 34.6986C80.6592 42.3314 84.9976 47.0691 91.9868 47.0691C98.9759 47.0691 103.314 42.3314 103.314 34.6986C103.314 26.3736 98.2606 16.3415 91.9868 16.3415V16.3415Z" fill="#231F20"/>
<path d="M64.1658 37.5798L58.266 44.1462H77.8963L72.0011 37.5798H76.1525L71.197 30.6392H74.4882L68.0835 19.335L61.6787 30.6392H64.9699L60.0097 37.5798H64.1658Z" fill="#7800FF"/>
<path d="M77.915 44.3566H58.28C58.239 44.3576 58.1986 44.3461 58.1644 44.3235C58.1301 44.3009 58.1036 44.2684 58.0883 44.2303C58.0702 44.1932 58.0636 44.1515 58.0694 44.1107C58.0753 44.0698 58.0932 44.0316 58.1211 44.0011L63.703 37.7948H60.0097C59.9709 37.794 59.9331 37.7827 59.9001 37.7621C59.8672 37.7415 59.8405 37.7124 59.8228 37.6779C59.8021 37.6441 59.7912 37.6052 59.7912 37.5656C59.7912 37.526 59.8021 37.4872 59.8228 37.4534L64.5398 30.8495H61.6647C61.6272 30.8506 61.5901 30.8416 61.5572 30.8235C61.5243 30.8054 61.4969 30.7789 61.4777 30.7466C61.4593 30.7138 61.4496 30.6767 61.4496 30.639C61.4496 30.6014 61.4593 30.5643 61.4777 30.5315L67.8825 19.2319C67.9029 19.2011 67.9307 19.1757 67.9633 19.1582C67.996 19.1407 68.0324 19.1315 68.0695 19.1315C68.1065 19.1315 68.1429 19.1407 68.1756 19.1582C68.2082 19.1757 68.236 19.2011 68.2565 19.2319L74.6612 30.5315C74.679 30.5641 74.688 30.6008 74.6874 30.6379C74.6868 30.6751 74.6765 30.7114 74.6577 30.7435C74.6389 30.7755 74.6121 30.8021 74.5799 30.8207C74.5478 30.8392 74.5113 30.8492 74.4742 30.8495H71.5991L76.3162 37.4534C76.3379 37.4861 76.3505 37.5241 76.3526 37.5633C76.3547 37.6026 76.3462 37.6417 76.3281 37.6765C76.3099 37.7114 76.2828 37.7408 76.2494 37.7616C76.2161 37.7824 76.1778 37.7938 76.1385 37.7948H72.464L78.0412 44.0011C78.0687 44.0317 78.0869 44.0696 78.0935 44.1102C78.1001 44.1508 78.095 44.1925 78.0786 44.2303C78.0645 44.2636 78.0421 44.2928 78.0134 44.3149C77.9847 44.337 77.9508 44.3514 77.915 44.3566ZM58.7475 43.931H77.4195L71.8375 37.7246C71.8101 37.693 71.7921 37.6544 71.7855 37.613C71.7789 37.5717 71.7839 37.5294 71.8001 37.4908C71.8172 37.4531 71.8448 37.4211 71.8797 37.3987C71.9145 37.3763 71.955 37.3644 71.9965 37.3645H75.7365L71.0194 30.7606C70.9991 30.7276 70.9884 30.6895 70.9884 30.6507C70.9884 30.6119 70.9991 30.5739 71.0194 30.5408C71.0379 30.5059 71.0654 30.4766 71.0992 30.456C71.1329 30.4354 71.1716 30.4244 71.2111 30.4239H74.1376L68.0975 19.7698L62.0574 30.4239H64.984C65.0234 30.423 65.0623 30.4333 65.0963 30.4535C65.1302 30.4737 65.1577 30.503 65.1758 30.5381C65.1938 30.5732 65.2016 30.6127 65.1983 30.6521C65.195 30.6914 65.1806 30.7291 65.1569 30.7606L60.4258 37.3645H64.1658C64.2075 37.3645 64.2483 37.3766 64.2833 37.3994C64.3182 37.4221 64.3458 37.4546 64.3626 37.4927C64.3795 37.5309 64.3849 37.5731 64.3781 37.6143C64.3714 37.6555 64.3529 37.6938 64.3248 37.7246L58.7475 43.931Z" fill="#231F20"/>
<path d="M68.6725 51.0074H66.8352L68.0835 23.6658L68.6725 51.0074Z" fill="white"/>
<path d="M68.6725 51.2178H66.8352C66.7831 51.2176 66.7329 51.1975 66.695 51.1617C66.6751 51.1413 66.6596 51.1171 66.6491 51.0906C66.6387 51.0641 66.6336 51.0358 66.6342 51.0073L67.8824 23.6658C67.886 23.6112 67.9102 23.5601 67.9502 23.5227C67.9901 23.4853 68.0428 23.4646 68.0975 23.4647V23.4647C68.1529 23.4647 68.2063 23.486 68.2463 23.5244C68.2864 23.5627 68.3101 23.6151 68.3125 23.6705L68.9016 51.012C68.9022 51.0405 68.8971 51.0688 68.8867 51.0953C68.8762 51.1218 68.8606 51.1459 68.8408 51.1664C68.8175 51.1856 68.7907 51.2001 68.7618 51.2089C68.7329 51.2177 68.7026 51.2207 68.6725 51.2178ZM67.0596 50.7922H68.4621L67.9946 30.0171L67.0596 50.7922Z" fill="#231F20"/>
<path d="M124.889 38.1597C125.164 38.7559 125.311 39.4029 125.322 40.0592C125.332 40.7155 125.206 41.3668 124.95 41.9715C123.973 44.2211 121.444 46.0311 119.593 47.523C115.951 50.4508 110.71 50.5817 106.657 48.407C105.095 47.5133 103.676 46.3891 102.449 45.0723C101.697 44.3715 101.065 43.5514 100.579 42.6449C100.146 41.6955 99.9937 40.642 100.139 39.6087C100.285 38.5753 100.723 37.6052 101.402 36.8128C101.65 36.5322 102.375 36.1954 102.519 35.9008C102.8 35.3395 102.435 35.4331 102.412 34.8297C102.37 33.7961 102.211 33.0572 102.646 32.0236C102.914 31.2729 103.403 30.6208 104.048 30.1528C104.684 29.7599 105.862 30.2463 106.231 29.9751C106.676 29.6523 106.619 28.0248 107.232 27.4261C107.589 27.087 108.024 26.8419 108.499 26.7129C108.974 26.5839 109.474 26.575 109.953 26.6872C109.298 25.111 110.747 23.2543 112.43 22.9877C114.113 22.7211 115.787 23.6144 117.054 24.7602C118.508 26.0792 119.672 28.0856 119.06 29.9517C119.279 29.2829 122.482 31.598 122.72 31.8739C123.987 33.3331 123.753 34.8017 123.099 36.5509C123.491 36.6824 123.853 36.8931 124.161 37.1698C124.469 37.4465 124.717 37.7834 124.889 38.1597V38.1597Z" fill="#7800FF"/>
<path d="M112.58 50.1139C110.477 50.1115 108.407 49.5893 106.554 48.5939C104.982 47.6839 103.551 46.5477 102.309 45.2218C101.54 44.5032 100.893 43.6644 100.392 42.7383C99.9391 41.7491 99.7787 40.6506 99.9304 39.573C100.082 38.4954 100.539 37.4839 101.248 36.6583C101.412 36.5009 101.592 36.3613 101.786 36.242C101.995 36.1205 102.18 35.962 102.332 35.7743C102.449 35.5405 102.426 35.4984 102.361 35.3721C102.263 35.1989 102.209 35.0048 102.202 34.8062C102.202 34.6191 102.202 34.4414 102.174 34.273C102.063 33.4824 102.16 32.6766 102.454 31.9345C102.739 31.1377 103.268 30.4506 103.964 29.9702C104.418 29.764 104.926 29.7083 105.413 29.8112C105.65 29.8661 105.896 29.8661 106.133 29.8112C106.312 29.5279 106.425 29.2084 106.465 28.8758C106.488 28.4938 106.594 28.1214 106.774 27.7839C106.954 27.4463 107.205 27.1516 107.51 26.9199C107.814 26.6882 108.165 26.5249 108.538 26.4411C108.911 26.3573 109.298 26.355 109.672 26.4344C109.53 25.7868 109.641 25.1094 109.981 24.5403C110.235 24.0871 110.585 23.6957 111.008 23.3941C111.431 23.0925 111.915 22.8882 112.426 22.7957C114.488 22.4684 116.315 23.7966 117.222 24.6198C118.564 25.8358 119.784 27.7533 119.396 29.6475C120.397 29.7784 122.758 31.5791 122.907 31.7521C124.169 33.202 124.039 34.6799 123.403 36.4291C124.147 36.751 124.745 37.3376 125.081 38.0754V38.0754C125.367 38.6998 125.52 39.3766 125.531 40.0632C125.543 40.7499 125.412 41.4314 125.147 42.0648C124.258 44.1087 122.108 45.8064 120.383 47.1767L119.724 47.7006C117.686 49.2944 115.166 50.1457 112.58 50.1139V50.1139ZM104.806 30.2181C104.592 30.2066 104.379 30.2518 104.188 30.349C103.571 30.7868 103.102 31.404 102.847 32.1169C102.578 32.8033 102.492 33.5481 102.599 34.2777C102.599 34.4507 102.622 34.6331 102.632 34.8202C102.633 34.9568 102.67 35.0905 102.739 35.2084C102.813 35.3279 102.851 35.4665 102.847 35.6071C102.842 35.7477 102.797 35.8839 102.716 35.9988C102.534 36.251 102.297 36.4588 102.024 36.6068C101.857 36.7061 101.7 36.8221 101.556 36.9529C100.9 37.714 100.477 38.6478 100.337 39.6429C100.197 40.6381 100.346 41.6525 100.766 42.5653C101.248 43.4487 101.869 44.2493 102.604 44.9365C103.817 46.2333 105.214 47.3443 106.75 48.2337C110.925 50.4693 116.03 50.1045 119.448 47.3685L120.107 46.8447C121.888 45.4416 123.898 43.8421 124.744 41.9011C124.987 41.3244 125.107 40.7037 125.097 40.0783C125.087 39.4528 124.948 38.8361 124.688 38.2671C124.534 37.9178 124.308 37.6041 124.027 37.3458C123.745 37.0874 123.413 36.89 123.052 36.7658C123.025 36.7566 122.999 36.7419 122.978 36.7226C122.956 36.7033 122.938 36.6798 122.926 36.6536C122.905 36.5994 122.905 36.5394 122.926 36.4852C123.59 34.7454 123.763 33.3937 122.585 32.0421C121.851 31.2002 119.429 30.0263 119.265 30.0778C119.258 30.1034 119.245 30.1272 119.227 30.1475C119.21 30.1678 119.188 30.1842 119.164 30.1957C119.14 30.2072 119.113 30.2134 119.086 30.214C119.06 30.2147 119.033 30.2097 119.008 30.1994C118.955 30.1766 118.913 30.1342 118.89 30.0811C118.868 30.028 118.866 29.9681 118.887 29.9141V29.9141C119.48 28.0947 118.27 26.1725 116.937 24.9471C116.086 24.1754 114.38 22.9314 112.491 23.226C112.044 23.3106 111.621 23.4916 111.251 23.7566C110.882 24.0215 110.574 24.364 110.35 24.7601C110.18 25.0379 110.076 25.351 110.046 25.6753C110.016 25.9997 110.061 26.3266 110.177 26.6309C110.193 26.6677 110.198 26.7081 110.192 26.7477C110.186 26.7872 110.17 26.8244 110.144 26.8553C110.118 26.8842 110.083 26.9055 110.046 26.917C110.008 26.9285 109.968 26.9298 109.929 26.9208C109.485 26.8182 109.023 26.8273 108.583 26.9473C108.143 27.0673 107.74 27.2944 107.41 27.6083C107.133 28.0127 106.958 28.4781 106.9 28.9647C106.778 29.5025 106.676 29.9655 106.404 30.162C106.087 30.3068 105.729 30.3398 105.39 30.2555C105.196 30.2329 105.001 30.2204 104.806 30.2181V30.2181Z" fill="#231F20"/>
<path d="M118.709 35.7417L112.762 39.6797L112.459 29.7786L111.888 31.9346L111.757 42.86L105.222 37.0746L105.142 37.7013L111.692 44.0339L110.883 59.1218H113.361L112.819 41.4803L118.162 37.0746L118.709 35.7417Z" fill="white"/>
<path d="M113.361 59.3322H110.883C110.854 59.3327 110.826 59.3272 110.799 59.3159C110.772 59.3046 110.748 59.2879 110.729 59.2667C110.708 59.2463 110.691 59.2214 110.681 59.194C110.67 59.1665 110.666 59.137 110.668 59.1077L111.477 44.1414L104.993 37.8743C104.969 37.8514 104.952 37.8234 104.941 37.7926C104.931 37.7618 104.928 37.7289 104.932 37.6966L105.011 37.0652C105.016 37.0268 105.031 36.9903 105.055 36.9599C105.079 36.9294 105.11 36.9062 105.147 36.8926C105.183 36.8791 105.222 36.8758 105.26 36.8832C105.298 36.8905 105.333 36.9082 105.362 36.9342L111.547 42.4109L111.673 31.9533C111.671 31.9362 111.671 31.9189 111.673 31.9018L112.244 29.7411C112.258 29.6925 112.289 29.6506 112.332 29.6229C112.374 29.5951 112.425 29.5833 112.476 29.5894C112.526 29.5956 112.572 29.6193 112.607 29.6565C112.641 29.6937 112.662 29.7418 112.664 29.7925L112.959 39.3101L118.569 35.5686C118.605 35.5412 118.649 35.5265 118.695 35.5265C118.741 35.5265 118.785 35.5412 118.821 35.5686C118.857 35.5962 118.883 35.6353 118.894 35.6795C118.905 35.7237 118.901 35.7703 118.882 35.8118L118.335 37.1447C118.322 37.1773 118.301 37.2062 118.274 37.2289L113.015 41.5691L113.576 59.1124C113.577 59.1409 113.573 59.1695 113.562 59.1961C113.552 59.2227 113.536 59.2468 113.515 59.2667C113.495 59.2876 113.471 59.3042 113.445 59.3155C113.418 59.3267 113.39 59.3324 113.361 59.3322V59.3322ZM111.107 58.9066H113.141L112.608 41.4849C112.606 41.4522 112.612 41.4194 112.625 41.3893C112.638 41.3592 112.658 41.3327 112.683 41.3119L117.984 36.9436L118.246 36.3028L112.884 39.8573C112.851 39.8781 112.813 39.8891 112.774 39.8891C112.735 39.8891 112.697 39.8781 112.664 39.8573C112.631 39.8394 112.604 39.8131 112.584 39.7811C112.564 39.7491 112.553 39.7125 112.552 39.6749L112.29 31.2283L112.099 31.9533L111.972 42.8506C111.971 42.8917 111.958 42.9317 111.935 42.9656C111.912 42.9996 111.879 43.0263 111.841 43.0423C111.804 43.0583 111.764 43.0632 111.724 43.0566C111.684 43.05 111.647 43.032 111.617 43.0049L105.381 37.5048V37.6217L111.855 43.8795C111.878 43.9012 111.895 43.9274 111.907 43.9565C111.918 43.9856 111.923 44.0167 111.921 44.0479L111.107 58.9066Z" fill="#231F20"/>
<path d="M92.2205 21.4815L92.9311 54.6084H91.0471L92.2205 21.4815Z" fill="white"/>
<path d="M92.9264 54.8237H91.0564C91.0276 54.824 90.999 54.8183 90.9725 54.807C90.9459 54.7958 90.922 54.7792 90.9021 54.7583C90.882 54.7371 90.8662 54.7122 90.8557 54.6849C90.8453 54.6576 90.8404 54.6285 90.8414 54.5992L92.0195 21.4723C92.0218 21.4177 92.0449 21.366 92.084 21.3278C92.123 21.2896 92.1752 21.2677 92.2298 21.2665V21.2665C92.2856 21.2665 92.3392 21.2887 92.3786 21.3282C92.4181 21.3677 92.4402 21.4212 92.4402 21.477L93.1461 54.6039C93.1467 54.6324 93.1417 54.6607 93.1312 54.6872C93.1208 54.7137 93.1052 54.7378 93.0854 54.7583C93.0652 54.78 93.0405 54.7971 93.0131 54.8084C92.9856 54.8197 92.9561 54.8249 92.9264 54.8237V54.8237ZM91.2668 54.3935H92.7114L92.1691 29.0022L91.2668 54.3935Z" fill="#231F20"/>
<path d="M45.1479 91.9307L15.7422 70.0425L1.15149 88.1657L31.5016 105.817L45.1479 91.9307Z" fill="#231F20"/>
<path d="M31.5016 106.022C31.4659 106.023 31.4304 106.015 31.3987 105.999L1.04864 88.3433C1.02317 88.3283 1.00121 88.308 0.984271 88.2838C0.96733 88.2596 0.955801 88.232 0.950467 88.203C0.945691 88.1735 0.946959 88.1434 0.954193 88.1145C0.961426 88.0855 0.974474 88.0583 0.992542 88.0346L15.5785 69.9161C15.6118 69.8738 15.6602 69.8462 15.7135 69.8392C15.7668 69.8322 15.8207 69.8464 15.8637 69.8787L45.2695 91.7668C45.2932 91.7841 45.313 91.8062 45.3275 91.8317C45.342 91.8572 45.3509 91.8855 45.3536 91.9148C45.3562 91.944 45.3526 91.9735 45.3429 92.0012C45.3333 92.0289 45.3178 92.0543 45.2975 92.0755L31.6325 105.961C31.5976 105.997 31.5511 106.018 31.5016 106.022V106.022ZM1.46472 88.1094L31.4689 105.559L44.8347 91.9539L15.7749 70.337L1.46472 88.1094Z" fill="#231F20"/>
<path d="M35.9756 36.2233C42.9933 36.2233 48.6822 30.5319 48.6822 23.5113C48.6822 16.4907 42.9933 10.7993 35.9756 10.7993C28.9579 10.7993 23.2689 16.4907 23.2689 23.5113C23.2689 30.5319 28.9579 36.2233 35.9756 36.2233Z" fill="#FFBF08"/>
<path d="M35.9756 36.4573C33.4168 36.4545 30.9163 35.6929 28.7901 34.2687C26.6639 32.8446 25.0075 30.8217 24.0302 28.4559C23.0529 26.0902 22.7987 23.4876 23.2996 20.9773C23.8005 18.467 25.034 16.1616 26.8443 14.3525C28.6546 12.5434 30.9604 11.3118 33.4702 10.8134C35.98 10.315 38.5812 10.5722 40.9449 11.5525C43.3086 12.5327 45.3288 14.192 46.7501 16.3206C48.1714 18.4493 48.93 20.9517 48.93 23.5115C48.9263 26.9462 47.5598 30.239 45.1308 32.6664C42.7018 35.0938 39.4089 36.4573 35.9756 36.4573V36.4573ZM35.9756 11.038C33.5091 11.0408 31.0988 11.7751 29.0493 13.1481C26.9999 14.5211 25.4034 16.4712 24.4617 18.7518C23.5199 21.0324 23.2752 23.5411 23.7584 25.9608C24.2417 28.3806 25.4311 30.6026 27.1765 32.3461C28.9219 34.0897 31.1448 35.2763 33.5643 35.7561C35.9837 36.2359 38.491 35.9873 40.7692 35.0418C43.0475 34.0962 44.9943 32.4961 46.3637 30.4438C47.733 28.3915 48.4634 25.979 48.4625 23.5115C48.4588 20.2012 47.1414 17.0279 44.7999 14.6889C42.4584 12.35 39.2844 11.0368 35.9756 11.038V11.038Z" fill="#FFBF08"/>
</svg>
