<svg width="177" height="176" viewBox="0 0 177 176" fill="none" xmlns="http://www.w3.org/2000/svg">
<g filter="url(#filter0_d)">
<path d="M107.967 85.3149C107.714 85.7222 101.365 95.9396 89.5512 96.5505C82.2658 96.9167 79.6657 100.571 79.5813 100.707L75.4048 107.428L68.6159 103.209L72.8346 96.4201C73.2986 95.6733 77.6706 89.1678 89.1408 88.5789C96.6804 88.1824 101.136 81.1641 101.178 81.0962C102.199 79.3779 106.895 70.5331 97.3225 64.5847C87.7501 58.6363 81.8997 66.7639 80.79 68.474L78.7017 71.8345L71.9128 67.6158L74.0221 64.2214C77.6713 58.3489 88.0992 49.4427 101.541 57.7958C114.983 66.1488 111.616 79.4425 107.967 85.3149Z" fill="#00672A"/>
<path d="M71.1861 114.217L64.3971 109.998L60.1784 116.787L66.9674 121.006L71.1861 114.217Z" fill="#00672A"/>
</g>
<defs>
<filter id="filter0_d" x="53.1784" y="45.3882" width="58.0377" height="75.6175" filterUnits="userSpaceOnUse" color-interpolation-filters="sRGB">
<feFlood flood-opacity="0" result="BackgroundImageFix"/>
<feColorMatrix in="SourceAlpha" type="matrix" values="0 0 0 0 0 0 0 0 0 0 0 0 0 0 0 0 0 0 127 0"/>
<feOffset dx="-7" dy="-9"/>
<feColorMatrix type="matrix" values="0 0 0 0 0 0 0 0 0 0 0 0 0 0 0 0 0 0 0.06 0"/>
<feBlend mode="normal" in2="BackgroundImageFix" result="effect1_dropShadow"/>
<feBlend mode="normal" in="SourceGraphic" in2="effect1_dropShadow" result="shape"/>
</filter>
</defs>
</svg>
