<svg width="273" height="593" viewBox="0 0 273 593" fill="none" xmlns="http://www.w3.org/2000/svg">
<path d="M0.109337 329.863L5.49763 328.311C17.225 369.035 37.0967 406.279 64.5637 438.996C90.8123 470.246 122.456 495.336 158.613 513.575C268.61 569.066 401.101 552.456 496.151 471.257C516.995 453.459 535.397 433.149 550.848 410.88L555.454 414.079C539.729 436.737 520.999 457.408 499.791 475.518C403.022 558.188 268.109 575.089 156.085 518.579C119.247 499.998 87.0045 474.435 60.2675 442.6C32.2911 409.276 12.0557 371.35 0.109337 329.863Z" fill="#F08300"/>
<path d="M68.3495 276.13C65.7141 257.933 65.207 239.252 66.9155 220.401C72.6092 157.666 102.219 100.506 150.296 59.4566C154.041 56.2523 157.947 53.115 161.906 50.1327L164.605 53.7167C160.722 56.6398 156.886 59.7188 153.21 62.8648C106.029 103.153 76.9752 159.244 71.388 220.802C65.8032 282.335 84.3365 341.983 123.586 388.731C162.343 434.869 216.963 463.04 277.389 468.044C339.204 473.161 399.466 453.581 447.074 412.912C494.249 372.625 523.309 316.533 528.9 254.963C531.049 231.254 529.635 207.64 524.702 184.807L529.088 183.859C534.123 207.147 535.565 231.203 533.367 255.37C527.674 318.106 498.058 375.266 449.988 416.32C401.464 457.772 340.034 477.732 277.018 472.512C215.392 467.411 159.679 438.682 120.149 391.614C92.1462 358.275 74.4848 318.495 68.3495 276.13Z" fill="#F08300"/>
<path d="M118.275 357.719L121.676 355.547C126.56 363.198 132.021 370.634 137.901 377.636C173.567 420.097 223.831 446.013 279.436 450.62C336.319 455.33 391.767 437.315 435.575 399.889C478.988 362.815 505.727 311.202 510.867 254.545C512.129 240.673 512.057 226.705 510.663 213.044L514.681 212.636C516.101 226.559 516.173 240.78 514.89 254.914C509.648 312.622 482.411 365.204 438.194 402.96C393.56 441.09 337.06 459.445 279.097 454.644C222.409 449.953 171.166 423.522 134.802 380.229C128.818 373.092 123.252 365.514 118.275 357.719Z" fill="#F08300"/>
<path d="M104.644 269.766C102.43 254.483 102.002 238.796 103.444 222.96C108.241 170.266 133.144 122.255 173.567 87.7691C193.432 70.8169 215.923 58.1 240.42 49.9668L241.692 53.7964C217.694 61.761 195.655 74.226 176.192 90.8371C136.573 124.635 112.17 171.689 107.467 223.328C102.767 274.942 118.325 324.97 151.275 364.176C183.807 402.87 229.67 426.491 280.41 430.679C332.31 434.963 382.914 418.53 422.891 384.415C429.588 378.703 435.94 372.524 441.779 366.046L444.778 368.741C438.819 375.35 432.341 381.656 425.509 387.478C384.701 422.303 333.056 439.073 280.071 434.699C228.251 430.421 181.412 406.298 148.174 366.767C124.642 338.763 109.797 305.354 104.644 269.766Z" fill="#F08300"/>
<circle cx="255.5" cy="240.5" r="57.5" fill="#F08300"/>
</svg>
