<svg width="45" height="53" viewBox="0 0 45 53" fill="none" xmlns="http://www.w3.org/2000/svg">
<g clip-path="url(#clip0)">
<path fill-rule="evenodd" clip-rule="evenodd" d="M16.4374 46.6207L20.4104 46.9381L24.0845 47.2984C24.6504 47.3613 25.1873 47.49 25.7474 47.4271C25.9244 47.5786 26.1247 47.5386 26.4207 47.6101L26.7341 47.7731C26.7399 47.7817 26.7515 47.8074 26.7544 47.8131C26.7573 47.8217 26.766 47.8503 26.7689 47.8589C26.7718 47.8646 26.7747 47.8903 26.7805 47.9046L28.6466 47.9018L32.8053 48.3736L35.1125 48.5194C34.384 48.5823 33.6933 48.5766 32.9388 48.5509C32.5006 48.5366 30.8551 48.4165 30.4749 48.6995L36.6013 49.2142C37.3326 49.2943 38.3222 49.4115 38.5718 48.7796C38.6559 48.7053 38.6588 48.7339 38.743 48.608C38.8272 48.4794 38.7952 48.5137 38.8475 48.3879C38.981 47.9418 38.6734 47.2813 38.5921 46.8581C38.6617 46.7523 38.624 46.8466 38.6937 46.6407C38.7256 46.5492 38.7546 46.4148 38.772 46.3205C38.8098 46.1089 38.8301 45.8744 38.8533 45.6599L39.2393 42.892L39.2886 42.6175L39.4308 41.2764L39.4888 40.756L39.7123 36.95L39.9009 38.7057C40.049 38.1138 40.078 35.8263 40.0519 34.9856L39.959 34.5252C40.1563 33.879 40.1999 30.5077 40.2289 29.5126L40.2028 28.7062L40.1854 26.6817L40.1766 25.5065L40.0373 20.4252C40.0257 20.1193 40.0751 19.9305 39.9271 19.7332C40.0025 19.2986 39.9416 19.1328 39.9271 18.7153C39.9126 18.4322 40.3334 17.317 40.1621 17.0711C40.2608 16.5793 40.1099 15.8501 39.8748 15.527C39.6281 15.1867 38.9752 15.0209 38.4557 14.9465L37.321 14.6263C34.7526 14.2774 32.0508 14.2545 29.4563 14.2431L28.841 14.3317C28.5305 14.2231 28.04 14.2574 27.6802 14.2831L25.8286 14.3031C24.3863 14.3775 22.3839 14.0973 20.8515 14.0401C16.8699 13.8942 15.0996 13.8485 11.0686 14.0115C8.45376 14.1201 9.32149 13.9571 6.54998 14.3775L5.41236 14.5776C4.68393 14.6348 4.18477 14.6634 4.04837 15.3554C3.9497 15.8587 3.822 16.9853 3.89456 17.4686C3.75235 17.6573 3.73204 18.1663 3.70592 18.4894L3.27061 22.8872C3.63627 22.261 3.42732 21.1515 3.79298 20.5368L3.85393 21.2202C3.85393 21.5261 3.79879 22.0151 3.93228 22.221C3.8191 22.7328 3.88585 23.2361 3.87714 23.7536L3.88585 24.9632L3.92068 26.9934C3.91777 27.1392 3.90617 27.3194 3.91197 27.4624C3.91487 27.5481 3.91777 27.6339 3.93228 27.7168C3.97001 27.9313 3.93519 27.8112 3.99613 27.9313C3.85973 28.3831 3.9555 28.9493 3.93809 29.4125C3.92938 29.87 3.85393 30.6707 4.02805 30.9995C3.89166 31.4942 3.88295 33.4472 3.86844 34.0992C3.84232 35.16 3.78718 36.2209 3.72333 37.2789C3.59854 39.3691 3.36347 39.5664 3.24449 41.6481L3.23578 42.2429L3.22707 43.6783C3.24449 44.6477 3.19225 45.7 3.37508 45.9173C6.38456 46.7465 12.035 46.3719 16.4374 46.6207ZM12.9781 51.8449L2.53057 51.7334C0.583259 51.6333 0.591965 51.173 0.124726 49.4945C0.0753905 48.9969 -0.177092 46.4692 0.214691 45.9802C0.147943 46.452 0.313363 48.5394 0.472979 48.9369L0.560042 44.8193L0.484587 43.0779C0.609377 42.7576 0.560042 42.5117 0.55714 42.1399L0.542629 40.9762L0.574552 39.5664L0.449762 31.8831L0.475881 31.2597C0.472979 31.1282 0.481685 30.9566 0.472979 30.8308C0.455566 30.5048 0.507804 30.5963 0.377209 30.4047C0.493293 29.9386 0.44686 29.4011 0.426545 28.9121C0.429447 28.5061 0.507804 27.774 0.345286 27.4967L0.40623 26.8276C0.420741 26.1899 0.568748 23.9452 0.365601 23.5735L0.432349 23.0188C0.449762 22.5984 0.545531 21.7406 0.394622 21.4375C0.510706 21.1201 0.472979 21.0457 0.484587 20.6912L0.609377 15.7329L0.6413 14.7549L0.789308 14.3861C0.838643 14.1973 0.856056 14.0172 0.882175 13.8342C0.989553 13.4196 1.12305 12.9392 1.26815 12.5103C1.40746 12.0956 1.72669 11.5981 1.747 11.1692C1.91532 11.0834 1.79344 11.315 1.92113 10.9862C2.13588 10.4686 2.49284 9.80807 2.84109 9.43062C3.38959 8.83585 3.51148 8.85301 4.32697 8.54991C4.87257 8.55277 5.82155 8.64999 6.20463 8.31257L7.11299 8.23823C7.31904 8.20963 7.51348 8.17818 7.72823 8.14958C7.72823 8.14958 8.02715 8.10669 8.04166 8.10097L8.32897 7.98659L12.4151 7.7607C12.7315 7.75498 12.6125 7.79215 12.7866 7.66919C13.1232 7.78071 13.576 7.74068 13.962 7.74354L14.4263 7.72924L16.8495 7.72638C17.4096 7.71495 18.4428 7.83504 18.8462 7.59485C19.3076 7.69493 19.5311 7.60629 19.9693 7.62058C20.5526 7.7464 17.5402 7.93226 17.2413 7.96372L14.287 8.30971C14.078 8.36976 14.1535 8.34689 14.0577 8.3955C14.9661 8.47842 20.9734 8.33545 21.4058 8.08668C21.847 8.1839 22.1575 8.11241 22.5841 8.10955C22.9962 8.08382 24.041 8.10669 24.3079 7.96372C24.9406 8.11813 28.249 7.81503 29.2067 7.80073C32.5296 7.7464 36.1485 7.68063 39.454 7.94942C40.4756 8.03235 43.5837 8.65571 44.2193 8.58708C44.6604 9.07605 44.7242 8.61568 44.8171 9.5593L44.9216 10.0197C44.7794 10.5172 44.9245 12.7848 44.9535 13.4625L44.9941 14.3803C44.9796 15.8215 44.5617 17.3199 44.6082 18.7696C44.6604 20.4681 44.1409 22.5098 44.0451 24.2998C43.813 28.6347 43.7433 32.8467 43.4647 36.9901C43.4125 37.8536 43.1687 39.5779 43.3196 40.1155L43.1774 40.5958C43.1542 40.7817 43.1513 41.0419 43.1397 41.2364C43.1165 41.6195 43.0729 41.9998 43.0555 42.383L42.8437 44.2359L42.7305 44.9136C42.6783 45.4941 42.4461 46.1003 42.5273 46.6665L42.5883 48.2392L42.2023 49.8548L41.9934 50.3151L41.8395 50.9728C41.7641 51.0414 41.7699 51.0243 41.6857 51.1415C41.6364 51.2102 41.6219 51.2416 41.5755 51.3217C41.4971 51.4589 41.4478 51.5647 41.381 51.702C41.0154 52.2538 40.8441 52.2824 40.5278 52.6256C40.2782 52.7085 40.1766 52.7971 39.9242 52.8601C39.7907 52.8915 39.7123 52.8886 39.5933 52.9087C39.4859 52.9258 39.5208 52.9144 39.4308 52.9344C39.2219 52.983 39.3553 52.9344 39.2364 53.003C38.6066 52.8429 36.9727 53.0288 36.1717 53.0002C35.1067 52.963 34.3173 52.9659 33.2667 52.9258C31.2324 52.8486 28.9977 52.7285 26.9924 52.7371L20.1405 52.3454L15.9064 51.9879L15.1547 51.945L12.9781 51.8449ZM21.9485 46.6379L21.2985 46.655L20.541 46.7065C21.2375 46.798 22.9991 47.0439 23.5795 46.9067C23.4779 46.7465 23.7653 46.8752 23.4054 46.7494C23.327 46.7237 23.06 46.6922 22.9643 46.6808C22.6015 46.6407 22.3142 46.6407 21.9485 46.6379Z" fill="#FEFEFE"/>
<path d="M37.4284 2.56812C37.6345 2.57956 37.8115 2.70251 37.9653 2.94271C38.0785 3.14573 38.1539 3.48886 38.1917 3.96925C38.2294 4.44964 38.122 5.11303 37.8724 5.95943C37.6228 6.80583 37.3994 7.57217 37.1991 8.25558C36.9989 8.93899 36.8074 9.50802 36.6187 9.95981C36.4272 10.5117 36.2356 10.9978 36.0499 11.4181C35.5798 12.5505 35.1793 13.5713 34.8426 14.4806C34.5089 15.3899 34.2709 16.0047 34.1316 16.3278L34.0562 16.5709C33.8211 17.1542 33.5744 17.7432 33.3161 18.3437C33.0578 18.9414 32.8112 19.5647 32.5732 20.2138C31.8709 21.8637 31.1541 23.6194 30.4198 25.4838C29.6856 27.3482 28.9949 29.3841 28.3477 31.6002L28.3419 31.6974C28.3274 31.9605 28.2461 32.3694 28.0952 32.9241C27.9443 33.4788 27.7905 34.0393 27.6367 34.6112C27.4829 35.1802 27.3349 35.7035 27.1869 36.1753C27.0389 36.6471 26.9402 36.9473 26.8938 37.0789L26.888 37.1761C26.6993 37.6622 26.4904 38.1226 26.2611 38.5572C26.0318 38.9919 25.7852 39.4179 25.5182 39.8325L25.4514 39.9298C25.405 40.0584 25.2715 40.2357 25.0538 40.4559C24.8362 40.6761 24.6098 40.9048 24.3718 41.1393C24.1339 41.3738 23.8959 41.594 23.6608 41.797C23.4258 42 23.2429 42.1487 23.1152 42.2402L22.9875 42.3317C22.6799 42.712 22.1082 43.0151 21.2753 43.2382L21.2115 43.2839C20.959 43.404 20.7384 43.4841 20.5527 43.5241C20.3669 43.5641 20.187 43.6127 20.0216 43.6699C19.8533 43.7271 19.6878 43.77 19.5224 43.7929L19.4615 43.79L19.3367 43.8329C19.1684 43.8901 18.942 43.8872 18.6576 43.8243C18.3732 43.7614 18.0801 43.6642 17.7783 43.5327C17.4764 43.4011 17.1775 43.2467 16.8757 43.0666C16.5768 42.8864 16.3301 42.692 16.1357 42.4833C15.2796 41.5482 14.6614 40.5445 14.2841 39.4665C13.9069 38.3914 13.5847 37.2848 13.3148 36.1467C13.0827 35.0773 12.8911 33.9935 12.7402 32.8984C12.5922 31.8003 12.4413 30.7195 12.2904 29.6557L12.2933 29.6071C12.1366 28.6406 12.0118 27.6598 11.9189 26.6647C11.8261 25.6697 11.7419 24.6889 11.6693 23.7281C11.6055 23.3621 11.5736 23.0218 11.5678 22.7073C11.562 22.3927 11.53 22.0524 11.4662 21.6864C11.3994 21.3862 11.3646 21.086 11.3588 20.7886C11.353 20.4912 11.3182 20.1909 11.2514 19.8907C11.1789 18.9299 11.0918 17.9749 10.9961 17.0284C10.9003 16.0819 10.8161 15.1268 10.7407 14.1661C10.6797 13.7343 10.6623 13.3025 10.6826 12.8736C10.7058 12.4447 10.7058 11.9986 10.6884 11.5354L10.7552 10.2515C10.7233 10.0856 10.7145 9.85401 10.7291 9.55663C10.6971 9.35646 10.6884 9.15916 10.6971 8.96186C10.7058 8.76456 10.7174 8.56726 10.7291 8.36709L11.1586 3.63184C11.2166 3.30586 11.3066 2.92841 11.4314 2.50521C11.5562 2.08201 11.7506 1.68741 12.0176 1.3214C12.2817 0.955386 12.6386 0.649424 13.0827 0.40923C13.5267 0.166176 14.0984 0.0289225 14.8007 0.0003279C15.1722 -0.0139694 15.651 0.0517981 16.2402 0.19763C16.8293 0.343463 17.2036 0.483576 17.3604 0.623689C17.7115 1.79607 18.0511 3.39164 18.379 5.40756C18.7069 7.42347 19.0175 9.60238 19.3077 11.9443C19.5979 14.289 19.8678 16.6624 20.1145 19.07C20.3611 21.4777 20.5788 23.668 20.7645 25.6439C20.9503 27.6198 21.1041 29.2383 21.226 30.4993C21.3479 31.7603 21.4059 32.4094 21.403 32.4408L21.7454 36.5699L31.0467 9.1849C31.2759 8.70165 31.5487 8.18695 31.8651 7.64079C32.1814 7.09464 32.4977 6.54848 32.8112 6.00232C33.1652 5.5248 33.5599 5.05584 33.9952 4.59833C34.4305 4.14082 34.86 3.74907 35.2896 3.4231C35.7191 3.09712 36.1225 2.85406 36.4997 2.69108C36.8741 2.53095 37.1846 2.48805 37.4284 2.56812Z" fill="#FFBF08"/>
</g>
<defs>
<clipPath id="clip0">
<rect width="45" height="53" fill="white"/>
</clipPath>
</defs>
</svg>
