<svg width="21" height="25" viewBox="0 0 21 25" fill="none" xmlns="http://www.w3.org/2000/svg">
<g clip-path="url(#clip0)">
<path fill-rule="evenodd" clip-rule="evenodd" d="M7.67081 21.9908L9.52487 22.1405L11.2394 22.3105C11.5035 22.3402 11.7541 22.4009 12.0155 22.3712C12.0981 22.4427 12.1915 22.4238 12.3297 22.4575L12.4759 22.5344C12.4786 22.5384 12.484 22.5506 12.4854 22.5533C12.4868 22.5573 12.4908 22.5708 12.4922 22.5749C12.4935 22.5776 12.4949 22.5897 12.4976 22.5964L13.3684 22.5951L15.3091 22.8176L16.3858 22.8864C16.0459 22.9161 15.7236 22.9134 15.3714 22.9013C15.1669 22.8945 14.399 22.8379 14.2216 22.9714L17.0806 23.2142C17.4219 23.252 17.8837 23.3073 18.0002 23.0092C18.0394 22.9741 18.0408 22.9876 18.0801 22.9282C18.1193 22.8675 18.1045 22.8837 18.1288 22.8244C18.1911 22.614 18.0476 22.3024 18.0096 22.1028C18.0422 22.0529 18.0245 22.0974 18.057 22.0003C18.0719 21.9571 18.0855 21.8937 18.0936 21.8492C18.1112 21.7494 18.1207 21.6388 18.1315 21.5376L18.3117 20.232L18.3347 20.1025L18.401 19.4699L18.4281 19.2244L18.5324 17.4292L18.6204 18.2573C18.6895 17.9781 18.7031 16.8991 18.6909 16.5026L18.6475 16.2854C18.7396 15.9806 18.7599 14.3903 18.7735 13.921L18.7613 13.5406L18.7532 12.5856L18.7491 12.0313L18.6841 9.63447C18.6787 9.49014 18.7017 9.40112 18.6326 9.30806C18.6678 9.10304 18.6394 9.02481 18.6326 8.82788C18.6259 8.69435 18.8222 8.16832 18.7423 8.05232C18.7884 7.82033 18.718 7.47638 18.6083 7.32397C18.4931 7.16346 18.1884 7.08523 17.946 7.05016L17.4165 6.8991C16.2179 6.73454 14.957 6.72375 13.7463 6.71836L13.4591 6.76017C13.3142 6.70892 13.0854 6.7251 12.9174 6.73724L12.0534 6.74668C11.3803 6.78175 10.4458 6.64957 9.73072 6.62259C7.8726 6.5538 7.04647 6.53222 5.16533 6.60911C3.94509 6.66036 4.35003 6.58348 3.05666 6.78175L2.52577 6.87617C2.18584 6.90314 1.9529 6.91663 1.88924 7.24304C1.8432 7.48043 1.78361 8.01186 1.81746 8.2398C1.7511 8.32883 1.74162 8.56891 1.72943 8.72133L1.52629 10.7958C1.69693 10.5004 1.59942 9.97706 1.77006 9.68707L1.7985 10.0094C1.7985 10.1538 1.77277 10.3844 1.83507 10.4815C1.78225 10.7229 1.8134 10.9603 1.80934 11.2045L1.8134 11.775L1.82965 12.7327C1.8283 12.8014 1.82288 12.8864 1.82559 12.9539C1.82694 12.9943 1.8283 13.0348 1.83507 13.0739C1.85268 13.1751 1.83642 13.1184 1.86487 13.1751C1.80121 13.3882 1.8459 13.6552 1.83778 13.8737C1.83372 14.0896 1.7985 14.4672 1.87976 14.6223C1.81611 14.8557 1.81205 15.7769 1.80528 16.0844C1.79309 16.5848 1.76735 17.0852 1.73756 17.5843C1.67932 18.5703 1.56962 18.6633 1.5141 19.6453L1.51003 19.9258L1.50597 20.6029C1.5141 21.0602 1.48972 21.5565 1.57504 21.659C2.97947 22.0502 5.61632 21.8735 7.67081 21.9908ZM6.05647 24.4551L1.18094 24.4025C0.272191 24.3553 0.276254 24.1381 0.0582097 23.3464C0.0351863 23.1117 -0.082639 21.9193 0.100193 21.6887C0.0690442 21.9112 0.14624 22.8959 0.220727 23.0834L0.261357 21.1411L0.226145 20.3197C0.28438 20.1686 0.261357 20.0526 0.260002 19.8773L0.253231 19.3283L0.268128 18.6633L0.209893 15.0391L0.222082 14.7451C0.220727 14.683 0.22479 14.6021 0.220727 14.5427C0.212601 14.389 0.236979 14.4321 0.176035 14.3418C0.230208 14.1219 0.208539 13.8683 0.199058 13.6377C0.200413 13.4462 0.236979 13.1009 0.161138 12.97L0.189578 12.6544C0.19635 12.3536 0.26542 11.2948 0.170618 11.1195L0.201767 10.8578C0.209893 10.6596 0.254585 10.2549 0.184161 10.1119C0.238333 9.96222 0.220727 9.92715 0.226145 9.7599L0.28438 7.42108L0.299278 6.95979L0.368348 6.7858C0.391371 6.69678 0.399497 6.6118 0.411686 6.52548C0.461795 6.3299 0.524094 6.10331 0.59181 5.90099C0.656817 5.70541 0.805791 5.47072 0.815271 5.2684C0.893822 5.22793 0.83694 5.33719 0.89653 5.18207C0.99675 4.93794 1.16333 4.62637 1.32585 4.44833C1.58181 4.16778 1.63869 4.17587 2.01926 4.0329C2.27387 4.03425 2.71673 4.0801 2.8955 3.92095L3.3194 3.88588C3.41556 3.87239 3.50629 3.85755 3.60651 3.84406C3.60651 3.84406 3.74601 3.82383 3.75278 3.82114L3.88686 3.76718L5.79373 3.66063C5.94135 3.65793 5.88582 3.67546 5.96708 3.61747C6.12418 3.67007 6.33546 3.65119 6.51558 3.65254L6.73227 3.64579L7.86312 3.64444C8.12451 3.63905 8.60664 3.6957 8.79489 3.5824C9.01023 3.62961 9.11451 3.58779 9.31901 3.59454C9.59123 3.65388 8.18545 3.74156 8.04596 3.75639L6.66726 3.9196C6.56975 3.94792 6.60497 3.93713 6.56027 3.96006C6.98417 3.99918 9.7876 3.93174 9.9894 3.81439C10.1953 3.86025 10.3402 3.82653 10.5392 3.82518C10.7316 3.81304 11.2191 3.82383 11.3437 3.75639C11.639 3.82923 13.1829 3.68626 13.6298 3.67951C15.1805 3.65388 16.8693 3.62286 18.4119 3.74965C18.8886 3.78876 20.3391 4.0828 20.6357 4.05043C20.8415 4.28108 20.8713 4.06392 20.9146 4.50902L20.9634 4.72618C20.897 4.96087 20.9648 6.03047 20.9783 6.35014L20.9973 6.7831C20.9905 7.4629 20.7955 8.16967 20.8171 8.85351C20.8415 9.6547 20.5991 10.6177 20.5544 11.4621C20.4461 13.5069 20.4136 15.4937 20.2835 17.4481C20.2592 17.8554 20.1454 18.6687 20.2158 18.9223L20.1495 19.1489C20.1386 19.2366 20.1373 19.3593 20.1319 19.451C20.121 19.6318 20.1007 19.8112 20.0926 19.9919L19.9937 20.8659L19.9409 21.1856C19.9165 21.4594 19.8082 21.7453 19.8461 22.0124L19.8745 22.7542L19.6944 23.5163L19.5969 23.7335L19.5251 24.0437C19.4899 24.0761 19.4926 24.068 19.4533 24.1233C19.4303 24.1557 19.4236 24.1705 19.4019 24.2083C19.3653 24.273 19.3423 24.3229 19.3111 24.3876C19.1405 24.648 19.0606 24.6614 18.913 24.8233C18.7965 24.8624 18.7491 24.9042 18.6313 24.9339C18.569 24.9487 18.5324 24.9474 18.4769 24.9568C18.4268 24.9649 18.443 24.9595 18.401 24.969C18.3035 24.9919 18.3658 24.969 18.3103 25.0013C18.0164 24.9258 17.2539 25.0135 16.8801 25C16.3831 24.9825 16.0147 24.9838 15.5245 24.9649C14.5751 24.9285 13.5323 24.8719 12.5965 24.8759L9.39892 24.6911L7.42297 24.5225L7.0722 24.5023L6.05647 24.4551ZM10.2427 21.9989L9.93929 22.007L9.58581 22.0313C9.91085 22.0744 10.7329 22.1904 11.0038 22.1257C10.9564 22.0502 11.0905 22.1109 10.9225 22.0515C10.886 22.0394 10.7614 22.0245 10.7167 22.0191C10.5474 22.0003 10.4133 22.0003 10.2427 21.9989Z" fill="#FEFEFE"/>
<path d="M17.4666 1.21127C17.5627 1.21667 17.6454 1.27466 17.7171 1.38796C17.77 1.48373 17.8052 1.64558 17.8228 1.87218C17.8404 2.09878 17.7903 2.4117 17.6738 2.81095C17.5573 3.21019 17.453 3.57167 17.3596 3.89403C17.2661 4.2164 17.1768 4.48481 17.0887 4.69792C16.9993 4.95824 16.91 5.18753 16.8233 5.38581C16.6039 5.91993 16.417 6.40145 16.2599 6.83037C16.1041 7.25929 15.9931 7.54928 15.9281 7.70169L15.8929 7.81634C15.7832 8.0915 15.6681 8.36935 15.5475 8.6526C15.427 8.9345 15.3119 9.22854 15.2008 9.53471C14.8731 10.313 14.5386 11.1411 14.1959 12.0206C13.8533 12.9 13.5309 13.8603 13.2289 14.9056L13.2262 14.9515C13.2195 15.0756 13.1815 15.2685 13.1111 15.5301C13.0407 15.7918 12.9689 16.0562 12.8971 16.3259C12.8254 16.5943 12.7563 16.8412 12.6872 17.0637C12.6181 17.2863 12.5721 17.4279 12.5504 17.4899L12.5477 17.5358C12.4597 17.7651 12.3622 17.9822 12.2552 18.1873C12.1482 18.3923 12.0331 18.5933 11.9085 18.7888L11.8773 18.8347C11.8557 18.8954 11.7934 18.979 11.6918 19.0829C11.5902 19.1867 11.4846 19.2946 11.3735 19.4052C11.2625 19.5158 11.1514 19.6197 11.0417 19.7155C10.932 19.8112 10.8467 19.8814 10.7871 19.9245L10.7275 19.9677C10.584 20.1471 10.3172 20.29 9.92847 20.3952L9.89868 20.4168C9.78085 20.4735 9.67792 20.5112 9.59125 20.5301C9.50457 20.549 9.4206 20.5719 9.34341 20.5989C9.26486 20.6259 9.18766 20.6461 9.11046 20.6569L9.08202 20.6556L9.02379 20.6758C8.94524 20.7028 8.8396 20.7014 8.70688 20.6718C8.57416 20.6421 8.43737 20.5962 8.29652 20.5342C8.15567 20.4721 8.01618 20.3993 7.87533 20.3143C7.73584 20.2293 7.62072 20.1376 7.52998 20.0392C7.13046 19.5981 6.84199 19.1247 6.66593 18.6162C6.48987 18.109 6.33954 17.587 6.21359 17.0502C6.10524 16.5458 6.01586 16.0346 5.94543 15.518C5.87636 15 5.80594 14.4902 5.73551 13.9885L5.73687 13.9655C5.66373 13.5096 5.6055 13.047 5.56216 12.5776C5.51882 12.1082 5.47955 11.6456 5.44569 11.1924C5.41589 11.0197 5.401 10.8592 5.39829 10.7109C5.39558 10.5625 5.38068 10.402 5.35089 10.2293C5.31974 10.0877 5.30349 9.9461 5.30078 9.80582C5.29807 9.66555 5.28182 9.52392 5.25067 9.3823C5.21681 8.9291 5.17618 8.4786 5.13149 8.03215C5.0868 7.5857 5.04752 7.1352 5.01231 6.682C4.98387 6.47833 4.97574 6.27466 4.98522 6.07234C4.99606 5.87002 4.99606 5.65961 4.98793 5.44111L5.01908 4.83549C5.00418 4.75726 5.00012 4.64801 5.00689 4.50774C4.99199 4.41332 4.98793 4.32025 4.99199 4.22719C4.99606 4.13412 5.00147 4.04105 5.00689 3.94664L5.20733 1.71302C5.23442 1.55926 5.2764 1.38122 5.33464 1.1816C5.39287 0.981975 5.48361 0.79584 5.60821 0.623194C5.73145 0.450548 5.89803 0.306226 6.10524 0.192927C6.31245 0.0782791 6.57925 0.0135367 6.907 4.87218e-05C7.08035 -0.00669528 7.30381 0.0243271 7.57873 0.0931159C7.85366 0.161905 8.02837 0.227996 8.1015 0.294087C8.26537 0.847095 8.42383 1.59973 8.57687 2.55063C8.7299 3.50153 8.87481 4.52932 9.01025 5.63398C9.14568 6.74 9.27163 7.8595 9.38674 8.99519C9.50186 10.1309 9.60344 11.1641 9.69011 12.0961C9.77679 13.0281 9.84857 13.7915 9.90545 14.3863C9.96233 14.9812 9.98942 15.2873 9.98806 15.3022L10.1479 17.2498L14.4884 4.33239C14.5954 4.10445 14.7227 3.86166 14.8704 3.60404C15.018 3.34642 15.1656 3.0888 15.3119 2.83118C15.4771 2.60593 15.6613 2.38473 15.8644 2.16892C16.0676 1.95311 16.268 1.76833 16.4685 1.61456C16.6689 1.4608 16.8571 1.34615 17.0332 1.26927C17.2079 1.19374 17.3528 1.1735 17.4666 1.21127Z" fill="#49DBA7"/>
</g>
<defs>
<clipPath id="clip0">
<rect width="21" height="25" fill="white"/>
</clipPath>
</defs>
</svg>
