<svg width="159" height="123" viewBox="0 0 159 123" fill="none" xmlns="http://www.w3.org/2000/svg">
<path d="M102.813 78.7461C101.479 78.6896 100.174 78.336 98.9942 77.7112C98.1884 77.3257 97.3458 77.0224 96.4792 76.8056C95.8732 76.6444 95.288 76.4135 94.7352 76.1174L94.6524 76.076C94.4092 75.9518 94.1608 75.8328 93.9072 75.7293C93.6901 75.6311 93.465 75.5514 93.2344 75.4913C92.2165 75.1864 91.1272 75.219 90.1294 75.5845C89.8086 75.6672 89.4515 75.7604 89.0272 75.8587C88.6028 75.957 88.0387 76.0812 87.4747 76.1795C85.0831 76.649 82.6626 76.9567 80.2297 77.1006H79.9399C79.0963 77.1316 78.3874 77.1316 77.8026 77.1006C75.5101 76.9867 72.995 75.9829 72.2188 74.2494C71.4129 75.612 70.2799 76.752 68.9223 77.5663C67.4751 78.2891 65.8824 78.6731 64.2648 78.6892C63.1389 78.7264 62.0118 78.6901 60.8907 78.5805C57.6304 78.2855 51.8603 77.2972 49.1486 74.0166C47.8911 75.8276 45.4174 77.1782 42.7161 77.4887C39.3213 77.8768 36.3405 76.8315 34.6379 74.6686C34.126 75.7031 33.3627 76.5927 32.4178 77.2558C32.3619 77.2951 32.2928 77.3111 32.2252 77.3005C32.1576 77.2899 32.0968 77.2535 32.0556 77.1989C32.0144 77.144 31.9967 77.075 32.0064 77.0071C32.0162 76.9391 32.0524 76.8779 32.1073 76.8367C33.1115 76.1464 33.8835 75.1688 34.3222 74.0321C34.3375 73.9862 34.3654 73.9454 34.4027 73.9146C34.44 73.8837 34.4852 73.8639 34.5332 73.8574C34.5811 73.851 34.63 73.8581 34.6741 73.878C34.7182 73.8979 34.7559 73.9298 34.7828 73.97C36.3353 76.2261 39.2592 77.3386 42.6592 76.9505C45.3553 76.6401 47.8083 75.2481 48.9054 73.4112C48.9284 73.3751 48.9596 73.345 48.9965 73.3234C49.0334 73.3018 49.0749 73.2893 49.1176 73.287C49.1596 73.2844 49.2016 73.2925 49.2396 73.3106C49.2776 73.3287 49.3104 73.3562 49.3349 73.3905C51.8137 76.7435 57.6718 77.7422 60.9373 78.0475C62.0359 78.1571 63.1406 78.1934 64.2441 78.1562C65.7891 78.147 67.3116 77.7842 68.6946 77.0954C70.3144 76.2106 71.2821 74.7772 72.0997 73.5095C72.1263 73.4657 72.1654 73.431 72.2121 73.4099C72.2587 73.3888 72.3106 73.3823 72.361 73.3912C72.4114 73.4002 72.4579 73.4242 72.4944 73.4601C72.5309 73.4959 72.5557 73.542 72.5655 73.5923C72.9691 75.3775 75.5877 76.4589 77.8492 76.5676C78.4288 76.5987 79.1119 76.5987 79.9192 76.5676H80.2038C82.621 76.4257 85.0259 76.1215 87.4022 75.6569C87.9197 75.5586 88.4372 75.4447 88.9133 75.3412C89.3894 75.2378 89.6844 75.1498 89.9949 75.067C91.0866 74.6697 92.2778 74.637 93.3897 74.9739C93.6426 75.0433 93.8899 75.1315 94.1297 75.2378C94.3885 75.3464 94.6472 75.4706 94.9008 75.5948L94.9836 75.6362C95.4999 75.9145 96.047 76.1316 96.6137 76.283C97.5142 76.5084 98.3898 76.824 99.2271 77.2248C100.686 77.8664 102.068 78.477 104.143 78.0734C106.389 77.6336 108.066 75.9622 107.807 74.4202C107.796 74.3559 107.81 74.2899 107.845 74.2352C107.881 74.1805 107.936 74.1412 107.999 74.1252C108.062 74.1086 108.129 74.1164 108.186 74.1471C108.244 74.1778 108.288 74.2292 108.309 74.2908C109.065 76.4745 112.651 77.5352 115.528 77.1575C115.558 77.155 115.587 77.155 115.616 77.1575C118.116 76.8108 120.569 75.6051 123.11 73.4888C123.164 73.4456 123.232 73.4252 123.301 73.4319C123.369 73.4387 123.433 73.4721 123.477 73.525C125.061 75.4913 126.919 76.6763 128.989 77.0488C131.286 77.4628 134.257 76.6038 134.805 74.8445C134.82 74.7994 134.847 74.759 134.882 74.7273C134.918 74.6955 134.961 74.6735 135.007 74.6634C135.055 74.6558 135.104 74.6614 135.148 74.6797C135.193 74.6979 135.232 74.7281 135.261 74.7669C136.715 76.7642 139.753 78.1148 142.821 78.1303C145.89 78.1458 148.959 76.8367 150.454 74.86C150.5 74.8038 150.564 74.7669 150.636 74.7565C150.671 74.7529 150.707 74.757 150.741 74.7686C150.775 74.7802 150.806 74.7991 150.832 74.8238C152.649 76.4331 155.748 77.2506 158.543 76.8625C158.611 76.8551 158.679 76.8741 158.733 76.9156C158.787 76.957 158.822 77.0178 158.833 77.0851C158.838 77.1184 158.836 77.1524 158.828 77.1851C158.82 77.2179 158.805 77.2486 158.785 77.2756C158.765 77.3026 158.739 77.3253 158.71 77.3423C158.681 77.3593 158.649 77.3704 158.615 77.3748C155.733 77.7784 152.664 76.9971 150.698 75.3878C149.068 77.349 145.983 78.6478 142.894 78.6478H142.816C139.711 78.6478 136.767 77.38 135.121 75.4292C134.189 77.1989 131.229 77.9802 128.911 77.5611C126.666 77.1075 124.658 75.8624 123.255 74.0528C120.714 76.1226 118.245 77.3127 115.72 77.675H115.632C112.93 78.032 109.65 77.1575 108.294 75.3412C107.952 76.8315 106.348 78.1821 104.257 78.5908C103.782 78.6893 103.299 78.7413 102.813 78.7461Z" fill="#D1D3D4"/>
<path d="M26.0836 79.2893C22.6992 79.2893 19.3561 77.737 17.8864 75.4809C13.8706 78.6322 7.39672 79.7292 2.36144 78.0682C2.29862 78.045 2.24721 77.9985 2.21801 77.9382C2.18881 77.878 2.1841 77.8088 2.20487 77.7451C2.22564 77.6815 2.27027 77.6284 2.32938 77.5969C2.3885 77.5655 2.45749 77.5582 2.52187 77.5766C7.49504 79.2117 13.9069 78.094 17.7829 74.891C17.8112 74.867 17.8444 74.8494 17.8801 74.8396C17.9159 74.8297 17.9534 74.8279 17.9899 74.8341C18.0273 74.8406 18.0628 74.855 18.094 74.8765C18.1253 74.8979 18.1516 74.9258 18.1711 74.9583C19.5631 77.3644 23.1546 78.9582 26.6943 78.7512C27.0517 78.7297 27.4076 78.6882 27.7603 78.627C27.829 78.614 27.9 78.6287 27.9577 78.668C28.0154 78.7073 28.0552 78.768 28.0683 78.8366C28.0813 78.9052 28.0665 78.9762 28.0272 79.0339C27.9879 79.0917 27.9273 79.1314 27.8587 79.1445C27.4841 79.212 27.1055 79.2553 26.7253 79.2738C26.5183 79.2842 26.301 79.2893 26.0836 79.2893Z" fill="#D1D3D4"/>
<path d="M0.441524 108.701C0.398046 108.702 0.355088 108.692 0.316946 108.671C0.278803 108.65 0.246814 108.619 0.224175 108.582C0.187214 108.525 0.174628 108.455 0.18918 108.388C0.203731 108.321 0.24423 108.262 0.301798 108.225C0.441523 108.137 13.9845 99.6614 25.9698 95.6564C27.7293 95.0665 29.5457 94.5025 31.3725 93.985C43.0007 90.6733 53.9821 89.4056 64.0164 90.2283C67.5664 90.5181 71.5926 90.9528 76.3174 91.5582C78.2062 91.7962 80.2866 92.0756 82.8534 92.4327C84.9958 92.7328 87.159 93.0484 89.3377 93.3641L95.4493 94.2748C100.407 95.0147 105.535 95.7806 110.493 96.4584C113.396 96.8569 115.772 97.1673 117.966 97.4312C120.998 97.7986 123.953 98.1194 126.763 98.3782C140.094 99.5838 149.016 99.2061 154.843 97.2087C154.908 97.1871 154.979 97.1917 155.041 97.2217C155.103 97.2517 155.151 97.3045 155.174 97.3691C155.195 97.4337 155.191 97.504 155.161 97.565C155.131 97.626 155.078 97.6728 155.014 97.6951C149.114 99.7235 140.12 100.101 126.717 98.8904C123.917 98.6369 120.957 98.3161 117.919 97.9435C115.72 97.6796 113.344 97.3691 110.441 96.9707C105.478 96.2928 100.35 95.527 95.3872 94.7871L89.2807 93.8763C87.1021 93.5607 84.9389 93.2451 82.7965 92.9449C80.209 92.5879 78.139 92.3085 76.2708 92.0704C71.5512 91.465 67.5302 91.0355 63.9853 90.7406C54.0183 89.9282 43.0939 91.1856 31.5329 94.4869C29.7113 95.0044 27.9104 95.5581 26.1509 96.1428C14.2484 100.132 0.731323 108.562 0.596773 108.66C0.551207 108.691 0.496469 108.706 0.441524 108.701Z" fill="#D1D3D4"/>
<path d="M30.5807 41.6603C30.5121 41.6603 30.4463 41.6331 30.3978 41.5846C30.3492 41.536 30.322 41.4702 30.322 41.4016C30.322 41.333 30.3492 41.2672 30.3978 41.2187C30.4463 41.1701 30.5121 41.1429 30.5807 41.1429C30.6405 41.1549 30.6943 41.1872 30.7329 41.2344C30.7715 41.2816 30.7926 41.3406 30.7926 41.4016C30.7926 41.4626 30.7715 41.5217 30.7329 41.5688C30.6943 41.616 30.6405 41.6483 30.5807 41.6603Z" fill="#D1D3D4"/>
<path d="M30.7101 42.5709C30.6527 42.5703 30.5972 42.5507 30.5523 42.5151C30.5073 42.4795 30.4754 42.43 30.4617 42.3743C30.4617 42.3743 30.4617 42.3277 30.4617 42.3174C30.4532 42.2834 30.4515 42.2481 30.4566 42.2135C30.4618 42.1788 30.4737 42.1455 30.4917 42.1155C30.5097 42.0855 30.5335 42.0593 30.5617 42.0384C30.5898 42.0176 30.6218 42.0025 30.6557 41.994C30.6897 41.9855 30.725 41.9838 30.7597 41.9889C30.7943 41.9941 30.8276 42.006 30.8577 42.024C30.8877 42.042 30.9139 42.0658 30.9347 42.0939C30.9556 42.1221 30.9707 42.1541 30.9792 42.188C30.9792 42.188 30.9792 42.2398 30.9792 42.245C30.9877 42.2779 30.9897 42.3122 30.985 42.346C30.9802 42.3797 30.9689 42.4121 30.9516 42.4414C30.9343 42.4708 30.9113 42.4964 30.8841 42.5168C30.8569 42.5373 30.8259 42.5522 30.7929 42.5606L30.7101 42.5709Z" fill="#D1D3D4"/>
<path d="M29.1628 41.5361C29.0941 41.5471 29.024 41.5304 28.9677 41.4896C28.9114 41.4489 28.8736 41.3874 28.8626 41.3188C28.8516 41.2502 28.8684 41.18 28.9091 41.1237C28.9499 41.0675 29.0113 41.0297 29.08 41.0187H29.1317C29.164 41.0075 29.1982 41.0029 29.2322 41.0052C29.2663 41.0074 29.2995 41.0166 29.33 41.0321C29.3604 41.0475 29.3875 41.069 29.4094 41.0951C29.4314 41.1213 29.4478 41.1516 29.4577 41.1843C29.4776 41.2495 29.4714 41.3198 29.4406 41.3806C29.4097 41.4414 29.3565 41.4878 29.2921 41.5103H29.2404C29.2165 41.524 29.1901 41.5328 29.1628 41.5361Z" fill="#D1D3D4"/>
<path d="M26.0526 96.1582C25.99 96.1588 25.9294 96.1368 25.8818 96.0961C25.8491 96.0664 25.824 96.0293 25.8086 95.9879C25.7933 95.9464 25.7883 95.9019 25.7938 95.8581C26.689 90.2315 27.2781 84.5605 27.5585 78.8701C28.1692 68.1175 28.1071 56.9302 27.9518 49.4375C27.9511 49.4036 27.9572 49.3698 27.9695 49.3381C27.9819 49.3065 28.0004 49.2776 28.0239 49.2531C28.0475 49.2286 28.0756 49.2089 28.1068 49.1953C28.1379 49.1817 28.1714 49.1743 28.2054 49.1736C28.2391 49.1729 28.2727 49.179 28.304 49.1914C28.3354 49.2039 28.364 49.2224 28.3881 49.246C28.4122 49.2697 28.4313 49.2978 28.4444 49.3289C28.4574 49.3601 28.4642 49.3935 28.4641 49.4272C28.6194 56.9251 28.6815 68.133 28.0657 78.9219C27.7908 84.486 27.226 90.032 26.3734 95.5372C27.9259 95.0198 29.5664 94.5023 31.1914 94.0573C31.4605 90.1247 31.8072 84.0498 31.9676 77.1056C32.2574 64.5782 31.8538 53.7117 30.767 44.8115C30.7588 44.7429 30.7782 44.6738 30.8209 44.6195C30.8636 44.5651 30.9261 44.53 30.9947 44.5218C31.0633 44.5135 31.1324 44.5329 31.1868 44.5756C31.2411 44.6183 31.2763 44.6808 31.2845 44.7494C32.3713 53.6755 32.7749 64.5678 32.4851 77.1212C32.3247 84.1792 31.9676 90.3472 31.6985 94.2747C31.6939 94.3275 31.6737 94.3778 31.6406 94.4193C31.6074 94.4607 31.5628 94.4914 31.5122 94.5075C29.6906 95.025 27.8897 95.5786 26.1302 96.1634L26.0526 96.1582Z" fill="#D1D3D4"/>
<path d="M28.785 42.5711C28.7164 42.5711 28.6506 42.5438 28.602 42.4953C28.5535 42.4468 28.5262 42.381 28.5262 42.3124C28.5234 42.2883 28.5234 42.264 28.5262 42.2399C28.5728 41.9508 28.5953 41.6583 28.5935 41.3654C28.6049 39.9661 28.3265 38.5796 27.7759 37.2931C27.1524 35.8087 26.277 34.4432 25.1884 33.257C21.509 29.1898 14.2174 27.4046 12.3337 27.001C12.9008 28.4579 13.6299 29.8465 14.5072 31.1406L18.2901 31.658C18.3462 31.6663 18.3981 31.6924 18.4382 31.7325C18.4782 31.7726 18.5043 31.8245 18.5126 31.8805C18.5206 31.937 18.5096 31.9944 18.4816 32.044C18.4535 32.0936 18.4098 32.1326 18.3574 32.1548L15.449 33.3863C15.9665 34.1987 17.7105 36.7394 19.1698 37.6191L22.9217 36.7549C22.9774 36.7429 23.0354 36.7496 23.0869 36.7739C23.1383 36.7983 23.1803 36.8389 23.2063 36.8895C23.234 36.9395 23.2439 36.9974 23.2345 37.0537C23.2251 37.1101 23.1969 37.1616 23.1546 37.1999L20.919 39.1973L21.5141 39.5181C21.5664 39.5539 21.6037 39.6076 21.619 39.669C21.6344 39.7304 21.6266 39.7954 21.5973 39.8515C21.5679 39.9076 21.519 39.951 21.4598 39.9735C21.4007 39.996 21.3353 39.996 21.2761 39.9735C20.6913 39.6682 20.3497 39.456 20.3497 39.456C20.3144 39.4355 20.2844 39.4071 20.2619 39.3729C20.2395 39.3388 20.2252 39.3 20.2204 39.2594C20.2178 39.2194 20.2238 39.1792 20.2381 39.1417C20.2524 39.1042 20.2746 39.0702 20.3032 39.0421L22.0575 37.4535L19.1647 38.121C19.1047 38.1441 19.0383 38.1441 18.9784 38.121C17.1102 37.0861 14.916 33.5519 14.8384 33.4019C14.8178 33.371 14.8048 33.3357 14.8003 33.2988C14.7958 33.262 14.8 33.2246 14.8125 33.1897C14.823 33.1538 14.8415 33.1207 14.8666 33.0929C14.8917 33.0651 14.9227 33.0434 14.9574 33.0293L17.2758 32.0513L14.295 31.6322C14.2599 31.6287 14.226 31.6176 14.1956 31.5998C14.1653 31.5819 14.1391 31.5576 14.1191 31.5287C13.0937 30.0442 12.264 28.4337 11.6506 26.7371C11.6359 26.6952 11.6325 26.6503 11.6407 26.6067C11.6489 26.5631 11.6683 26.5224 11.6972 26.4887C11.7264 26.454 11.7643 26.4276 11.807 26.4122C11.8497 26.3967 11.8957 26.3928 11.9404 26.4007C12.3181 26.468 21.1933 28.1083 25.5403 32.9103C26.6839 34.138 27.6066 35.5543 28.2675 37.0965C28.8421 38.4494 29.1327 39.9059 29.1214 41.3758C29.1206 41.6911 29.0963 42.0058 29.0489 42.3175C29.0519 42.3312 29.0519 42.3453 29.0489 42.3589C29.0527 42.3725 29.0527 42.3868 29.0489 42.4003C29.0277 42.4524 28.9911 42.4967 28.9439 42.5273C28.8966 42.5578 28.8412 42.5731 28.785 42.5711Z" fill="#D1D3D4"/>
<path d="M19.6822 66.3789H19.6253C19.5798 66.3692 19.5379 66.3471 19.5041 66.3152C19.4704 66.2833 19.446 66.2427 19.4338 66.1978C19.4079 66.1098 17.0274 57.3391 20.0496 50.576C20.945 48.5304 22.2339 46.6808 23.8429 45.1324C25.2177 43.7665 26.8769 42.7205 28.7022 42.0691C28.7377 42.0585 28.7751 42.0557 28.8117 42.0611C28.8484 42.0664 28.8834 42.0798 28.9144 42.1001C28.9757 42.1408 29.0184 42.204 29.0334 42.2761C29.3873 44.7824 29.3401 47.329 28.8937 49.8205C28.8843 49.8628 28.8644 49.9021 28.8358 49.9347C28.8073 49.9673 28.771 49.9923 28.7303 50.0072C28.6896 50.0221 28.6458 50.0266 28.6029 50.0202C28.56 50.0138 28.5194 49.9967 28.4848 49.9706L27.0669 48.8891L28.1537 51.0055C28.1669 51.0528 28.1669 51.103 28.1537 51.1503C27.926 53.365 27.01 57.6495 26.5132 57.96C26.4362 58.0035 26.3457 58.0164 26.2596 57.9962C25.9957 57.9393 25.5558 57.4012 25.0952 56.7388L25.6852 59.088C25.695 59.1274 25.6954 59.1685 25.6864 59.2081C25.6775 59.2476 25.6593 59.2845 25.6334 59.3157L19.8788 66.2858C19.8558 66.3158 19.826 66.3399 19.7918 66.3561C19.7576 66.3723 19.72 66.3801 19.6822 66.3789ZM28.5677 42.659C26.9399 43.3164 25.455 44.2829 24.1948 45.505C22.636 47.0066 21.3876 48.7999 20.5205 50.783C17.9848 56.4749 19.3665 63.6416 19.8116 65.5614L25.1625 59.0777L24.2207 55.3313C24.207 55.2717 24.2145 55.2091 24.2418 55.1544C24.2692 55.0996 24.3148 55.0561 24.3707 55.0312C24.4277 55.0073 24.4915 55.0046 24.5503 55.0236C24.6092 55.0425 24.6593 55.082 24.6916 55.1347C25.1578 55.9426 25.6965 56.7064 26.301 57.4167C26.9555 55.3831 27.4045 53.289 27.6413 51.1659L26.0888 48.1077C26.062 48.0558 26.0536 47.9964 26.0648 47.9391C26.0761 47.8818 26.1065 47.83 26.1509 47.7921C26.1974 47.7556 26.2548 47.7357 26.3139 47.7357C26.3731 47.7357 26.4305 47.7556 26.477 47.7921L28.459 49.303C28.8095 47.1047 28.8461 44.8677 28.5677 42.659Z" fill="#D1D3D4"/>
<path d="M11.8938 47.9939C11.8249 47.9936 11.7585 47.9678 11.7075 47.9215C11.6798 47.892 11.6589 47.8568 11.6463 47.8183C11.6338 47.7799 11.63 47.7391 11.635 47.699L11.899 46.0638L10.4293 47.849C10.4007 47.8803 10.3653 47.9045 10.3257 47.9197C10.2862 47.935 10.2437 47.9409 10.2016 47.937L0.415645 46.9021C0.368335 46.897 0.323335 46.879 0.285593 46.8501C0.24785 46.8211 0.218824 46.7823 0.201709 46.7379C0.184593 46.6935 0.18005 46.6453 0.188577 46.5984C0.197104 46.5516 0.218373 46.5081 0.250045 46.4726C0.43117 46.2708 4.76264 41.5879 15.2575 39.901C17.2911 39.5559 19.3546 39.4206 21.4158 39.4973C25.0021 39.6681 27.0669 40.6409 28.1433 41.4274C28.446 41.6306 28.7209 41.8724 28.9609 42.1467C28.9849 42.1699 29.0039 42.1976 29.0169 42.2283C29.0299 42.2589 29.0366 42.2919 29.0366 42.3252C29.0366 42.3585 29.0299 42.3915 29.0169 42.4222C29.0039 42.4528 28.9849 42.4806 28.9609 42.5037C28.9108 42.5518 28.8441 42.5787 28.7746 42.5787C28.7052 42.5787 28.6385 42.5518 28.5883 42.5037C28.3742 42.2574 28.1289 42.04 27.8587 41.8569C27.0048 41.2463 25.0279 40.2011 21.3847 40.0251C19.3599 39.9519 17.3329 40.0854 15.3352 40.4236C6.74985 41.7845 2.28899 45.2928 1.02112 46.4415L10.1188 47.3833L12.106 44.972C12.1431 44.9297 12.1927 44.9004 12.2476 44.8883C12.3025 44.8762 12.3599 44.8819 12.4113 44.9047C12.4639 44.9263 12.5076 44.9654 12.5349 45.0153C12.5622 45.0652 12.5716 45.123 12.5614 45.179L12.225 47.404L18.2849 46.4415L19.9099 43.43C19.9381 43.3778 19.9831 43.3367 20.0375 43.3133C20.092 43.2898 20.1527 43.2853 20.21 43.3006C20.2655 43.3185 20.3136 43.3539 20.3472 43.4015C20.3808 43.4491 20.398 43.5063 20.3963 43.5645L20.2307 46.6382C20.8828 46.395 22.3421 45.8361 23.9101 45.0858C23.9726 45.057 24.0439 45.0542 24.1085 45.0779C24.173 45.1017 24.2255 45.1502 24.2543 45.2126C24.2831 45.275 24.2859 45.3464 24.2622 45.4109C24.2384 45.4754 24.1899 45.5279 24.1275 45.5567C21.9902 46.5916 20.0548 47.2384 20.0341 47.2488C19.9931 47.2613 19.9498 47.2642 19.9075 47.257C19.8653 47.2498 19.8253 47.2328 19.7908 47.2074C19.7579 47.182 19.7317 47.1489 19.7145 47.111C19.6974 47.0731 19.6898 47.0316 19.6925 46.99L19.8167 44.6822L18.6782 46.7882C18.6607 46.8243 18.6345 46.8554 18.602 46.8789C18.5695 46.9024 18.5317 46.9174 18.4919 46.9228L11.9352 47.9577L11.8938 47.9939Z" fill="#D1D3D4"/>
<path d="M28.785 42.571C28.7175 42.5714 28.6525 42.5454 28.6039 42.4986C28.5667 42.4603 28.5415 42.412 28.5314 42.3596C28.5213 42.3072 28.5267 42.253 28.5469 42.2036C28.5469 42.1467 28.6194 42.0018 28.7022 41.7897C28.7022 41.7379 28.7384 41.6862 28.7643 41.6344C28.7902 41.5827 28.8367 41.4223 28.8937 41.2774L28.9299 41.1842C30.0011 38.4521 34.1049 31.8339 37.6135 29.2156C40.7496 26.9632 44.3145 25.3781 48.0877 24.5585C47.8859 23.8858 46.8406 21.904 41.65 21.9713C39.7456 24.8431 39.6835 24.8224 39.4558 24.7448C39.4001 24.7232 39.3527 24.6845 39.3201 24.6343C39.2876 24.5842 39.2717 24.5251 39.2747 24.4654C39.2747 24.3153 39.2747 22.9907 39.2747 21.9764C36.9043 22.4942 34.7348 23.6876 33.0285 25.4123L33.2562 27.8236C33.2614 27.8713 33.2529 27.9194 33.2319 27.9625C33.2108 28.0055 33.178 28.0417 33.1372 28.0668C33.0958 28.092 33.0484 28.1053 33 28.1053C32.9517 28.1053 32.9042 28.092 32.8629 28.0668L31.3104 27.094C30.7515 28.1859 28.5418 32.786 28.2623 37.2516C28.261 37.2858 28.2528 37.3195 28.2382 37.3504C28.2236 37.3814 28.2028 37.4091 28.1772 37.4318C28.1515 37.4545 28.1216 37.4718 28.0891 37.4827C28.0566 37.4935 28.0222 37.4976 27.988 37.4948C27.9203 37.4895 27.8574 37.4578 27.8128 37.4065C27.7683 37.3551 27.7457 37.2884 27.75 37.2206C28.0708 31.9788 30.9533 26.6542 30.9844 26.5973C31.0014 26.5668 31.0243 26.5402 31.0519 26.5188C31.0795 26.4975 31.1111 26.4819 31.1448 26.4731C31.1788 26.464 31.2142 26.4621 31.249 26.4674C31.2837 26.4728 31.317 26.4853 31.3466 26.5041L32.6818 27.2958L32.4955 25.2985C32.4908 25.2632 32.4939 25.2272 32.5046 25.1933C32.5154 25.1593 32.5334 25.1281 32.5576 25.1019C34.4175 23.1613 36.8391 21.8529 39.4817 21.3607C39.5183 21.3529 39.5561 21.354 39.5922 21.3639C39.6282 21.3738 39.6613 21.3922 39.6887 21.4176C39.7179 21.4414 39.7414 21.4714 39.7575 21.5054C39.7736 21.5394 39.7819 21.5766 39.7819 21.6142C39.7819 21.7953 39.7819 22.9286 39.7819 23.7151C40.1648 23.1976 40.7496 22.3283 41.2774 21.5263C41.3006 21.4912 41.3321 21.4624 41.3692 21.4426C41.4062 21.4227 41.4476 21.4123 41.4896 21.4124C48.3775 21.2882 48.6311 24.5792 48.6363 24.7189C48.641 24.7822 48.6218 24.8449 48.5825 24.8947C48.5433 24.9445 48.4867 24.9778 48.4241 24.988C44.6306 25.7845 41.0476 27.3713 37.9085 29.6451C34.5344 32.1702 30.4203 38.7729 29.3956 41.386L29.3594 41.4792C29.3128 41.6137 29.2663 41.7327 29.23 41.8466C29.2075 41.8916 29.1885 41.9383 29.1731 41.9863C29.1007 42.1622 29.0541 42.2916 29.0334 42.3537C29.022 42.4123 28.9914 42.4655 28.9464 42.5049C28.9015 42.5442 28.8447 42.5675 28.785 42.571Z" fill="#D1D3D4"/>
<path d="M28.8109 42.5709H28.785C28.7164 42.5709 28.6506 42.5437 28.602 42.4951C28.5535 42.4466 28.5262 42.3808 28.5262 42.3122C28.5237 42.2864 28.5237 42.2604 28.5262 42.2346C28.5262 42.2346 28.5262 42.2346 28.5262 42.2087C28.5262 42.1828 28.5935 42.0069 28.6815 41.7896C28.6815 41.7378 28.7177 41.6861 28.7436 41.6343V41.5878C28.8005 41.4584 28.8678 41.3083 28.9454 41.1479C30.0584 38.8838 31.6404 36.8823 33.5864 35.2764C35.5323 33.6706 37.7977 32.497 40.2321 31.8338C49.4229 29.1431 55.5346 31.6838 55.5967 31.7096C55.6311 31.7255 55.6618 31.7484 55.6868 31.7769C55.7118 31.8055 55.7304 31.839 55.7416 31.8752C55.7527 31.9118 55.7552 31.9504 55.7489 31.9881C55.7426 32.0258 55.7277 32.0615 55.7053 32.0925C54.5225 33.6777 52.9744 34.954 51.1927 35.813C51.1629 35.8281 51.1303 35.8371 51.0969 35.8396C51.0635 35.842 51.03 35.8378 50.9983 35.8272C50.9665 35.8166 50.9372 35.7999 50.9119 35.7779C50.8867 35.7559 50.866 35.7292 50.8512 35.6992L50.1267 34.2503L50.0025 35.8751C49.9968 35.9388 49.9672 35.9979 49.9197 36.0407C49.8524 36.0976 48.3672 37.4068 44.7447 37.7483C44.6914 37.7524 44.6382 37.7402 44.592 37.7134C44.5458 37.6867 44.5088 37.6465 44.4859 37.5982L43.4509 35.2438L42.9334 37.8311C42.926 37.8728 42.9085 37.9122 42.8823 37.9455C42.8561 37.9789 42.8222 38.0054 42.7834 38.0225C42.6229 38.0898 38.8969 39.7042 36.5216 39.9785C36.4653 39.9858 36.4081 39.9739 36.3593 39.9448C36.3105 39.9157 36.2729 39.8711 36.2525 39.8181L35.9317 39.0316L35.6626 39.994C35.6536 40.0264 35.6383 40.0568 35.6176 40.0832C35.5968 40.1097 35.571 40.1317 35.5416 40.1481C35.5122 40.1645 35.4799 40.1748 35.4464 40.1786C35.413 40.1823 35.3792 40.1794 35.3469 40.17C35.2812 40.1518 35.2254 40.1084 35.1915 40.0494C35.1575 39.9903 35.1483 39.9202 35.1658 39.8543L35.6367 38.1622C35.6506 38.11 35.6806 38.0634 35.7224 38.0291C35.7641 37.9948 35.8156 37.9744 35.8696 37.9708C35.924 37.9674 35.9781 37.9817 36.0238 38.0116C36.0695 38.0414 36.1043 38.0852 36.1231 38.1364L36.6406 39.4403C38.7106 39.1454 41.7794 37.888 42.4366 37.5982L43.0525 34.359C43.0622 34.3051 43.0892 34.2558 43.1293 34.2185C43.1694 34.1811 43.2205 34.1578 43.275 34.152C43.3302 34.1431 43.3868 34.153 43.4356 34.1803C43.4845 34.2075 43.5227 34.2504 43.5441 34.3021L44.8689 37.2308C47.6996 36.9255 49.1279 35.9786 49.4643 35.7302L49.6868 33.3189C49.6926 33.2637 49.7161 33.2118 49.7536 33.1709C49.7912 33.13 49.8409 33.1023 49.8955 33.0919C49.95 33.0814 50.0065 33.0888 50.0565 33.1129C50.1065 33.137 50.1475 33.1766 50.1733 33.2258L51.2083 35.2593C52.7067 34.4829 54.0269 33.4026 55.0843 32.0874C53.744 31.6268 48.2171 30.059 40.3925 32.3513C38.028 32.9924 35.8271 34.1297 33.9363 35.6875C32.0455 37.2453 30.5082 39.1879 29.4267 41.386C29.3491 41.5412 29.2818 41.6861 29.23 41.8154L29.2042 41.8672C29.1859 41.9057 29.1703 41.9455 29.1576 41.9862C29.1557 42.0017 29.1557 42.0173 29.1576 42.0328C29.2159 42.0265 29.2745 42.0406 29.3236 42.0726C29.3727 42.1047 29.4091 42.1528 29.4267 42.2087C29.4449 42.2759 29.4369 42.3476 29.4042 42.4091C29.3715 42.4706 29.3166 42.5173 29.2507 42.5399C29.213 42.546 29.1746 42.546 29.1369 42.5399H29.0696H29.0127L28.8109 42.5709Z" fill="#D1D3D4"/>
<path d="M54.5203 47.9318C54.4831 47.9322 54.4463 47.9245 54.4124 47.9093C54.3784 47.8941 54.3482 47.8718 54.3236 47.8439L53.1334 46.4985V47.3782C53.134 47.4409 53.1118 47.5018 53.0708 47.5494C53.0299 47.597 52.973 47.6281 52.9108 47.6369C51.5434 47.7981 50.158 47.7087 48.8226 47.373C48.7745 47.3599 48.7313 47.3329 48.6984 47.2954L47.0062 45.4377L47.3529 46.8038C47.3606 46.8444 47.3595 46.8862 47.3496 46.9264C47.3398 46.9665 47.3215 47.0041 47.296 47.0366C47.2677 47.0669 47.2331 47.0904 47.1946 47.1057C47.1561 47.1209 47.1147 47.1273 47.0734 47.1246C47.001 47.1246 45.1949 46.9073 39.8284 44.4287C34.5551 42.0018 28.8781 42.5659 28.8212 42.571C28.7629 42.5773 28.7043 42.5632 28.6552 42.5312C28.6062 42.4991 28.5697 42.451 28.5521 42.3951C28.5332 42.3389 28.5342 42.2779 28.5549 42.2223C28.5757 42.1667 28.6149 42.1199 28.666 42.0898C36.356 37.7173 44.2893 39.2852 48.745 41.9553C51.6218 43.723 54.908 44.7143 58.2825 44.8323C58.3281 44.8306 58.3733 44.8412 58.4134 44.8631C58.4535 44.8849 58.4869 44.9172 58.5102 44.9565C58.5329 44.9958 58.5449 45.0404 58.5449 45.0859C58.5449 45.1313 58.5329 45.1759 58.5102 45.2152C57.2785 47.4765 54.6859 47.9111 54.5772 47.9318H54.5203ZM52.8746 45.5516C52.9117 45.5519 52.9483 45.5599 52.9821 45.575C53.016 45.5901 53.0463 45.6121 53.0713 45.6395L54.6238 47.3937C55.9008 47.1064 57.0332 46.3723 57.8167 45.3239C54.5028 45.1275 51.2872 44.1239 48.45 42.4003C45.632 40.8101 42.4646 39.9411 39.2297 39.8707C35.9947 39.8002 32.7924 40.5306 29.908 41.9967C33.3792 41.9104 36.8277 42.5796 40.0147 43.9578C43.9684 45.7741 45.9763 46.3588 46.7422 46.5451L46.2247 44.5788C46.2116 44.5222 46.2171 44.4629 46.2404 44.4098C46.2637 44.3566 46.3036 44.3124 46.3541 44.2838C46.4057 44.2573 46.4645 44.2485 46.5216 44.2588C46.5787 44.2691 46.6307 44.2979 46.6698 44.3407L48.9985 46.928C50.1718 47.2094 51.3833 47.2968 52.5848 47.1867V45.8465C52.5856 45.7935 52.6023 45.742 52.6327 45.6986C52.6632 45.6552 52.706 45.622 52.7556 45.6033C52.7899 45.5756 52.831 45.5577 52.8746 45.5516Z" fill="#D1D3D4"/>
<path d="M43.275 61.8876C43.2477 61.893 43.2195 61.893 43.1922 61.8876C40.6047 61.0389 37.4635 57.748 37.3289 57.6186C37.3054 57.595 37.2872 57.5666 37.2756 57.5353C37.264 57.5041 37.2592 57.4707 37.2616 57.4375V55.228L36.651 56.1283C36.6277 56.1645 36.5955 56.194 36.5574 56.214C36.5193 56.2339 36.4766 56.2436 36.4336 56.2422C36.3903 56.2421 36.3478 56.2312 36.3098 56.2104C36.2718 56.1896 36.2397 56.1596 36.2163 56.1232L33.6288 51.9835C33.6122 51.9479 33.6035 51.909 33.6035 51.8697C33.6035 51.8304 33.6122 51.7915 33.6288 51.7559L34.3015 49.8879L33.6391 50.2967C33.6024 50.3157 33.5615 50.3257 33.5201 50.3257C33.4787 50.3257 33.4379 50.3157 33.4011 50.2967C33.3632 50.2796 33.3298 50.2539 33.3037 50.2215C33.2777 50.1891 33.2596 50.151 33.251 50.1104C32.8481 48.2314 32.0352 46.4645 30.8705 44.9359C30.2225 44.0599 29.4816 43.2567 28.6608 42.5401C28.6189 42.5073 28.5883 42.4622 28.5735 42.4111C28.5586 42.36 28.5602 42.3056 28.578 42.2555C28.5959 42.2049 28.6287 42.161 28.6722 42.1296C28.7156 42.0981 28.7676 42.0807 28.8212 42.0795H29.0696C29.6648 42.0795 30.2392 42.0795 30.7774 42.0795C37.8671 42.5401 40.0199 48.1182 40.0406 48.1699C40.0623 48.2326 40.06 48.3011 40.0342 48.3623C40.0084 48.4234 39.9609 48.4728 39.9009 48.5011L38.4208 49.1427L40.8117 49.8723C40.8452 49.8833 40.8763 49.9008 40.9029 49.9239C40.9296 49.947 40.9514 49.9752 40.9669 50.0069C43.6372 55.3522 43.5544 61.5978 43.5544 61.6599C43.5544 61.6936 43.5477 61.727 43.5347 61.7581C43.5216 61.7892 43.5024 61.8174 43.4783 61.841C43.4542 61.8646 43.4257 61.8832 43.3943 61.8956C43.363 61.9081 43.3294 61.9141 43.2957 61.9134L43.275 61.8876ZM37.7688 57.3081C38.2294 57.7738 40.8065 60.3456 43.0007 61.2407C42.9697 59.8488 42.7057 54.7674 40.5064 50.2967L37.5566 49.3911C37.5061 49.375 37.4614 49.3443 37.4283 49.3029C37.3951 49.2614 37.375 49.2111 37.3703 49.1583C37.3677 49.1053 37.3811 49.0528 37.4088 49.0075C37.4365 48.9623 37.4772 48.9265 37.5256 48.9047L39.4093 48.0871C38.9332 47.0522 36.6406 42.9385 30.6946 42.5556C30.2909 42.5556 29.8666 42.5194 29.4215 42.5556C30.0843 43.193 30.692 43.8854 31.2379 44.6254C32.3733 46.1198 33.1889 47.8319 33.634 49.655L34.612 49.0548C34.6559 49.0236 34.7083 49.0068 34.7621 49.0068C34.8159 49.0068 34.8684 49.0236 34.9122 49.0548C34.9545 49.0884 34.9853 49.1344 35.0001 49.1864C35.015 49.2383 35.0132 49.2936 34.995 49.3445L34.1152 51.7869L36.444 55.5022L37.3082 54.2189C37.3401 54.1728 37.3861 54.1383 37.4393 54.1205C37.4925 54.1028 37.55 54.1028 37.6032 54.1206C37.656 54.1372 37.702 54.1703 37.7346 54.215C37.7672 54.2597 37.7847 54.3137 37.7843 54.369L37.7688 57.3081Z" fill="#D1D3D4"/>
<path d="M114.659 6.02351V18.5562C114.659 19.1449 114.893 19.7095 115.309 20.1258C115.726 20.5422 116.29 20.776 116.879 20.776H121.593L125.93 24.0256L125.226 20.776H129.884C130.473 20.776 131.037 20.5422 131.454 20.1258C131.87 19.7095 132.104 19.1449 132.104 18.5562V6.02351C132.104 5.43476 131.87 4.87013 131.454 4.45383C131.037 4.03752 130.473 3.80364 129.884 3.80364H116.895C116.602 3.8016 116.311 3.8575 116.04 3.96815C115.769 4.07879 115.522 4.24198 115.315 4.44831C115.107 4.65465 114.942 4.90006 114.829 5.1704C114.717 5.44075 114.659 5.73068 114.659 6.02351Z" fill="white"/>
<path d="M125.93 24.2844C125.874 24.2847 125.819 24.2665 125.775 24.2326L121.505 21.0348H116.879C116.222 21.0334 115.592 20.7718 115.128 20.3073C114.663 19.8428 114.402 19.2131 114.4 18.5562V6.02351C114.402 5.36657 114.663 4.73693 115.128 4.2724C115.592 3.80787 116.222 3.54629 116.879 3.54492H129.868C130.525 3.54629 131.155 3.80787 131.62 4.2724C132.084 4.73693 132.346 5.36657 132.347 6.02351V18.5562C132.346 19.2131 132.084 19.8428 131.62 20.3073C131.155 20.7718 130.525 21.0334 129.868 21.0348H125.558L126.194 23.9739C126.206 24.025 126.201 24.0786 126.181 24.1269C126.16 24.1753 126.125 24.2159 126.08 24.243C126.037 24.2744 125.983 24.2891 125.93 24.2844ZM116.879 4.06237C116.359 4.06237 115.86 4.26899 115.492 4.63678C115.124 5.00456 114.918 5.50339 114.918 6.02351V18.5562C114.918 18.8137 114.968 19.0687 115.067 19.3067C115.166 19.5446 115.31 19.7608 115.492 19.9429C115.674 20.125 115.891 20.2695 116.128 20.368C116.366 20.4666 116.621 20.5173 116.879 20.5173H121.593C121.649 20.5187 121.703 20.5367 121.749 20.5691L125.558 23.4047L124.999 20.8174C124.989 20.7797 124.988 20.7402 124.997 20.7023C125.006 20.6644 125.025 20.6293 125.05 20.6001C125.074 20.569 125.104 20.5439 125.14 20.5268C125.175 20.5098 125.213 20.5012 125.252 20.5018H129.91C130.43 20.5018 130.929 20.2952 131.297 19.9274C131.664 19.5596 131.871 19.0608 131.871 18.5406V6.02351C131.871 5.50339 131.664 5.00456 131.297 4.63678C130.929 4.26899 130.43 4.06237 129.91 4.06237H116.879Z" fill="#E6E7E8"/>
<path d="M123.839 17.7799C123.839 17.7799 117.836 13.9404 117.966 10.22C118.095 6.4995 121.288 6.83067 122.375 7.40504C123.138 7.89541 123.758 8.57922 124.171 9.38688C124.391 8.77281 124.788 8.23707 125.31 7.84612C125.833 7.45518 126.459 7.22624 127.11 7.18771C129.413 7.05835 130.401 9.19025 128.735 12.8331C127.741 15.0101 126.006 16.7633 123.839 17.7799Z" fill="#FFBF08"/>
<path d="M139.012 2.08045V10.5873C139.012 10.9881 139.172 11.3724 139.455 11.6558C139.738 11.9391 140.123 12.0983 140.524 12.0983H143.722L143.81 16.7088L146.185 12.0983H149.337C149.535 12.0983 149.732 12.0592 149.915 11.9833C150.098 11.9074 150.265 11.7961 150.405 11.6558C150.545 11.5154 150.657 11.3489 150.733 11.1656C150.809 10.9822 150.848 10.7858 150.848 10.5873V2.08045C150.848 1.88227 150.809 1.68604 150.733 1.50301C150.657 1.31999 150.545 1.15376 150.405 1.01387C150.264 0.873973 150.098 0.763166 149.915 0.687798C149.731 0.612431 149.535 0.573985 149.337 0.574666H140.539C140.34 0.571924 140.142 0.608847 139.956 0.683291C139.771 0.757735 139.603 0.868216 139.461 1.00831C139.319 1.14841 139.206 1.31534 139.129 1.49939C139.052 1.68344 139.012 1.88095 139.012 2.08045Z" fill="white"/>
<path d="M143.805 16.9468H143.748C143.691 16.9333 143.641 16.9016 143.605 16.8567C143.568 16.8119 143.548 16.7563 143.546 16.6985L143.463 12.3364H140.518C140.05 12.3364 139.601 12.1506 139.269 11.8199C138.937 11.4891 138.75 11.0403 138.749 10.5719V2.08049C138.75 1.61203 138.937 1.16324 139.269 0.832475C139.601 0.501714 140.05 0.315977 140.518 0.315979H149.316C149.784 0.315977 150.234 0.501714 150.566 0.832475C150.897 1.16324 151.084 1.61203 151.086 2.08049V10.5874C151.084 11.0558 150.897 11.5046 150.566 11.8354C150.234 12.1661 149.784 12.3519 149.316 12.3519H146.325L144.022 16.8278C143.999 16.8643 143.966 16.8943 143.928 16.9151C143.89 16.9358 143.848 16.9468 143.805 16.9468ZM140.518 0.812731C140.187 0.812729 139.869 0.943949 139.635 1.17767C139.4 1.41139 139.267 1.72857 139.266 2.05979V10.5874C139.267 10.9186 139.4 11.2358 139.635 11.4695C139.869 11.7032 140.187 11.8344 140.518 11.8344H143.717C143.785 11.8358 143.85 11.8634 143.898 11.9117C143.946 11.9599 143.974 12.025 143.975 12.0932L144.043 15.6791L145.952 11.9793C145.973 11.9362 146.005 11.8997 146.045 11.8741C146.085 11.8484 146.132 11.8347 146.18 11.8344H149.331C149.663 11.8344 149.98 11.7032 150.215 11.4695C150.45 11.2358 150.582 10.9186 150.584 10.5874V2.08049C150.582 1.74927 150.45 1.43209 150.215 1.19837C149.98 0.964647 149.663 0.833427 149.331 0.83343L140.518 0.812731Z" fill="#E6E7E8"/>
<path d="M145.223 10.0596C145.223 10.0596 141.15 7.47236 141.238 4.93685C141.326 2.40134 143.494 2.63419 144.234 3.02745C144.75 3.36177 145.17 3.82568 145.45 4.37282C145.6 3.95295 145.871 3.58664 146.228 3.31972C146.585 3.0528 147.013 2.89714 147.458 2.87222C149.011 2.78425 149.689 4.22794 148.56 6.70653C147.882 8.18534 146.698 9.37406 145.223 10.0596Z" fill="#FFBF08"/>
<path d="M80.9542 8.15018C79.4628 8.87821 78.1581 9.9381 77.1399 11.2486C76.1218 12.559 75.4173 14.0852 75.0806 15.7101C74.8729 16.6256 74.8641 17.5749 75.0547 18.494C75.655 21.0295 78.346 22.6699 80.949 22.7164C83.552 22.763 86.0205 21.5315 88.106 19.9791C90.7505 18.0231 93.9952 13.511 92.2978 9.98196C90.5279 6.31841 83.9402 6.72719 80.9542 8.15018Z" fill="#231F20"/>
<path d="M81.0939 22.9854H80.9438C78.0251 22.9337 75.3859 21.0294 74.8011 18.5664C74.6028 17.6097 74.6117 16.6216 74.827 15.6686C75.1712 14.0021 75.892 12.4364 76.9343 11.0911C77.9765 9.74584 79.3126 8.65667 80.8403 7.90688C83.9194 6.43214 90.6728 6.05441 92.5306 9.86284C94.2798 13.485 91.0868 18.08 88.2613 20.1756C85.7617 22.0488 83.3554 22.9854 81.0939 22.9854ZM86.1188 7.37391C84.3798 7.36247 82.6575 7.71499 81.0629 8.40881C79.6162 9.12225 78.351 10.1555 77.3629 11.4304C76.3749 12.7052 75.6899 14.1882 75.36 15.767C75.1588 16.648 75.1482 17.5619 75.329 18.4474C75.9344 21.0036 78.6927 22.4266 80.9801 22.4731C83.1587 22.5145 85.5185 21.609 87.9818 19.7824C90.5693 17.8523 93.6743 13.4384 92.0908 10.106C91.1024 8.10351 88.6183 7.37391 86.1188 7.37391Z" fill="#231F20"/>
<path d="M74.8425 32.9361C72.8708 32.9361 70.8215 32.9361 69.0258 32.1444C65.9208 30.7472 65.3619 27.6322 67.1628 24.9828C72.6069 16.9623 81.9736 12.6882 90.9109 8.94186C94.4661 7.44643 98.8234 6.04931 101.928 8.34162C104.402 10.1734 104.956 13.8266 103.926 16.7295C102.896 19.6324 100.609 21.904 98.2335 23.8548C90.1191 30.5144 79.086 34.7213 69.0206 31.658C68.9585 32.3617 67.1059 31.0008 67.6906 31.4044C68.2954 31.7719 68.9675 32.0147 69.6675 32.1185C73.2334 32.8562 76.9068 32.9124 80.4936 32.2841" fill="#231F20"/>
<path d="M73.9679 33.2C72.2489 33.2858 70.5312 33.0072 68.9275 32.3825C68.6189 32.2343 68.323 32.0612 68.0426 31.865C67.8419 31.7745 67.6511 31.6635 67.4733 31.5338C67.433 31.5052 67.3995 31.4681 67.375 31.4252C67.3597 31.3927 67.3509 31.3575 67.3491 31.3217C66.7487 30.7596 66.3138 30.0437 66.0916 29.2519C65.905 28.4936 65.888 27.7034 66.0419 26.9378C66.1958 26.1722 66.5166 25.4499 66.9817 24.8225C72.3274 16.9469 81.3113 12.6934 90.8229 8.69872C94.6162 7.10497 98.9218 5.79065 102.089 8.12952C104.78 10.1165 105.194 14.0026 104.159 16.8124C103.046 19.9429 100.49 22.3284 98.3888 24.0567C92.7894 28.6465 86.5898 31.5442 80.5661 32.5325H80.5298C78.7359 32.8443 76.9167 32.9881 75.0961 32.962C75.0875 33.0238 75.0574 33.0806 75.011 33.1222C74.9646 33.1639 74.9049 33.1878 74.8425 33.1897L73.9679 33.2ZM69.0361 31.3941H69.1034C78.0303 34.1004 88.8616 31.1975 98.0834 23.6324C100.153 21.9506 102.627 19.6325 103.698 16.6157C104.63 13.9871 104.278 10.3597 101.789 8.52279C98.8286 6.33397 94.6886 7.61207 91.0247 9.1489C81.57 13.1385 72.6742 17.3402 67.3853 25.1226C66.9622 25.6887 66.6691 26.3411 66.5268 27.0333C66.3846 27.7256 66.3968 28.4407 66.5625 29.1277C66.8353 30.0775 67.4417 30.8969 68.2703 31.4355C68.431 31.5243 68.6062 31.5839 68.7878 31.6114C68.8008 31.5482 68.8379 31.4925 68.8913 31.4562C68.9326 31.422 68.9829 31.4005 69.0361 31.3941Z" fill="#231F20"/>
<path d="M120.734 54.0378C120.734 54.0378 125.48 53.391 127.219 51.0314C128.957 48.6718 131.566 47.3575 132.228 47.7507C132.89 48.144 133.781 51.9835 133.423 52.4492C133.066 52.9149 121.935 60.1437 121.661 60.2524" fill="white"/>
<path d="M121.661 60.5111C121.627 60.5179 121.592 60.5179 121.558 60.5112C121.524 60.5044 121.491 60.4911 121.463 60.4719C121.434 60.4527 121.409 60.4279 121.39 60.3992C121.37 60.3704 121.357 60.3381 121.35 60.3041C121.343 60.2701 121.343 60.2351 121.35 60.2011C121.357 60.1672 121.37 60.1348 121.389 60.106C121.409 60.0772 121.433 60.0524 121.462 60.0331C121.491 60.0138 121.523 60.0004 121.557 59.9936C122.189 59.6676 132.808 52.7183 133.222 52.2629C133.444 51.8282 132.637 48.2734 132.094 47.9525C131.633 47.6731 129.17 48.8012 127.436 51.1659C125.702 53.5307 120.978 54.2706 120.781 54.2706C120.747 54.2765 120.712 54.2753 120.679 54.267C120.646 54.2588 120.615 54.2438 120.587 54.2229C120.56 54.202 120.537 54.1756 120.521 54.1456C120.504 54.1155 120.494 54.0823 120.491 54.0481C120.482 53.9802 120.501 53.9116 120.543 53.8572C120.584 53.8029 120.646 53.7674 120.714 53.7583C120.76 53.7583 125.371 53.1012 127.022 50.8606C128.745 48.5166 131.493 46.9849 132.373 47.5075C133.072 47.9215 133.584 50.5087 133.605 50.6122C133.812 51.6471 133.822 52.3302 133.641 52.5734C133.227 53.1167 121.863 60.4179 121.775 60.4593C121.742 60.4866 121.703 60.5045 121.661 60.5111Z" fill="#231F20"/>
<path d="M132.704 45.3277L132.699 45.3257C132.339 45.1787 131.928 45.3512 131.781 45.711L127.161 57.0208C127.014 57.3806 127.186 57.7914 127.546 57.9384L127.551 57.9404C127.911 58.0873 128.322 57.9148 128.469 57.555L133.089 46.2452C133.236 45.8855 133.064 45.4746 132.704 45.3277Z" fill="#231F20"/>
<path d="M127.824 58.2394C127.7 58.2389 127.577 58.2143 127.462 58.167C127.228 58.0686 127.042 57.8818 126.945 57.6473C126.849 57.4128 126.848 57.1495 126.944 56.9147L131.561 45.6084C131.66 45.3741 131.848 45.1885 132.083 45.0916C132.318 44.9948 132.582 44.9945 132.818 45.091C132.934 45.1388 133.04 45.2092 133.128 45.298C133.217 45.3868 133.288 45.4923 133.336 45.6084C133.431 45.844 133.431 46.1076 133.336 46.3432L128.714 57.6495C128.667 57.7662 128.597 57.8722 128.508 57.9612C128.42 58.0501 128.313 58.1201 128.197 58.167C128.079 58.2161 127.952 58.2408 127.824 58.2394ZM127.653 57.6909C127.707 57.714 127.765 57.7259 127.824 57.7259C127.883 57.7259 127.941 57.714 127.995 57.6909C128.105 57.6452 128.192 57.5578 128.238 57.4477L132.854 46.1414C132.877 46.0865 132.889 46.0275 132.889 45.968C132.889 45.9085 132.877 45.8496 132.854 45.7947C132.807 45.6869 132.72 45.6016 132.611 45.5567C132.501 45.512 132.378 45.5125 132.269 45.5581C132.159 45.6036 132.072 45.6905 132.026 45.7999L127.41 57.1062C127.365 57.216 127.366 57.3391 127.412 57.4485C127.457 57.558 127.544 57.6451 127.653 57.6909Z" fill="#231F20"/>
<path d="M139.106 30.7211L138.358 30.4158L132.311 45.2177L133.059 45.5229L139.106 30.7211Z" fill="#231F20"/>
<path d="M133.066 45.7688C133.034 45.7765 133 45.7765 132.968 45.7688L132.223 45.4687C132.191 45.4562 132.163 45.4374 132.139 45.4133C132.115 45.3893 132.096 45.3606 132.083 45.329C132.057 45.266 132.057 45.1953 132.083 45.1323L138.133 30.3281C138.144 30.2966 138.162 30.268 138.185 30.2439C138.208 30.2198 138.236 30.2009 138.267 30.1884C138.33 30.1625 138.401 30.1625 138.464 30.1884L139.214 30.4937C139.277 30.52 139.327 30.5701 139.353 30.6331C139.38 30.6961 139.38 30.7668 139.354 30.83L133.32 45.6084C133.299 45.6577 133.264 45.6995 133.218 45.7281C133.173 45.7568 133.12 45.771 133.066 45.7688ZM132.652 45.0651L132.922 45.1737L138.774 30.8507L138.505 30.742L132.652 45.0651Z" fill="#231F20"/>
<path d="M131.441 48.1544C131.34 48.155 131.241 48.1798 131.152 48.2268C131.058 48.3095 130.998 48.4231 130.982 48.5467C130.966 48.6703 130.995 48.7956 131.064 48.8995C131.223 49.0981 131.432 49.2516 131.669 49.3445C131.472 49.2821 131.262 49.2679 131.059 49.3031C130.957 49.3246 130.866 49.3807 130.8 49.4618C130.735 49.543 130.7 49.6441 130.701 49.7481C130.748 50.1 131.266 50.1465 131.473 50.4311C131.277 50.3684 131.072 50.3387 130.867 50.3432C130.764 50.3439 130.663 50.3703 130.572 50.42C130.482 50.4697 130.405 50.5411 130.35 50.6278C130.298 50.7479 130.284 50.8806 130.309 51.0089C130.334 51.1371 130.397 51.2549 130.489 51.347C130.678 51.5243 130.902 51.6601 131.146 51.7455C130.774 51.6627 130.287 51.7455 130.158 52.1077C130.029 52.4699 130.308 52.7907 130.598 53.0029C131.022 53.3012 131.519 53.48 132.037 53.5203C132.238 53.5495 132.444 53.537 132.641 53.4836C132.837 53.4302 133.021 53.3371 133.18 53.2099C133.344 53.0399 133.472 52.8394 133.558 52.62C133.891 51.8683 134.1 51.0682 134.179 50.25C134.236 49.6498 134.21 48.7443 133.589 48.4183C132.905 48.1588 132.168 48.0683 131.441 48.1544Z" fill="white"/>
<path d="M132.238 53.805C132.166 53.81 132.093 53.81 132.021 53.805C131.46 53.7545 130.923 53.5523 130.469 53.2203C130.266 53.1033 130.107 52.9246 130.014 52.7104C129.921 52.4962 129.899 52.2577 129.951 52.0301C129.987 51.9294 130.044 51.8373 130.118 51.7598C130.192 51.6823 130.282 51.621 130.381 51.5799L130.334 51.5334C130.202 51.4001 130.113 51.2291 130.082 51.0438C130.05 50.8585 130.077 50.668 130.158 50.4985C130.268 50.3168 130.441 50.1822 130.645 50.1207C130.552 50.0269 130.494 49.9048 130.479 49.774C130.468 49.6279 130.504 49.482 130.583 49.3581C130.661 49.2342 130.777 49.1387 130.914 49.0858L130.877 49.0341C130.758 48.8487 130.717 48.6235 130.764 48.408C130.782 48.3239 130.817 48.2443 130.867 48.1741C130.917 48.1039 130.98 48.0444 131.053 47.9992C131.176 47.932 131.312 47.8948 131.452 47.8905C132.23 47.8045 133.018 47.913 133.744 48.2062C134.324 48.5063 134.572 49.2411 134.474 50.276C134.391 51.1229 134.173 51.9511 133.827 52.7287C133.73 52.9802 133.582 53.2091 133.392 53.4014C133.075 53.6805 132.661 53.8252 132.238 53.805ZM130.877 51.9784C130.665 51.9784 130.458 52.0456 130.406 52.1905C130.355 52.3354 130.531 52.6304 130.753 52.7908C131.137 53.0703 131.59 53.2402 132.062 53.2823C132.398 53.3294 132.738 53.242 133.009 53.0391C133.151 52.8914 133.258 52.7149 133.325 52.5217C133.65 51.7957 133.853 51.0213 133.925 50.2294C133.972 49.7533 133.972 48.9151 133.475 48.677C132.837 48.4283 132.148 48.3394 131.467 48.4183C131.407 48.4177 131.347 48.43 131.291 48.4545C131.268 48.4745 131.251 48.5018 131.245 48.5321C131.23 48.6122 131.245 48.6949 131.286 48.765C131.427 48.923 131.605 49.0439 131.804 49.1169C131.863 49.1435 131.91 49.1913 131.935 49.2508C131.961 49.3104 131.963 49.3773 131.941 49.4383C131.92 49.4994 131.876 49.5503 131.819 49.5808C131.762 49.6113 131.696 49.6193 131.633 49.6033C131.474 49.5518 131.306 49.5376 131.141 49.5619C131.048 49.5619 130.976 49.6705 130.981 49.7223C130.986 49.774 131.09 49.8516 131.25 49.9344C131.424 50.0174 131.578 50.1375 131.7 50.2863C131.731 50.3301 131.748 50.3826 131.748 50.4364C131.748 50.4902 131.731 50.5426 131.7 50.5864C131.669 50.6293 131.626 50.662 131.576 50.6804C131.526 50.6988 131.472 50.7021 131.421 50.6899C131.254 50.6323 131.079 50.6043 130.903 50.6071C130.843 50.6053 130.784 50.6186 130.731 50.6457C130.677 50.6729 130.632 50.713 130.598 50.7624C130.573 50.8339 130.569 50.9113 130.588 50.9848C130.606 51.0584 130.646 51.125 130.701 51.1763C130.865 51.328 131.059 51.4427 131.271 51.5127C131.33 51.5389 131.378 51.5862 131.404 51.6454C131.431 51.7046 131.435 51.7715 131.416 51.8335C131.395 51.895 131.353 51.9467 131.296 51.9783C131.24 52.0099 131.173 52.0192 131.11 52.0042C131.034 51.9865 130.956 51.9778 130.877 51.9784Z" fill="#231F20"/>
<path d="M83.6659 98.8386C83.6659 98.8386 68.5549 108.919 52.502 109.881L48.569 103.051L77.6681 89.0018L83.6659 98.8386Z" fill="white"/>
<path d="M52.502 110.14C52.4569 110.139 52.4126 110.127 52.3735 110.105C52.3345 110.082 52.3021 110.049 52.2795 110.01L48.3465 103.18C48.3313 103.149 48.3235 103.114 48.3235 103.079C48.3235 103.044 48.3313 103.01 48.3465 102.978C48.3641 102.923 48.4008 102.875 48.45 102.844L77.5438 88.7949C77.6022 88.7673 77.6687 88.762 77.7307 88.7801C77.7927 88.7982 77.8459 88.8385 77.8802 88.8932L83.878 98.7247C83.9118 98.7815 83.9226 98.8491 83.9081 98.9135C83.8937 98.978 83.8552 99.0345 83.8004 99.0714C83.6452 99.1749 68.441 109.203 52.5072 110.16L52.502 110.14ZM48.9313 103.164L52.6469 109.612C67.375 108.675 81.4458 99.9563 83.314 98.7454L77.5697 89.3278L48.9313 103.164Z" fill="#231F20"/>
<path d="M102.461 96.4688C102.461 96.4688 113.691 112.51 121.697 117.467L125.93 113.457C125.93 113.457 112.103 85.7679 107.181 85.0279C101.261 84.1483 98.7406 99.1285 102.461 96.4688Z" fill="white"/>
<path d="M121.697 117.726C121.648 117.724 121.6 117.71 121.557 117.684C114.09 113.058 103.735 98.7041 102.41 96.8206C102.222 96.9633 101.993 97.0406 101.758 97.0406C101.522 97.0406 101.293 96.9633 101.106 96.8206C99.9516 95.884 100.49 92.0032 101.742 89.1572C103.114 86.0525 105.116 84.4432 107.233 84.7588C109.349 85.0745 113.205 89.9954 118.649 99.3768C122.675 106.316 126.142 113.26 126.179 113.348C126.204 113.398 126.213 113.454 126.203 113.509C126.194 113.564 126.167 113.615 126.127 113.653L121.888 117.658C121.863 117.682 121.833 117.7 121.8 117.712C121.767 117.724 121.732 117.728 121.697 117.726ZM102.461 96.21H102.503C102.571 96.2245 102.632 96.2631 102.674 96.3187C102.782 96.4791 113.805 112.148 121.666 117.141L125.614 113.405C125.056 112.292 121.852 105.969 118.183 99.6459C111.507 88.143 108.496 85.4885 107.14 85.2866C104.485 84.8882 102.798 88.0188 102.198 89.3797C100.852 92.4326 100.645 95.8116 101.416 96.4377C101.613 96.5981 101.934 96.536 102.311 96.2566C102.355 96.2253 102.408 96.2089 102.461 96.21Z" fill="#231F20"/>
<path d="M118.613 116.003L124.522 122.683L128.73 118.802L127.995 118.171C128.525 117.811 129.074 117.481 129.641 117.182C130.676 116.629 134.712 111.832 134.712 111.832C134.712 111.832 134.055 109.726 131.385 110.704C128.714 111.682 128.347 113.959 127.555 114.047C126.763 114.135 124.45 109.855 124.45 110.14C124.45 110.424 118.613 116.003 118.613 116.003Z" fill="#231F20"/>
<path d="M124.523 122.942C124.453 122.936 124.388 122.905 124.341 122.854L118.457 116.168C118.412 116.121 118.386 116.058 118.386 115.992C118.386 115.927 118.412 115.863 118.457 115.816C120.558 113.803 123.953 110.486 124.217 110.062C124.23 110.019 124.253 109.98 124.284 109.948C124.316 109.916 124.355 109.893 124.398 109.881C124.621 109.814 124.657 109.881 125.252 110.828C125.713 111.552 127.105 113.767 127.534 113.793C127.71 113.793 127.938 113.436 128.207 113.053C128.922 111.866 130.016 110.955 131.312 110.466C131.703 110.288 132.127 110.194 132.556 110.189C132.985 110.183 133.411 110.267 133.806 110.435C134.35 110.712 134.768 111.185 134.976 111.759C134.988 111.801 134.99 111.844 134.982 111.887C134.974 111.929 134.956 111.969 134.929 112.003C134.759 112.199 130.846 116.841 129.754 117.415C129.149 117.741 128.683 118.026 128.414 118.202L128.89 118.61C128.917 118.635 128.939 118.664 128.954 118.697C128.969 118.73 128.977 118.766 128.978 118.802C128.977 118.876 128.947 118.946 128.895 118.999L124.688 122.879C124.641 122.917 124.583 122.939 124.523 122.942ZM118.99 116.018L124.523 122.315L128.321 118.807L127.803 118.367C127.774 118.342 127.75 118.31 127.735 118.274C127.719 118.238 127.713 118.199 127.715 118.16C127.716 118.121 127.727 118.083 127.746 118.049C127.765 118.014 127.792 117.985 127.824 117.964C128.36 117.585 128.918 117.239 129.496 116.929C130.282 116.504 133.201 113.162 134.391 111.754C134.215 111.367 133.912 111.051 133.532 110.859C133.201 110.728 132.848 110.665 132.492 110.673C132.136 110.682 131.786 110.763 131.462 110.911C130.271 111.368 129.27 112.214 128.621 113.312C128.269 113.829 127.99 114.228 127.586 114.274C126.975 114.331 126.189 113.239 124.817 111.071C124.693 110.869 124.564 110.668 124.466 110.518C124.005 111.123 122.68 112.458 118.97 116.018H118.99Z" fill="#231F20"/>
<path d="M52.502 109.881C52.2847 109.757 48.155 102.901 48.155 102.901L40.201 107.734C40.201 107.734 41.9295 111.252 42.4004 111.289C42.6774 111.309 42.955 111.259 43.2077 111.144C43.0773 111.784 43.1801 112.45 43.4975 113.022C44.015 113.783 47.2649 118.683 48.0722 118.372C48.8795 118.062 47.5185 113.379 48.6932 111.992C49.868 110.605 52.502 109.881 52.502 109.881Z" fill="#231F20"/>
<path d="M47.9946 118.642C47.4771 118.642 46.4421 117.783 43.4665 113.431L43.275 113.193C42.9704 112.697 42.8359 112.116 42.892 111.537C42.7219 111.572 42.5476 111.582 42.3745 111.568C41.9657 111.537 41.1532 110.295 39.9682 107.873C39.9397 107.816 39.934 107.75 39.9522 107.688C39.9704 107.627 40.0113 107.575 40.0665 107.542L48.0153 102.709C48.0445 102.691 48.0769 102.679 48.1107 102.674C48.1445 102.669 48.179 102.671 48.2122 102.679C48.2454 102.687 48.2766 102.702 48.3041 102.722C48.3316 102.742 48.3548 102.768 48.3724 102.797C49.899 105.328 52.414 109.446 52.6676 109.715C52.7082 109.739 52.7402 109.774 52.7588 109.817C52.7775 109.86 52.7818 109.908 52.7711 109.954C52.7613 110.004 52.7362 110.051 52.6992 110.087C52.6622 110.123 52.6151 110.147 52.5641 110.155C52.5382 110.155 49.9766 110.88 48.8847 112.184C48.2999 112.872 48.4241 114.621 48.5276 116.028C48.6311 117.436 48.6984 118.429 48.1602 118.616C48.1071 118.634 48.0509 118.643 47.9946 118.642ZM43.2077 110.88C43.2639 110.879 43.3187 110.897 43.363 110.931C43.4032 110.96 43.434 111 43.4515 111.046C43.469 111.092 43.4724 111.142 43.4613 111.19C43.3444 111.759 43.4324 112.351 43.7097 112.862L43.8908 113.131C47.0269 117.741 47.8135 118.119 47.9842 118.119C48.1498 117.979 48.067 116.805 47.9842 116.049C47.8756 114.471 47.7462 112.686 48.4655 111.837C49.4281 110.699 51.2807 110.005 52.0518 109.767C51.6482 109.172 50.639 107.594 48.036 103.284L40.5064 107.858C41.2412 109.333 42.152 110.926 42.4263 111.066C42.6436 111.075 42.8599 111.032 43.0576 110.942C43.1003 110.908 43.1532 110.89 43.2077 110.89V110.88Z" fill="#231F20"/>
<path d="M97.8454 34.9904C97.8454 34.9904 107.269 55.0778 111.264 54.6225C115.259 54.1671 122.271 52.1387 122.271 52.1387L124.554 60.1902C124.554 60.1902 118.457 66.3996 108.542 63.6675C98.6268 60.9354 94.2074 48.796 94.2074 48.796L97.8454 34.9904Z" fill="#7800FF"/>
<path d="M95.4442 16.626C93.7105 14.3595 90.9212 12.9055 88.0594 13.2108C84.1627 13.6247 82.3669 14.3337 79.2619 17.0089C74.8395 20.8655 69.308 23.2206 63.4627 23.7357C61.2892 23.9168 59.038 23.8548 57.0094 24.662C52.8694 26.292 50.7995 31.275 51.4619 35.663C52.1243 40.051 54.9291 43.8284 58.1894 46.8296C59.6814 48.2562 61.3595 49.4747 63.1781 50.4517C70.1488 54.0118 79.1015 51.942 84.9803 46.7727C89.0789 43.1505 91.8475 38.302 93.5449 33.1585C94.316 30.8248 94.8232 28.6412 95.9099 26.4627C97.095 24.0824 97.6901 21.8056 96.7586 19.1149C96.4556 18.2207 96.0119 17.3805 95.4442 16.626Z" fill="#FFBF08"/>
<path d="M70.8733 52.4388C68.1699 52.4656 65.4988 51.8502 63.0797 50.6433C61.2373 49.6664 59.5392 48.4387 58.0341 46.9953C54.0908 43.3731 51.7982 39.5595 51.2238 35.6786C50.6132 31.539 52.4089 26.1937 56.9163 24.4033C58.5361 23.7617 60.2956 23.6582 61.993 23.5547C62.4794 23.5547 62.9659 23.4978 63.4472 23.4564C69.2356 22.9523 74.7157 20.6282 79.1015 16.8175C82.1185 14.1785 83.9505 13.3868 88.0181 12.9522C89.4821 12.8434 90.9498 13.1094 92.2826 13.725C93.6154 14.3407 94.7694 15.2856 95.6356 16.4708C96.2333 17.2376 96.7001 18.0978 97.0174 19.0167C98.0524 22.0334 97.1726 24.5224 96.1531 26.5611C95.4352 28.0975 94.8484 29.6917 94.3988 31.3268C94.2125 31.953 94.0159 32.5791 93.8037 33.2259C91.9355 38.8765 88.9496 43.6267 85.1614 46.9487C81.212 50.434 76.1406 52.3826 70.8733 52.4388ZM88.815 13.4282C88.573 13.4274 88.3312 13.4395 88.0905 13.4644C84.1523 13.8836 82.398 14.6546 79.4534 17.2056C74.9866 21.0875 69.405 23.455 63.5093 23.9687C63.0228 24.0101 62.5312 24.0411 62.0395 24.0722C60.3784 24.1705 58.6655 24.2688 57.1233 24.8794C52.8488 26.5715 51.1617 31.6684 51.7413 35.601C52.295 39.368 54.5306 43.073 58.386 46.6175C59.8576 48.0277 61.5173 49.2275 63.3178 50.1828C69.7865 53.4893 78.6306 51.9938 84.8302 46.5606C88.5459 43.2955 91.4801 38.6229 93.3224 33.0551C93.5346 32.4187 93.7261 31.7925 93.9124 31.1716C94.3679 29.5091 94.9652 27.8887 95.6978 26.3283C96.6655 24.3826 97.5245 22.0179 96.5361 19.1771C96.2343 18.3199 95.7975 17.5163 95.2423 16.7968C94.4987 15.7825 93.533 14.9517 92.419 14.3678C91.305 13.784 90.0723 13.4626 88.815 13.4282Z" fill="#231F20"/>
<path d="M98.6475 32.5222C98.3474 32.0513 81.0525 27.1821 75.6446 32.2324C70.2368 37.2827 73.7144 65.1682 73.7144 65.1682C73.7144 65.1682 81.6994 67.6675 88.0698 65.6856C94.4402 63.7038 95.2631 61.3183 95.2631 61.3183C95.2631 61.3183 106.777 45.4067 98.6475 32.5222Z" fill="#7800FF"/>
<path d="M95.2682 61.3027L114.659 87.967C114.721 87.967 107.849 101.736 93.4414 102.901C68.41 104.929 65.3567 94.9422 65.3567 94.9422L73.5487 63.6727C73.5487 63.6727 90.0777 65.7632 95.2682 61.3027Z" fill="#231F20"/>
<path d="M87.0037 103.434C67.9287 103.434 65.2325 95.3977 65.1187 95.0199C65.1059 94.9742 65.1059 94.9259 65.1187 94.8802L73.29 63.6055C73.3048 63.5451 73.3417 63.4924 73.3935 63.458C73.4452 63.4235 73.508 63.4096 73.5694 63.4192C73.735 63.4192 90.0415 65.4424 95.0923 61.1062C95.1186 61.0823 95.1499 61.0648 95.184 61.055C95.2181 61.0451 95.254 61.0431 95.2889 61.0493C95.325 61.0516 95.36 61.0622 95.3914 61.0801C95.4228 61.098 95.4497 61.1229 95.47 61.1528L114.866 87.8377C114.892 87.8761 114.908 87.9203 114.912 87.9664C114.917 88.0125 114.91 88.0589 114.892 88.1016C114.835 88.2413 107.864 102.021 93.4673 103.185C91.1282 103.361 88.9754 103.434 87.0037 103.434ZM65.6362 94.932C65.9622 95.7754 69.9935 104.546 93.4259 102.647C106.953 101.55 113.696 89.2866 114.359 87.9929L95.2113 61.6754C90.0622 65.7063 75.7844 64.1954 73.7299 63.9573L65.6362 94.932Z" fill="#231F20"/>
<path d="M98.6475 32.5222C98.6475 32.5222 85.2287 65.4579 81.6683 66.8395C78.1079 68.2211 65.9984 66.3221 67.375 64.4437C68.7515 62.5654 73.2175 58.8604 73.2175 58.8604L72.7828 53.9912C72.7828 53.9912 52.8798 72.4849 54.3495 76.6763C55.8192 80.8676 75.479 86.751 78.3822 84.5312C81.2854 82.3113 97.1933 46.1001 98.6527 40.7341C100.112 35.3682 101.095 34.2349 100.573 33.1897C100.05 32.1444 98.6475 32.5222 98.6475 32.5222Z" fill="#231F20"/>
<path d="M76.0431 85.2504C73.4866 85.2504 69.7141 84.4173 66.5884 83.4859C61.3771 81.9336 54.9808 79.2273 54.1063 76.7332C53.4646 74.8962 56.3988 70.4669 62.8261 63.5589C67.5716 58.4672 72.5603 53.8256 72.6069 53.779C72.6424 53.7461 72.6865 53.7238 72.734 53.7146C72.7816 53.7055 72.8308 53.7099 72.876 53.7273C72.9211 53.7445 72.9606 53.7739 72.9898 53.8123C73.0191 53.8507 73.037 53.8966 73.0416 53.9446L73.4763 58.8139C73.4796 58.8549 73.4728 58.8962 73.4566 58.934C73.4404 58.9719 73.4152 59.0052 73.3831 59.0312C73.3417 59.0674 68.9275 62.7775 67.5871 64.599C67.5655 64.6197 67.5484 64.6446 67.5366 64.6722C67.5249 64.6998 67.5188 64.7294 67.5188 64.7594C67.5188 64.7893 67.5249 64.819 67.5366 64.8465C67.5484 64.8741 67.5655 64.899 67.5871 64.9198C68.7256 66.41 78.3822 67.833 81.5596 66.6015C84.4007 65.4993 94.6783 41.5569 98.3991 32.4497C98.4127 32.4133 98.4348 32.3807 98.4636 32.3545C98.4925 32.3284 98.5271 32.3096 98.5647 32.2997C99.1184 32.1341 100.293 32.0875 100.785 33.0655C101.147 33.7899 100.893 34.5195 100.34 36.1184C99.9723 37.1844 99.4703 38.6436 98.8856 40.7755C98.1714 43.4042 93.9538 53.5565 89.2807 63.8952C86.6622 69.6803 80.3746 83.2945 78.5219 84.7123C78.0458 85.09 77.1609 85.2504 76.0431 85.2504ZM72.5758 54.5138C66.8316 59.8953 53.4594 73.3491 54.5927 76.5624C55.2396 78.4046 60.2335 81.0487 66.7333 82.9892C72.3274 84.6605 77.0522 85.1987 78.2269 84.3035C80.9852 82.1923 96.8569 46.395 98.4094 40.641C98.9942 38.4677 99.5065 37.0188 99.874 35.927C100.391 34.4264 100.609 33.8054 100.345 33.2776C99.9982 32.5843 99.1547 32.6826 98.8442 32.7602C97.8092 35.2905 85.3219 65.7167 81.7666 67.0931C78.6616 68.3091 68.56 67.0362 67.1938 65.2509C67.0799 65.1219 67.0148 64.9569 67.0101 64.7848C67.0054 64.6126 67.0612 64.4443 67.168 64.3092C68.4462 62.5705 72.255 59.3261 72.9484 58.7414L72.5758 54.5138Z" fill="#231F20"/>
<path d="M76.395 84.852C73.8783 84.8089 71.3691 84.565 68.8912 84.1224C68.8582 84.1162 68.8266 84.1035 68.7985 84.085C68.7704 84.0665 68.7462 84.0426 68.7274 84.0146C68.7086 83.9867 68.6956 83.9553 68.6891 83.9223C68.6825 83.8892 68.6827 83.8552 68.6894 83.8223C68.702 83.7551 68.7406 83.6957 68.7968 83.6569C68.8531 83.6182 68.9224 83.6032 68.9896 83.6153C69.0413 83.6153 74.4647 84.6502 78.346 84.2518C81.451 83.9413 86.7968 69.6648 88.5873 64.185C88.6104 64.1222 88.657 64.0708 88.7173 64.0416C88.7775 64.0124 88.8467 64.0077 88.9104 64.0285C88.974 64.0492 89.0271 64.0938 89.0586 64.153C89.09 64.2121 89.0973 64.281 89.0789 64.3454C88.8098 65.163 82.486 84.3604 78.3977 84.764C77.7715 84.8261 77.0936 84.852 76.395 84.852Z" fill="white"/>
<path d="M90.5176 31.3941L90.3675 35.9528C90.3675 35.9528 89.7051 38.0226 86.6777 37.1999C83.6503 36.3771 83.2519 34.2763 83.2519 34.2763L83.8522 25.7797C83.8522 25.7797 88.696 23.3632 88.1578 18.4423C88.7268 19.5936 89.6365 20.542 90.7632 21.1585C91.89 21.775 93.1792 22.0299 94.4558 21.8885C94.4351 24.1386 94.2744 26.3852 93.9745 28.6153C93.5346 30.9749 90.5176 31.3941 90.5176 31.3941Z" fill="white"/>
<path d="M87.9767 37.6448C87.5111 37.6404 87.0482 37.5743 86.6001 37.4482C83.4485 36.5996 83.0035 34.4108 82.9776 34.3435C82.9748 34.3212 82.9748 34.2986 82.9776 34.2762L83.5831 25.7435C83.5881 25.699 83.6039 25.6564 83.6291 25.6194C83.6544 25.5824 83.6883 25.5522 83.728 25.5313C83.7745 25.5313 88.3855 23.1355 87.8938 18.4526C87.8882 18.392 87.904 18.3313 87.9387 18.2813C87.9733 18.2312 88.0245 18.195 88.0832 18.1789C88.1419 18.1629 88.2044 18.168 88.2597 18.1934C88.3149 18.2189 88.3595 18.263 88.3855 18.318C88.9234 19.4271 89.7935 20.3411 90.875 20.9327C91.9564 21.5244 93.1954 21.7644 94.4195 21.6194C94.4556 21.6153 94.4922 21.6187 94.5269 21.6294C94.5616 21.6401 94.5938 21.6578 94.6214 21.6815C94.6734 21.7338 94.7031 21.8043 94.7042 21.8781C94.687 24.144 94.5245 26.4065 94.2177 28.6515C93.8244 30.8041 91.5008 31.4458 90.766 31.5958L90.6159 35.9476C90.6184 35.97 90.6184 35.9925 90.6159 36.0149C90.4044 36.5304 90.0351 36.9657 89.561 37.2585C89.0869 37.5513 88.5323 37.6865 87.9767 37.6448ZM83.5054 34.2504C83.5624 34.5039 84.0695 36.227 86.7346 36.9463C89.3221 37.6397 90.0053 36.1442 90.1036 35.9114L90.2588 31.3889C90.2617 31.3282 90.2853 31.2703 90.3259 31.2251C90.3664 31.1798 90.4213 31.1499 90.4814 31.1405C90.5072 31.1405 93.3173 30.7162 93.7106 28.5532C94.0016 26.4316 94.1588 24.2937 94.1815 22.1524C93.0686 22.2334 91.9539 22.022 90.9481 21.5391C89.9422 21.0562 89.0802 20.3186 88.4476 19.3995C88.313 23.3373 84.8251 25.5054 84.0902 25.9194L83.5054 34.2504Z" fill="#231F20"/>
<path d="M85.2908 25.5727C85.1972 25.152 84.9703 24.7727 84.6439 24.4913C84.3321 24.248 83.9824 24.0575 83.6089 23.9272C83.4097 23.8349 83.192 23.7889 82.9724 23.7927C82.8174 23.8136 82.668 23.8646 82.5325 23.9428C82.1897 24.0958 81.9139 24.3679 81.7563 24.7086C81.6657 24.9891 81.6444 25.2874 81.6942 25.5779C81.723 25.8965 81.7944 26.2097 81.9064 26.5093C82.0236 26.8068 82.1989 27.078 82.422 27.3071C82.645 27.5362 82.9114 27.7186 83.2057 27.8438C83.4999 27.969 83.8161 28.0345 84.1359 28.0363C84.4557 28.0382 84.7726 27.9765 85.0683 27.8547" fill="white"/>
<path d="M84.1575 28.2791C83.6224 28.2779 83.0998 28.1167 82.6571 27.816C82.2144 27.5154 81.8718 27.0892 81.6735 26.5922C81.5546 26.2706 81.4781 25.9349 81.4458 25.5935C81.3926 25.2609 81.4192 24.9204 81.5234 24.6C81.6997 24.2069 82.0121 23.8908 82.4032 23.71C82.5632 23.6206 82.7389 23.5627 82.9207 23.5392C83.1803 23.5287 83.4389 23.5783 83.6762 23.6841C84.0848 23.8207 84.4666 24.0273 84.8044 24.2947C85.177 24.612 85.4351 25.0429 85.5392 25.5211C85.5531 25.5876 85.5403 25.6569 85.5035 25.714C85.4667 25.7711 85.4089 25.8115 85.3426 25.8264C85.3093 25.834 85.2748 25.835 85.2411 25.8292C85.2074 25.8234 85.1752 25.811 85.1463 25.7927C85.1175 25.7745 85.0925 25.7506 85.0729 25.7227C85.0533 25.6947 85.0394 25.6631 85.0321 25.6297C84.9501 25.2704 84.754 24.9473 84.4732 24.7087C84.1786 24.4824 83.8479 24.3075 83.4951 24.1912C83.3339 24.1126 83.1569 24.0719 82.9776 24.0722C82.8574 24.0908 82.7417 24.1311 82.636 24.1912C82.3612 24.318 82.1383 24.5354 82.0047 24.807C81.9291 25.0497 81.9132 25.3071 81.9581 25.5573C81.981 25.8529 82.0455 26.1438 82.1496 26.4214C82.2548 26.6868 82.4118 26.9286 82.6113 27.1328C82.8109 27.337 83.0491 27.4994 83.3121 27.6106C83.575 27.7219 83.8575 27.7797 84.143 27.7808C84.4285 27.7818 84.7114 27.726 84.9751 27.6167C85.0067 27.6041 85.0405 27.5979 85.0745 27.5984C85.1085 27.5988 85.1421 27.606 85.1734 27.6194C85.2046 27.6329 85.2329 27.6524 85.2566 27.6768C85.2803 27.7012 85.299 27.73 85.3115 27.7616C85.325 27.7928 85.332 27.8264 85.3323 27.8604C85.3325 27.8943 85.3259 27.928 85.3129 27.9594C85.2999 27.9908 85.2806 28.0192 85.2564 28.043C85.2322 28.0668 85.2034 28.0855 85.1718 28.098C84.8489 28.2245 84.5042 28.2861 84.1575 28.2791Z" fill="#231F20"/>
<path d="M90.5383 24.0153C90.5383 24.0153 92.158 26.3852 91.7803 26.8044C91.4025 27.2235 90.3416 26.9544 90.3416 26.9544" fill="white"/>
<path d="M91.0195 27.2959C90.7704 27.2939 90.5222 27.2644 90.2795 27.2079C90.2127 27.1908 90.1552 27.1481 90.1194 27.0891C90.0836 27.0301 90.0724 26.9594 90.0881 26.8922C90.0965 26.8593 90.1114 26.8283 90.1318 26.801C90.1523 26.7738 90.1779 26.7509 90.2072 26.7336C90.2365 26.7163 90.269 26.7049 90.3027 26.7002C90.3364 26.6954 90.3708 26.6974 90.4037 26.706C90.6987 26.7784 91.3818 26.856 91.5888 26.6283C91.6509 26.411 91.0713 25.2467 90.3209 24.1601C90.2825 24.1031 90.2683 24.0333 90.2814 23.9658C90.2945 23.8984 90.3338 23.8389 90.3908 23.8005C90.4477 23.762 90.5176 23.7478 90.5851 23.7609C90.6525 23.774 90.712 23.8134 90.7505 23.8703C91.5422 25.0242 92.3961 26.5041 91.9717 26.975C91.8434 27.0908 91.6927 27.179 91.5289 27.2342C91.3651 27.2894 91.1918 27.3104 91.0195 27.2959Z" fill="#231F20"/>
<path d="M91.8372 28.0151C91.8372 28.0151 88.8875 27.6063 87.366 26.2454C87.366 26.2454 87.0193 28.7602 89.0789 29.3501C89.6221 29.526 90.2123 29.4853 90.7262 29.2366C91.2402 28.9878 91.6382 28.5502 91.8372 28.0151Z" fill="white"/>
<path d="M89.85 29.7072C89.5716 29.7046 89.2949 29.6646 89.0272 29.5882C87.2263 29.0708 86.9986 27.1562 87.1331 26.2093C87.1389 26.1628 87.1575 26.1189 87.1867 26.0824C87.2159 26.0459 87.2547 26.0181 87.2987 26.0023C87.3435 25.9875 87.3912 25.9845 87.4375 25.9936C87.4837 26.0027 87.5268 26.0235 87.5626 26.054C89.0013 27.3477 91.8631 27.7564 91.8941 27.7616C91.9325 27.7669 91.9692 27.7808 92.0016 27.8022C92.0339 27.8236 92.061 27.852 92.0808 27.8853C92.1007 27.9186 92.1129 27.9559 92.1164 27.9945C92.1199 28.0331 92.1147 28.072 92.1011 28.1083C91.9205 28.5638 91.6118 28.9573 91.2123 29.241C90.8128 29.5248 90.3396 29.6867 89.85 29.7072ZM87.604 26.7785C87.604 27.4822 87.8317 28.7344 89.1565 29.1018C89.5816 29.2575 90.0484 29.2554 90.4721 29.0958C90.8957 28.9363 91.2479 28.6299 91.4646 28.2325C90.0946 28.0066 88.7826 27.5125 87.604 26.7785Z" fill="#231F20"/>
<path d="M87.9973 23.0061C87.9973 23.0061 88.3027 22.1886 89.5912 23.3632L87.9973 23.0061Z" fill="white"/>
<path d="M89.5913 23.622C89.5262 23.6225 89.4634 23.5985 89.4153 23.5547C88.7891 22.9855 88.4838 22.9752 88.3803 22.9959C88.3494 23.0015 88.3201 23.0142 88.295 23.0331C88.2698 23.0519 88.2494 23.0764 88.2354 23.1046C88.208 23.1666 88.1578 23.2157 88.0952 23.2417C88.0325 23.2678 87.9623 23.2687 87.899 23.2443C87.8368 23.22 87.7867 23.1721 87.7595 23.1111C87.7324 23.05 87.7305 22.9807 87.7541 22.9183C87.7988 22.8104 87.8694 22.7152 87.9597 22.6412C88.0499 22.5672 88.1571 22.5166 88.2716 22.494C88.6753 22.4008 89.1876 22.6233 89.7879 23.1718C89.8356 23.2211 89.8623 23.287 89.8623 23.3555C89.8623 23.4241 89.8356 23.49 89.7879 23.5392C89.7629 23.5662 89.7324 23.5876 89.6985 23.6018C89.6646 23.6161 89.628 23.623 89.5913 23.622Z" fill="#231F20"/>
<path d="M91.8372 23.5754C91.8372 23.5754 92.5462 22.3336 93.4466 23.5754H91.8372Z" fill="white"/>
<path d="M93.4725 23.8341C93.4309 23.8348 93.3898 23.8252 93.3528 23.8063C93.3158 23.7873 93.2841 23.7596 93.2603 23.7255C93.1936 23.612 93.1039 23.5138 92.997 23.4372C92.89 23.3605 92.7682 23.3071 92.6393 23.2805C92.3806 23.2805 92.1529 23.5909 92.0856 23.7048C92.051 23.7635 91.9947 23.8062 91.9288 23.8237C91.8629 23.8411 91.7928 23.8319 91.7337 23.7979C91.7041 23.7813 91.6781 23.7589 91.6573 23.7321C91.6365 23.7052 91.6213 23.6745 91.6127 23.6417C91.604 23.6089 91.602 23.5746 91.6067 23.541C91.6115 23.5074 91.623 23.4751 91.6405 23.446C91.7411 23.2681 91.8802 23.1148 92.0476 22.9976C92.2151 22.8803 92.4066 22.8019 92.6083 22.7682C92.828 22.7747 93.0423 22.8382 93.2301 22.9525C93.418 23.0668 93.5728 23.228 93.6795 23.4202C93.7188 23.4762 93.7348 23.5452 93.7242 23.6128C93.7136 23.6804 93.6772 23.7412 93.6226 23.7824C93.5799 23.8163 93.527 23.8346 93.4725 23.8341Z" fill="#231F20"/>
<path d="M90.5176 31.394C90.5176 31.394 88.1526 31.2595 87.0865 30.5506C87.0865 30.5506 87.8473 33.3034 90.3779 34.1365L90.5176 31.394Z" fill="#231F20"/>
<path d="M90.3675 34.3901C90.3401 34.3949 90.3121 34.3949 90.2847 34.3901C87.6558 33.526 86.8588 30.768 86.8278 30.6283C86.8147 30.578 86.8171 30.5249 86.8347 30.476C86.8522 30.4271 86.8841 30.3846 86.9261 30.354C86.9688 30.3225 87.0205 30.3055 87.0736 30.3055C87.1267 30.3055 87.1784 30.3225 87.2211 30.354C88.2095 31.0112 90.4969 31.1509 90.5227 31.1509C90.5905 31.1549 90.6539 31.1853 90.6994 31.2357C90.7449 31.286 90.7688 31.3522 90.766 31.42L90.6262 34.1624C90.6239 34.2025 90.6124 34.2415 90.5927 34.2765C90.5729 34.3115 90.5455 34.3415 90.5124 34.3642C90.4673 34.3857 90.4172 34.3946 90.3675 34.3901ZM87.5523 31.0784C88.0499 32.266 88.9725 33.2254 90.1398 33.7692L90.2485 31.6321C89.3331 31.5641 88.4303 31.378 87.5626 31.0784H87.5523Z" fill="#231F20"/>
<path d="M65.5275 60.0143C67.5415 62.8718 69.8445 65.5144 72.3999 67.9002C73.4039 68.811 75.034 68.811 76.3329 69.1111C76.8866 69.2404 77.5076 69.4164 77.7664 69.9235C77.8168 70.0051 77.8434 70.0992 77.8434 70.1951C77.8434 70.2911 77.8168 70.3851 77.7664 70.4668C77.6953 70.534 77.6106 70.5852 77.518 70.6169C76.8847 70.7823 76.2362 70.8829 75.5825 70.917C75.1685 70.9946 75.1323 70.8652 75.2876 71.2688C75.4428 71.6725 75.95 71.9467 76.188 72.2313C76.6072 72.7488 76.9539 73.2973 77.3317 73.8302C77.6057 74.166 77.8018 74.5583 77.9061 74.979C77.9368 75.4151 77.8197 75.8488 77.5738 76.2102C77.3278 76.5716 76.9672 76.8397 76.5503 76.9712C75.7036 77.2164 74.8033 77.2056 73.9628 76.9401C71.6381 76.4112 69.5201 75.2111 67.8718 73.4887C66.1226 71.6914 64.4477 69.8252 62.8469 67.8899" fill="white"/>
<path d="M75.4531 77.4058C74.9292 77.3958 74.4081 77.3246 73.9006 77.1936C71.5294 76.6544 69.3696 75.4288 67.6906 73.6698C65.9415 71.8742 64.2493 69.9856 62.6502 68.0555C62.6073 68.0025 62.587 67.9347 62.5938 67.8669C62.6006 67.7991 62.6339 67.7367 62.6864 67.6932C62.712 67.6711 62.7419 67.6542 62.7741 67.6437C62.8063 67.6333 62.8403 67.6294 62.8741 67.6323C62.9079 67.6352 62.9407 67.6448 62.9707 67.6606C63.0007 67.6764 63.0272 67.6981 63.0487 67.7243C64.6374 69.644 66.3244 71.5224 68.0632 73.3076C69.6747 74.9959 71.7485 76.1713 74.0249 76.6865C74.8152 76.9312 75.6589 76.9456 76.4571 76.7279C76.8165 76.6168 77.1287 76.3892 77.3442 76.0808C77.5598 75.7725 77.6664 75.4012 77.6474 75.0255C77.5503 74.6477 77.3739 74.295 77.1299 73.9906L76.8038 73.5146C76.5502 73.142 76.2863 72.7539 76.0017 72.4072C75.9025 72.301 75.7971 72.2008 75.686 72.1071C75.4212 71.9161 75.2064 71.6641 75.0599 71.3723C74.9615 71.1239 74.9098 70.9946 75.0029 70.8549C75.0408 70.8034 75.0909 70.7623 75.1488 70.7352C75.2066 70.708 75.2704 70.6958 75.3341 70.6996L75.5463 70.6738C75.7928 70.6314 76.0417 70.6038 76.2915 70.591C76.6808 70.5784 77.0662 70.5086 77.4352 70.384C77.488 70.3676 77.5372 70.3412 77.5801 70.3064C77.5971 70.2653 77.6036 70.2206 77.5991 70.1763C77.5945 70.1321 77.5791 70.0897 77.5542 70.0528C77.4009 69.8599 77.2099 69.7003 76.9928 69.5837C76.7756 69.4671 76.537 69.3961 76.2915 69.375C75.9603 69.2973 75.6084 69.2404 75.2565 69.1783C74.1749 69.0076 73.0571 68.8265 72.2602 68.1072C69.6912 65.7071 67.3761 63.0489 65.3516 60.1747C65.3315 60.1471 65.3171 60.116 65.3091 60.0829C65.3011 60.0498 65.2997 60.0154 65.305 59.9818C65.3103 59.9481 65.3221 59.9159 65.3399 59.8868C65.3576 59.8578 65.381 59.8325 65.4085 59.8125C65.436 59.7924 65.4672 59.778 65.5003 59.77C65.5334 59.762 65.5677 59.7606 65.6014 59.7659C65.635 59.7712 65.6673 59.783 65.6964 59.8008C65.7254 59.8186 65.7507 59.8419 65.7707 59.8694C67.7605 62.7088 70.0374 65.3358 72.5655 67.7088C73.2486 68.3297 74.294 68.4953 75.2979 68.6609C75.6602 68.7178 76.0379 68.7799 76.3847 68.8575C76.7053 68.89 77.0152 68.9915 77.293 69.1549C77.5708 69.3183 77.8099 69.5399 77.9941 69.8044C78.0686 69.9315 78.1044 70.0775 78.0971 70.2246C78.0897 70.3717 78.0395 70.5134 77.9527 70.6324C77.8557 70.7372 77.7324 70.814 77.5956 70.8549C77.1812 71.0011 76.7464 71.0814 76.307 71.0929C76.0742 71.0929 75.8465 71.1291 75.6188 71.1705H75.5256C75.6552 71.3693 75.818 71.5443 76.0069 71.688C76.138 71.7978 76.2608 71.9171 76.3743 72.045C76.6796 72.4124 76.9487 72.8108 77.2127 73.1937L77.5335 73.6595C77.8296 74.0277 78.04 74.4572 78.1493 74.9169C78.3253 75.9518 77.5128 76.8728 76.6279 77.1936C76.2517 77.3325 75.8541 77.4043 75.4531 77.4058Z" fill="#231F20"/>
<path d="M77.4921 31.0474C77.4921 31.0474 55.3897 44.853 56.0935 55.7092C56.5741 62.2832 59.3404 68.4818 63.9129 73.23L72.55 66.1047C72.55 66.1047 65.9984 59.3779 66.992 54.431C67.9856 49.4842 77.6784 44.9824 77.6784 44.9824C77.6784 44.9824 82.3928 31.539 77.4921 31.0474Z" fill="#7800FF"/>
<path d="M123.886 113.317C123.847 113.316 123.809 113.307 123.774 113.29C123.739 113.273 123.708 113.249 123.684 113.219C123.643 113.164 123.624 113.095 123.632 113.027C123.639 112.958 123.673 112.896 123.726 112.851L125.185 111.713C125.211 111.69 125.243 111.672 125.276 111.661C125.31 111.65 125.345 111.647 125.38 111.65C125.416 111.653 125.45 111.664 125.481 111.681C125.511 111.698 125.539 111.721 125.56 111.749C125.582 111.777 125.597 111.809 125.606 111.844C125.615 111.878 125.616 111.914 125.611 111.948C125.605 111.983 125.593 112.017 125.574 112.046C125.555 112.076 125.53 112.102 125.501 112.122L124.046 113.26C124.001 113.296 123.944 113.316 123.886 113.317Z" fill="#231F20"/>
<path d="M125.185 114.745L124.792 114.404L126.158 112.815C126.18 112.789 126.206 112.768 126.237 112.753C126.267 112.737 126.3 112.728 126.333 112.726C126.367 112.723 126.401 112.728 126.433 112.739C126.465 112.749 126.495 112.767 126.52 112.789C126.572 112.833 126.604 112.896 126.61 112.964C126.616 113.032 126.595 113.099 126.551 113.151L125.185 114.745Z" fill="#231F20"/>
<path d="M144.219 24.1446H133.543C133.154 24.1446 132.839 24.4597 132.839 24.8483V29.6296C132.839 30.0182 133.154 30.3333 133.543 30.3333H144.219C144.607 30.3333 144.922 30.0182 144.922 29.6296V24.8483C144.922 24.4597 144.607 24.1446 144.219 24.1446Z" fill="white"/>
<path d="M144.219 30.592H133.543C133.288 30.5907 133.044 30.4888 132.863 30.3086C132.683 30.1284 132.581 29.8844 132.58 29.6296V24.8483C132.581 24.5935 132.683 24.3495 132.863 24.1693C133.044 23.9891 133.288 23.8872 133.543 23.8859H144.219C144.474 23.8859 144.719 23.9873 144.899 24.1678C145.08 24.3483 145.181 24.5931 145.181 24.8483V29.6296C145.181 29.756 145.156 29.8811 145.108 29.9979C145.059 30.1147 144.989 30.2208 144.899 30.3101C144.81 30.3995 144.704 30.4704 144.587 30.5188C144.47 30.5671 144.345 30.592 144.219 30.592ZM133.543 24.3826C133.425 24.384 133.312 24.4313 133.229 24.5144C133.146 24.5976 133.099 24.71 133.097 24.8276V29.6089C133.099 29.7265 133.146 29.8389 133.229 29.9221C133.312 30.0052 133.425 30.0525 133.543 30.0539H144.219C144.337 30.0539 144.451 30.0072 144.535 29.9239C144.619 29.8406 144.667 29.7274 144.669 29.6089V24.8483C144.667 24.7298 144.619 24.6166 144.535 24.5333C144.451 24.45 144.337 24.4033 144.219 24.4033L133.543 24.3826Z" fill="#231F20"/>
<path d="M126.913 51.5127L127.948 49.2462C128.064 48.9532 128.221 48.6779 128.414 48.4287C128.697 48.1271 129.034 47.8814 129.408 47.7042C130.143 47.3156 130.899 46.97 131.674 46.6693C131.77 46.6245 131.874 46.6015 131.98 46.6021C132.076 46.6146 132.166 46.6575 132.237 46.7244C132.308 46.7913 132.355 46.8789 132.373 46.9746C132.405 47.1696 132.366 47.3695 132.264 47.5387C131.907 48.2062 131.105 48.4959 130.603 49.091C130.545 49.7403 130.309 50.3611 129.923 50.8858C129.536 51.4105 129.012 51.8188 128.409 52.0664" fill="white"/>
<path d="M128.414 52.2836C128.362 52.2844 128.311 52.2688 128.268 52.2391C128.226 52.2094 128.193 52.167 128.176 52.118C128.163 52.0864 128.157 52.0526 128.158 52.0186C128.158 51.9846 128.165 51.951 128.179 51.9198C128.192 51.8885 128.212 51.8602 128.236 51.8365C128.26 51.8128 128.289 51.7942 128.321 51.7816C128.88 51.5544 129.366 51.1771 129.725 50.6914C130.084 50.2057 130.302 49.6304 130.355 49.0288C130.357 48.973 130.379 48.9197 130.417 48.8787C130.647 48.6352 130.904 48.4183 131.183 48.2319C131.528 48.0218 131.821 47.7371 132.042 47.3988C132.112 47.2842 132.141 47.1492 132.125 47.0159C132.125 46.928 132.031 46.8452 131.969 46.8452C131.901 46.8477 131.834 46.8654 131.773 46.8969C131.006 47.1963 130.257 47.5419 129.532 47.9318C129.189 48.0947 128.878 48.3192 128.616 48.5941C128.441 48.8267 128.297 49.0806 128.186 49.3496L127.151 51.6212C127.123 51.6836 127.071 51.7322 127.007 51.7565C126.943 51.7807 126.872 51.7786 126.81 51.7506C126.747 51.7213 126.698 51.6686 126.674 51.6037C126.65 51.5389 126.652 51.4671 126.68 51.4039L127.715 49.1375C127.846 48.8231 128.02 48.5287 128.233 48.263C128.533 47.9333 128.895 47.6661 129.299 47.4765C130.043 47.0857 130.811 46.7401 131.597 46.4415C131.728 46.3808 131.871 46.3507 132.016 46.3536C132.168 46.3715 132.311 46.4373 132.423 46.5414C132.536 46.6456 132.612 46.7827 132.642 46.9331C132.684 47.1862 132.637 47.4461 132.508 47.6679C132.249 48.0898 131.894 48.4445 131.473 48.7028C131.247 48.8545 131.038 49.0278 130.846 49.2203C130.768 49.9005 130.509 50.5474 130.096 51.0935C129.682 51.6395 129.13 52.0648 128.497 52.325C128.467 52.3167 128.439 52.3027 128.414 52.2836Z" fill="#231F20"/>
<path d="M140.198 26.6232H137.683V30.3281H140.198V26.6232Z" fill="#231F20"/>
<path d="M140.198 30.5921H137.683C137.614 30.5921 137.548 30.5648 137.5 30.5163C137.451 30.4678 137.424 30.402 137.424 30.3334V26.6232C137.424 26.5895 137.431 26.5561 137.444 26.525C137.457 26.4939 137.476 26.4657 137.5 26.4421C137.524 26.4185 137.553 26.3999 137.584 26.3875C137.615 26.375 137.649 26.369 137.683 26.3697H140.198C140.265 26.3697 140.33 26.3962 140.379 26.4436C140.427 26.491 140.455 26.5555 140.456 26.6232V30.3334C140.455 30.4016 140.427 30.4666 140.379 30.5148C140.331 30.5631 140.266 30.5908 140.198 30.5921ZM137.941 30.0746H139.939V26.882H137.941V30.0746Z" fill="#231F20"/>
<path d="M142.858 27.7823C143.178 27.7823 143.437 27.5228 143.437 27.2027C143.437 26.8826 143.178 26.6232 142.858 26.6232C142.537 26.6232 142.278 26.8826 142.278 27.2027C142.278 27.5228 142.537 27.7823 142.858 27.7823Z" fill="#231F20"/>
<path d="M75.0029 16.9469C74.9518 16.9472 74.9018 16.9323 74.8591 16.9043C74.8165 16.8762 74.7831 16.8361 74.7631 16.789C74.7432 16.742 74.7377 16.6901 74.7472 16.6399C74.7567 16.5898 74.7809 16.5435 74.8166 16.507C78.9936 12.7289 84.0524 10.0601 89.5291 8.74526C89.5957 8.7297 89.6657 8.7411 89.7239 8.77697C89.782 8.81284 89.8237 8.87027 89.8396 8.93672C89.8481 8.96934 89.85 9.00334 89.8452 9.03671C89.8404 9.07008 89.829 9.10216 89.8117 9.13107C89.7943 9.15998 89.7714 9.18514 89.7442 9.20508C89.717 9.22501 89.6861 9.23933 89.6533 9.24719C84.26 10.537 79.2774 13.1616 75.1633 16.8796C75.1192 16.9199 75.0626 16.9436 75.0029 16.9469Z" fill="white"/>
<path d="M5.79249 90.2645C5.07204 90.2634 4.3603 90.107 3.70572 89.8061C3.05115 89.5052 2.4691 89.0668 1.99921 88.5207C1.95461 88.4679 1.93282 88.3995 1.93864 88.3306C1.94446 88.2617 1.97742 88.1979 2.03026 88.1533C2.0831 88.1087 2.1515 88.0869 2.2204 88.0927C2.28931 88.0986 2.35308 88.1315 2.39769 88.1843C2.86916 88.7422 3.47158 89.1746 4.15106 89.4427C4.83055 89.7108 5.5659 89.8064 6.29134 89.7207C7.01679 89.6351 7.7097 89.3711 8.30809 88.9521C8.90648 88.5332 9.39169 87.9725 9.72032 87.3202C9.73565 87.2875 9.75795 87.2584 9.78566 87.2352C9.81337 87.212 9.84582 87.1951 9.88074 87.1857C9.91434 87.1758 9.94963 87.173 9.98436 87.1775C10.0191 87.1819 10.0525 87.1935 10.0826 87.2115C11.3246 87.9567 12.608 88.7277 14.0414 88.9709C16.2719 89.3383 18.5747 88.3396 20.4274 87.5324C20.4899 87.5063 20.5602 87.5058 20.6231 87.5309C20.686 87.5561 20.7365 87.6049 20.7638 87.6669C20.7782 87.698 20.7862 87.7318 20.7872 87.7661C20.7882 87.8004 20.7822 87.8345 20.7696 87.8665C20.7571 87.8984 20.7381 87.9274 20.714 87.9518C20.6899 87.9762 20.661 87.9955 20.6292 88.0084C18.7196 88.8415 16.3391 89.8712 13.9586 89.478C12.5626 89.1664 11.2374 88.596 10.0515 87.7963C9.62177 88.5458 9.00148 89.1684 8.25353 89.6009C7.50557 90.0335 6.65654 90.2606 5.79249 90.2593V90.2645Z" fill="#D1D3D4"/>
<path d="M137.512 90.425C136.801 90.4494 136.093 90.3238 135.434 90.0563C134.775 89.7888 134.18 89.3855 133.687 88.8726C133.64 88.8234 133.613 88.7575 133.613 88.6889C133.613 88.6203 133.64 88.5545 133.687 88.5052C133.711 88.481 133.74 88.4617 133.772 88.4486C133.803 88.4355 133.837 88.4287 133.871 88.4287C133.905 88.4287 133.939 88.4355 133.971 88.4486C134.002 88.4617 134.031 88.481 134.055 88.5052C135.509 90.0938 138.019 90.1248 139.747 89.478C141.771 88.7122 143.37 87.1133 144.71 85.68C144.737 85.6495 144.771 85.626 144.809 85.6115C144.846 85.5971 144.887 85.5922 144.928 85.5972C144.967 85.6022 145.006 85.6159 145.04 85.6374C145.074 85.6588 145.102 85.6875 145.124 85.7214C145.658 86.5995 146.361 87.3634 147.191 87.9691C148.022 88.5749 148.964 89.0105 149.963 89.2509C150.962 89.4914 151.999 89.5319 153.014 89.3702C154.03 89.2085 155.003 88.8477 155.878 88.3086C155.936 88.2735 156.006 88.2625 156.073 88.2779C156.14 88.2933 156.198 88.334 156.235 88.3914C156.253 88.4203 156.265 88.4524 156.271 88.486C156.276 88.5196 156.275 88.5539 156.268 88.5871C156.26 88.6203 156.246 88.6516 156.226 88.6793C156.206 88.707 156.181 88.7305 156.152 88.7484C154.318 89.8801 152.117 90.2568 150.011 89.7994C147.906 89.342 146.059 88.0861 144.86 86.2957C143.53 87.7084 141.942 89.2193 139.928 89.98C139.156 90.2718 138.337 90.4226 137.512 90.425Z" fill="#D1D3D4"/>
<path d="M51.4308 85.3641C50.1574 85.3808 48.9188 84.9484 47.9325 84.1429C47.9021 84.1228 47.8764 84.0964 47.8569 84.0656C47.8375 84.0348 47.8247 84.0002 47.8196 83.9641C47.8144 83.928 47.8169 83.8913 47.827 83.8562C47.837 83.8212 47.8543 83.7887 47.8778 83.7608C47.9013 83.7329 47.9304 83.7103 47.9632 83.6945C47.996 83.6786 48.0318 83.6699 48.0682 83.6688C48.1047 83.6678 48.1409 83.6744 48.1746 83.6884C48.2083 83.7023 48.2386 83.7232 48.2637 83.7497C49.2478 84.5143 50.4748 84.8982 51.7193 84.8307C52.9638 84.7632 54.1421 84.2489 55.0378 83.3823C55.0616 83.3578 55.0899 83.3383 55.1213 83.3248C55.1526 83.3113 55.1863 83.3041 55.2204 83.3036C55.2545 83.3031 55.2884 83.3094 55.3201 83.322C55.3518 83.3346 55.3807 83.3533 55.4052 83.3771C55.4297 83.4009 55.4492 83.4293 55.4627 83.4606C55.4762 83.4919 55.4834 83.5256 55.4839 83.5597C55.4844 83.5939 55.4781 83.6277 55.4655 83.6594C55.4529 83.6911 55.4342 83.72 55.4104 83.7445C54.8884 84.266 54.2675 84.6779 53.5841 84.956C52.9007 85.2341 52.1686 85.3729 51.4308 85.3641Z" fill="#D1D3D4"/>
</svg>
