<svg width="112" height="125" viewBox="0 0 112 125" fill="none" xmlns="http://www.w3.org/2000/svg">
<path d="M18.9532 124.302L110.659 90.0175L111.649 34.8872L92.2981 21.1484L51.1031 84.8285L16.4859 110.338L18.9532 124.302Z" fill="white"/>
<path d="M18.9532 124.557C18.9107 124.556 18.8692 124.544 18.8326 124.522C18.8001 124.504 18.772 124.479 18.7503 124.448C18.7286 124.418 18.7138 124.384 18.7069 124.347L16.2397 110.383C16.2317 110.337 16.2369 110.289 16.2547 110.246C16.2724 110.202 16.3021 110.165 16.3402 110.137L50.9172 84.6533L92.087 21.0133C92.1243 20.9572 92.1819 20.9177 92.2478 20.9031C92.3165 20.892 92.3869 20.9082 92.4438 20.9481L111.78 34.6819C111.813 34.706 111.84 34.7376 111.858 34.7742C111.877 34.8109 111.886 34.8513 111.885 34.8923L110.881 90.0226C110.881 90.0728 110.865 90.1217 110.836 90.1629C110.808 90.2041 110.767 90.2356 110.72 90.253L19.0135 124.537C18.9942 124.546 18.9739 124.553 18.9532 124.557ZM16.7623 110.448L19.1491 123.971L110.413 89.8473L111.418 35.0125L92.3935 21.4891L51.3393 84.9438C51.3233 84.969 51.3029 84.991 51.279 85.0089L16.7623 110.448Z" fill="#231F20"/>
<path d="M10.6971 108.635C10.6971 108.635 64.9671 78.4375 73.6252 26.4627L61.4144 22.7613L96.509 0.693115L111.649 34.8872L100.524 32.5131C100.524 32.5131 81.7003 83.6015 19.0738 114.285L10.6971 108.635Z" fill="white"/>
<path d="M19.0738 114.535C19.0238 114.537 18.9744 114.523 18.9331 114.495L10.5564 108.845C10.5197 108.822 10.4901 108.789 10.4706 108.75C10.4512 108.711 10.4426 108.668 10.4458 108.625C10.4463 108.582 10.4582 108.541 10.4804 108.505C10.5025 108.469 10.5339 108.439 10.5715 108.419C10.7071 108.344 24.2947 100.716 38.7567 86.847C52.0579 74.095 68.8363 53.289 73.3438 26.6379L61.3441 23.0017C61.2978 22.9883 61.2565 22.9617 61.2253 22.9252C61.194 22.8887 61.1742 22.8439 61.1682 22.7963C61.1605 22.7485 61.1673 22.6996 61.188 22.6558C61.2086 22.612 61.242 22.5754 61.2838 22.5509L96.3784 0.482713C96.4084 0.46282 96.4426 0.450196 96.4784 0.445847C96.5142 0.441499 96.5505 0.445547 96.5844 0.45767C96.6187 0.46762 96.6503 0.484867 96.6772 0.508217C96.7041 0.531567 96.7256 0.560461 96.7402 0.592904L111.881 34.782C111.899 34.8245 111.905 34.8712 111.899 34.9171C111.893 34.963 111.874 35.0063 111.845 35.0425C111.816 35.0796 111.777 35.1074 111.733 35.1226C111.688 35.1377 111.64 35.1395 111.594 35.1276L100.68 32.8036C100.016 34.5116 95.0468 46.7227 83.4842 62.0392C72.0323 77.2104 51.5805 98.6324 19.1642 114.51C19.1362 114.525 19.1054 114.533 19.0738 114.535ZM11.1694 108.655L19.0939 113.999C51.3142 98.1716 71.6654 76.8598 83.0722 61.7537C95.4437 45.3653 100.223 32.5532 100.288 32.448C100.309 32.3921 100.35 32.3454 100.402 32.3161C100.454 32.2868 100.515 32.2768 100.574 32.2877L111.222 34.5566L96.3985 1.08375L62.0325 22.6811L73.7206 26.2222C73.7792 26.2397 73.8293 26.2778 73.8617 26.3294C73.894 26.381 73.9064 26.4426 73.8965 26.5027C69.4193 53.4192 52.5101 74.3755 39.1135 87.2177C30.6316 95.3816 21.2584 102.572 11.1694 108.655Z" fill="#231F20"/>
<path d="M44.2088 30.2091C44.2088 30.2091 45.8821 32.0523 45.6711 32.5181C45.46 32.9839 44.4751 32.8487 44.4751 32.8487" fill="white"/>
<path d="M44.7867 33.1191C44.6712 33.1259 44.5555 33.1259 44.44 33.1191C44.3746 33.108 44.316 33.072 44.2767 33.0188C44.2373 32.9655 44.2202 32.8991 44.2289 32.8336C44.2389 32.7688 44.2739 32.7104 44.3265 32.6711C44.3791 32.6318 44.4451 32.6146 44.5103 32.6232C44.8319 32.6633 45.3495 32.6232 45.4399 32.4329C45.5304 32.2425 44.8118 31.2659 44.0229 30.3994C43.9985 30.3755 43.9792 30.3468 43.9662 30.3152C43.9533 30.2836 43.947 30.2497 43.9477 30.2156C43.9483 30.1814 43.956 30.1478 43.9702 30.1168C43.9844 30.0857 44.0048 30.0579 44.0302 30.0349C44.0556 30.012 44.0854 29.9945 44.1178 29.9835C44.1503 29.9725 44.1846 29.9682 44.2187 29.9709C44.2529 29.9736 44.2861 29.9833 44.3164 29.9992C44.3466 30.0152 44.3733 30.0372 44.3947 30.0638C45.0631 30.795 46.1434 32.1073 45.9022 32.6432C45.7012 33.0439 45.1585 33.1191 44.7867 33.1191Z" fill="#231F20"/>
<path d="M43.5003 27.5495C44.4701 28.1204 44.45 29.6431 44.5958 30.6148C44.7968 31.9771 44.9626 33.3445 45.0983 34.7118C45.1837 35.5834 42.9475 35.944 42.5104 35.7486L43.3897 39.0994L38.415 38.0276L38.1688 35.1777C38.1688 35.1777 37.4552 32.3077 38.0582 30.4194C38.47 29.2276 39.2059 28.1733 40.1838 27.3742C40.1838 27.3742 42.5455 26.9935 43.5003 27.5495Z" fill="white"/>
<path d="M43.3948 39.35H43.3395L38.3547 38.2781C38.3025 38.2657 38.2554 38.2373 38.2203 38.1969C38.1851 38.1564 38.1636 38.106 38.1587 38.0527L37.9125 35.2028C37.9125 35.1227 37.1939 32.2777 37.812 30.3444C38.2365 29.1007 39.0046 28.0017 40.028 27.1739C40.0604 27.1497 40.0984 27.1342 40.1386 27.1288C40.2391 27.1288 42.6109 26.7382 43.6259 27.3342C44.5455 27.8701 44.6761 29.0822 44.7817 30.0539C44.8018 30.2409 44.8219 30.4078 44.842 30.5548C45.043 31.9121 45.2138 33.2945 45.3445 34.6619C45.3564 34.8226 45.3222 34.9834 45.2456 35.1253C45.169 35.2673 45.0534 35.3845 44.9123 35.4632C44.2894 35.8337 43.5775 36.0293 42.8521 36.0292L43.6309 39.0344C43.6423 39.0755 43.6426 39.1188 43.6321 39.1601C43.6215 39.2014 43.6003 39.2392 43.5706 39.2698C43.5248 39.3184 43.4616 39.3472 43.3948 39.35ZM38.6411 37.8474L43.048 38.794L42.2742 35.8389C42.2632 35.7932 42.2652 35.7453 42.2798 35.7006C42.2944 35.6559 42.3211 35.6161 42.3569 35.5855C42.3928 35.5549 42.4364 35.5348 42.483 35.5274C42.5296 35.52 42.5773 35.5255 42.6209 35.5434C43.3203 35.6134 44.0239 35.4609 44.6309 35.1076C44.7917 34.9908 44.8671 34.8756 44.857 34.762C44.7214 33.4047 44.5505 32.0273 44.3545 30.675C44.3294 30.5097 44.3093 30.3244 44.2892 30.134C44.1988 29.2725 44.0832 28.2007 43.3797 27.79C42.6913 27.3843 40.9777 27.5345 40.2943 27.6347C39.3756 28.3981 38.6811 29.395 38.2843 30.5197C37.7115 32.3178 38.3949 35.1176 38.4049 35.1427L38.6411 37.8474Z" fill="#231F20"/>
<path d="M44.9123 33.7051C44.7933 33.8143 44.652 33.8966 44.4981 33.9465C44.3443 33.9964 44.1814 34.0126 44.0207 33.994C43.86 33.9755 43.7052 33.9226 43.5668 33.8391C43.4284 33.7555 43.3098 33.6432 43.2189 33.5098" fill="white"/>
<path d="M44.0933 34.261H43.9425C43.7534 34.2329 43.5723 34.1653 43.4113 34.0626C43.2502 33.9599 43.1127 33.8244 43.0079 33.665C42.9697 33.6108 42.9541 33.5439 42.9644 33.4785C42.9747 33.4131 43.0101 33.3543 43.0631 33.3144C43.0898 33.2949 43.1201 33.2809 43.1523 33.2731C43.1844 33.2653 43.2178 33.264 43.2505 33.2691C43.2832 33.2742 43.3145 33.2857 43.3427 33.3029C43.3709 33.3202 43.3955 33.3428 43.4149 33.3695C43.4797 33.4727 43.5655 33.5613 43.6668 33.6294C43.768 33.6976 43.8825 33.7438 44.0028 33.7651C44.2697 33.7727 44.5303 33.6838 44.7365 33.5147C44.7886 33.4735 44.8545 33.4537 44.9208 33.4593C44.9871 33.4648 45.0488 33.4954 45.0932 33.5448C45.1358 33.5962 45.1564 33.6622 45.1508 33.7287C45.1452 33.7951 45.1137 33.8568 45.0631 33.9004C44.7855 34.1185 44.4464 34.2446 44.0933 34.261Z" fill="#231F20"/>
<path d="M43.4178 30.2641C43.5237 30.2419 43.5641 30.0088 43.5081 29.7436C43.4521 29.4783 43.3208 29.2813 43.2149 29.3035C43.109 29.3257 43.0685 29.5588 43.1246 29.8241C43.1806 30.0893 43.3119 30.2864 43.4178 30.2641Z" fill="#231F20"/>
<path d="M37.5909 39.0142L37.7567 37.4465L43.8621 37.5066L44.9475 40.1462C42.4531 40.1278 39.9748 39.7464 37.5909 39.0142Z" fill="white"/>
<path d="M44.8168 40.4017C42.3411 40.3592 39.8834 39.9714 37.5155 39.2497C37.4594 39.2335 37.4108 39.1979 37.3786 39.1492C37.3464 39.1006 37.3326 39.0421 37.3396 38.9843L37.5055 37.4216C37.5106 37.3591 37.5395 37.301 37.5862 37.2591C37.6329 37.2172 37.6939 37.1947 37.7567 37.1962L43.8621 37.2563C43.9117 37.2565 43.9601 37.2714 44.0012 37.299C44.0424 37.3267 44.0744 37.3658 44.0932 37.4115L45.1786 40.0511C45.1984 40.0872 45.2088 40.1277 45.2088 40.1688C45.2088 40.2099 45.1984 40.2504 45.1786 40.2865C45.1565 40.3208 45.1259 40.3489 45.0899 40.3682C45.0539 40.3874 45.0135 40.3973 44.9726 40.3967L44.8168 40.4017ZM37.8622 38.834C40.0426 39.4767 42.2977 39.8336 44.5706 39.8958L43.6912 37.7521L37.9828 37.702L37.8622 38.834Z" fill="#231F20"/>
<path d="M58.2587 44.1633C58.7415 43.4665 59.1747 42.7368 59.5552 41.9796C59.5857 41.4325 59.6819 40.891 59.8416 40.3668C60.0828 39.8659 60.7712 39.365 61.1381 40.0412C61.1381 40.0412 61.2587 38.8692 62.0677 39.4752C62.4245 39.7185 62.6978 40.0651 62.8506 40.4682C63.0034 40.8713 63.0283 41.3115 62.9219 41.7291C62.7561 42.6257 59.721 47.2687 59.721 47.2687" fill="white"/>
<path d="M59.721 47.5189C59.671 47.5204 59.6219 47.5064 59.5803 47.4789C59.5252 47.4422 59.4869 47.3852 59.4737 47.3205C59.4606 47.2558 59.4736 47.1885 59.5099 47.1333C60.721 45.2851 62.5601 42.3049 62.6707 41.6889C62.769 41.3182 62.7493 40.9263 62.6142 40.5674C62.4792 40.2084 62.2355 39.9002 61.9169 39.6854C61.7863 39.5852 61.6707 39.5452 61.6104 39.5702C61.5501 39.5953 61.4044 39.8958 61.3893 40.0711C61.3828 40.1248 61.3594 40.1751 61.3223 40.2148C61.2853 40.2544 61.2366 40.2812 61.1833 40.2915C61.1307 40.3016 61.0763 40.2943 61.0282 40.2708C60.9802 40.2473 60.9411 40.2088 60.9169 40.1612C60.8014 39.9509 60.6958 39.9559 60.6556 39.9559C60.4647 39.9559 60.1984 40.2013 60.0677 40.4567C59.9438 40.7995 59.8743 41.1595 59.8617 41.5236C59.8524 41.6917 59.8322 41.859 59.8014 42.0244C59.423 42.8155 58.9776 43.5729 58.4698 44.2884C58.4329 44.3433 58.3758 44.3814 58.3109 44.3946C58.2459 44.4077 58.1784 44.3947 58.123 44.3585C58.0952 44.3408 58.0713 44.3176 58.0526 44.2905C58.034 44.2634 58.021 44.2328 58.0144 44.2005C58.0078 44.1683 58.0078 44.1351 58.0144 44.1028C58.021 44.0706 58.034 44.04 58.0527 44.0129C58.5244 43.3453 58.946 42.6438 59.314 41.9143C59.3392 41.7718 59.356 41.628 59.3642 41.4835C59.3766 41.062 59.4598 40.6455 59.6104 40.2514C59.6988 40.0391 59.8405 39.853 60.0217 39.711C60.203 39.5689 60.4178 39.4756 60.6456 39.44C60.7738 39.4417 60.8996 39.4744 61.0124 39.5351C61.0823 39.3412 61.2245 39.1816 61.4094 39.0894C61.5473 39.041 61.696 39.0318 61.8388 39.0627C61.9817 39.0937 62.1131 39.1636 62.2184 39.2647C62.6127 39.537 62.9146 39.9223 63.0842 40.3695C63.2538 40.8168 63.2831 41.3048 63.1681 41.769C63.0023 42.6906 60.2436 46.9229 59.932 47.4037C59.9087 47.4384 59.8773 47.4669 59.8406 47.487C59.8039 47.507 59.7628 47.518 59.721 47.5189Z" fill="#231F20"/>
<path d="M20.9431 53.6445C20.9431 53.6445 20.2748 54.7615 19.8878 55.6029C19.5902 56.4132 19.3797 57.2527 19.2597 58.1072C19.0637 57.8268 18.717 57.7316 18.511 57.4812C18.4516 57.8459 18.331 58.1981 18.1542 58.523C18.0639 58.6838 17.9348 58.8197 17.7787 58.9185C17.6226 59.0173 17.4442 59.0759 17.2598 59.0889C17.0639 59.081 16.872 59.0315 16.697 58.9437C16.0437 58.6682 14.9684 58.1724 14.893 57.3509C14.8924 57.0333 14.9831 56.7222 15.1543 56.4544C15.7724 55.3124 18.3351 52.4174 18.7572 51.9466" fill="white"/>
<path d="M17.2597 59.3245C17.0297 59.3148 16.804 59.2585 16.5964 59.1592C16.0387 58.9238 14.7322 58.3728 14.6417 57.3561C14.6357 56.9911 14.737 56.6325 14.9332 56.3243C15.6216 55.0471 18.5411 51.8165 18.5713 51.7664C18.6182 51.7205 18.6814 51.6948 18.7471 51.6948C18.8129 51.6948 18.8761 51.7205 18.923 51.7664C18.9466 51.7897 18.9653 51.8174 18.978 51.8479C18.9908 51.8784 18.9973 51.9112 18.9973 51.9442C18.9973 51.9773 18.9908 52.01 18.978 52.0405C18.9653 52.071 18.9466 52.0987 18.923 52.122C18.1743 52.9535 15.908 55.553 15.3553 56.5797C15.2105 56.8061 15.1306 57.0676 15.1241 57.336C15.1794 57.9671 16.0336 58.4079 16.7723 58.7184C16.9183 58.7906 17.0771 58.8331 17.2396 58.8436C17.3812 58.83 17.5174 58.7823 17.6364 58.7046C17.7554 58.627 17.8538 58.5217 17.923 58.3979C18.0801 58.0961 18.1886 57.7716 18.2446 57.4362C18.2544 57.3904 18.2768 57.3483 18.3094 57.3146C18.3419 57.2809 18.3833 57.2569 18.4288 57.2455C18.4743 57.234 18.5222 57.2355 18.5669 57.2497C18.6116 57.2639 18.6514 57.2904 18.6818 57.326C18.7699 57.417 18.8696 57.4962 18.9783 57.5614L19.0687 57.6165C19.1851 56.901 19.3754 56.1994 19.6366 55.5229C20.0235 54.6714 20.6818 53.5795 20.7069 53.5194C20.7415 53.4635 20.7967 53.4234 20.8607 53.4077C20.9246 53.392 20.9922 53.402 21.0489 53.4355C21.1056 53.469 21.1468 53.5233 21.1636 53.5868C21.1805 53.6503 21.1717 53.7178 21.139 53.7749C21.139 53.7749 20.4707 54.8918 20.0938 55.7132C19.8093 56.4949 19.6072 57.304 19.4908 58.1274C19.4798 58.1741 19.456 58.2169 19.422 58.251C19.3881 58.2851 19.3454 58.3092 19.2986 58.3206C19.2518 58.332 19.2027 58.3303 19.1569 58.3156C19.111 58.301 19.07 58.274 19.0386 58.2376C18.9435 58.1267 18.8296 58.0334 18.7019 57.9621L18.6416 57.9221C18.5809 58.1756 18.4827 58.4186 18.3502 58.6433C18.2369 58.8407 18.076 59.0068 17.8821 59.1266C17.6882 59.2465 17.4674 59.3162 17.2396 59.3295L17.2597 59.3245Z" fill="#231F20"/>
<path d="M50.2639 81.1021C50.2639 81.1021 49.7614 84.5581 51.1986 85.069C52.6357 85.5798 59.9974 79.7297 59.4898 78.4325C58.9823 77.1352 56.4748 76.6895 54.2136 78.4325C52.9622 79.4146 51.6423 80.3067 50.2639 81.1021Z" fill="#231F20"/>
<path d="M51.3895 85.3444C51.2955 85.3457 51.2019 85.3305 51.1132 85.2993C49.5303 84.7434 49.9624 81.4427 50.0177 81.067C50.0224 81.0284 50.0363 80.9915 50.0581 80.9593C50.08 80.927 50.1092 80.9005 50.1433 80.8817C51.5071 80.0901 52.815 79.2065 54.0578 78.2371C55.3945 77.2053 56.9623 76.8046 58.2537 77.1603C58.5747 77.2273 58.8752 77.3695 59.1303 77.575C59.3854 77.7805 59.5879 78.0435 59.721 78.3423C59.7913 78.5126 59.9974 79.0385 58.3994 80.6763C56.7261 82.3993 52.9121 85.3444 51.3895 85.3444ZM50.475 81.2573C50.3544 82.2591 50.284 84.4879 51.2589 84.8335C52.0528 85.109 55.7814 82.6297 58.0226 80.3257C59.1029 79.2138 59.2939 78.6629 59.2386 78.5176C59.1301 78.2935 58.9711 78.0974 58.7742 77.9445C58.5772 77.7916 58.3475 77.6861 58.1029 77.6361C57.4412 77.5086 56.7591 77.5325 56.108 77.706C55.4569 77.8796 54.8538 78.1982 54.3442 78.6378C53.1127 79.5935 51.8202 80.4685 50.475 81.2573Z" fill="#231F20"/>
<path d="M35.4251 65.4501C35.4251 65.4501 44.2088 67.7992 50.7715 66.6021L50.1785 81.0871C50.1785 81.0871 52.6609 81.9887 55.3693 78.5027C55.3693 78.5027 57.9874 60.7069 56.2939 59.8504C54.6005 58.9939 39.0833 60.0057 39.0833 60.0057L35.4251 65.4501Z" fill="white"/>
<path d="M50.9775 81.4528C50.68 81.4569 50.3835 81.4164 50.0981 81.3326C50.0466 81.3129 50.0025 81.2778 49.9719 81.232C49.9413 81.1862 49.9257 81.1321 49.9273 81.0772L50.5102 66.9127C43.9777 67.9795 35.4352 65.7256 35.3698 65.7006C35.3297 65.69 35.2927 65.67 35.2621 65.6421C35.2314 65.6141 35.2081 65.5792 35.194 65.5403C35.1792 65.5019 35.1738 65.4605 35.1781 65.4196C35.1825 65.3787 35.1965 65.3394 35.2191 65.3049L38.8773 59.8605C38.8996 59.8283 38.9287 59.8013 38.9626 59.7814C38.9964 59.7615 39.0342 59.7492 39.0733 59.7453C40.6712 59.6451 54.7161 58.7435 56.4196 59.6201C58.123 60.4966 56.0678 75.5226 55.6256 78.5278C55.6196 78.5715 55.6022 78.6129 55.5754 78.648C53.7312 81.0321 51.9825 81.4528 50.9775 81.4528ZM50.475 80.8918C51.0629 81.007 52.9875 81.1323 55.1533 78.3875C56.4196 69.7476 57.1633 60.5517 56.2085 60.0708C54.8819 59.4047 43.646 59.9606 39.2592 60.2461L35.8774 65.2548C37.5758 65.6705 45.0631 67.3534 50.7564 66.3166C50.7946 66.3089 50.8341 66.3103 50.8717 66.3207C50.9093 66.3312 50.9438 66.3504 50.9725 66.3767C51.0019 66.4021 51.0254 66.4337 51.041 66.4692C51.0566 66.5047 51.0641 66.5433 51.0629 66.5821L50.475 80.8918Z" fill="#231F20"/>
<path d="M30.571 62.9257C30.571 62.9257 28.2595 77.0952 27.8072 77.3206C27.355 77.546 14.7422 88.4549 14.7422 88.4549L18.4657 91.7205C18.4657 91.7205 32.5357 83.2358 33.3297 80.7015C34.1236 78.1671 40.425 62.9257 40.425 62.9257H30.571Z" fill="white"/>
<path d="M18.4708 91.9759C18.4083 91.9778 18.3474 91.9563 18.2999 91.9158L14.5714 88.6502C14.5441 88.6254 14.5224 88.5953 14.5077 88.5616C14.493 88.5279 14.4856 88.4915 14.4859 88.4548C14.4855 88.4176 14.4934 88.3808 14.5091 88.347C14.5247 88.3132 14.5477 88.2833 14.5764 88.2595C16.6266 86.4864 26.6716 77.8064 27.6414 77.1302C28.0183 76.419 29.4805 68.0495 30.3247 62.8856C30.3343 62.8245 30.3653 62.7688 30.4122 62.7285C30.4592 62.6881 30.519 62.6657 30.581 62.6652H40.425C40.4676 62.6662 40.5093 62.6771 40.5468 62.6971C40.5844 62.7171 40.6166 62.7457 40.6411 62.7804C40.6648 62.8153 40.6796 62.8555 40.684 62.8975C40.6884 62.9394 40.6822 62.9818 40.6662 63.0208C40.6009 63.1761 34.3799 78.3373 33.6061 80.8066C32.792 83.376 19.1994 91.5902 18.6215 91.9408C18.5765 91.9687 18.5235 91.981 18.4708 91.9759ZM15.1392 88.4698L18.4959 91.4099C22.5159 88.9857 32.4755 82.6147 33.0684 80.6613C33.797 78.3574 39.028 65.5602 39.9979 63.1961H30.7921C28.4856 77.2805 28.0786 77.4859 27.9228 77.561C27.5057 77.8014 20.134 84.1374 15.1392 88.4598V88.4698Z" fill="#231F20"/>
<path d="M25.3801 76.2888C25.3801 76.2888 33.3799 81.7232 38.0532 80.7966C51.5101 78.0268 58.3843 59.4947 58.3843 59.4947C58.3843 59.4947 49.3393 58.2876 44.5354 57.0906L30.571 61.5483L25.3801 76.2888Z" fill="#231F20"/>
<path d="M36.8623 81.1371C32.1287 81.1371 25.541 76.6994 25.2395 76.4941C25.1933 76.4644 25.1587 76.42 25.1414 76.3681C25.124 76.3162 25.1249 76.2599 25.144 76.2086L30.3348 61.4981C30.3474 61.4614 30.3685 61.4282 30.3965 61.4012C30.4244 61.3743 30.4584 61.3543 30.4956 61.3429L44.445 56.8701C44.4894 56.8577 44.5363 56.8577 44.5807 56.8701C49.3193 58.0522 58.314 59.2543 58.4044 59.2643C58.4417 59.2694 58.4774 59.2828 58.5088 59.3036C58.5402 59.3243 58.5665 59.3518 58.5858 59.384C58.6051 59.4162 58.6169 59.4523 58.6203 59.4897C58.6237 59.5271 58.6186 59.5647 58.6054 59.5999C58.5351 59.7852 51.5252 78.3022 38.0884 81.0269C37.684 81.1015 37.2735 81.1384 36.8623 81.1371ZM25.6766 76.1885C26.8223 76.9348 33.8422 81.3725 38.0029 80.5311C50.2539 78.0267 57.0979 62.0741 58.0376 59.7101C56.4045 59.4897 48.8167 58.4228 44.5455 57.366L30.767 61.7586L25.6766 76.1885Z" fill="#231F20"/>
<path d="M48.1685 41.8242C48.1685 41.8242 47.4399 38.8992 38.6863 37.9676C36.574 37.7179 34.4325 37.9968 32.4553 38.779C32.2292 40.1313 30.1539 56.9504 29.2494 61.5634C29.2494 61.5634 41.0431 64.1278 45.7967 57.4412C45.7967 57.4412 47.4902 43.2868 48.1685 41.8242Z" fill="#7800FF"/>
<path d="M22.1519 63.0803L8.50287 55.2098C7.73417 54.7666 6.7505 55.0284 6.30579 55.7946L1.7513 63.6417C1.30659 64.4079 1.56924 65.3884 2.33795 65.8317L15.9869 73.7021C16.7556 74.1454 17.7393 73.8836 18.184 73.1174L22.7385 65.2702C23.1832 64.504 22.9206 63.5235 22.1519 63.0803Z" fill="white"/>
<path d="M16.8075 74.1652C16.4829 74.1664 16.1639 74.0817 15.8829 73.9198L2.235 66.0462C2.02357 65.9243 1.83838 65.762 1.69006 65.5686C1.54173 65.3752 1.4332 65.1545 1.3707 64.9192C1.24447 64.444 1.31127 63.9383 1.55662 63.5118L6.10927 55.6682C6.23109 55.4571 6.39376 55.2723 6.58785 55.1244C6.78195 54.9765 7.00359 54.8685 7.2399 54.8067C7.4757 54.7416 7.72223 54.7245 7.96481 54.7563C8.20739 54.7882 8.44106 54.8683 8.65192 54.992L22.3049 62.8607C22.7313 63.1077 23.0421 63.5132 23.1693 63.9882C23.2964 64.4632 23.2295 64.9691 22.9832 65.395L18.4306 73.2386C18.1834 73.665 17.7769 73.9765 17.3 74.1051C17.1389 74.1453 16.9735 74.1655 16.8075 74.1652ZM16.1342 73.484C16.4469 73.6618 16.8175 73.7089 17.165 73.615C17.5124 73.5212 17.8085 73.294 17.9884 72.9832L22.541 65.1396C22.631 64.986 22.6893 64.8161 22.7126 64.6398C22.7359 64.4635 22.7237 64.2844 22.6767 64.1128C22.6323 63.9404 22.5534 63.7787 22.4445 63.6375C22.3357 63.4963 22.1993 63.3786 22.0435 63.2914L8.39565 55.4228C8.09199 55.2467 7.73115 55.1963 7.39065 55.2825C7.21842 55.3286 7.05698 55.408 6.91557 55.5163C6.77417 55.6246 6.65556 55.7596 6.56655 55.9136L2.0139 63.7622C1.92492 63.9164 1.86733 64.0866 1.84443 64.263C1.82153 64.4394 1.83378 64.6185 1.88045 64.7902C1.92713 64.9619 2.00733 65.1227 2.11645 65.2635C2.22558 65.4042 2.36149 65.5221 2.5164 65.6104L16.1643 73.479L16.1342 73.484Z" fill="#231F20"/>
<path d="M18.3652 61.1425C18.3216 61.1421 18.2786 61.1319 18.2396 61.1124L12.1694 57.6064C12.112 57.572 12.0704 57.5165 12.0535 57.452C12.0366 57.3874 12.0458 57.3187 12.079 57.2608L12.7523 56.1038C12.9478 55.7672 13.2692 55.5218 13.6461 55.4213C14.0229 55.3208 14.4244 55.3735 14.7623 55.5679L18.727 57.8568C18.8944 57.9518 19.0411 58.0792 19.1584 58.2314C19.2758 58.3836 19.3614 58.5577 19.4104 58.7433C19.4607 58.9291 19.4737 59.123 19.4487 59.3138C19.4237 59.5046 19.3612 59.6886 19.2647 59.8553L18.5863 60.9972C18.5667 61.0396 18.5356 61.0756 18.4965 61.1013C18.4575 61.1269 18.412 61.1412 18.3652 61.1425ZM12.6418 57.3008L18.2748 60.5515L18.8225 59.6098C18.8864 59.5008 18.9279 59.3802 18.9448 59.2551C18.9617 59.1299 18.9535 59.0027 18.9208 58.8807C18.8881 58.7587 18.8315 58.6444 18.7543 58.5443C18.677 58.4442 18.5807 58.3604 18.4708 58.2976L14.501 56.0086C14.2797 55.8814 14.0168 55.8469 13.77 55.9126C13.5232 55.9783 13.3126 56.139 13.1845 56.3592L12.6418 57.3008Z" fill="#231F20"/>
<path d="M38.0532 41.1379C38.0532 41.1379 29.1489 42.1647 26.8826 43.2366C24.6163 44.3084 17.0537 52.718 17.0537 52.718L20.516 56.0287C20.516 56.0287 26.3801 50.3539 28.0082 49.6176C29.6363 48.8813 36.3598 50.3439 36.3598 50.3439L38.0532 41.1379Z" fill="#7800FF"/>
<path d="M48.1685 41.8241L53.0679 49.9782L58.3844 43.2265L61.1732 46.2918C61.1732 46.2918 56.4849 55.4677 54.2237 55.4226C49.3092 55.3274 42.7516 48.8112 42.7516 48.8112L48.1685 41.8241Z" fill="#7800FF"/>
<path d="M18.4708 91.7204C18.1994 88.3746 16.6668 87.3829 15.5663 87.7485C14.4658 88.1142 13.7121 88.2193 14.0236 91.47C14.3352 94.7206 16.099 99.3987 17.8778 98.983C19.6567 98.5672 18.7371 95.0562 18.4708 91.7204Z" fill="#231F20"/>
<path d="M17.6467 99.2535C17.3257 99.2449 17.0158 99.1344 16.7623 98.938C15.305 97.8962 14.0387 94.2499 13.7774 91.4951C13.4709 88.3296 14.1442 87.949 15.3553 87.5533L15.4859 87.5132C15.7429 87.4304 16.0158 87.4085 16.2827 87.4493C16.5497 87.4902 16.8034 87.5927 17.0236 87.7486C17.9633 88.3647 18.5663 89.7521 18.717 91.7005C18.7773 92.4067 18.8627 93.1279 18.9431 93.8241C19.2698 96.5138 19.5512 98.8328 17.9381 99.2185C17.8425 99.2403 17.7448 99.2521 17.6467 99.2535ZM16.0035 87.9239C15.882 87.9239 15.7614 87.9442 15.6467 87.984L15.5111 88.0291C14.5663 88.3346 14.0035 88.53 14.2749 91.45C14.5211 94.0395 15.7271 97.5806 17.0537 98.5323C17.1581 98.6201 17.2808 98.6837 17.413 98.7183C17.5451 98.753 17.6833 98.7579 17.8175 98.7326C18.9984 98.4521 18.7421 96.3335 18.4507 93.8792C18.3653 93.183 18.2798 92.4568 18.2195 91.7405C18.0286 89.3464 17.2145 88.4699 16.7522 88.1643C16.5322 88.0117 16.2715 87.928 16.0035 87.9239Z" fill="#231F20"/>
<path d="M42.435 25.0251C40.0687 24.4193 37.5583 24.7647 35.4452 25.9868C34.7611 26.3774 34.1711 26.9125 33.7166 27.5545C32.4252 29.4929 33.0433 31.9872 32.2091 34.0658C31.375 36.1444 28.8223 37.6019 27.1489 38.9793C25.2294 40.562 23.345 42.27 22.1239 44.4287C20.0637 48.0299 20.8375 51.5059 23.1943 54.6964C23.5081 55.1484 23.8836 55.5547 24.3098 55.9035C25.1714 56.4964 26.1583 56.8837 27.1942 57.0355C29.1087 57.4212 31.8775 57.8068 33.6613 56.745C34.9377 55.9887 36.008 54.0804 36.1738 52.6529C36.3397 51.2254 35.8522 49.6127 36.3648 48.2152C37.1185 46.1366 39.7717 45.21 40.5255 43.1365C41.0682 41.6339 40.4652 39.976 39.6562 38.6287C39.0331 37.5718 38.2592 36.3547 38.7165 35.2178C38.9828 34.5416 39.621 34.1008 40.1084 33.5649C40.7134 32.8845 41.0926 32.0343 41.1938 31.1307C41.2843 30.3243 40.9325 29.563 41.023 28.7866C41.6812 29.1473 42.5003 28.8968 43.2088 28.8668C44.0832 28.8317 44.9626 28.7766 45.8369 28.7065C45.7205 27.7789 45.2791 26.9222 44.5907 26.2873C43.98 25.7057 43.242 25.2736 42.435 25.0251Z" fill="#FFBF08"/>
<path d="M30.5408 57.6917C29.3844 57.6706 28.2331 57.5347 27.1037 57.2861C26.0201 57.1312 24.9878 56.7265 24.0887 56.104C23.6444 55.7419 23.2521 55.3205 22.9229 54.8518C20.2697 51.2456 19.9079 47.6995 21.8375 44.3337C23.0938 42.1349 25.0284 40.3818 26.9379 38.8241C27.3248 38.5036 27.757 38.183 28.2092 37.8224C29.6514 36.7455 31.2895 35.5284 31.9227 33.9858C32.2388 33.0839 32.42 32.1405 32.4604 31.1859C32.581 29.8987 32.7066 28.5764 33.4654 27.4294C33.9413 26.7559 34.5586 26.1936 35.2744 25.7816C37.4467 24.5205 40.0292 24.1607 42.4651 24.7799C43.2989 25.0323 44.0615 25.4767 44.6912 26.0771C45.4274 26.7494 45.8964 27.6631 46.0128 28.6515C46.0176 28.6846 46.0151 28.7183 46.0056 28.7503C45.996 28.7823 45.9796 28.8118 45.9575 28.8369C45.9142 28.8876 45.8531 28.9198 45.7867 28.927C44.9173 28.9971 44.0279 29.0522 43.1485 29.0873C42.9727 29.0873 42.7867 29.1174 42.6008 29.1424C42.1345 29.2324 41.6551 29.2324 41.1888 29.1424C41.204 29.3897 41.2359 29.6357 41.2843 29.8787C41.3765 30.2961 41.4053 30.7249 41.3697 31.1509C41.2644 32.1051 40.864 33.003 40.224 33.7203C40.0783 33.8806 39.9225 34.0359 39.7617 34.1861C39.4083 34.4926 39.1211 34.8675 38.9175 35.288C38.5306 36.2597 39.1788 37.3616 39.7516 38.3333L39.8421 38.4835C40.9174 40.3067 41.2139 41.9045 40.7315 43.2267C40.3345 44.3286 39.4451 45.11 38.5808 45.8713C37.7165 46.6326 36.9276 47.3238 36.5708 48.3055C36.333 49.1317 36.2697 49.9981 36.3849 50.8499C36.4402 51.4597 36.4402 52.0733 36.3849 52.6831C36.2241 54.0905 35.1688 56.124 33.7568 56.9655C32.7684 57.4876 31.6585 57.7383 30.5408 57.6917ZM40.2089 24.9702C38.5794 24.9663 36.9777 25.3914 35.5658 26.2023C34.9123 26.5763 34.3495 27.0894 33.9176 27.7049C33.2242 28.7467 33.1086 29.9538 32.988 31.211C32.941 32.2156 32.7463 33.2079 32.4101 34.1561C31.7267 35.8239 30.0333 37.0861 28.5358 38.2031C28.0886 38.5386 27.6615 38.8542 27.2796 39.1647C25.4103 40.7074 23.5159 42.4204 22.2998 44.549C20.4707 47.7496 20.8275 51.1104 23.3551 54.5664C23.6564 54.9981 24.0166 55.3858 24.4254 55.7183C25.2563 56.2873 26.2068 56.6591 27.2042 56.8052C28.2846 57.0256 31.5659 57.6867 33.4905 56.5448C34.7367 55.8085 35.7316 53.9302 35.8824 52.638C35.9326 52.0564 35.9326 51.4716 35.8824 50.89C35.7611 49.9704 35.833 49.0357 36.0934 48.1452C36.4904 47.0433 37.3798 46.262 38.2441 45.5057C39.1084 44.7494 39.9024 44.0482 40.2541 43.0665C40.6863 41.8894 40.3999 40.4319 39.4049 38.744L39.3145 38.5937C38.6863 37.5269 37.9678 36.3148 38.4451 35.0877C38.6834 34.5916 39.0262 34.1525 39.4501 33.8004C39.6034 33.6611 39.7493 33.514 39.8873 33.3597C40.4514 32.7165 40.8023 31.9153 40.8923 31.0657C40.9182 30.6879 40.8895 30.3084 40.8069 29.9388C40.7227 29.5406 40.6939 29.1327 40.7215 28.7267C40.7261 28.6855 40.7409 28.646 40.7646 28.6119C40.7883 28.5779 40.8201 28.5502 40.8571 28.5313C40.8934 28.5116 40.934 28.5013 40.9752 28.5013C41.0165 28.5013 41.0571 28.5116 41.0933 28.5313C41.5604 28.714 42.0721 28.7507 42.5606 28.6365C42.7616 28.6365 42.9576 28.5914 43.1485 28.5864C43.9324 28.5514 44.7214 28.5013 45.4952 28.4462C45.3363 27.6775 44.9412 26.9772 44.3646 26.4427C43.7957 25.8986 43.1075 25.4939 42.3546 25.2607C41.6571 25.0614 40.9344 24.9636 40.2089 24.9702Z" fill="#231F20"/>
<path d="M42.0983 31.6216C42.0736 31.2761 41.9517 30.9446 41.7466 30.6649C41.6216 30.4278 41.4625 30.2101 41.2742 30.0188C41.1779 29.9242 41.0616 29.8521 40.9338 29.808C40.806 29.7638 40.67 29.7485 40.5355 29.7634C40.4196 29.7892 40.3102 29.8385 40.2142 29.9083C40.1183 29.9781 40.0378 30.0669 39.9778 30.1691C39.8628 30.3772 39.7959 30.6082 39.7818 30.8453C39.7384 31.3614 39.8321 31.8799 40.0535 32.3485C40.2749 32.8172 40.6162 33.2194 41.0431 33.5149L40.9727 33.4347" fill="white"/>
<path d="M41.028 33.7603C40.9852 33.7611 40.9431 33.7489 40.9074 33.7253C40.444 33.4036 40.0731 32.9667 39.8316 32.458C39.59 31.9492 39.4863 31.3863 39.5306 30.8252C39.5467 30.5484 39.6276 30.2791 39.7667 30.0389C39.8461 29.9091 39.952 29.7974 40.0775 29.7111C40.203 29.6248 40.3454 29.5658 40.4954 29.538C40.6665 29.5152 40.8407 29.5318 41.0045 29.5865C41.1682 29.6412 41.3172 29.7325 41.4401 29.8536C41.6429 30.0601 41.8124 30.2966 41.9426 30.5548C42.1703 30.8761 42.3042 31.2541 42.3295 31.6467C42.3302 31.68 42.3241 31.713 42.3113 31.7438C42.2986 31.7746 42.2795 31.8024 42.2555 31.8255C42.2314 31.8486 42.2027 31.8664 42.1713 31.8779C42.14 31.8893 42.1065 31.8942 42.0732 31.8921C42.0402 31.8914 42.0077 31.8843 41.9774 31.8711C41.9472 31.8579 41.9199 31.8389 41.897 31.8152C41.8741 31.7915 41.8562 31.7635 41.8442 31.7329C41.8322 31.7022 41.8263 31.6695 41.827 31.6366C41.8008 31.3371 41.6911 31.0509 41.5104 30.8102C41.3984 30.5946 41.2544 30.397 41.0833 30.2242C41.0177 30.159 40.939 30.1084 40.8524 30.0756C40.7658 30.0428 40.6733 30.0286 40.5808 30.0339C40.5 30.0521 40.4238 30.087 40.3572 30.1361C40.2906 30.1852 40.235 30.2477 40.1939 30.3194C40.0983 30.4957 40.0417 30.6904 40.028 30.8904C39.9957 31.3283 40.0702 31.7675 40.2452 32.1705C40.4202 32.5734 40.6905 32.9282 41.033 33.2044C41.0899 33.2155 41.1412 33.2455 41.1788 33.2895L41.229 33.3496C41.2682 33.3978 41.2895 33.4579 41.2895 33.5199C41.2895 33.5819 41.2682 33.642 41.229 33.6902C41.2021 33.715 41.1704 33.7341 41.1358 33.7462C41.1013 33.7582 41.0645 33.763 41.028 33.7603Z" fill="#231F20"/>
<path d="M53.2337 55.6632H53.1885C48.2037 54.7416 42.7867 48.4306 42.5606 48.1501C42.5391 48.1254 42.5227 48.0965 42.5126 48.0653C42.5024 48.0341 42.4986 48.0012 42.5014 47.9685C42.5042 47.9358 42.5136 47.904 42.5289 47.875C42.5443 47.846 42.5653 47.8203 42.5908 47.7995C42.6156 47.7781 42.6446 47.7618 42.6759 47.7516C42.7072 47.7415 42.7402 47.7377 42.773 47.7405C42.8058 47.7433 42.8377 47.7526 42.8668 47.7679C42.8959 47.7832 42.9217 47.8042 42.9425 47.8296C42.9978 47.8897 48.47 54.2707 53.2789 55.1573C53.3117 55.1633 53.343 55.1757 53.3709 55.1939C53.3988 55.212 53.4228 55.2356 53.4416 55.2631C53.4603 55.2906 53.4733 55.3215 53.4799 55.3541C53.4865 55.3867 53.4865 55.4202 53.4799 55.4528C53.4714 55.5116 53.4418 55.5654 53.3965 55.6041C53.3512 55.6428 53.2934 55.6638 53.2337 55.6632Z" fill="#231F20"/>
<path d="M42.5154 35.7488L40.1788 35.0025C40.4158 35.6123 40.8703 36.1135 41.4551 36.4099C42.3546 36.9108 42.7918 36.8106 42.7918 36.8106L42.5154 35.7488Z" fill="#231F20"/>
<path d="M42.6611 37.0709C42.1862 37.0426 41.727 36.8906 41.3295 36.6301C40.6805 36.3034 40.1783 35.7457 39.9225 35.0674C39.9105 35.024 39.9107 34.9781 39.9231 34.9348C39.9355 34.8915 39.9597 34.8525 39.9928 34.822C40.0256 34.7906 40.0662 34.7686 40.1103 34.758C40.1545 34.7475 40.2006 34.7488 40.2441 34.7619L42.5757 35.5081C42.6159 35.5211 42.6522 35.544 42.6811 35.5746C42.7101 35.6053 42.7309 35.6427 42.7415 35.6834L43.0229 36.7453C43.0399 36.809 43.0309 36.8769 42.998 36.9341C42.9651 36.9913 42.9108 37.0332 42.847 37.0508C42.786 37.0645 42.7237 37.0712 42.6611 37.0709ZM40.6913 35.453C40.935 35.7656 41.2391 36.0262 41.5858 36.2194C41.8563 36.3873 42.1537 36.5076 42.4651 36.575L42.3094 35.9539L40.6913 35.453Z" fill="#231F20"/>
<path d="M21.4255 64.7037H21.4003L11.7825 63.9123C11.7456 63.9098 11.7097 63.8991 11.6775 63.8809C11.6453 63.8627 11.6176 63.8375 11.5966 63.8071L6.8379 56.9903C6.80395 56.9358 6.79229 56.8704 6.80533 56.8076C6.81837 56.7447 6.85511 56.6893 6.90797 56.6526C6.96083 56.616 7.02577 56.601 7.08941 56.6107C7.15304 56.6204 7.21051 56.6541 7.24995 56.7048L11.9383 63.4265L21.4456 64.2028C21.5122 64.2028 21.5761 64.2292 21.6232 64.2762C21.6703 64.3231 21.6968 64.3868 21.6968 64.4532C21.6968 64.5197 21.6703 64.5834 21.6232 64.6303C21.5761 64.6773 21.5122 64.7037 21.4456 64.7037H21.4255Z" fill="#D1D3D4"/>
<path d="M10.6971 108.64V118.842L18.9532 124.302V114.284L10.6971 108.64Z" fill="white"/>
<path d="M18.9532 124.557C18.9043 124.557 18.8568 124.541 18.8175 124.512L10.5564 119.053C10.5219 119.03 10.4938 118.998 10.4745 118.961C10.4552 118.925 10.4454 118.884 10.4458 118.842V108.635C10.4462 108.589 10.4589 108.545 10.4826 108.506C10.5062 108.468 10.54 108.436 10.5802 108.415C10.6204 108.394 10.6656 108.384 10.711 108.387C10.7563 108.389 10.8002 108.404 10.8378 108.429L19.0989 114.089C19.1311 114.113 19.1574 114.144 19.1757 114.18C19.194 114.215 19.2038 114.255 19.2044 114.295V124.312C19.204 124.357 19.1917 124.401 19.1688 124.439C19.1459 124.478 19.1131 124.51 19.0738 124.532C19.0363 124.55 18.9948 124.559 18.9532 124.557ZM10.9483 118.707L18.7019 123.836V114.42L10.9483 109.111V118.707Z" fill="#231F20"/>
<path d="M93.7604 95.6522C93.6937 95.6522 93.6298 95.6259 93.5827 95.5789C93.5356 95.5319 93.5091 95.4682 93.5091 95.4018V48.6109C93.5091 48.5445 93.5356 48.4808 93.5827 48.4338C93.6298 48.3869 93.6937 48.3605 93.7604 48.3605C93.827 48.3605 93.8909 48.3869 93.938 48.4338C93.9851 48.4808 94.0116 48.5445 94.0116 48.6109V95.4018C94.0116 95.4682 93.9851 95.5319 93.938 95.5789C93.8909 95.6259 93.827 95.6522 93.7604 95.6522Z" fill="#D1D3D4"/>
<path d="M76.1025 102.179C76.0363 102.177 75.9731 102.15 75.9263 102.104C75.8794 102.057 75.8525 101.994 75.8513 101.928V72.6274C75.8525 72.5614 75.8794 72.4985 75.9263 72.4518C75.9731 72.4051 76.0363 72.3783 76.1025 72.377C76.1691 72.377 76.233 72.4034 76.2802 72.4504C76.3273 72.4973 76.3538 72.561 76.3538 72.6274V101.928C76.3538 101.995 76.3273 102.058 76.2802 102.105C76.233 102.152 76.1691 102.179 76.1025 102.179Z" fill="#D1D3D4"/>
<path d="M58.4446 108.675C58.378 108.675 58.3141 108.648 58.267 108.601C58.2199 108.555 58.1934 108.491 58.1934 108.424V90.0176C58.1947 89.9516 58.2216 89.8886 58.2684 89.8419C58.3152 89.7952 58.3784 89.7684 58.4446 89.7672C58.5113 89.7672 58.5752 89.7935 58.6223 89.8405C58.6694 89.8875 58.6959 89.9512 58.6959 90.0176V108.424C58.6959 108.491 58.6694 108.555 58.6223 108.601C58.5752 108.648 58.5113 108.675 58.4446 108.675Z" fill="#D1D3D4"/>
<path d="M40.7868 115.176C40.7202 115.176 40.6563 115.15 40.6091 115.103C40.562 115.056 40.5356 114.992 40.5356 114.926V103.541C40.5368 103.475 40.5637 103.412 40.6106 103.365C40.6574 103.319 40.7206 103.292 40.7868 103.29C40.8534 103.29 40.9173 103.317 40.9645 103.364C41.0116 103.411 41.0381 103.475 41.0381 103.541V114.926C41.0381 114.992 41.0116 115.056 40.9645 115.103C40.9173 115.15 40.8534 115.176 40.7868 115.176Z" fill="#D1D3D4"/>
</svg>
