<svg width="119" height="125" viewBox="0 0 119 125" fill="none" xmlns="http://www.w3.org/2000/svg">
<path d="M117.071 118.074C116.756 118.072 116.442 118.033 116.135 117.959C115.902 117.904 115.673 117.84 115.439 117.77C115.03 117.635 114.608 117.542 114.18 117.491C113.808 117.473 113.436 117.485 113.066 117.526C112.4 117.641 111.716 117.588 111.076 117.372C110.927 117.307 110.787 117.228 110.643 117.148C110.526 117.077 110.404 117.012 110.28 116.954C109.389 116.566 108.33 116.76 107.2 116.954C106.293 117.178 105.353 117.239 104.424 117.133L104.195 117.088C102.135 116.64 100.039 116.375 97.9319 116.297C95.0032 116.277 92.0746 116.246 89.146 116.203C82.982 116.108 77.405 115.974 72.1066 115.785L64.7138 115.526C61.8658 115.355 59.0091 115.394 56.1667 115.641C43.6994 117.039 31.6997 116.67 18.4214 116.083C14.8942 115.929 11.342 116.058 7.90926 116.188C5.59091 116.272 3.19793 116.357 0.824861 116.357C0.758888 116.357 0.695617 116.331 0.648968 116.284C0.602318 116.237 0.576111 116.174 0.576111 116.108C0.576111 116.042 0.602318 115.979 0.648968 115.932C0.695617 115.886 0.758888 115.859 0.824861 115.859C3.18798 115.859 5.57599 115.775 7.88936 115.69C11.3321 115.561 14.8942 115.432 18.4413 115.586C31.6997 116.168 43.6845 116.536 56.107 115.148C58.9758 114.897 61.8591 114.857 64.7337 115.029L72.1216 115.287C77.4199 115.476 82.9919 115.611 89.151 115.705C92.0829 115.745 95.0115 115.777 97.9368 115.8C100.069 115.886 102.19 116.159 104.275 116.616L104.509 116.661C105.377 116.753 106.254 116.69 107.101 116.476C108.25 116.267 109.439 116.049 110.469 116.476C110.608 116.541 110.747 116.616 110.882 116.695C111.004 116.767 111.13 116.832 111.26 116.889C111.828 117.073 112.433 117.114 113.021 117.009C113.419 116.967 113.82 116.956 114.22 116.974C114.68 117.027 115.134 117.127 115.573 117.272C115.797 117.337 116.021 117.402 116.245 117.457C116.539 117.552 116.849 117.587 117.158 117.562C117.466 117.536 117.766 117.45 118.041 117.307C118.068 117.288 118.099 117.274 118.132 117.266C118.165 117.259 118.199 117.258 118.233 117.265C118.266 117.271 118.297 117.284 118.325 117.303C118.353 117.322 118.377 117.346 118.395 117.375C118.414 117.403 118.426 117.435 118.432 117.468C118.437 117.502 118.436 117.536 118.428 117.568C118.42 117.601 118.405 117.632 118.385 117.659C118.364 117.686 118.339 117.709 118.309 117.725C117.939 117.958 117.509 118.079 117.071 118.074Z" fill="#D1D3D4"/>
<path d="M76.2011 56.6164C76.3404 56.5169 76.4598 56.4224 76.5593 56.3477C77.017 55.9795 77.9374 55.2979 77.7831 54.6859C77.6289 54.0739 76.8976 53.646 76.4399 53.4172C76.116 53.2374 75.7591 53.1249 75.3906 53.0864C75.0222 53.0479 74.6497 53.0843 74.2957 53.1933C74.0504 53.2738 73.8263 53.4082 73.6397 53.5865C73.4531 53.7649 73.3087 53.9827 73.2172 54.224C73.1256 54.4654 73.0891 54.7242 73.1105 54.9814C73.1318 55.2387 73.2104 55.4879 73.3405 55.7109C73.696 56.2598 74.1683 56.7236 74.7235 57.0692C75.1514 57.2483 75.7533 56.9249 76.2011 56.6164Z" fill="white"/>
<path d="M74.9922 57.3675C74.8662 57.3678 74.7412 57.3442 74.624 57.2979C74.0215 56.9347 73.5108 56.4376 73.1315 55.845C72.9796 55.615 72.8826 55.3531 72.8481 55.0796C72.8135 54.8061 72.8424 54.5283 72.9325 54.2678C73.0331 53.9673 73.2004 53.6935 73.4218 53.4669C73.6432 53.2403 73.9131 53.0668 74.2111 52.9593C74.5967 52.84 75.0023 52.7992 75.4039 52.8394C75.8055 52.8796 76.195 52.9998 76.5494 53.1931C76.8479 53.3424 77.8429 53.8897 78.0419 54.626C78.2409 55.3624 77.3404 56.059 76.813 56.4719L76.7285 56.5416C76.629 56.6212 76.4996 56.7207 76.3553 56.8202C75.9653 57.1339 75.4908 57.3244 74.9922 57.3675ZM75.0469 53.3125C74.8197 53.3112 74.594 53.35 74.3803 53.4269C74.1498 53.5065 73.9404 53.6374 73.7681 53.8098C73.5957 53.9822 73.4648 54.1916 73.3853 54.422C73.3199 54.6111 73.2989 54.8126 73.3239 55.0111C73.349 55.2095 73.4193 55.3995 73.5295 55.5664C73.8539 56.0762 74.2871 56.5078 74.7982 56.8302C75.0469 56.9396 75.4897 56.7854 76.0369 56.4073C76.1713 56.3127 76.2907 56.2232 76.3852 56.1436L76.4698 56.0789C76.8429 55.7804 77.6289 55.1634 77.5195 54.7405C77.41 54.3176 76.8429 53.8996 76.3056 53.6359C75.9166 53.4323 75.4858 53.3216 75.0469 53.3125Z" fill="#231F20"/>
<path d="M72.435 61.0793C72.3286 60.9456 72.2785 60.7758 72.2952 60.6059C72.3119 60.4359 72.3942 60.2791 72.5246 60.1687L75.1265 57.7357C76.2857 56.656 76.1613 54.6161 74.8479 53.1981C73.5345 51.7801 71.5246 51.5014 70.3704 52.5861L67.7685 55.039C67.6473 55.159 67.4837 55.2264 67.3133 55.2264C67.1428 55.2264 66.9791 55.159 66.858 55.039C66.751 54.9053 66.7009 54.7348 66.7186 54.5644C66.7363 54.394 66.8203 54.2374 66.9526 54.1285L69.5545 51.6955C71.2609 50.0934 74.0917 50.3471 75.8528 52.2577C77.614 54.1683 77.6638 57.0193 75.9524 58.6164L73.3504 61.0494C73.2923 61.1116 73.2226 61.1617 73.1451 61.1968C73.0676 61.232 72.984 61.2515 72.8989 61.2543C72.8139 61.2571 72.7291 61.2431 72.6495 61.213C72.5699 61.183 72.497 61.1375 72.435 61.0793Z" fill="#231F20"/>
<path d="M72.8579 61.5072H72.8231C72.7164 61.5048 72.6113 61.4811 72.5139 61.4376C72.4165 61.394 72.3288 61.3314 72.2559 61.2534C72.1059 61.0714 72.0329 60.8379 72.0525 60.6028C72.072 60.3677 72.1825 60.1495 72.3604 59.9946L74.9623 57.5616C76.022 56.5665 75.8926 54.6908 74.6688 53.3673C74.0445 52.6654 73.1685 52.2381 72.231 52.1782C71.9239 52.1591 71.616 52.2016 71.3255 52.3033C71.035 52.405 70.7678 52.5638 70.5395 52.7702L67.9575 55.1983C67.7702 55.3736 67.5225 55.4699 67.266 55.467C67.0509 55.4605 66.847 55.3693 66.6988 55.2132C66.5461 55.0313 66.4714 54.7965 66.4909 54.5598C66.5105 54.3231 66.6228 54.1037 66.8033 53.9494L69.4052 51.5214C69.8172 51.1392 70.3014 50.8433 70.8294 50.651C71.3574 50.4588 71.9186 50.3741 72.4798 50.4019C73.8482 50.4733 75.1334 51.0811 76.0568 52.0936C77.9125 54.0838 77.9473 57.1089 76.1414 58.8005L73.5395 61.2335C73.3555 61.4083 73.1117 61.5062 72.8579 61.5072ZM72.1315 51.6806H72.246C73.3167 51.7468 74.318 52.2332 75.032 53.0339C76.4399 54.5266 76.5593 56.7457 75.3006 57.9248L72.6987 60.3579C72.6161 60.4227 72.5621 60.5172 72.5482 60.6213C72.5342 60.7254 72.5615 60.8308 72.6241 60.9151C72.6821 60.9744 72.7602 61.0098 72.843 61.0146C72.9687 61.0142 73.0895 60.9662 73.1813 60.8803L75.7832 58.4473C77.3951 56.9546 77.3453 54.243 75.6737 52.4319C74.8394 51.5161 73.6771 50.9671 72.44 50.9044C71.9428 50.879 71.4456 50.954 70.9781 51.125C70.5105 51.296 70.0822 51.5594 69.7187 51.8995L67.1217 54.3325C67.0369 54.3968 66.981 54.4919 66.9661 54.5973C66.9512 54.7026 66.9785 54.8095 67.0421 54.8948C67.0703 54.9245 67.1043 54.9482 67.1419 54.9644C67.1795 54.9807 67.22 54.9891 67.261 54.9893C67.3235 54.9909 67.3858 54.9799 67.4439 54.9568C67.5021 54.9337 67.5549 54.8991 67.5993 54.855L70.2012 52.422C70.7253 51.935 71.4162 51.6678 72.1315 51.6756V51.6806Z" fill="#231F20"/>
<path d="M61.1766 56.8004C61.1766 56.8004 62.3855 48.4714 59.3358 47.6704C56.2862 46.8693 53.0673 51.6508 52.8236 54.8998C52.5947 57.9995 54.1469 62.6317 54.1469 62.6317L55.5001 61.3679C54.4458 59.3903 53.9505 57.1627 54.0673 54.9247C54.3907 51.2776 58.0175 47.959 59.1269 49.4516C59.9776 50.5711 59.8085 58.099 59.8085 58.099L61.1766 56.8004Z" fill="#231F20"/>
<path d="M54.1469 62.8806H54.0872C54.0471 62.8709 54.01 62.8513 53.9796 62.8234C53.9491 62.7956 53.9262 62.7604 53.9131 62.7213C53.8484 62.5323 52.3459 58.0046 52.5748 54.8949C52.8988 52.2494 54.2519 49.838 56.3409 48.183C56.7631 47.8387 57.2571 47.5934 57.7866 47.4651C58.316 47.3368 58.8675 47.3288 59.4005 47.4416C62.6243 48.2875 61.4701 56.497 61.4203 56.8453C61.4119 56.9003 61.3857 56.951 61.3457 56.9896L59.9975 58.2583C59.9619 58.2913 59.9174 58.3132 59.8695 58.3213C59.8217 58.3293 59.7725 58.3232 59.7281 58.3036C59.6836 58.284 59.6459 58.2519 59.6195 58.2111C59.5931 58.1704 59.5793 58.1228 59.5796 58.0742C59.6492 55.0889 59.5348 50.3523 58.9527 49.5811C58.8459 49.456 58.7016 49.3686 58.5412 49.3318C58.3808 49.2951 58.2129 49.311 58.0622 49.3771C56.7389 49.7552 54.5797 52.1683 54.331 54.9447C54.2241 57.1328 54.7106 59.3092 55.7389 61.2436C55.7658 61.2925 55.7755 61.3489 55.7665 61.404C55.7575 61.459 55.7302 61.5094 55.6891 61.5471L54.3359 62.8109C54.3114 62.8356 54.2818 62.8546 54.2491 62.8666C54.2165 62.8787 54.1816 62.8834 54.1469 62.8806ZM58.6592 47.8347C57.9217 47.863 57.2116 48.1223 56.6294 48.576C54.6689 50.1517 53.3942 52.4251 53.0723 54.9198C52.8832 57.4324 53.9081 61.0297 54.2663 62.184L55.1916 61.3133C54.1647 59.3382 53.6903 57.1223 53.8185 54.8999C54.0673 52.1136 56.2215 49.3821 57.908 48.8994C58.1542 48.8029 58.4249 48.788 58.6801 48.857C58.9354 48.926 59.1618 49.0752 59.3259 49.2826C60.087 50.2777 60.092 55.6163 60.0671 57.4971L60.9427 56.6811C61.2661 54.3625 61.5696 48.5114 59.2761 47.9143C59.075 47.8603 58.8675 47.8336 58.6592 47.8347Z" fill="#231F20"/>
<path d="M78.4896 74.5679C77.8428 75.6923 77.1463 76.5581 76.3653 76.7322C76.0887 76.7886 75.8013 76.75 75.5494 76.6227C74.8131 76.2645 74.4797 75.4236 74.5842 74.4634L66.2561 72.6125L64.8034 73.9459C63.5099 75.1599 59.9378 73.4185 56.8434 70.0551C53.7489 66.6916 52.2664 62.9799 53.5599 61.7709L62.2263 53.6708L73.4897 65.8458L70.5744 68.5624L75.5792 72.2592C76.4001 71.3089 77.5294 70.8313 78.4349 71.0999C78.5236 71.124 78.6102 71.1556 78.6936 71.1945C78.9619 71.3111 79.173 71.5294 79.2806 71.8015C79.5244 72.4533 79.1214 73.4782 78.4896 74.5679Z" fill="#FFBF08"/>
<path d="M76.1215 77.0057C75.8854 77.0034 75.6527 76.949 75.4399 76.8465C75.0534 76.6345 74.739 76.312 74.5369 75.9202C74.3348 75.5284 74.2543 75.0852 74.3056 74.6473L66.3158 72.8761L64.9725 74.1249C64.781 74.2903 64.5579 74.4153 64.3168 74.4923C64.0757 74.5692 63.8215 74.5966 63.5696 74.5727C61.7537 74.508 59.0324 72.8014 56.6493 70.2191C53.3957 66.7015 51.9579 62.9102 53.3758 61.5817L62.0422 53.4816C62.0651 53.4577 62.0931 53.4395 62.1242 53.4282C62.1553 53.417 62.1885 53.4132 62.2213 53.4169C62.2543 53.4175 62.2868 53.4248 62.3167 53.4385C62.3467 53.4522 62.3735 53.472 62.3955 53.4965L73.6539 65.6715C73.6772 65.6947 73.6957 65.7222 73.7083 65.7525C73.721 65.7828 73.7275 65.8153 73.7275 65.8482C73.7275 65.881 73.721 65.9135 73.7083 65.9438C73.6957 65.9742 73.6772 66.0017 73.6539 66.0248L70.9574 68.5126L75.5444 71.8959C76.425 70.9704 77.5643 70.5575 78.4996 70.8311C78.6027 70.8588 78.7028 70.8972 78.798 70.9456C79.1234 71.087 79.3793 71.3519 79.5095 71.6819C79.7632 72.3437 79.5095 73.294 78.7185 74.6672C77.8926 76.0952 77.1862 76.8017 76.425 76.951C76.3261 76.9801 76.2243 76.9984 76.1215 77.0057ZM66.2411 72.3536H66.2959L74.624 74.2045C74.6837 74.2176 74.7365 74.2523 74.7723 74.3018C74.8081 74.3514 74.8244 74.4124 74.818 74.4732C74.7185 75.3688 75.027 76.0852 75.6389 76.3838C75.8468 76.4923 76.0852 76.5274 76.3155 76.4833C76.9175 76.3688 77.5394 75.7171 78.2757 74.4384C78.9821 73.2194 79.2259 72.3835 79.0369 71.881C78.9975 71.7702 78.9356 71.6688 78.8551 71.5832C78.7746 71.4976 78.6773 71.4295 78.5692 71.3834C78.4991 71.3496 78.4258 71.3229 78.3503 71.3038C77.5593 71.07 76.5145 71.5078 75.7533 72.3835C75.7135 72.4316 75.6567 72.4625 75.5946 72.4699C75.5326 72.4773 75.4701 72.4606 75.42 72.4233L70.4152 68.7315C70.3846 68.7106 70.3592 68.6831 70.3409 68.6509C70.3226 68.6188 70.3118 68.5829 70.3094 68.546C70.307 68.5091 70.3131 68.4721 70.3271 68.4378C70.3411 68.4036 70.3627 68.373 70.3903 68.3484L73.1216 65.8009L62.1766 53.9891L53.7191 61.9151C52.545 63.0146 54.0524 66.6517 57.0125 69.8758C59.2811 72.3288 61.9228 74.0154 63.5895 74.0751C63.776 74.0941 63.9645 74.0756 64.1438 74.021C64.3232 73.9663 64.4899 73.8765 64.6342 73.7567L66.072 72.4183C66.118 72.3758 66.1785 72.3527 66.2411 72.3536Z" fill="#231F20"/>
<path d="M73.4748 65.8358C72.1813 67.0498 68.6092 65.3034 65.5148 61.94C62.4203 58.5766 60.9378 54.8698 62.2313 53.6558C62.2313 53.6558 68.45 52.9294 71.5594 56.2928C74.6688 59.6563 73.4748 65.8358 73.4748 65.8358Z" fill="#FFBF08"/>
<path d="M72.3504 66.4827H72.241C70.4201 66.418 67.7038 64.7065 65.3158 62.1242C62.0671 58.6115 60.6294 54.8152 62.0472 53.4917C62.086 53.4565 62.1346 53.434 62.1865 53.427C62.4452 53.3972 68.5645 52.7205 71.7236 56.1387C74.8827 59.5568 73.7683 65.6419 73.7136 65.8956C73.7042 65.9488 73.678 65.9976 73.639 66.0349C73.2832 66.3446 72.8216 66.505 72.3504 66.4827ZM62.3308 53.8947C61.2612 55.059 62.7736 58.6264 65.6839 61.7709C67.9476 64.2238 70.5893 65.9105 72.2609 65.9702C72.6133 66.0031 72.966 65.9097 73.2559 65.7065C73.3803 64.9652 74.1663 59.4822 71.3704 56.4621C68.5744 53.4419 63.082 53.83 62.3308 53.8947Z" fill="#231F20"/>
<path d="M78.7085 74.7818C78.4724 75.2502 78.1426 75.665 77.7395 76.0005C77.3364 76.336 76.8686 76.5851 76.3653 76.7322C76.3653 76.7322 76.2359 75.548 77.216 73.7469C78.1961 71.9458 79.2657 71.7816 79.2657 71.7816C79.5244 72.4533 79.3403 73.6922 78.7085 74.7818Z" fill="#231F20"/>
<path d="M76.3653 76.9809C76.3138 76.9806 76.2635 76.965 76.221 76.9361C76.1934 76.9154 76.1704 76.8892 76.1533 76.8593C76.1362 76.8293 76.1254 76.7962 76.1215 76.762C76.1215 76.7122 75.9921 75.4733 76.9971 73.6423C78.002 71.8113 79.1811 71.5576 79.2309 71.5526C79.2864 71.545 79.3429 71.5561 79.3915 71.584C79.4401 71.6119 79.478 71.6551 79.4995 71.7069C79.798 72.488 79.5592 73.8015 78.9224 74.9061C78.6692 75.4013 78.3182 75.8401 77.8907 76.1958C77.4631 76.5516 76.9679 76.817 76.4349 76.9759L76.3653 76.9809ZM79.0965 72.1149C78.3633 72.5061 77.778 73.1264 77.4299 73.8811C76.9763 74.6628 76.6979 75.5337 76.614 76.4336C77.4204 76.0786 78.0832 75.4614 78.4946 74.6822C78.9781 73.9184 79.1902 73.014 79.0965 72.1149Z" fill="#231F20"/>
<path d="M51.2813 36.7838C51.2813 36.7838 62.4452 44.1625 63.0372 45.9735C63.6293 47.7846 62.7736 50.2923 61.8432 50.8495C60.9129 51.4068 58.9279 50.6605 58.4602 49.6554C58.1712 48.8876 58.0606 48.0641 58.1369 47.2473C58.1369 47.2473 50.7092 45.9885 48.9381 45.7546C47.167 45.5208 51.2813 36.7838 51.2813 36.7838Z" fill="white"/>
<path d="M61.0373 51.2877C60.7113 51.2844 60.3877 51.2324 60.0771 51.1334C59.6948 51.0374 59.3353 50.8666 59.0194 50.6309C58.7035 50.3952 58.4373 50.0993 58.2364 49.7602C57.9472 49.0284 57.8232 48.2418 57.8732 47.4565C56.6245 47.2426 50.4803 46.2077 48.9182 46.0087C48.8126 45.9953 48.7119 45.956 48.6251 45.8944C48.5384 45.8328 48.4681 45.7507 48.4207 45.6554C47.6048 44.1628 50.7241 37.4409 51.0823 36.6995C51.0978 36.6671 51.12 36.6384 51.1475 36.6153C51.1749 36.5921 51.207 36.575 51.2415 36.5652C51.2761 36.5572 51.312 36.5562 51.347 36.5622C51.382 36.5682 51.4155 36.581 51.4455 36.6C52.5947 37.3613 62.7039 44.0633 63.3009 45.9191C63.8979 47.775 63.0721 50.4468 62.0024 51.0886C61.7049 51.2417 61.3711 51.3105 61.0373 51.2877ZM51.3808 37.1274C50.0773 39.9485 48.3212 44.4762 48.8236 45.3967C48.8363 45.4249 48.8565 45.449 48.8819 45.4666C48.9073 45.4841 48.9371 45.4944 48.9679 45.4962C50.7241 45.7201 58.102 46.9888 58.1767 46.9888C58.239 47.0009 58.2947 47.0354 58.3333 47.0859C58.3718 47.1363 58.3904 47.1992 58.3856 47.2625C58.3132 48.0349 58.4152 48.8136 58.6841 49.5413C59.0373 50.0927 59.5868 50.4893 60.2214 50.6508C60.7 50.8444 61.2352 50.8444 61.7139 50.6508C62.5248 50.1532 63.3507 47.76 62.7935 46.0634C62.3905 44.8046 55.8384 40.1127 51.3808 37.1274Z" fill="#231F20"/>
<path d="M33.7345 117.646C33.7345 117.646 32.242 123.178 33.7345 123.77C35.227 124.362 50.5649 122.119 48.162 120.029C45.7591 117.939 39.4309 116.287 37.9732 116.685C36.5155 117.083 33.7345 117.646 33.7345 117.646Z" fill="#231F20"/>
<path d="M34.7593 124.119C34.3825 124.139 34.0048 124.101 33.64 124.004C32.038 123.357 33.237 118.531 33.4957 117.586C33.5059 117.541 33.5293 117.5 33.563 117.468C33.5966 117.436 33.639 117.415 33.6847 117.407C33.7146 117.407 36.4956 116.84 37.9284 116.447C39.5353 116.009 45.9581 117.75 48.3461 119.845C48.5108 119.954 48.6257 120.125 48.6657 120.318C48.7058 120.512 48.6678 120.714 48.56 120.88C47.56 122.527 38.207 124.119 34.7593 124.119ZM33.9335 117.86C33.3614 120.064 32.9683 123.198 33.824 123.542C35.1524 124.079 47.1322 122.258 48.1371 120.621C48.1968 120.526 48.2416 120.407 48.0177 120.218C45.6347 118.128 39.3911 116.561 38.0677 116.924C36.8041 117.268 34.5404 117.73 33.9335 117.86Z" fill="#231F20"/>
<path d="M14.2822 116.735C14.2822 116.735 11.6355 121.636 12.6305 122.298C13.6255 122.96 28.7196 121.502 27.859 120.507C26.9983 119.511 21.6999 117.924 19.8492 117.596C17.9985 117.268 14.2822 116.735 14.2822 116.735Z" fill="#231F20"/>
<path d="M14.4564 122.706C13.4614 122.706 12.7201 122.636 12.4913 122.482C12.2624 122.327 11.4963 121.327 14.0683 116.596C14.093 116.553 14.1295 116.517 14.1737 116.494C14.2178 116.472 14.2676 116.462 14.3171 116.466C14.3569 116.466 18.0533 117.004 19.8891 117.332C21.5806 117.631 27.0879 119.223 28.0481 120.317C28.1114 120.385 28.1466 120.474 28.1466 120.566C28.1466 120.659 28.1114 120.748 28.0481 120.815C27.3416 121.641 18.5309 122.706 14.4564 122.706ZM14.4216 116.984C13.2325 119.218 12.2972 121.755 12.7649 122.069C13.7599 122.686 26.3367 121.382 27.5904 120.576C26.5954 119.676 21.7945 118.183 19.8045 117.83C18.2075 117.546 15.1728 117.108 14.4216 116.999V116.984Z" fill="#231F20"/>
<path d="M16.715 112.69C16.5807 112.889 14.2623 116.73 14.2623 116.73C14.2623 116.73 15.4066 119.79 19.9587 118.72L23.073 114.218L16.715 112.69Z" fill="white"/>
<path d="M18.1776 119.193C14.9787 119.193 14.0633 116.844 14.0534 116.815C14.0363 116.782 14.0275 116.745 14.0275 116.708C14.0275 116.67 14.0363 116.634 14.0534 116.601C14.1479 116.441 16.3717 112.75 16.506 112.551C16.5344 112.507 16.5756 112.474 16.6237 112.456C16.6718 112.437 16.7246 112.434 16.7747 112.446L23.1278 113.969C23.1679 113.978 23.2052 113.997 23.2364 114.024C23.2676 114.051 23.2918 114.085 23.3069 114.123C23.3196 114.161 23.3235 114.201 23.3183 114.241C23.3131 114.28 23.299 114.318 23.277 114.352L20.1627 118.83C20.1302 118.882 20.0784 118.92 20.0184 118.934C19.4163 119.089 18.7989 119.175 18.1776 119.193ZM14.5658 116.735C14.8096 117.233 16.0583 119.337 19.8293 118.486L22.68 114.362L16.8493 112.964C16.5011 113.541 15.2822 115.556 14.5658 116.735Z" fill="#231F20"/>
<path d="M34.1773 113.775L33.7345 118.631C33.7345 118.631 37.1772 120.218 39.8239 118.188L41.6796 110.949L34.1773 113.775Z" fill="white"/>
<path d="M36.615 119.477C35.5886 119.469 34.574 119.258 33.63 118.855C33.5836 118.833 33.545 118.797 33.5192 118.753C33.4935 118.708 33.4818 118.657 33.4857 118.606L33.9285 113.75C33.9323 113.703 33.9493 113.659 33.9776 113.622C34.0058 113.585 34.044 113.557 34.0877 113.541L41.59 110.715C41.6324 110.698 41.6784 110.694 41.7231 110.702C41.7678 110.71 41.8096 110.73 41.8437 110.759C41.8758 110.792 41.8994 110.831 41.9124 110.874C41.9255 110.918 41.9275 110.964 41.9184 111.008L40.0677 118.228C40.0535 118.283 40.0221 118.331 39.9781 118.367C39.013 119.103 37.8287 119.494 36.615 119.477ZM33.9982 118.481C34.6847 118.745 37.4359 119.651 39.605 118.049L41.3214 111.357L34.4111 113.959L33.9982 118.481Z" fill="#231F20"/>
<path d="M23.4014 64.2586C23.4014 64.2586 25.3466 88.7828 24.6402 90.0167C23.9337 91.2506 15.8295 112.406 15.8295 112.406C15.8295 112.406 15.1031 114.367 20.3468 115.516C22.7596 116.048 23.7198 115.561 23.7198 115.561C23.7198 115.561 32.6748 102.162 33.0828 95.7236C33.4907 89.2853 35.3862 73.3986 35.3862 73.3986L23.4014 64.2586Z" fill="#231F20"/>
<path d="M22.3815 116.029C21.6798 116.021 20.9809 115.937 20.297 115.78C17.8095 115.237 16.317 114.451 15.7548 113.436C15.6541 113.275 15.588 113.094 15.5606 112.906C15.5332 112.717 15.5451 112.525 15.5956 112.342C15.929 111.471 23.7148 91.1312 24.4263 89.8973C24.9238 88.9868 23.9288 74.0752 23.1576 64.2785C23.1526 64.2309 23.1617 64.1828 23.1839 64.1403C23.206 64.0979 23.2401 64.0628 23.282 64.0397C23.3231 64.0141 23.3705 64.0005 23.4188 64.0005C23.4672 64.0005 23.5146 64.0141 23.5556 64.0397L35.5354 73.1995C35.5703 73.2259 35.5978 73.2608 35.6153 73.3009C35.6327 73.341 35.6395 73.3849 35.6349 73.4284C35.6349 73.5826 33.7096 89.3898 33.3315 95.7385C32.9484 102.167 24.2919 115.143 23.9238 115.7C23.8998 115.736 23.8673 115.765 23.8293 115.785C23.3688 115.966 22.8758 116.049 22.3815 116.029ZM23.6949 64.781C24.0233 69.0102 25.5407 88.932 24.8541 90.156C24.1676 91.38 16.1429 112.317 16.0633 112.546C16.0375 112.667 16.0366 112.792 16.0606 112.913C16.0845 113.035 16.1328 113.15 16.2026 113.252C16.5459 113.854 17.5508 114.7 20.4015 115.322C22.3915 115.755 23.3268 115.491 23.5556 115.412C24.2173 114.416 32.4708 101.833 32.834 95.7634C33.1972 89.6933 34.9335 75.1499 35.1225 73.5578L23.6949 64.781Z" fill="#231F20"/>
<path d="M20.1528 60.5121C20.1528 60.5121 32.5903 89.9321 32.9385 91.8228C33.2868 93.7135 32.9385 114.909 32.9385 114.909C32.9385 114.909 38.7643 116.501 42.6497 114.028C42.6497 114.028 47.167 90.5392 46.4108 86.1209C45.6546 81.7027 39.6498 57.7009 39.6498 57.7009L20.1528 60.5121Z" fill="#231F20"/>
<path d="M37.1125 115.68C35.6928 115.689 34.2775 115.521 32.8987 115.183C32.8453 115.168 32.7982 115.137 32.7648 115.092C32.7315 115.048 32.7138 114.994 32.7146 114.939C32.7146 114.73 33.0629 93.7533 32.7146 91.9024C32.3664 90.0515 20.0682 60.9399 19.9438 60.6464C19.9278 60.6121 19.9195 60.5747 19.9195 60.5369C19.9195 60.4991 19.9278 60.4617 19.9438 60.4275C19.9619 60.3942 19.9876 60.3657 20.0187 60.3441C20.0497 60.3225 20.0854 60.3085 20.1229 60.3031L39.6249 57.4919C39.6854 57.4815 39.7476 57.4949 39.7986 57.5291C39.8495 57.5634 39.8853 57.616 39.8985 57.676C39.9582 57.9148 45.9133 81.7425 46.6645 86.1159C47.4157 90.4894 43.0875 113.148 42.9034 114.108C42.8982 114.142 42.8858 114.174 42.8669 114.202C42.8479 114.231 42.8231 114.254 42.794 114.272C41.0683 115.262 39.1005 115.749 37.1125 115.68ZM33.1872 114.745C34.1822 114.984 39.0677 115.974 42.4308 113.904C42.7542 112.183 46.8784 90.365 46.167 86.1955C45.4556 82.0261 40.0677 60.4225 39.4657 58.0094L20.506 60.7409C21.8791 64.0048 32.844 89.9918 33.1823 91.8079C33.5206 93.6239 33.227 112.446 33.1872 114.745Z" fill="#231F20"/>
<path d="M44.769 54.1634C44.769 54.1634 46.9779 60.2584 48.749 60.8753C50.5201 61.4923 74.4051 55.8999 74.4051 55.8999C74.4051 55.8999 76.9523 54.5664 77.4448 55.1336C78.0816 55.865 80.2706 51.8647 77.8727 50.0387C75.7633 48.4267 74.9922 49.6755 73.0917 50.3174C71.4649 50.8647 53.6046 51.1881 53.6046 51.1881L44.769 54.1634Z" fill="white"/>
<path d="M49.1669 61.1638C48.9996 61.1704 48.8321 61.1537 48.6694 61.1141C46.8486 60.4722 44.779 54.8847 44.5452 54.2528C44.5228 54.1895 44.5265 54.1199 44.5554 54.0593C44.5844 53.9986 44.6361 53.952 44.6994 53.9294L53.53 50.9441H53.6046C59.7687 50.8347 71.7584 50.5113 73.0071 50.0884C73.4235 49.9408 73.8291 49.7646 74.221 49.561C75.3454 49.0137 76.3105 48.541 78.0219 49.8446C78.5113 50.2419 78.8757 50.7719 79.0716 51.3711C79.2675 51.9703 79.2865 52.6132 79.1264 53.2229C78.9075 54.3126 78.3005 55.3126 77.7682 55.4569C77.6791 55.4797 77.5855 55.4773 77.4977 55.4501C77.4098 55.4229 77.3313 55.3719 77.2707 55.3027C77.0767 55.0788 75.7782 55.4768 74.5295 56.1286H74.4748C72.1465 56.661 52.8882 61.1638 49.1669 61.1638ZM45.0725 54.3175C45.7541 56.1286 47.5103 60.1886 48.8038 60.6414C50.0973 61.0941 64.7238 57.8949 74.2957 55.6659C75.1265 55.233 77.0568 54.3325 77.609 54.9693C77.7135 54.9693 78.1065 54.6061 78.4299 53.7702C78.6289 53.2229 79.1662 51.3571 77.6936 50.2327C76.221 49.1082 75.5096 49.4714 74.4151 50.0038C74.003 50.2141 73.5776 50.3969 73.1415 50.5511C71.5196 51.0984 54.7738 51.4168 53.6196 51.4367L45.0725 54.3175Z" fill="#231F20"/>
<path d="M42.5851 19.2156C42.129 19.0634 41.7219 18.792 41.406 18.4295C41.2635 18.2212 41.1748 17.9808 41.1479 17.7299C41.121 17.479 41.1567 17.2253 41.2518 16.9916C41.1683 17.0215 41.0795 17.034 40.991 17.0282C40.9025 17.0224 40.8162 16.9984 40.7373 16.9578C40.6585 16.9172 40.5888 16.8609 40.5327 16.7922C40.4765 16.7235 40.4351 16.644 40.411 16.5587C40.327 16.2078 40.373 15.8384 40.5403 15.5188C40.7325 15.0523 40.9997 14.6203 41.3314 14.2401C41.0428 14.1157 40.605 14.4143 40.4309 14.1506C40.3886 14.0469 40.3886 13.9308 40.4309 13.8271C40.6647 13.1438 41.0412 12.518 41.5353 11.9912C42.8288 10.3543 44.2865 6.87639 46.8039 7.0157C47.3014 7.0157 47.774 7.21472 48.2665 7.20975C49.1968 7.20975 49.9879 6.55796 50.8535 6.21465C51.541 5.95367 52.2846 5.87608 53.0112 5.98948C53.7378 6.10289 54.4224 6.40339 54.9977 6.86146C55.9796 7.59953 56.8982 8.41836 57.7439 9.3094C58.4104 10.0247 58.919 10.8723 59.2364 11.7971C59.3958 12.262 59.4538 12.7556 59.4067 13.2448C59.3595 13.734 59.2081 14.2074 58.9627 14.6332C58.9151 14.7381 58.8325 14.8233 58.7291 14.8741C58.6256 14.9249 58.5078 14.9382 58.3956 14.9118C58.1749 14.7539 57.9802 14.5626 57.8185 14.3446C57.9562 14.7721 57.9689 15.2301 57.8553 15.6646C57.7416 16.0992 57.5062 16.4922 57.1767 16.7975C56.2514 17.6334 55.3658 17.2951 54.3211 17.0761C52.4156 16.698 51.2316 17.907 49.5799 18.6633C47.8038 19.4793 45.5999 20.0813 43.6646 19.5639C43.2977 19.4711 42.9371 19.3547 42.5851 19.2156Z" fill="#FFBF08"/>
<path d="M45.2069 20.0216C44.6662 20.0255 44.1274 19.9569 43.6049 19.8176C43.2265 19.7189 42.8544 19.5976 42.4905 19.4544C41.9891 19.2857 41.5434 18.9829 41.202 18.5787C40.9449 18.1999 40.8417 17.7373 40.9134 17.2851C40.852 17.2755 40.7919 17.2588 40.7343 17.2354C40.605 17.1815 40.4885 17.1009 40.3925 16.9988C40.2965 16.8968 40.2231 16.7756 40.1771 16.6433C40.0706 16.2347 40.1166 15.8014 40.3065 15.4243C40.4418 15.1082 40.6085 14.8065 40.804 14.5237C40.6962 14.5513 40.5826 14.5452 40.4784 14.506C40.3743 14.4668 40.2848 14.3966 40.2219 14.3048C40.1791 14.2301 40.1521 14.1473 40.1427 14.0617C40.1333 13.9761 40.1416 13.8895 40.1672 13.8073C40.3747 13.1436 40.7283 12.535 41.202 12.026L41.3164 11.8768C41.6099 11.5086 41.9184 11.0309 42.2418 10.5284C43.3462 8.81684 44.7293 6.6923 46.7939 6.79679C47.0261 6.81669 47.257 6.84992 47.4854 6.8963C47.7315 6.95558 47.9835 6.98728 48.2366 6.99083C48.8219 6.93125 49.3855 6.73712 49.8834 6.42363C50.1607 6.27174 50.4464 6.13553 50.7391 6.01564C51.4677 5.73757 52.2563 5.65465 53.0268 5.77508C53.7973 5.89551 54.523 6.21511 55.132 6.70225L55.525 7.02068C56.3786 7.67034 57.1743 8.39284 57.9031 9.18005C58.6136 9.91306 59.1583 10.7903 59.5 11.7524C59.6697 12.2513 59.7303 12.7809 59.678 13.3053C59.6256 13.8297 59.4615 14.3368 59.1966 14.7924C59.1247 14.948 58.9991 15.0725 58.8428 15.1429C58.6865 15.2133 58.51 15.2249 58.3458 15.1755C58.2959 15.1536 58.2491 15.1251 58.2065 15.0909C58.2048 15.4503 58.1298 15.8055 57.9861 16.1349C57.8424 16.4642 57.633 16.7608 57.3707 17.0065C56.4703 17.8175 55.5698 17.6185 54.6992 17.4294L54.3012 17.3448C52.9878 17.0861 52.0475 17.6235 50.958 18.2504C50.5649 18.4743 50.152 18.7081 49.7092 18.9171C48.3015 19.5941 46.7681 19.9702 45.2069 20.0216ZM42.6796 18.9917C43.0231 19.1308 43.3754 19.2471 43.7343 19.34C45.7243 19.8674 47.963 19.1509 49.4804 18.4544C49.9082 18.2553 50.3062 18.0265 50.6943 17.8075C51.8186 17.1607 52.8833 16.5537 54.3758 16.8473L54.7837 16.9319C55.6345 17.1209 56.3061 17.2652 57.0175 16.6234C57.309 16.3502 57.5174 16.0002 57.6186 15.6138C57.7198 15.2273 57.7098 14.8201 57.5896 14.4391C57.5857 14.4144 57.5857 14.3892 57.5896 14.3645C57.5771 14.2985 57.5913 14.2303 57.6291 14.1748C57.6669 14.1192 57.7252 14.081 57.7911 14.0685C57.8571 14.0559 57.9253 14.0701 57.9809 14.1079C58.0364 14.1457 58.0746 14.204 58.0871 14.27C58.2257 14.4314 58.3789 14.5797 58.5448 14.7128C58.5697 14.7128 58.6593 14.7128 58.7787 14.5187C59.0047 14.1237 59.1433 13.6848 59.1854 13.2317C59.2274 12.7785 59.1719 12.3216 59.0224 11.8917C58.7109 10.9962 58.2104 10.1783 57.5548 9.4935C56.8435 8.72855 56.0679 8.02609 55.2365 7.39385L54.8434 7.07044C54.3005 6.64404 53.6571 6.36428 52.975 6.25799C52.2929 6.1517 51.5949 6.22244 50.948 6.46343C50.6702 6.57657 50.3994 6.70617 50.1371 6.85152C49.5704 7.20162 48.9299 7.41458 48.2665 7.47345C47.9816 7.46966 47.698 7.43462 47.4207 7.36897C47.2139 7.32556 47.0046 7.29565 46.7939 7.27941C44.9929 7.1799 43.7691 9.09546 42.6845 10.7623C42.3512 11.2598 42.0378 11.7573 41.7343 12.1504L41.6149 12.2997C41.1915 12.7553 40.8708 13.2966 40.6746 13.8869C40.6498 13.9913 40.6746 14.0212 40.6746 14.0212C40.7482 14.0202 40.8216 14.0119 40.8935 13.9963C41.0783 13.9395 41.2759 13.9395 41.4607 13.9963C41.497 14.0115 41.5291 14.0353 41.5542 14.0657C41.5794 14.096 41.5968 14.1319 41.605 14.1705C41.6133 14.2087 41.6128 14.2484 41.6033 14.2863C41.5938 14.3243 41.5756 14.3596 41.5502 14.3894C41.2361 14.7436 40.9824 15.147 40.799 15.5835C40.655 15.8478 40.6108 16.1551 40.6746 16.4492C40.6985 16.514 40.7356 16.5732 40.7836 16.6229C40.8315 16.6725 40.8893 16.7117 40.9532 16.7378C40.9874 16.7542 41.0248 16.7626 41.0627 16.7626C41.1006 16.7626 41.138 16.7542 41.1721 16.7378C41.2173 16.7127 41.2694 16.7026 41.3207 16.709C41.372 16.7154 41.42 16.7379 41.4577 16.7734C41.4953 16.8088 41.5207 16.8553 41.5302 16.9062C41.5397 16.957 41.5328 17.0096 41.5104 17.0562C41.4321 17.2506 41.403 17.4612 41.4255 17.6695C41.4481 17.8778 41.5217 18.0773 41.6398 18.2504C41.928 18.5747 42.2971 18.8168 42.7094 18.9519L42.6796 18.9917Z" fill="#231F20"/>
<path d="M54.4454 18.0511C54.4454 18.0511 54.9429 21.5936 54.321 21.9767C53.6992 22.3599 52.6345 21.4145 52.6345 21.4145" fill="white"/>
<path d="M53.9728 22.3205C53.412 22.2423 52.8899 21.99 52.4803 21.599C52.4538 21.5778 52.432 21.5514 52.4162 21.5214C52.4003 21.4914 52.3907 21.4585 52.388 21.4247C52.3854 21.3909 52.3896 21.3569 52.4006 21.3248C52.4115 21.2927 52.4289 21.2632 52.4516 21.2381C52.4744 21.2129 52.502 21.1927 52.5329 21.1787C52.5637 21.1646 52.5971 21.157 52.631 21.1563C52.6649 21.1556 52.6986 21.1619 52.73 21.1747C52.7614 21.1875 52.7898 21.2066 52.8136 21.2308C53.0474 21.4448 53.8086 22.002 54.2016 21.7682C54.4653 21.609 54.4653 19.8874 54.2016 18.0863C54.1931 18.021 54.2109 17.955 54.251 17.9028C54.2911 17.8506 54.3503 17.8164 54.4155 17.8077C54.4476 17.8028 54.4803 17.8043 54.5118 17.8122C54.5432 17.8201 54.5728 17.8342 54.5987 17.8536C54.6247 17.8731 54.6465 17.8975 54.6629 17.9255C54.6792 17.9535 54.6899 17.9845 54.6941 18.0167C54.8583 19.1312 55.1518 21.7682 54.4553 22.1911C54.3105 22.2802 54.1428 22.3251 53.9728 22.3205Z" fill="#231F20"/>
<path d="M55.7489 14.3048C56.4454 15.7676 55.1917 17.5737 54.5797 18.8425C53.7174 20.6303 52.8153 22.3966 51.8733 24.1414C51.2763 25.2459 48.3262 23.8826 47.963 23.2955L46.4705 27.1814C46.4705 27.1814 44.8039 28.9328 42.9482 26.7137C41.0925 24.4946 41.2517 22.7333 41.2517 22.7333L43.8984 17.6384C43.8984 17.6384 45.8337 18.5738 48.0774 16.8025C50.3211 15.0312 51.9529 11.4439 51.9529 11.4439C51.9529 11.4439 55.0673 12.8768 55.7489 14.3048Z" fill="white"/>
<path d="M44.9282 28.0867H44.8536C44.4354 28.0479 44.0304 27.9194 43.6664 27.7099C43.3024 27.5004 42.9878 27.2148 42.7442 26.8726C40.8487 24.5988 40.988 22.7679 40.998 22.6883C40.9985 22.6568 41.007 22.6259 41.0228 22.5987L43.6646 17.5038C43.6961 17.4482 43.7471 17.4063 43.8077 17.3861C43.8684 17.3658 43.9343 17.3688 43.9929 17.3943C44.0675 17.4292 45.8287 18.2352 47.9132 16.5833C50.0873 14.8718 51.7042 11.3591 51.7191 11.3242C51.7314 11.2938 51.7503 11.2664 51.7743 11.244C51.7984 11.2217 51.8271 11.2049 51.8584 11.1949C51.8881 11.1814 51.9203 11.1744 51.9529 11.1744C51.9855 11.1744 52.0178 11.1814 52.0475 11.1949C52.1818 11.2546 55.2613 12.6875 55.9727 14.1802C56.6095 15.5136 55.7986 17.0361 55.1518 18.2551C55.0275 18.4939 54.9081 18.7228 54.8036 18.9367C53.9429 20.718 53.0325 22.5042 52.0972 24.2456C51.9863 24.4262 51.8279 24.5729 51.6392 24.6694C51.4505 24.7659 51.2389 24.8087 51.0276 24.7929C49.9503 24.7353 48.9131 24.3653 48.0426 23.7281L46.6744 27.2558C46.6639 27.2871 46.647 27.3159 46.6247 27.3403C46.1716 27.7913 45.5668 28.0574 44.9282 28.0867ZM41.4905 22.7778C41.4905 23.0614 41.5303 24.6386 43.1273 26.5542C43.3268 26.841 43.5855 27.0817 43.8858 27.2602C44.1862 27.4387 44.5212 27.5509 44.8685 27.5891C45.3815 27.5849 45.8746 27.3897 46.2516 27.0418L47.7441 23.2057C47.761 23.1628 47.7895 23.1255 47.8265 23.0978C47.8634 23.0702 47.9073 23.0534 47.9532 23.0492C47.9991 23.0451 48.0453 23.0538 48.0866 23.0744C48.1278 23.095 48.1625 23.1267 48.1868 23.1659C48.3809 23.4794 49.9132 24.3103 50.9679 24.3103H51.0226C51.351 24.3103 51.5698 24.2058 51.6644 24.0217C52.5997 22.2902 53.5101 20.509 54.3658 18.7327C54.4703 18.5188 54.5946 18.2849 54.724 18.0411C55.321 16.9167 56.0623 15.5136 55.5349 14.409C55.0026 13.2945 52.7837 12.1153 52.0524 11.7571C51.6445 12.593 50.1719 15.429 48.2117 16.9764C46.2516 18.5238 44.5949 18.1357 43.9979 17.9317L41.4905 22.7778Z" fill="#231F20"/>
<path d="M52.4653 22.783C52.4653 22.783 50.6694 22.9821 50.6097 21.1959L52.4653 22.783Z" fill="white"/>
<path d="M52.3062 23.0368C51.8146 23.0484 51.3343 22.8883 50.948 22.5841C50.7582 22.4089 50.6078 22.1955 50.5066 21.9579C50.4054 21.7204 50.3558 21.464 50.3609 21.2058C50.3596 21.1732 50.3647 21.1405 50.376 21.1099C50.3873 21.0792 50.4045 21.051 50.4267 21.027C50.4489 21.0029 50.4756 20.9835 50.5053 20.9698C50.535 20.9561 50.5671 20.9484 50.5997 20.9471C50.6327 20.9444 50.6659 20.9485 50.6972 20.9593C50.7285 20.97 50.7573 20.9872 50.7816 21.0096C50.8059 21.0321 50.8253 21.0594 50.8385 21.0897C50.8518 21.1201 50.8585 21.1528 50.8584 21.1859C50.8514 21.3755 50.8845 21.5644 50.9557 21.7402C51.0268 21.916 51.1344 22.0747 51.2714 22.2059C51.6069 22.4526 52.0205 22.5693 52.4355 22.5343C52.4682 22.5309 52.5013 22.5339 52.5328 22.5434C52.5643 22.5528 52.5936 22.5684 52.619 22.5892C52.6445 22.61 52.6655 22.6357 52.681 22.6647C52.6965 22.6937 52.706 22.7255 52.7091 22.7582C52.7161 22.8235 52.697 22.8889 52.656 22.9401C52.615 22.9914 52.5554 23.0243 52.4902 23.0319L52.3062 23.0368Z" fill="#231F20"/>
<path d="M50.4654 17.5787C50.6313 17.0984 50.6588 16.5812 50.545 16.086C50.5111 15.7001 50.4206 15.3212 50.2764 14.9616C50.2 14.7882 50.0864 14.6337 49.9437 14.509C49.801 14.3843 49.6326 14.2925 49.4505 14.2401C49.283 14.2068 49.1103 14.2096 48.9438 14.2482C48.7774 14.2868 48.6212 14.3604 48.4854 14.464C48.2141 14.6728 47.9931 14.9397 47.8386 15.2452C47.4918 15.9059 47.3245 16.646 47.3533 17.3916C47.3821 18.1373 47.6061 18.8623 48.0028 19.4942L47.958 19.34" fill="white"/>
<path d="M48.0028 19.7429C47.9613 19.7424 47.9205 19.7317 47.8841 19.7117C47.8476 19.6918 47.8167 19.6632 47.7939 19.6285C47.3793 18.9611 47.1453 18.1975 47.1148 17.4125C47.0842 16.6275 47.2582 15.848 47.6197 15.1505C47.7872 14.7957 48.034 14.4841 48.3411 14.24C48.506 14.1154 48.6956 14.0274 48.8972 13.9819C49.0988 13.9365 49.3078 13.9345 49.5102 13.9763C49.7322 14.0392 49.937 14.1515 50.1094 14.3049C50.2817 14.4583 50.417 14.6487 50.5052 14.8619C50.6588 15.2436 50.7544 15.6461 50.7888 16.056C50.9084 16.5887 50.8738 17.1444 50.6893 17.6582C50.6764 17.6883 50.6575 17.7155 50.6339 17.7382C50.6102 17.7609 50.5822 17.7785 50.5516 17.7902C50.5209 17.8018 50.4882 17.8071 50.4555 17.8058C50.4227 17.8045 50.3906 17.7966 50.361 17.7825C50.301 17.7554 50.2543 17.7056 50.2309 17.644C50.2076 17.5825 50.2097 17.5142 50.2366 17.4542C50.3756 17.0231 50.3962 16.5625 50.2963 16.1207C50.2689 15.7604 50.1867 15.4064 50.0525 15.0709C49.994 14.9265 49.9043 14.7968 49.79 14.6911C49.6756 14.5853 49.5393 14.506 49.3908 14.4589C49.2582 14.4334 49.1216 14.4367 48.9903 14.4684C48.859 14.5002 48.736 14.5597 48.6297 14.643C48.3879 14.8382 48.1925 15.0846 48.0575 15.3645C47.7525 15.9435 47.5931 16.5882 47.5931 17.2427C47.5931 17.8972 47.7525 18.5419 48.0575 19.121C48.0865 19.1365 48.112 19.1577 48.1325 19.1834C48.153 19.209 48.1681 19.2386 48.1769 19.2702L48.2267 19.4195C48.2448 19.4772 48.2418 19.5395 48.2181 19.5951C48.1943 19.6508 48.1515 19.6961 48.0973 19.723C48.0673 19.7353 48.0353 19.742 48.0028 19.7429Z" fill="#231F20"/>
<path d="M47.963 23.2952C47.963 23.2952 46.6645 22.1011 46.4456 20.7228C46.4456 20.7228 45.2616 23.4992 47.2267 25.3948L47.963 23.2952Z" fill="#231F20"/>
<path d="M47.2267 25.6439C47.1618 25.6442 47.0993 25.6193 47.0526 25.5742C44.9879 23.584 46.2068 20.6534 46.2168 20.5987C46.2382 20.5483 46.2756 20.5063 46.3233 20.4793C46.3709 20.4523 46.4262 20.4418 46.4805 20.4494C46.5336 20.4571 46.583 20.4815 46.6215 20.5191C46.6599 20.5566 46.6854 20.6054 46.6944 20.6584C46.8934 21.9371 48.1222 23.0765 48.1322 23.0865C48.1681 23.12 48.1937 23.1631 48.2061 23.2107C48.2184 23.2582 48.2169 23.3084 48.2018 23.3551L47.4605 25.4498C47.4461 25.4891 47.4222 25.5241 47.391 25.5519C47.3597 25.5797 47.3221 25.5993 47.2814 25.609L47.2267 25.6439ZM46.4456 21.5888C46.2978 22.1597 46.2824 22.7568 46.4005 23.3345C46.5187 23.9123 46.7672 24.4554 47.1272 24.9224L47.6794 23.3651C47.1662 22.8507 46.7485 22.2493 46.4456 21.5888Z" fill="#231F20"/>
<path d="M54.0476 16.462C54.27 16.142 54.348 15.8115 54.2218 15.7238C54.0957 15.6361 53.8131 15.8244 53.5907 16.1443C53.3683 16.4643 53.2903 16.7948 53.4165 16.8825C53.5426 16.9702 53.8252 16.7819 54.0476 16.462Z" fill="#231F20"/>
<path d="M50.2465 28.0171C48.5898 25.4398 42.2865 19.106 36.8687 20.3449C31.4509 21.5838 18.9288 44.2273 20.1527 60.522C20.1527 60.522 36.3662 62.2435 41.3213 61.1837C41.3213 61.1837 46.2316 41.5803 48.5699 37.8736C48.555 37.8736 51.9031 30.5944 50.2465 28.0171Z" fill="#7800FF"/>
<path d="M50.7042 29.9277C50.7042 29.9277 52.4206 41.7793 55.1469 50.4565L44.4158 56.0341C44.4158 56.0341 39.2518 50.3371 38.1921 45.5855C37.1324 40.8339 50.7042 29.9277 50.7042 29.9277Z" fill="#7800FF"/>
<path d="M33.0828 95.9923C33.0565 95.9968 33.0295 95.9968 33.0032 95.9923C32.9415 95.9708 32.8907 95.9258 32.8618 95.8672C32.833 95.8085 32.8283 95.7408 32.849 95.6788C33.1604 94.4366 33.1086 93.131 32.6997 91.9173C32.0082 89.7082 24.9039 72.5129 24.8342 72.3288C24.818 72.2982 24.8083 72.2645 24.8059 72.2299C24.8034 72.1953 24.8082 72.1606 24.8199 72.128C24.8317 72.0953 24.8501 72.0655 24.8741 72.0404C24.898 72.0154 24.927 71.9956 24.959 71.9823C24.9911 71.9691 25.0255 71.9627 25.0602 71.9635C25.0949 71.9644 25.129 71.9725 25.1603 71.9874C25.1917 72.0022 25.2196 72.0234 25.2422 72.0496C25.2649 72.0759 25.2818 72.1066 25.2919 72.1398C25.5855 72.8513 32.4759 89.554 33.1773 91.7681C33.6225 93.0797 33.6727 94.4932 33.3216 95.833C33.3025 95.8806 33.2695 95.9213 33.2269 95.9497C33.1843 95.9781 33.134 95.9929 33.0828 95.9923Z" fill="white"/>
<path d="M43.6894 55.1684C43.6894 55.1684 38.605 45.1528 36.4707 39.416L43.6894 55.1684Z" fill="#231F20"/>
<path d="M43.6895 55.4172C43.6441 55.4174 43.5996 55.4049 43.5609 55.3812C43.5222 55.3574 43.491 55.3234 43.4706 55.2828C43.4159 55.1833 38.3364 45.1875 36.2369 39.5006C36.2247 39.4696 36.2189 39.4365 36.2197 39.4033C36.2205 39.37 36.228 39.3373 36.2416 39.307C36.2553 39.2767 36.275 39.2494 36.2994 39.2268C36.3238 39.2042 36.3525 39.1867 36.3837 39.1754C36.415 39.1641 36.4483 39.1592 36.4815 39.1609C36.5147 39.1627 36.5472 39.1711 36.5771 39.1856C36.607 39.2002 36.6337 39.2206 36.6556 39.2456C36.6775 39.2706 36.6941 39.2998 36.7046 39.3314C38.7941 44.9885 43.8586 54.9594 43.9084 55.0589C43.9237 55.0879 43.933 55.1196 43.9357 55.1522C43.9385 55.1849 43.9347 55.2177 43.9244 55.2488C43.9142 55.28 43.8978 55.3087 43.8763 55.3333C43.8547 55.358 43.8284 55.378 43.7989 55.3923C43.7644 55.4075 43.7272 55.416 43.6895 55.4172Z" fill="#231F20"/>
<path d="M56.7886 8.19466L40.9284 10.9113C40.8305 10.3514 40.7938 9.78248 40.8189 9.21463C40.8973 7.37575 41.6034 5.61926 42.8195 4.23783C44.0357 2.8564 45.6884 1.93344 47.5023 1.62274C49.3163 1.31205 51.1819 1.63238 52.7884 2.53035C54.3949 3.42833 55.6452 4.84973 56.3309 6.55772C56.5381 7.08661 56.6914 7.63503 56.7886 8.19466Z" fill="white"/>
<path d="M40.9284 11.1602C40.8693 11.1608 40.812 11.14 40.7672 11.1015C40.7224 11.0631 40.693 11.0097 40.6846 10.9512C40.4393 9.85395 40.4196 8.71824 40.6267 7.61312C40.8339 6.50801 41.2636 5.45655 41.8897 4.52265C42.5157 3.58875 43.3251 2.7919 44.2687 2.18054C45.2122 1.56917 46.2702 1.15605 47.3783 0.96628C48.4865 0.776508 49.6216 0.814048 50.7148 1.07662C51.808 1.33919 52.8363 1.8213 53.7374 2.49367C54.6385 3.16604 55.3935 4.01462 55.9565 4.98784C56.5195 5.96106 56.8788 7.03861 57.0125 8.155C57.0219 8.21916 57.0078 8.28454 56.9727 8.3391C56.9533 8.36573 56.9288 8.38825 56.9006 8.40533C56.8725 8.42241 56.8412 8.43372 56.8086 8.43861L40.9682 11.1552L40.9284 11.1602ZM48.8436 1.75652C48.4084 1.75609 47.974 1.79271 47.5451 1.86598C45.5498 2.20972 43.7659 3.31492 42.5695 4.94856C41.3732 6.5822 40.8579 8.61661 41.1323 10.6228L56.515 7.99081C56.4217 7.53392 56.2885 7.08607 56.117 6.6524C55.5308 5.20417 54.5251 3.96424 53.2291 3.09185C51.933 2.21947 50.4058 1.75445 48.8436 1.75652Z" fill="#231F20"/>
<path d="M36.8986 12.3196C36.7544 11.4738 42.0428 9.8617 48.7143 8.72231C55.3857 7.58292 60.9129 7.33912 61.0572 8.18496C61.2015 9.03079 55.719 9.52834 49.0476 10.6727C42.3761 11.8171 37.0429 13.1654 36.8986 12.3196Z" fill="white"/>
<path d="M37.7095 12.8318C37.414 12.8581 37.1171 12.7994 36.8538 12.6627C36.8015 12.6285 36.7568 12.584 36.7226 12.5317C36.6883 12.4795 36.6652 12.4207 36.6548 12.3592C36.3513 10.6078 48.55 8.49819 48.6744 8.47331C48.7988 8.44843 61.0024 6.38361 61.3009 8.13995C61.312 8.20148 61.3102 8.26464 61.2956 8.32544C61.2811 8.38623 61.2541 8.44336 61.2164 8.49321C60.7935 9.08032 58.6592 9.4286 54.2514 10.0953C52.6942 10.3341 50.9281 10.5929 49.0823 10.9163C47.2366 11.2397 45.4805 11.5681 43.9332 11.8616C40.7791 12.4637 38.794 12.8318 37.7095 12.8318ZM37.1523 12.2497C37.5851 12.5532 40.7691 11.9462 43.8486 11.3591C45.4008 11.0655 47.157 10.7272 49.0077 10.4138C50.8584 10.1003 52.6245 9.82664 54.1867 9.58782C57.3408 9.09027 60.5995 8.59272 60.8134 8.17976C60.5099 7.72699 56.0424 7.68221 48.759 8.95096C41.59 10.1948 37.3812 11.6825 37.1523 12.2497Z" fill="#231F20"/>
<path d="M56.7886 8.19498L40.9284 10.9116C40.8305 10.3517 40.7938 9.7828 40.8189 9.21495L56.3309 6.55804C56.5381 7.08694 56.6914 7.63535 56.7886 8.19498Z" fill="#231F20"/>
<path d="M40.9283 11.1601C40.8693 11.1607 40.812 11.1399 40.7672 11.1015C40.7223 11.063 40.693 11.0096 40.6845 10.9512C40.5847 10.3747 40.5464 9.78932 40.5701 9.20477C40.5726 9.14845 40.5941 9.09463 40.6312 9.05215C40.6682 9.00966 40.7186 8.98102 40.7741 8.97093L56.2861 6.31401C56.3425 6.30433 56.4005 6.31438 56.4504 6.34248C56.5002 6.37057 56.5388 6.415 56.5598 6.46825C56.777 7.01202 56.9354 7.57747 57.0324 8.15495C57.0418 8.2191 57.0276 8.28449 56.9926 8.33904C56.9732 8.36567 56.9487 8.38819 56.9205 8.40527C56.8923 8.42235 56.861 8.43367 56.8284 8.43855L40.9681 11.1552L40.9283 11.1601ZM41.0577 9.42867C41.0529 9.82801 41.0779 10.2271 41.1323 10.6228L56.515 7.99075C56.436 7.60012 56.3279 7.21594 56.1916 6.84142L41.0577 9.42867Z" fill="#231F20"/>
<path d="M80.6139 74.8963C80.5845 74.9033 80.5538 74.9033 80.5244 74.8963L80.0667 74.7222C80.0356 74.7117 80.0069 74.6949 79.9825 74.673C79.958 74.6511 79.9382 74.6245 79.9242 74.5948C79.9103 74.565 79.9025 74.5328 79.9013 74.5C79.9002 74.4671 79.9056 74.4344 79.9174 74.4038C79.941 74.3426 79.9872 74.2928 80.0466 74.265C80.106 74.2372 80.1738 74.2334 80.2358 74.2545L80.7035 74.4336C80.7362 74.4395 80.7673 74.4518 80.7953 74.4697C80.8232 74.4876 80.8473 74.5109 80.8663 74.5381C80.8852 74.5654 80.8986 74.5961 80.9057 74.6286C80.9127 74.661 80.9133 74.6945 80.9075 74.7272C80.9016 74.7598 80.8893 74.791 80.8714 74.819C80.8535 74.8469 80.8302 74.871 80.8029 74.89C80.7757 74.9089 80.745 74.9223 80.7125 74.9294C80.6801 74.9364 80.6466 74.937 80.6139 74.9312V74.8963Z" fill="#D1D3D4"/>
<path d="M91.7131 80.9515C91.6571 80.9508 91.6029 80.9316 91.5589 80.8968C91.2853 80.6828 91.0067 80.4689 90.7231 80.2649C90.6706 80.2253 90.6356 80.1668 90.6254 80.1018C90.6152 80.0368 90.6306 79.9704 90.6684 79.9166C90.6876 79.8901 90.7119 79.8676 90.7398 79.8505C90.7677 79.8334 90.7988 79.822 90.8311 79.8169C90.8635 79.8118 90.8965 79.8132 90.9284 79.8209C90.9602 79.8286 90.9902 79.8425 91.0166 79.8619C91.3052 80.0708 91.5887 80.2848 91.8673 80.5037C91.9179 80.5464 91.9501 80.6067 91.9575 80.6724C91.9649 80.7381 91.9469 80.8042 91.9072 80.857C91.8835 80.8858 91.854 80.9091 91.8205 80.9255C91.787 80.9418 91.7504 80.9507 91.7131 80.9515ZM90.0017 79.7027C89.9523 79.7041 89.9036 79.6902 89.8624 79.6629C89.5739 79.4638 89.2804 79.2748 88.9819 79.0857C88.9546 79.0685 88.9311 79.0461 88.9125 79.0197C88.894 78.9933 88.8809 78.9636 88.874 78.9321C88.867 78.9006 88.8664 78.8681 88.8721 78.8364C88.8778 78.8047 88.8897 78.7744 88.9072 78.7474C88.924 78.719 88.9464 78.6944 88.973 78.675C88.9995 78.6555 89.0298 78.6416 89.0618 78.6342C89.0939 78.6268 89.1272 78.6259 89.1596 78.6317C89.192 78.6374 89.2229 78.6497 89.2505 78.6678C89.549 78.8568 89.8475 79.0509 90.141 79.2499C90.1682 79.2679 90.1914 79.2912 90.2094 79.3183C90.2274 79.3454 90.2398 79.3759 90.2458 79.4079C90.2518 79.4399 90.2514 79.4728 90.2445 79.5046C90.2376 79.5364 90.2244 79.5666 90.2057 79.5932C90.1841 79.6276 90.154 79.6558 90.1182 79.6749C90.0824 79.6941 90.0423 79.7037 90.0017 79.7027ZM88.2157 78.5732C88.1701 78.5742 88.1253 78.5621 88.0863 78.5384L87.1809 78.0408C87.1228 78.0085 87.08 77.9544 87.0618 77.8905C87.0436 77.8266 87.0516 77.7581 87.0839 77.7C87.1162 77.642 87.1703 77.5991 87.2342 77.5809C87.2981 77.5627 87.3666 77.5707 87.4247 77.603L88.3451 78.1354C88.401 78.1704 88.4412 78.2258 88.457 78.2899C88.4728 78.354 88.4629 78.4217 88.4296 78.4787C88.4047 78.5111 88.3721 78.5368 88.3347 78.5533C88.2973 78.5698 88.2564 78.5767 88.2157 78.5732ZM86.3749 77.5383C86.3334 77.5379 86.2924 77.5277 86.2555 77.5085C85.9421 77.3393 85.6287 77.1801 85.3252 77.0109C85.2936 76.9978 85.2651 76.9782 85.2414 76.9536C85.2177 76.9289 85.1994 76.8996 85.1875 76.8675C85.1757 76.8354 85.1706 76.8012 85.1725 76.7671C85.1745 76.7329 85.1834 76.6995 85.1989 76.669C85.2143 76.6385 85.2359 76.6115 85.2622 76.5896C85.2886 76.5678 85.3191 76.5517 85.352 76.5422C85.3849 76.5327 85.4193 76.5301 85.4532 76.5346C85.4872 76.5391 85.5198 76.5505 85.5491 76.5681C85.8575 76.7223 86.171 76.8865 86.4894 77.0656C86.5186 77.0808 86.5445 77.1017 86.5656 77.127C86.5867 77.1523 86.6026 77.1815 86.6123 77.213C86.622 77.2444 86.6254 77.2775 86.6222 77.3103C86.6191 77.3431 86.6094 77.375 86.5939 77.404C86.5718 77.4453 86.5388 77.4797 86.4984 77.5035C86.458 77.5272 86.4118 77.5392 86.365 77.5383H86.3749ZM84.4894 76.583C84.4516 76.5825 84.4143 76.5741 84.38 76.5581C84.0483 76.3989 83.7299 76.2497 83.4248 76.1104C83.3951 76.097 83.3684 76.0778 83.3462 76.0539C83.324 76.03 83.3069 76.002 83.2958 75.9714C83.2846 75.9408 83.2798 75.9082 83.2814 75.8757C83.2831 75.8432 83.2912 75.8113 83.3054 75.782C83.3325 75.722 83.3823 75.6753 83.4439 75.6519C83.5054 75.6286 83.5737 75.6307 83.6337 75.6576L84.5939 76.1104C84.6599 76.1242 84.7176 76.1637 84.7545 76.2202C84.7913 76.2766 84.8043 76.3454 84.7904 76.4114C84.7766 76.4773 84.7371 76.5351 84.6806 76.572C84.6242 76.6088 84.5554 76.6218 84.4894 76.6079V76.583ZM82.5641 75.7024C82.5311 75.7066 82.4976 75.7066 82.4646 75.7024L81.4994 75.2894C81.4679 75.2753 81.4398 75.2547 81.4168 75.2289C81.3939 75.2032 81.3767 75.1728 81.3663 75.1399C81.356 75.107 81.3527 75.0722 81.3568 75.038C81.3609 75.0037 81.3722 74.9707 81.39 74.9411C81.4021 74.9107 81.42 74.883 81.4428 74.8595C81.4656 74.8361 81.4928 74.8173 81.5228 74.8044C81.5528 74.7914 81.5851 74.7846 81.6178 74.7841C81.6505 74.7837 81.683 74.7897 81.7134 74.8018L82.7084 75.2197C82.7389 75.2322 82.7667 75.2507 82.7899 75.2741C82.8131 75.2976 82.8313 75.3255 82.8434 75.3562C82.8555 75.3869 82.8612 75.4198 82.8602 75.4527C82.8593 75.4857 82.8516 75.5182 82.8377 75.5481C82.8176 75.602 82.7791 75.647 82.7291 75.6752C82.679 75.7034 82.6206 75.713 82.5641 75.7024Z" fill="#D1D3D4"/>
<path d="M92.8972 81.9563C92.8341 81.955 92.7738 81.9301 92.7281 81.8867L92.3649 81.5633C92.3155 81.5192 92.2853 81.4577 92.2806 81.3917C92.276 81.3257 92.2973 81.2605 92.34 81.21C92.3627 81.1868 92.3898 81.1684 92.4197 81.1559C92.4496 81.1433 92.4817 81.1368 92.5141 81.1368C92.5465 81.1368 92.5787 81.1433 92.6086 81.1559C92.6385 81.1684 92.6655 81.1868 92.6882 81.21L93.0663 81.5483C93.1036 81.5822 93.1297 81.6266 93.1412 81.6757C93.1527 81.7247 93.1491 81.7761 93.1307 81.823C93.1124 81.8699 93.0802 81.9102 93.0385 81.9384C92.9968 81.9667 92.9476 81.9816 92.8972 81.9812V81.9563Z" fill="#D1D3D4"/>
<path d="M88.4396 89.2109C88.3855 89.2096 88.3331 89.1918 88.2895 89.1597C88.2459 89.1277 88.2132 89.083 88.1958 89.0317C88.1063 88.7183 88.0068 88.4048 87.8973 88.0963C87.8749 88.0343 87.8781 87.9659 87.9061 87.9062C87.934 87.8465 87.9846 87.8004 88.0466 87.7779C88.0776 87.7669 88.1105 87.7622 88.1433 87.7641C88.1762 87.7659 88.2084 87.7742 88.238 87.7886C88.2676 87.8029 88.2941 87.823 88.3159 87.8476C88.3377 87.8723 88.3544 87.901 88.365 87.9322C88.4794 88.2456 88.5839 88.569 88.6784 88.8924C88.6953 88.9564 88.6866 89.0245 88.6541 89.0821C88.6215 89.1397 88.5678 89.1823 88.5043 89.2009L88.4396 89.2109ZM87.763 87.3351C87.7146 87.3346 87.6673 87.3204 87.6268 87.2939C87.5862 87.2675 87.5541 87.23 87.5342 87.1858C87.4048 86.8873 87.2705 86.5888 87.1212 86.2952C87.0922 86.2358 87.0879 86.1674 87.1094 86.1048C87.1309 86.0423 87.1763 85.9909 87.2357 85.9619C87.295 85.9328 87.3635 85.9286 87.426 85.95C87.4885 85.9715 87.54 86.0169 87.569 86.0763C87.7182 86.3748 87.8625 86.6833 87.9918 86.9918C88.0169 87.0519 88.0174 87.1194 87.9932 87.1799C87.969 87.2404 87.9221 87.2889 87.8625 87.3152C87.8313 87.3294 87.7973 87.3362 87.763 87.3351ZM86.8625 85.5539C86.8183 85.5545 86.7747 85.5433 86.7362 85.5214C86.6977 85.4996 86.6658 85.4678 86.6436 85.4295C86.4844 85.1409 86.3153 84.8573 86.1461 84.5787C86.1291 84.551 86.1178 84.5202 86.1128 84.4881C86.1078 84.456 86.1093 84.4232 86.1172 84.3917C86.1251 84.3602 86.1392 84.3306 86.1587 84.3046C86.1782 84.2786 86.2027 84.2567 86.2307 84.2403C86.2579 84.2224 86.2884 84.2102 86.3204 84.2045C86.3525 84.1988 86.3853 84.1997 86.417 84.2071C86.4487 84.2146 86.4785 84.2284 86.5047 84.2478C86.5308 84.2672 86.5527 84.2918 86.569 84.32C86.7481 84.6036 86.9173 84.8921 87.0665 85.1857C87.0987 85.2431 87.1069 85.311 87.0892 85.3744C87.0714 85.4378 87.0293 85.4916 86.972 85.524C86.9381 85.5418 86.9007 85.552 86.8625 85.5539ZM85.8128 83.8622C85.7722 83.8628 85.732 83.8536 85.6956 83.8354C85.6592 83.8173 85.6278 83.7906 85.6039 83.7577C85.4181 83.4824 85.2291 83.2137 85.0367 82.9517C85.013 82.926 84.995 82.8956 84.9838 82.8624C84.9727 82.8293 84.9686 82.7942 84.972 82.7594C84.9753 82.7246 84.9859 82.6909 85.0032 82.6605C85.0204 82.6301 85.0438 82.6036 85.072 82.5829C85.1001 82.5621 85.1323 82.5475 85.1664 82.5401C85.2006 82.5326 85.2359 82.5324 85.2701 82.5395C85.3044 82.5466 85.3367 82.5608 85.3651 82.5813C85.3934 82.6017 85.4172 82.6279 85.4347 82.6581C85.6337 82.9218 85.8277 83.1955 86.0168 83.4741C86.0356 83.5012 86.0489 83.5317 86.0559 83.5639C86.0628 83.5961 86.0633 83.6294 86.0573 83.6618C86.0513 83.6942 86.0389 83.7251 86.0208 83.7527C86.0028 83.7802 85.9794 83.8039 85.9521 83.8224C85.9166 83.8461 85.8753 83.8599 85.8327 83.8622H85.8128ZM84.6288 82.2601C84.5913 82.2607 84.5542 82.2524 84.5205 82.236C84.4867 82.2196 84.4574 82.1955 84.4347 82.1656C84.2258 81.9068 84.0168 81.6531 83.8079 81.4043C83.7847 81.3816 83.7663 81.3545 83.7537 81.3246C83.7412 81.2947 83.7347 81.2626 83.7347 81.2302C83.7347 81.1977 83.7412 81.1656 83.7537 81.1357C83.7663 81.1058 83.7847 81.0787 83.8079 81.056C83.8326 81.0343 83.8614 81.0176 83.8926 81.0071C83.9238 80.9965 83.9568 80.9923 83.9897 80.9946C84.0226 80.9969 84.0546 81.0058 84.0841 81.0206C84.1135 81.0354 84.1397 81.0559 84.1611 81.0809C84.375 81.3347 84.589 81.5785 84.7979 81.8571C84.8389 81.9094 84.8576 81.9758 84.8502 82.0418C84.8428 82.1079 84.8097 82.1684 84.7581 82.2103C84.7262 82.2356 84.6887 82.2527 84.6487 82.2601H84.6288ZM83.38 80.7426C83.3455 80.7431 83.3112 80.7363 83.2794 80.7226C83.2477 80.7089 83.2192 80.6885 83.196 80.663C82.9721 80.4092 82.7432 80.1654 82.5194 79.9365C82.4738 79.8884 82.4493 79.8241 82.4512 79.7579C82.453 79.6916 82.4811 79.6288 82.5293 79.5833C82.5775 79.5378 82.6417 79.5132 82.708 79.5151C82.7742 79.517 82.837 79.5451 82.8825 79.5932C83.1064 79.8271 83.3353 80.0908 83.5641 80.3296C83.5873 80.3523 83.6057 80.3794 83.6182 80.4093C83.6308 80.4392 83.6373 80.4713 83.6373 80.5037C83.6373 80.5362 83.6308 80.5683 83.6182 80.5982C83.6057 80.6281 83.5873 80.6552 83.5641 80.6779C83.5394 80.7005 83.5103 80.7179 83.4787 80.729C83.447 80.7402 83.4135 80.7448 83.38 80.7426ZM82.002 79.3047C81.9694 79.3045 81.9373 79.2978 81.9074 79.285C81.8774 79.2721 81.8504 79.2535 81.8278 79.23L81.1164 78.5434C81.0926 78.5211 81.0736 78.4941 81.0607 78.4641C81.0477 78.4342 81.041 78.4019 81.041 78.3693C81.041 78.3366 81.0477 78.3043 81.0607 78.2744C81.0736 78.2444 81.0926 78.2175 81.1164 78.1951C81.1395 78.1718 81.167 78.1533 81.1974 78.1407C81.2277 78.128 81.2602 78.1215 81.293 78.1215C81.3259 78.1215 81.3584 78.128 81.3887 78.1407C81.419 78.1533 81.4465 78.1718 81.4696 78.1951C81.7035 78.419 81.9671 78.6479 82.191 78.8917C82.2268 78.9262 82.2514 78.9706 82.2617 79.0193C82.272 79.0679 82.2675 79.1185 82.2488 79.1646C82.23 79.2106 82.1979 79.25 82.1566 79.2777C82.1153 79.3053 82.0666 79.3199 82.0169 79.3196L82.002 79.3047ZM80.5294 77.9264C80.4991 77.9271 80.469 77.9217 80.4408 77.9106C80.4126 77.8995 80.3869 77.8829 80.3652 77.8618C80.0965 77.6279 79.8677 77.409 79.614 77.215C79.5639 77.1716 79.5327 77.1104 79.5271 77.0444C79.5215 76.9784 79.542 76.9128 79.5841 76.8617C79.6281 76.8127 79.6892 76.7823 79.7548 76.7768C79.8204 76.7712 79.8857 76.7909 79.9373 76.8318C80.1712 77.0309 80.4348 77.2498 80.6935 77.4886C80.7324 77.5218 80.76 77.5661 80.7728 77.6156C80.7855 77.665 80.7827 77.7172 80.7648 77.765C80.7469 77.8129 80.7147 77.854 80.6725 77.8829C80.6304 77.9118 80.5804 77.927 80.5294 77.9264ZM79.002 76.6428C78.9461 76.6413 78.8921 76.6222 78.8478 76.588C78.3503 76.2 78.0667 75.991 78.0667 75.986C78.0351 75.9697 78.0073 75.9469 77.9853 75.919C77.9632 75.8911 77.9474 75.8588 77.9389 75.8242C77.9304 75.7897 77.9294 75.7537 77.936 75.7188C77.9426 75.6838 77.9566 75.6507 77.9771 75.6216C77.9975 75.5925 78.024 75.5682 78.0547 75.5502C78.0853 75.5322 78.1195 75.521 78.1549 75.5173C78.1903 75.5137 78.226 75.5176 78.2597 75.5289C78.2934 75.5403 78.3243 75.5587 78.3503 75.583C78.3503 75.583 78.6538 75.7969 79.1563 76.195C79.2086 76.2362 79.2426 76.2963 79.251 76.3624C79.2594 76.4285 79.2414 76.4953 79.201 76.5482C79.1781 76.5802 79.1484 76.6066 79.1139 76.6255C79.0795 76.6444 79.0413 76.6554 79.002 76.6577V76.6428Z" fill="#D1D3D4"/>
<path d="M81.8875 89.9669C81.8275 89.9665 81.7695 89.9448 81.7239 89.9056C81.6784 89.8664 81.6482 89.8123 81.6388 89.753C81.599 89.4495 81.5393 89.1261 81.4647 88.7877C81.4578 88.7551 81.4574 88.7214 81.4636 88.6886C81.4698 88.6558 81.4823 88.6245 81.5006 88.5965C81.5188 88.5686 81.5424 88.5445 81.57 88.5257C81.5975 88.5068 81.6285 88.4936 81.6612 88.4867C81.6938 88.4799 81.7275 88.4795 81.7603 88.4857C81.7931 88.4918 81.8244 88.5044 81.8524 88.5226C81.8803 88.5409 81.9044 88.5645 81.9232 88.592C81.9421 88.6196 81.9553 88.6506 81.9622 88.6833C82.0418 89.0315 82.1015 89.3649 82.1462 89.6784C82.1512 89.7107 82.1497 89.7437 82.1419 89.7755C82.134 89.8073 82.12 89.8372 82.1006 89.8635C82.0812 89.8899 82.0568 89.9121 82.0287 89.929C82.0007 89.9459 81.9696 89.9571 81.9373 89.962L81.8875 89.9669ZM81.4647 88.0215C81.4102 88.0212 81.3573 88.003 81.3142 87.9698C81.271 87.9365 81.24 87.89 81.2259 87.8374C81.1363 87.5289 81.0368 87.2155 80.9323 86.8971C80.9133 86.8344 80.9192 86.7667 80.9489 86.7083C80.9785 86.6499 81.0297 86.6052 81.0915 86.5836C81.1536 86.563 81.2212 86.5676 81.2799 86.5964C81.3385 86.6253 81.3835 86.6761 81.405 86.7379C81.5144 87.0613 81.6139 87.3847 81.7035 87.7031C81.7204 87.7671 81.7117 87.8351 81.6791 87.8927C81.6466 87.9504 81.5928 87.993 81.5293 88.0116L81.4647 88.0215ZM80.8378 86.1259C80.7874 86.1255 80.7383 86.1102 80.6966 86.0819C80.655 86.0535 80.6227 86.0134 80.604 85.9666C80.4896 85.6582 80.3702 85.3547 80.2458 85.0462C80.2328 85.0162 80.226 84.9839 80.2258 84.9512C80.2256 84.9186 80.2319 84.8862 80.2445 84.856C80.257 84.8259 80.2755 84.7985 80.2988 84.7756C80.3221 84.7527 80.3497 84.7348 80.3801 84.7228C80.4408 84.698 80.5089 84.6982 80.5694 84.7234C80.63 84.7486 80.6782 84.7966 80.7035 84.8571C80.8328 85.1706 80.9522 85.479 81.0716 85.7925C81.094 85.8545 81.0909 85.9229 81.0629 85.9826C81.0349 86.0423 80.9844 86.0885 80.9224 86.1109C80.8954 86.1211 80.8667 86.1262 80.8378 86.1259ZM80.0816 84.2849C80.0338 84.2848 79.987 84.2705 79.9472 84.244C79.9074 84.2174 79.8763 84.1798 79.8577 84.1357C79.7234 83.8322 79.5841 83.5287 79.4448 83.2351C79.4305 83.2054 79.4223 83.1732 79.4206 83.1403C79.4189 83.1074 79.4237 83.0745 79.4348 83.0435C79.4459 83.0125 79.4631 82.984 79.4853 82.9596C79.5075 82.9353 79.5343 82.9156 79.5642 82.9017C79.6244 82.8743 79.6929 82.8714 79.7551 82.8937C79.8174 82.916 79.8685 82.9617 79.8975 83.0212C80.0368 83.3247 80.1761 83.6282 80.3105 83.9367C80.3361 83.9969 80.3374 84.0646 80.3142 84.1258C80.2911 84.187 80.2451 84.2369 80.1861 84.265C80.1523 84.2764 80.1172 84.2831 80.0816 84.2849ZM79.2358 82.4788C79.1898 82.4792 79.1447 82.4662 79.1058 82.4415C79.067 82.4168 79.0361 82.3814 79.0169 82.3395L78.5642 81.4539C78.5347 81.3951 78.5297 81.3271 78.5502 81.2646C78.5707 81.2022 78.6151 81.1504 78.6737 81.1205C78.732 81.0919 78.7992 81.0868 78.8612 81.1063C78.9232 81.1257 78.9754 81.1682 79.007 81.225C79.1563 81.5186 79.3105 81.8121 79.4597 82.1206C79.4892 82.1793 79.4943 82.2474 79.4738 82.3099C79.4533 82.3723 79.4089 82.4241 79.3503 82.454C79.314 82.4693 79.2752 82.4777 79.2358 82.4788ZM78.3204 80.7076C78.2756 80.7082 78.2314 80.6965 78.1928 80.6737C78.1542 80.6509 78.1226 80.6178 78.1015 80.5782C77.939 80.273 77.7732 79.9845 77.604 79.7125C77.5759 79.6554 77.5707 79.5897 77.5895 79.5289C77.6083 79.4682 77.6496 79.4169 77.7051 79.3857C77.7605 79.3545 77.8258 79.3457 77.8875 79.3611C77.9492 79.3765 78.0027 79.415 78.0369 79.4687C78.1911 79.7423 78.3553 80.0359 78.5344 80.3444C78.55 80.3727 78.5599 80.4039 78.5633 80.4361C78.5668 80.4683 78.5638 80.5009 78.5545 80.5319C78.5453 80.5629 78.5299 80.5918 78.5094 80.6169C78.4888 80.6419 78.4635 80.6626 78.4349 80.6777C78.3995 80.6962 78.3604 80.7064 78.3204 80.7076ZM77.3254 78.9711C77.2813 78.9712 77.2379 78.9598 77.1995 78.938C77.1611 78.9162 77.129 78.8847 77.1065 78.8467C76.9175 78.5184 76.7434 78.2347 76.609 77.9959C76.592 77.9678 76.5808 77.9367 76.5758 77.9042C76.5709 77.8717 76.5724 77.8386 76.5802 77.8068C76.5881 77.7749 76.6021 77.7449 76.6216 77.7184C76.641 77.692 76.6655 77.6696 76.6936 77.6526C76.7217 77.6356 76.7529 77.6243 76.7853 77.6194C76.8178 77.6145 76.8509 77.6159 76.8828 77.6238C76.9146 77.6317 76.9447 77.6457 76.9711 77.6652C76.9975 77.6846 77.0199 77.7091 77.0369 77.7372C77.1812 77.976 77.3553 78.2646 77.5344 78.598C77.5512 78.6259 77.5623 78.657 77.5669 78.6893C77.5715 78.7216 77.5695 78.7545 77.5612 78.7861C77.5528 78.8176 77.5382 78.8472 77.5183 78.873C77.4983 78.8988 77.4733 78.9203 77.4448 78.9363C77.4148 78.9553 77.3807 78.9672 77.3453 78.9711H77.3254Z" fill="#D1D3D4"/>
<path d="M89.6585 117.312C89.6291 117.313 89.5998 117.308 89.5724 117.297C89.545 117.286 89.5199 117.271 89.4987 117.25C89.4774 117.23 89.4604 117.206 89.4485 117.179C89.4367 117.152 89.4303 117.123 89.4296 117.093C89.2505 112.083 89.6137 102.63 94.0663 95.6241C94.082 95.5986 94.1027 95.5766 94.1271 95.5592C94.1515 95.5418 94.1791 95.5296 94.2083 95.5231C94.2375 95.5166 94.2677 95.516 94.2972 95.5214C94.3266 95.5268 94.3547 95.538 94.3797 95.5545C94.4301 95.5871 94.4657 95.6383 94.4787 95.6969C94.4918 95.7556 94.4812 95.817 94.4494 95.8679C90.0664 102.769 89.7082 112.118 89.8873 117.078C89.8874 117.139 89.8641 117.197 89.8224 117.24C89.7807 117.284 89.7237 117.31 89.6634 117.312H89.6585Z" fill="#231F20"/>
<path d="M89.6236 110.267C89.5743 110.267 89.5264 110.251 89.4869 110.221C89.4475 110.192 89.4187 110.15 89.4047 110.103C88.36 106.555 85.579 102.227 81.7034 100.545C81.6521 100.518 81.6128 100.472 81.5937 100.418C81.5745 100.363 81.5769 100.303 81.6003 100.25C81.6236 100.197 81.6663 100.155 81.7196 100.132C81.773 100.109 81.833 100.107 81.8875 100.127C85.8924 101.868 88.7679 106.326 89.8475 109.973C89.8645 110.031 89.8578 110.094 89.8289 110.147C89.8 110.2 89.7512 110.24 89.6933 110.257L89.6236 110.267Z" fill="#231F20"/>
<path d="M87.6137 105.983C87.6137 105.983 82.2308 104.082 80.6487 109.595C80.6388 109.595 84.4198 111.128 87.6137 105.983Z" fill="white"/>
<path d="M81.992 110.038C81.5031 110.046 81.0165 109.968 80.5542 109.809C80.503 109.787 80.4617 109.747 80.4378 109.697C80.414 109.646 80.4094 109.589 80.4249 109.536C80.9224 107.839 81.798 106.65 83.0616 106.003C85.1909 104.908 87.5889 105.734 87.6883 105.769C87.721 105.779 87.7507 105.798 87.775 105.822C87.7992 105.846 87.8173 105.876 87.8276 105.908C87.8422 105.939 87.8498 105.972 87.8498 106.005C87.8498 106.039 87.8422 106.072 87.8276 106.102C86.1362 108.829 84.2656 109.695 82.992 109.944C82.6625 110.008 82.3276 110.039 81.992 110.038ZM80.9224 109.451C81.7034 109.67 84.6287 110.153 87.2605 106.117C85.9406 105.748 84.5333 105.85 83.2805 106.406C82.7022 106.728 82.1951 107.164 81.7898 107.687C81.3845 108.21 81.0894 108.81 80.9224 109.451Z" fill="#231F20"/>
<path d="M82.3253 100.44C82.3253 100.44 79.9274 96.3704 75.9822 99.0124C75.9822 99.0124 77.5593 101.998 82.3253 100.44Z" fill="white"/>
<path d="M79.7831 101.117C76.8777 101.117 75.8031 99.1268 75.7782 99.1268C75.7525 99.0764 75.7458 99.0184 75.7595 98.9635C75.7733 98.9086 75.8064 98.8606 75.8529 98.8283C76.3592 98.4462 76.94 98.1744 77.5578 98.0304C78.1756 97.8864 78.8167 97.8735 79.4398 97.9924C81.39 98.4402 82.4746 100.256 82.5243 100.331C82.5389 100.361 82.5464 100.394 82.5464 100.428C82.5464 100.461 82.5389 100.495 82.5243 100.525C82.5121 100.557 82.4928 100.587 82.4679 100.611C82.4429 100.635 82.4129 100.653 82.38 100.664C81.5431 100.949 80.667 101.102 79.7831 101.117ZM76.3006 99.082C76.7135 99.6642 78.2906 101.406 81.9771 100.316C81.3437 99.4025 80.4139 98.7362 79.3453 98.4302C78.8184 98.3293 78.2767 98.3349 77.752 98.4469C77.2274 98.5588 76.7305 98.7748 76.2907 99.082H76.3006Z" fill="#231F20"/>
<path d="M87.554 95.9076C87.554 95.9076 82.972 97.0669 84.4048 101.6C84.4048 101.6 87.7132 100.923 87.554 95.9076Z" fill="white"/>
<path d="M84.4049 101.809C84.3562 101.809 84.3087 101.794 84.2694 101.765C84.23 101.736 84.2008 101.696 84.186 101.649C83.9602 101.056 83.8622 100.421 83.8982 99.7863C83.9342 99.1519 84.1034 98.5322 84.3949 97.9676C85.1072 96.8413 86.2143 96.0216 87.4993 95.6689C87.5325 95.6602 87.5673 95.6593 87.6009 95.6662C87.6346 95.6731 87.6662 95.6876 87.6933 95.7087C87.7207 95.7288 87.7431 95.755 87.7586 95.7852C87.7742 95.8154 87.7825 95.8489 87.7829 95.8829C87.9421 101.028 84.4845 101.794 84.4496 101.804L84.4049 101.809ZM87.36 96.2162C86.3066 96.5656 85.4066 97.2688 84.8128 98.2064C84.568 98.682 84.4216 99.202 84.3823 99.7355C84.343 100.269 84.4116 100.805 84.584 101.311C85.2307 101.092 87.36 100.062 87.36 96.2162Z" fill="#231F20"/>
<path d="M90.5241 105.52C90.5241 105.52 92.5987 109.774 96.7528 107.441C96.7528 107.441 95.8573 103.704 90.5241 105.52Z" fill="white"/>
<path d="M94.3598 108.371C93.9718 108.371 93.586 108.313 93.2156 108.197C91.9616 107.731 90.9283 106.811 90.3201 105.62C90.3067 105.59 90.2997 105.558 90.2997 105.525C90.2997 105.493 90.3067 105.46 90.3201 105.431C90.3328 105.401 90.3518 105.374 90.3759 105.353C90.4 105.331 90.4285 105.316 90.4594 105.306C92.4494 104.63 94.0812 104.625 95.3001 105.306C96.1138 105.757 96.7178 106.509 96.9816 107.401C96.9941 107.449 96.9901 107.499 96.9702 107.544C96.9503 107.59 96.9158 107.627 96.8722 107.65C96.1115 108.104 95.2457 108.353 94.3598 108.371ZM90.8773 105.65C91.4367 106.621 92.3158 107.369 93.3648 107.764C93.8878 107.907 94.4343 107.942 94.9713 107.868C95.5082 107.793 96.0245 107.611 96.4891 107.331C96.2282 106.634 95.7273 106.051 95.0762 105.689C94.0116 105.117 92.5987 105.102 90.8425 105.65H90.8773Z" fill="#231F20"/>
<path d="M91.7281 101.067C91.7281 101.067 94.713 104.709 98.1955 101.48C98.2154 101.48 96.4792 98.0622 91.7281 101.067Z" fill="white"/>
<path d="M95.2155 103.043C95.131 103.048 95.0463 103.048 94.9618 103.043C93.637 102.882 92.4198 102.233 91.5489 101.222C91.5289 101.197 91.5141 101.168 91.5055 101.137C91.497 101.106 91.4948 101.074 91.4992 101.042C91.5045 101.01 91.5165 100.979 91.5345 100.952C91.5525 100.924 91.5761 100.901 91.6037 100.883C93.3797 99.7637 94.9618 99.3906 96.3001 99.7488C96.7439 99.8683 97.1596 100.074 97.5233 100.355C97.8871 100.636 98.1916 100.987 98.4194 101.386C98.4434 101.429 98.452 101.479 98.4439 101.528C98.4358 101.577 98.4114 101.621 98.3746 101.654C97.5394 102.506 96.4079 103.004 95.2155 103.043ZM92.0813 101.117C92.8526 101.93 93.8839 102.447 94.9966 102.58C95.5372 102.598 96.0758 102.506 96.5796 102.31C97.0834 102.113 97.5418 101.815 97.9269 101.436C97.5085 100.821 96.8866 100.373 96.1707 100.172C95.0165 99.8583 93.6434 100.177 92.0813 101.117Z" fill="#231F20"/>
<path d="M88.6684 94.2707C88.6684 94.2707 88.0864 98.5247 92.1858 98.9775C92.1858 98.9775 93.3599 95.7335 88.6684 94.2707Z" fill="white"/>
<path d="M92.1858 99.2064H92.1609C91.6123 99.1746 91.0763 99.0296 90.5865 98.7804C90.0968 98.5312 89.6639 98.1833 89.3152 97.7586C88.607 96.7326 88.2958 95.4842 88.4396 94.2459C88.4446 94.2134 88.4565 94.1823 88.4746 94.1548C88.4926 94.1274 88.5164 94.1041 88.5442 94.0866C88.5721 94.0691 88.6034 94.0579 88.636 94.0536C88.6686 94.0493 88.7017 94.0521 88.7331 94.0618C90.4694 94.5991 91.6286 95.4449 92.1858 96.5495C92.5682 97.3221 92.6446 98.2107 92.3997 99.0373C92.3869 99.0847 92.3592 99.1267 92.3207 99.1572C92.2822 99.1877 92.2349 99.2049 92.1858 99.2064ZM88.8724 94.5792C88.8057 95.6071 89.0879 96.6275 89.6734 97.475C90.2608 98.1829 91.1018 98.6329 92.0166 98.7288C92.1651 98.0575 92.0809 97.3557 91.7778 96.7386C91.3052 95.8082 90.345 95.0817 88.8525 94.5792H88.8724Z" fill="#231F20"/>
<path d="M97.8075 90.5391C97.8075 90.5391 93.136 91.2606 94.131 95.9077C94.1061 95.9077 97.9319 96.1614 97.8075 90.5391Z" fill="white"/>
<path d="M94.1857 96.1366H94.0912C94.0421 96.1313 93.996 96.1107 93.9593 96.0776C93.9227 96.0446 93.8975 96.0007 93.8872 95.9525C93.7188 95.3409 93.6805 94.7007 93.7748 94.0734C93.869 93.4461 94.0938 92.8455 94.4345 92.3104C95.2539 91.2589 96.4348 90.5496 97.7478 90.3202C97.7795 90.3161 97.8116 90.3184 97.8424 90.327C97.8732 90.3355 97.9019 90.3501 97.9269 90.37C97.9516 90.3911 97.9717 90.417 97.9863 90.446C98.0008 90.4751 98.0094 90.5067 98.0115 90.5391C98.0662 92.6388 97.5836 94.1911 96.5837 95.1564C95.936 95.7729 95.0798 96.1229 94.1857 96.1366ZM97.5588 90.8178C96.4656 91.0659 95.4928 91.6869 94.8076 92.5741C94.5196 93.0313 94.327 93.542 94.2415 94.0756C94.156 94.6092 94.1793 95.1545 94.3101 95.6788C95.0557 95.6377 95.7618 95.3306 96.3001 94.8131C97.1359 93.9871 97.5637 92.6438 97.5588 90.8178Z" fill="#231F20"/>
<path d="M105.18 119.84C104.753 117.302 102.584 116.253 100.703 114.81C99.4244 113.815 97.509 113.048 95.912 113.67C95.1558 113.964 94.5539 114.551 93.7131 114.606C93.1064 114.583 92.51 114.443 91.9569 114.193C90.1698 113.623 88.236 113.725 86.5192 114.481C85.5839 114.909 84.7581 115.551 83.6934 115.69C82.9323 115.722 82.1699 115.687 81.4149 115.586C78.4597 115.447 75.4449 117.526 72.9076 118.815C72.4499 119.044 71.0122 119.875 70.9525 120.382C70.8729 121.124 72.7086 121.019 73.44 121.148C74.8504 121.395 76.2858 121.465 77.7135 121.357C78.8428 121.273 79.992 121.079 81.0965 121.333C82.0915 121.556 83.0268 122.144 84.0516 122.104C84.6679 122.03 85.2759 121.898 85.8675 121.711C86.409 121.588 86.9572 121.496 87.5093 121.437C89.0018 121.263 90.6087 121.248 92.0713 121.163C94.4229 121.034 96.7794 120.969 99.1408 120.969C101.201 120.913 103.239 120.532 105.18 119.84Z" fill="white"/>
<path d="M83.9521 122.332C83.3122 122.296 82.6838 122.146 82.0965 121.89C81.7503 121.756 81.3964 121.643 81.0368 121.551C80.1614 121.404 79.2681 121.395 78.3901 121.526L77.7185 121.586C76.2724 121.692 74.8188 121.62 73.3902 121.372C73.171 121.339 72.9501 121.317 72.7286 121.308C71.9972 121.253 71.1714 121.193 70.848 120.81C70.7957 120.748 70.7569 120.675 70.7337 120.598C70.7106 120.52 70.7038 120.438 70.7137 120.357C70.7933 119.626 72.7037 118.651 72.7883 118.611C73.2858 118.357 73.8231 118.068 74.3604 117.77C76.5245 116.586 78.9871 115.242 81.4099 115.357C81.6686 115.357 81.9074 115.397 82.181 115.422C82.6669 115.494 83.1597 115.507 83.6487 115.461C84.3361 115.332 84.9929 115.074 85.5839 114.7C85.8526 114.551 86.1262 114.402 86.4048 114.272C88.1761 113.497 90.1691 113.392 92.0117 113.979L92.34 114.093C92.7632 114.281 93.2204 114.379 93.6832 114.382C94.1565 114.319 94.6092 114.149 95.0066 113.884C95.2643 113.727 95.5337 113.591 95.8125 113.476C97.514 112.809 99.5189 113.64 100.827 114.64C101.166 114.899 101.514 115.138 101.857 115.387C103.419 116.496 105.036 117.641 105.404 119.815C105.415 119.869 105.405 119.925 105.377 119.972C105.348 120.019 105.303 120.053 105.25 120.069C103.283 120.775 101.215 121.162 99.1259 121.213H99.0413C96.718 121.213 94.3698 121.278 92.0763 121.407L90.7132 121.472C89.6585 121.512 88.5739 121.556 87.5292 121.676C86.9858 121.737 86.4461 121.826 85.9123 121.944C85.7232 121.989 85.5292 122.044 85.3352 122.099C84.9266 122.238 84.502 122.325 84.0716 122.357L83.9521 122.332ZM79.8627 120.979C80.2907 120.975 80.7179 121.018 81.1363 121.109C81.5157 121.202 81.8881 121.321 82.2507 121.467C82.8117 121.72 83.4168 121.86 84.0317 121.88C84.4264 121.847 84.8156 121.767 85.1909 121.641C85.3899 121.581 85.5889 121.521 85.7929 121.477C86.3432 121.355 86.8995 121.262 87.4595 121.198C88.5192 121.079 89.6137 121.034 90.6734 120.989C91.1361 120.989 91.5888 120.954 92.0316 120.929C94.3499 120.8 96.7081 120.735 99.0413 120.735H99.1259C101.101 120.691 103.057 120.335 104.922 119.681C104.524 117.82 103.101 116.81 101.593 115.745C101.245 115.496 100.892 115.247 100.554 114.989C99.3398 114.063 97.504 113.287 95.9817 113.884C95.7221 113.991 95.471 114.118 95.2305 114.262C94.7768 114.57 94.2569 114.766 93.7131 114.834C93.1879 114.836 92.668 114.729 92.1858 114.521L91.8674 114.411C90.1365 113.858 88.2631 113.955 86.5989 114.685C86.3252 114.81 86.0615 114.954 85.8028 115.098C85.1619 115.499 84.4514 115.776 83.7084 115.914C83.183 115.963 82.6536 115.95 82.1313 115.874C81.8875 115.874 81.6338 115.825 81.39 115.81C79.0767 115.7 76.6936 117.014 74.5793 118.173C74.037 118.467 73.5047 118.76 72.9972 119.019C72.1564 119.442 71.1963 120.123 71.1664 120.407C71.1637 120.426 71.165 120.446 71.1701 120.465C71.1753 120.484 71.1841 120.501 71.1963 120.516C71.3953 120.755 72.2161 120.815 72.7634 120.85C73.0271 120.85 73.2609 120.89 73.4698 120.924C74.8604 121.168 76.2758 121.238 77.6837 121.133L78.3503 121.074C78.8478 121.029 79.3552 120.979 79.8627 120.979Z" fill="#231F20"/>
<path d="M81.9472 109.137C81.9017 109.137 81.8572 109.124 81.8195 109.098C81.7817 109.073 81.7524 109.037 81.7353 108.995C81.7182 108.952 81.7141 108.906 81.7235 108.861C81.7329 108.817 81.7554 108.776 81.788 108.744C83.778 106.799 86.9919 105.998 87.1312 105.968C87.1615 105.957 87.1937 105.953 87.2258 105.956C87.2579 105.958 87.2891 105.967 87.3173 105.983C87.3456 105.998 87.3703 106.019 87.3898 106.045C87.4093 106.07 87.4232 106.1 87.4306 106.131C87.438 106.162 87.4387 106.195 87.4327 106.227C87.4266 106.258 87.414 106.288 87.3956 106.315C87.3772 106.341 87.3535 106.363 87.3259 106.38C87.2983 106.396 87.2676 106.407 87.2356 106.411C87.2058 106.411 84.0069 107.212 82.1064 109.073C82.0632 109.113 82.0065 109.136 81.9472 109.137Z" fill="#231F20"/>
<path d="M82.3253 100.669C82.2942 100.676 82.2619 100.676 82.2308 100.669C80.6109 99.9687 78.9068 99.4819 77.1613 99.2214C77.1319 99.2174 77.1035 99.2078 77.0779 99.1929C77.0522 99.178 77.0297 99.1582 77.0117 99.1347C76.9937 99.1111 76.9805 99.0842 76.9729 99.0556C76.9652 99.0269 76.9633 98.997 76.9673 98.9676C76.9712 98.9382 76.9808 98.9099 76.9957 98.8842C77.0106 98.8585 77.0304 98.836 77.0539 98.818C77.0775 98.8 77.1044 98.7868 77.133 98.7792C77.1617 98.7716 77.1916 98.7696 77.221 98.7736C79.0133 99.0344 80.7621 99.5365 82.4199 100.266C82.4472 100.278 82.4718 100.295 82.4924 100.317C82.513 100.338 82.5291 100.364 82.5397 100.391C82.5504 100.419 82.5554 100.449 82.5545 100.479C82.5535 100.508 82.5467 100.538 82.5343 100.565C82.5117 100.599 82.4805 100.627 82.4438 100.645C82.4071 100.663 82.3663 100.672 82.3253 100.669Z" fill="#231F20"/>
<path d="M84.4049 101.809C84.3752 101.813 84.345 101.813 84.3153 101.809C84.2602 101.785 84.2167 101.74 84.1944 101.684C84.172 101.628 84.1726 101.566 84.1959 101.51C84.8714 99.8643 85.6559 98.2653 86.5441 96.7238C86.5785 96.6738 86.6309 96.6392 86.6903 96.6271C86.7497 96.615 86.8114 96.6265 86.8625 96.6591C86.8876 96.6752 86.9092 96.6962 86.9261 96.7207C86.943 96.7453 86.9548 96.773 86.9608 96.8022C86.9668 96.8314 86.9669 96.8615 86.9612 96.8908C86.9554 96.92 86.9439 96.9478 86.9272 96.9725C86.0548 98.493 85.282 100.069 84.6138 101.689C84.5935 101.727 84.5632 101.758 84.5263 101.779C84.4894 101.8 84.4474 101.81 84.4049 101.809Z" fill="#231F20"/>
<path d="M92.1858 99.2066C92.1411 99.2063 92.0976 99.1929 92.0605 99.1681C92.0233 99.1434 91.9943 99.1083 91.9768 99.0673C91.5092 98.0125 89.2555 95.6193 89.2356 95.5844C89.2138 95.5635 89.1964 95.5384 89.1845 95.5106C89.1727 95.4828 89.1666 95.4529 89.1666 95.4227C89.1666 95.3925 89.1727 95.3626 89.1845 95.3348C89.1964 95.307 89.2138 95.2819 89.2356 95.261C89.2783 95.2197 89.3354 95.1966 89.3948 95.1966C89.4542 95.1966 89.5113 95.2197 89.554 95.261C89.6485 95.3605 91.8823 97.7488 92.3798 98.8633C92.3922 98.8903 92.399 98.9196 92.4 98.9494C92.4009 98.9791 92.3959 99.0088 92.3852 99.0366C92.3746 99.0644 92.3585 99.0898 92.3379 99.1113C92.3173 99.1328 92.2927 99.1499 92.2654 99.1618C92.2414 99.1809 92.2145 99.196 92.1858 99.2066Z" fill="#231F20"/>
<path d="M94.1061 96.1367C94.0666 96.1363 94.0278 96.1258 93.9936 96.106C93.9594 96.0862 93.9309 96.0579 93.9108 96.0238C93.8908 95.9898 93.8799 95.9511 93.8793 95.9116C93.8786 95.8721 93.8882 95.833 93.9071 95.7983C94.5141 94.6689 96.5489 91.9572 96.6384 91.8428C96.6548 91.815 96.6768 91.791 96.7031 91.7723C96.7294 91.7536 96.7593 91.7406 96.7909 91.7343C96.8226 91.728 96.8552 91.7285 96.8866 91.7357C96.9181 91.7428 96.9477 91.7566 96.9734 91.776C96.9992 91.7954 97.0205 91.82 97.0361 91.8483C97.0517 91.8765 97.0611 91.9078 97.0638 91.9399C97.0664 91.9721 97.0623 92.0044 97.0516 92.0348C97.0408 92.0653 97.0238 92.0931 97.0016 92.1165C96.9767 92.1165 94.9021 94.9177 94.3051 96.0173C94.2856 96.0531 94.2569 96.0831 94.2219 96.1041C94.1869 96.1251 94.1469 96.1363 94.1061 96.1367Z" fill="#231F20"/>
<path d="M95.7429 101.858C94.3652 101.83 92.9957 101.638 91.6634 101.286C91.6063 101.269 91.5581 101.23 91.5285 101.179C91.4989 101.127 91.4902 101.066 91.5042 101.008C91.5122 100.978 91.526 100.951 91.5446 100.927C91.5632 100.904 91.5864 100.884 91.6128 100.869C91.6392 100.854 91.6682 100.845 91.6982 100.841C91.7283 100.838 91.7587 100.84 91.7878 100.848C93.3222 101.254 94.9082 101.43 96.4941 101.371C96.554 101.367 96.6132 101.386 96.6588 101.425C96.7044 101.464 96.7328 101.52 96.7379 101.58C96.7413 101.609 96.7387 101.639 96.7302 101.668C96.7217 101.696 96.7074 101.723 96.6883 101.746C96.6692 101.768 96.6457 101.787 96.6192 101.801C96.5926 101.814 96.5636 101.822 96.5339 101.824C96.2702 101.848 96.0066 101.858 95.7429 101.858Z" fill="#231F20"/>
<path d="M90.5241 105.52C92.2025 105.887 93.8532 106.371 95.4643 106.968L90.5241 105.52Z" fill="white"/>
<path d="M95.4643 107.197C95.4348 107.204 95.4042 107.204 95.3747 107.197C93.7763 106.607 92.139 106.128 90.4744 105.764C90.4156 105.75 90.3646 105.713 90.3322 105.662C90.2997 105.611 90.2882 105.55 90.3002 105.49C90.3134 105.432 90.3488 105.381 90.399 105.349C90.4493 105.316 90.5102 105.304 90.5689 105.316C92.2596 105.686 93.9221 106.175 95.5439 106.779C95.5999 106.802 95.6445 106.847 95.6678 106.903C95.6911 106.959 95.6913 107.022 95.6683 107.078C95.6475 107.114 95.6178 107.143 95.5821 107.164C95.5463 107.185 95.5057 107.197 95.4643 107.197Z" fill="#231F20"/>
<path d="M97.504 117.367C97.4628 117.363 97.4233 117.349 97.3893 117.326C97.3552 117.302 97.3279 117.27 97.31 117.233C97.1031 116.763 96.7838 116.352 96.3803 116.035C95.9769 115.719 95.5016 115.506 94.9966 115.417C93.9502 115.248 92.8775 115.437 91.9519 115.954C91.8976 115.98 91.8352 115.985 91.7777 115.966C91.7201 115.948 91.672 115.908 91.6435 115.855C91.6298 115.828 91.6215 115.799 91.6192 115.77C91.6168 115.74 91.6203 115.71 91.6296 115.682C91.6388 115.654 91.6536 115.628 91.6731 115.605C91.6926 115.583 91.7163 115.564 91.743 115.551C92.7587 114.987 93.9346 114.782 95.0812 114.969C95.6636 115.07 96.2115 115.316 96.6753 115.682C97.1392 116.049 97.5044 116.525 97.7378 117.069C97.759 117.125 97.7574 117.187 97.7332 117.242C97.709 117.297 97.6642 117.34 97.6085 117.362C97.5744 117.371 97.5388 117.373 97.504 117.367Z" fill="#231F20"/>
<path d="M77.818 118.347C77.7677 118.346 77.7192 118.329 77.6797 118.298C77.6403 118.267 77.6122 118.224 77.5998 118.175C77.5873 118.126 77.5912 118.075 77.6109 118.029C77.6305 117.983 77.6648 117.944 77.7085 117.919C78.8954 117.264 80.178 116.798 81.5094 116.541C81.5687 116.531 81.6297 116.545 81.679 116.579C81.7284 116.614 81.7622 116.666 81.7731 116.725C81.7788 116.754 81.7788 116.784 81.7728 116.813C81.7669 116.842 81.7553 116.87 81.7387 116.895C81.722 116.919 81.7006 116.94 81.6758 116.956C81.6509 116.972 81.6231 116.984 81.594 116.989C80.3099 117.237 79.0727 117.686 77.9274 118.317C77.894 118.336 77.8564 118.347 77.818 118.347Z" fill="#231F20"/>
<path d="M71.7932 121.213H71.7385C71.7087 121.213 71.0022 121.029 68.6888 120.337C66.3755 119.646 62.5049 120.765 62.4701 120.775C62.441 120.784 62.4106 120.786 62.3805 120.783C62.3505 120.779 62.3215 120.77 62.2951 120.755C62.2687 120.74 62.2456 120.72 62.2269 120.696C62.2083 120.672 62.1945 120.645 62.1865 120.616C62.1782 120.587 62.1758 120.557 62.1794 120.528C62.183 120.498 62.1925 120.469 62.2073 120.443C62.2221 120.417 62.242 120.394 62.2658 120.376C62.2896 120.358 62.3167 120.345 62.3457 120.337C62.5099 120.288 66.4501 119.188 68.8132 119.9C71.1117 120.591 71.833 120.77 71.838 120.775C71.8897 120.791 71.9342 120.824 71.9638 120.869C71.9933 120.914 72.0059 120.969 71.9993 121.022C71.9928 121.076 71.9675 121.125 71.928 121.162C71.8884 121.199 71.8372 121.22 71.7833 121.223L71.7932 121.213Z" fill="#231F20"/>
<path d="M111.106 120.332H111.046C111.021 120.332 108.558 119.681 107.563 119.546C106.568 119.412 105.285 120.044 105.27 120.044C105.217 120.062 105.16 120.059 105.109 120.038C105.057 120.017 105.016 119.977 104.991 119.927C104.967 119.877 104.962 119.82 104.976 119.766C104.991 119.713 105.025 119.666 105.071 119.636C105.136 119.606 106.564 118.934 107.623 119.084C108.683 119.233 111.051 119.855 111.155 119.885C111.184 119.892 111.212 119.905 111.235 119.923C111.259 119.942 111.279 119.964 111.294 119.99C111.309 120.016 111.318 120.045 111.322 120.075C111.325 120.104 111.323 120.134 111.315 120.163C111.302 120.21 111.275 120.251 111.238 120.282C111.2 120.312 111.154 120.33 111.106 120.332Z" fill="#231F20"/>
<path d="M59.9577 118.989C59.9232 118.996 59.8877 118.996 59.8532 118.989C59.0231 118.608 58.0888 118.519 57.2016 118.735C57.1695 118.743 57.1362 118.745 57.1035 118.74C57.0708 118.735 57.0395 118.724 57.0112 118.707C56.9829 118.69 56.9584 118.667 56.939 118.64C56.9195 118.614 56.9056 118.583 56.8981 118.551C56.8831 118.487 56.8941 118.42 56.9286 118.364C56.9631 118.308 57.0183 118.268 57.0821 118.253C58.0807 118.008 59.1326 118.108 60.0672 118.536C60.097 118.55 60.1239 118.57 60.1461 118.594C60.1683 118.618 60.1854 118.647 60.1965 118.678C60.2076 118.709 60.2125 118.742 60.2108 118.775C60.2091 118.808 60.2008 118.84 60.1866 118.87C60.1634 118.909 60.1297 118.941 60.0892 118.962C60.0488 118.983 60.0032 118.993 59.9577 118.989Z" fill="#D1D3D4"/>
<path d="M54.525 122.407H52.4703C52.4044 122.407 52.3411 122.381 52.2944 122.334C52.2478 122.288 52.2216 122.224 52.2216 122.158C52.2216 122.092 52.2478 122.029 52.2944 121.982C52.3411 121.936 52.4044 121.91 52.4703 121.91H54.525C54.591 121.91 54.6543 121.936 54.7009 121.982C54.7476 122.029 54.7738 122.092 54.7738 122.158C54.7738 122.224 54.7476 122.288 54.7009 122.334C54.6543 122.381 54.591 122.407 54.525 122.407Z" fill="#D1D3D4"/>
<path d="M4.5362 120.119C4.20219 120.121 3.86879 120.089 3.5412 120.024C3.47523 120.011 3.4172 119.972 3.37988 119.916C3.34256 119.86 3.32901 119.791 3.34221 119.726C3.3554 119.66 3.39426 119.601 3.45024 119.564C3.50622 119.527 3.57473 119.513 3.64071 119.526C4.20735 119.638 4.79043 119.638 5.35708 119.526C5.4223 119.515 5.48953 119.529 5.54438 119.566C5.59923 119.603 5.63736 119.661 5.6506 119.726C5.66223 119.79 5.64784 119.857 5.61056 119.911C5.57328 119.965 5.51614 120.002 5.4516 120.014C5.15044 120.078 4.84395 120.113 4.5362 120.119Z" fill="#D1D3D4"/>
<path d="M13.9887 124.746C13.9561 124.751 13.9227 124.75 13.8905 124.742C13.8583 124.734 13.828 124.72 13.8012 124.701C13.7744 124.681 13.7517 124.657 13.7343 124.629C13.717 124.601 13.7054 124.569 13.7002 124.537C13.695 124.504 13.6962 124.471 13.7039 124.438C13.7116 124.406 13.7255 124.376 13.7449 124.349C13.7643 124.322 13.7888 124.3 13.817 124.282C13.8452 124.265 13.8765 124.253 13.9091 124.248C14.5179 124.049 15.1543 123.949 15.7947 123.95C15.8624 123.948 15.928 123.973 15.9773 124.02C16.0267 124.067 16.0557 124.131 16.0583 124.198C16.0571 124.264 16.0304 124.326 15.9841 124.373C15.9377 124.419 15.8752 124.446 15.8096 124.447C15.2218 124.448 14.6377 124.54 14.0783 124.721L13.9887 124.746Z" fill="#D1D3D4"/>
<path d="M29.0381 124.253C28.8225 124.253 28.6086 124.253 28.3963 124.253C28.3637 124.251 28.3317 124.243 28.3022 124.229C28.2728 124.214 28.2464 124.194 28.2247 124.17C28.203 124.145 28.1863 124.117 28.1756 124.086C28.165 124.055 28.1605 124.022 28.1625 123.989C28.1644 123.957 28.1728 123.925 28.1871 123.895C28.2013 123.866 28.2213 123.839 28.2458 123.818C28.2703 123.796 28.2989 123.779 28.3298 123.769C28.3608 123.758 28.3935 123.754 28.4262 123.756C29.1121 123.794 29.8 123.767 30.4809 123.676C30.5135 123.672 30.5467 123.674 30.5785 123.683C30.6103 123.691 30.6401 123.706 30.6662 123.726C30.6923 123.746 30.7142 123.771 30.7306 123.8C30.7471 123.828 30.7577 123.86 30.762 123.892C30.7662 123.925 30.764 123.958 30.7554 123.99C30.7468 124.022 30.7321 124.052 30.712 124.078C30.6919 124.104 30.6668 124.126 30.6383 124.142C30.6097 124.159 30.5782 124.169 30.5455 124.174C30.0455 124.235 29.5418 124.261 29.0381 124.253Z" fill="#D1D3D4"/>
<path d="M107.598 122.561C107.322 122.562 107.046 122.541 106.772 122.497C106.74 122.492 106.708 122.481 106.68 122.464C106.652 122.447 106.627 122.424 106.607 122.398C106.588 122.371 106.574 122.341 106.566 122.309C106.558 122.277 106.556 122.243 106.561 122.211C106.566 122.178 106.577 122.147 106.594 122.118C106.611 122.09 106.634 122.065 106.66 122.046C106.687 122.026 106.717 122.012 106.749 122.004C106.781 121.996 106.814 121.994 106.847 121.999C107.376 122.086 107.915 122.086 108.444 121.999C108.51 121.987 108.578 122.002 108.633 122.041C108.688 122.079 108.726 122.137 108.738 122.203C108.749 122.269 108.735 122.337 108.696 122.392C108.658 122.447 108.6 122.485 108.534 122.497C108.224 122.545 107.911 122.567 107.598 122.561Z" fill="#D1D3D4"/>
<path d="M116.523 119.397H116.499L114.817 119.223C114.784 119.22 114.753 119.21 114.724 119.195C114.695 119.179 114.669 119.158 114.648 119.133C114.627 119.107 114.612 119.078 114.602 119.047C114.593 119.015 114.59 118.982 114.593 118.949C114.601 118.884 114.633 118.824 114.685 118.782C114.736 118.74 114.801 118.72 114.867 118.725L116.548 118.9C116.614 118.903 116.676 118.932 116.721 118.981C116.765 119.03 116.788 119.095 116.785 119.161C116.781 119.227 116.752 119.289 116.703 119.333C116.654 119.377 116.589 119.4 116.523 119.397Z" fill="#D1D3D4"/>
<path d="M83.38 124.144H80.4846C80.4186 124.144 80.3553 124.117 80.3087 124.071C80.262 124.024 80.2358 123.961 80.2358 123.895C80.2358 123.829 80.262 123.766 80.3087 123.719C80.3553 123.672 80.4186 123.646 80.4846 123.646H83.38C83.4464 123.647 83.5097 123.675 83.5562 123.722C83.6027 123.77 83.6288 123.833 83.6287 123.9C83.6288 123.932 83.6223 123.964 83.6097 123.994C83.5972 124.024 83.5788 124.051 83.5556 124.074C83.5324 124.097 83.505 124.115 83.4748 124.127C83.4447 124.138 83.4124 124.144 83.38 124.144Z" fill="#D1D3D4"/>
<path d="M66.858 123.318C66.8254 123.322 66.7922 123.319 66.7606 123.31C66.7289 123.301 66.6993 123.286 66.6734 123.266C66.6475 123.246 66.6259 123.22 66.6098 123.192C66.5937 123.163 66.5833 123.131 66.5794 123.099C66.5755 123.066 66.5781 123.033 66.5869 123.001C66.5958 122.97 66.6108 122.94 66.6312 122.914C66.6515 122.888 66.6767 122.867 66.7054 122.851C66.7341 122.834 66.7657 122.824 66.7983 122.82C67.7453 122.581 68.7326 122.547 69.6938 122.721C69.7583 122.733 69.8154 122.77 69.8527 122.824C69.89 122.878 69.9044 122.945 69.8928 123.009C69.8874 123.042 69.8756 123.072 69.8581 123.1C69.8405 123.128 69.8176 123.151 69.7907 123.17C69.7638 123.189 69.7334 123.202 69.7014 123.208C69.6693 123.215 69.6363 123.215 69.6042 123.208C68.7139 123.048 67.7995 123.08 66.9227 123.303L66.858 123.318Z" fill="#D1D3D4"/>
</svg>
