<svg width="103" height="123" viewBox="0 0 103 123" fill="none" xmlns="http://www.w3.org/2000/svg">
<path d="M10.3352 116.525H9.73723C9.58493 116.529 9.43381 116.498 9.2953 116.435C9.15678 116.371 9.0345 116.278 8.93769 116.16C8.84088 116.043 8.77208 115.906 8.73648 115.758C8.70089 115.61 8.69943 115.456 8.73223 115.308L12.8779 93.9212H14.717L10.3352 116.525Z" fill="white"/>
<path d="M10.3352 116.776H9.73722C9.55037 116.775 9.36592 116.734 9.19691 116.654C9.0279 116.575 8.87845 116.459 8.75911 116.316C8.63977 116.173 8.55346 116.005 8.50627 115.825C8.45908 115.645 8.45216 115.456 8.486 115.273L12.6266 93.8862C12.6382 93.8283 12.6696 93.7762 12.7154 93.7388C12.7612 93.7013 12.8186 93.6809 12.8778 93.6809H14.717C14.7541 93.6807 14.7907 93.6892 14.8239 93.7057C14.857 93.7222 14.8858 93.7463 14.9079 93.776C14.9317 93.8041 14.949 93.8371 14.9585 93.8726C14.9681 93.908 14.9697 93.9452 14.9632 93.9814L10.5814 116.595C10.5667 116.649 10.5344 116.696 10.4898 116.728C10.4451 116.761 10.3906 116.778 10.3352 116.776ZM13.0839 94.1717L8.97844 115.358C8.95792 115.47 8.96208 115.584 8.99063 115.694C9.01919 115.803 9.07144 115.905 9.14374 115.993C9.21603 116.08 9.30661 116.151 9.40913 116.199C9.51165 116.248 9.62363 116.274 9.73722 116.275H10.1292L14.4105 94.1717H13.0839Z" fill="#231F20"/>
<path d="M25.0785 116.525H25.6966C25.8463 116.528 25.9947 116.497 26.131 116.436C26.2673 116.374 26.388 116.282 26.4844 116.168C26.5807 116.054 26.6502 115.92 26.6878 115.775C26.7254 115.631 26.7301 115.48 26.7016 115.333L22.551 93.9212H20.6967L25.0785 116.525Z" fill="white"/>
<path d="M25.6966 116.776H25.0785C25.0204 116.777 24.9637 116.757 24.9186 116.72C24.8736 116.684 24.843 116.632 24.8323 116.575L20.4505 93.9712C20.4441 93.935 20.4457 93.8979 20.4552 93.8624C20.4648 93.8269 20.482 93.7939 20.5058 93.7658C20.5279 93.7361 20.5567 93.7121 20.5899 93.6955C20.623 93.679 20.6597 93.6705 20.6967 93.6707H22.5359C22.5948 93.6699 22.652 93.6902 22.6972 93.7279C22.7424 93.7655 22.7725 93.8181 22.7821 93.876L26.9328 115.288C26.9692 115.47 26.9646 115.658 26.9193 115.839C26.8741 116.019 26.7893 116.187 26.6711 116.331C26.5528 116.474 26.4041 116.59 26.2356 116.67C26.0671 116.749 25.883 116.791 25.6966 116.791V116.776ZM25.2846 116.275H25.6966C25.8076 116.275 25.9173 116.25 26.018 116.204C26.1187 116.157 26.2079 116.089 26.2795 116.004C26.3503 115.919 26.4014 115.819 26.4292 115.712C26.457 115.604 26.4608 115.492 26.4403 115.383L22.355 94.1715H21.0284L25.2846 116.275Z" fill="#231F20"/>
<path d="M13.908 47.9768C13.6065 49.3141 6.56645 105.576 6.56645 105.576H7.83778L16.8828 45.5226L13.908 47.9768Z" fill="#231F20"/>
<path d="M7.83778 105.812H6.56645C6.53046 105.811 6.49492 105.804 6.46206 105.789C6.4292 105.774 6.39973 105.753 6.3755 105.727C6.3525 105.7 6.33528 105.669 6.3249 105.635C6.31452 105.602 6.31122 105.566 6.3152 105.531C6.60163 103.232 13.3502 49.259 13.6617 47.9317C13.674 47.8768 13.704 47.8275 13.7472 47.7914L16.7019 45.3272C16.7408 45.2935 16.7891 45.2726 16.8403 45.2672C16.8916 45.2618 16.9432 45.2723 16.9883 45.2971C17.0323 45.3225 17.0677 45.3603 17.0901 45.4058C17.1125 45.4513 17.1208 45.5024 17.1139 45.5526L8.06893 105.606C8.05814 105.661 8.02972 105.711 7.98799 105.748C7.94625 105.785 7.8935 105.807 7.83778 105.812ZM6.83278 105.311H7.6016L16.4958 46.1236L14.119 48.127C13.6969 50.7015 7.38553 101.069 6.85288 105.311H6.83278Z" fill="#231F20"/>
<path d="M25.9428 63.2681L26.3448 100.027H27.3448L30.7568 60.3431L25.9428 63.2681Z" fill="#231F20"/>
<path d="M27.3448 100.277H26.3398C26.3071 100.278 26.2745 100.272 26.244 100.26C26.2136 100.248 26.1859 100.23 26.1625 100.207C26.1391 100.184 26.1205 100.157 26.1078 100.127C26.0951 100.097 26.0886 100.064 26.0886 100.032L25.6866 63.2733C25.6863 63.23 25.6973 63.1875 25.7184 63.1498C25.7396 63.112 25.7701 63.0804 25.8072 63.0579L30.6211 60.1328C30.6612 60.1085 30.7073 60.0956 30.7543 60.0956C30.8012 60.0956 30.8473 60.1085 30.8874 60.1328C30.9271 60.1572 30.9589 60.1922 30.9794 60.2339C30.9998 60.2755 31.008 60.3221 31.003 60.3682L27.5961 100.067C27.5864 100.126 27.5558 100.18 27.5097 100.219C27.4635 100.257 27.405 100.278 27.3448 100.277ZM26.5911 99.7764H27.0936L30.4452 60.814L26.174 63.4085L26.5911 99.7764Z" fill="#231F20"/>
<path d="M94.8909 30.772L100.644 108.957H101.725L97.2727 24.0654L94.8909 30.772Z" fill="#231F20"/>
<path d="M101.75 109.207H100.644C100.582 109.208 100.521 109.184 100.476 109.141C100.43 109.098 100.402 109.04 100.398 108.977L94.6396 30.7869C94.6301 30.7542 94.6301 30.7195 94.6396 30.6867L97.0215 23.9801C97.0261 23.9473 97.0372 23.9156 97.0541 23.887C97.071 23.8584 97.0933 23.8333 97.1199 23.8133C97.1465 23.7933 97.1768 23.7787 97.2091 23.7704C97.2413 23.7621 97.2749 23.7602 97.3079 23.7648C97.3409 23.7694 97.3726 23.7804 97.4014 23.7972C97.4301 23.8141 97.4552 23.8364 97.4752 23.8629C97.4953 23.8894 97.51 23.9196 97.5183 23.9518C97.5267 23.9839 97.5286 24.0174 97.524 24.0503L101.976 108.942C101.978 108.976 101.974 109.009 101.962 109.041C101.951 109.073 101.934 109.102 101.911 109.127C101.868 109.172 101.811 109.201 101.75 109.207ZM100.906 108.707H101.489L97.0868 25.3375L95.1421 30.8069L100.906 108.707Z" fill="#231F20"/>
<path d="M82.0771 68.7176L82.8459 113.61H84.0419L84.5444 61.7706L82.0771 68.7176Z" fill="#231F20"/>
<path d="M84.0419 113.861H82.846C82.7806 113.859 82.7181 113.833 82.6714 113.788C82.6247 113.742 82.5973 113.68 82.5947 113.615L81.8259 68.7226C81.8211 68.6927 81.8211 68.6623 81.8259 68.6324L84.2932 61.6904C84.2988 61.6575 84.3108 61.626 84.3286 61.5978C84.3464 61.5696 84.3696 61.5451 84.3969 61.5258C84.4242 61.5065 84.4551 61.4927 84.4877 61.4853C84.5203 61.4779 84.5541 61.4769 84.5871 61.4825C84.6201 61.4881 84.6517 61.5001 84.68 61.5179C84.7083 61.5356 84.7329 61.5588 84.7523 61.586C84.7716 61.6132 84.7854 61.6439 84.7929 61.6765C84.8003 61.709 84.8013 61.7427 84.7957 61.7755L84.2932 113.615C84.2932 113.648 84.2866 113.68 84.2739 113.71C84.2613 113.74 84.2427 113.768 84.2193 113.791C84.1959 113.813 84.1681 113.831 84.1377 113.843C84.1072 113.855 84.0747 113.861 84.0419 113.861ZM83.0972 113.36H83.7957L84.2982 63.2731L82.3485 68.7827L83.0972 113.36Z" fill="#231F20"/>
<path d="M24.9328 0.835205L1.1093 61.8757L79.5897 75.7147L101.891 12.9612L24.9328 0.835205Z" fill="white"/>
<path d="M79.5897 75.9651H79.5445L1.06407 62.1212C1.02767 62.115 0.993138 62.1007 0.963037 62.0793C0.932936 62.058 0.908035 62.0302 0.89018 61.9979C0.872325 61.9657 0.861972 61.9299 0.859889 61.8931C0.857806 61.8564 0.864045 61.8196 0.878145 61.7856L24.7017 0.745068C24.7225 0.69202 24.7605 0.647431 24.8097 0.618391C24.8588 0.58935 24.9163 0.577523 24.973 0.58479L101.931 12.7158C101.967 12.7217 102.002 12.7356 102.032 12.7563C102.063 12.7771 102.088 12.8043 102.107 12.836C102.122 12.869 102.129 12.9049 102.129 12.9412C102.129 12.9774 102.122 13.0133 102.107 13.0463L79.8259 75.7998C79.8083 75.8482 79.7763 75.8901 79.734 75.9196C79.6917 75.9492 79.6414 75.9651 79.5897 75.9651ZM1.45602 61.6804L79.4239 75.4342L101.534 13.1615L25.0936 1.1107L1.45602 61.6804Z" fill="#231F20"/>
<path d="M55.731 52.3894H55.6758L22.0083 45.0416C21.9735 45.0332 21.9408 45.0177 21.9123 44.9962C21.8838 44.9747 21.86 44.9475 21.8424 44.9164C21.8275 44.8834 21.8197 44.8475 21.8197 44.8112C21.8197 44.775 21.8275 44.7391 21.8424 44.7061L34.4301 11.6489C34.4495 11.5938 34.4879 11.5474 34.5386 11.518C34.5893 11.4886 34.6488 11.4782 34.7064 11.4886L62.9067 16.2368C62.9434 16.2437 62.9782 16.2584 63.0086 16.2801C63.039 16.3017 63.0642 16.3297 63.0826 16.3621C63.0998 16.3954 63.1088 16.4323 63.1088 16.4697C63.1088 16.5072 63.0998 16.5441 63.0826 16.5774L61.957 19.3372L67.4845 20.2838L68.8563 17.1735C68.879 17.1227 68.9179 17.0808 68.9671 17.0545C69.0162 17.0282 69.0727 17.019 69.1277 17.0282L86.6348 20.0334C86.6715 20.0383 86.7066 20.0517 86.7371 20.0726C86.7677 20.0935 86.7929 20.1212 86.8107 20.1536C86.8253 20.1868 86.8329 20.2226 86.8329 20.2588C86.8329 20.295 86.8253 20.3308 86.8107 20.364L79.4491 40.2033C79.4287 40.2588 79.3892 40.3054 79.3377 40.3347C79.2862 40.364 79.226 40.3743 79.1677 40.3636L61.5048 36.8575L55.9521 52.2291C55.9347 52.2742 55.9046 52.3134 55.8654 52.3418C55.8261 52.3703 55.7795 52.3868 55.731 52.3894ZM22.3801 44.6059L55.5451 51.8484L61.0726 36.4818C61.0931 36.4253 61.1333 36.378 61.1859 36.3486C61.2385 36.3192 61.3 36.3096 61.359 36.3216L79.0219 39.8276L86.2479 20.4291L69.2282 17.5241L67.8614 20.6344C67.8378 20.6856 67.798 20.7276 67.748 20.7539C67.698 20.7802 67.6407 20.7892 67.585 20.7797L61.555 19.7479C61.5183 19.7411 61.4836 19.7263 61.4532 19.7047C61.4228 19.6831 61.3975 19.6551 61.3792 19.6227C61.362 19.5894 61.353 19.5525 61.353 19.515C61.353 19.4776 61.362 19.4406 61.3792 19.4073L62.5047 16.6476L34.817 11.9845L22.3801 44.6059Z" fill="#D1D3D4"/>
<path d="M76.625 70.8013H76.5798L7.35035 58.1995C7.31363 58.1946 7.27858 58.1812 7.24802 58.1603C7.21747 58.1394 7.19228 58.1117 7.17447 58.0793C7.15968 58.0453 7.15204 58.0087 7.15204 57.9716C7.15204 57.9346 7.15968 57.8979 7.17447 57.8639L27.6865 4.90235C27.7073 4.84931 27.7454 4.80472 27.7945 4.77568C27.8437 4.74664 27.9012 4.73481 27.9579 4.74208L95.8758 15.2603C95.9124 15.2656 95.9474 15.2786 95.9786 15.2985C96.0098 15.3184 96.0364 15.3446 96.0567 15.3755C96.0715 15.4094 96.0791 15.4461 96.0791 15.4831C96.0791 15.5202 96.0715 15.5569 96.0567 15.5908L76.8762 70.636C76.8566 70.686 76.8219 70.7288 76.7769 70.7583C76.7319 70.7879 76.6789 70.8029 76.625 70.8013ZM7.72722 57.7788L76.4592 70.3004L95.5039 15.711L28.0785 5.24795L7.72722 57.7788Z" fill="#D1D3D4"/>
<path d="M60.3038 70.2702L59.0224 73.9365L20.9329 67.295L22.164 63.4985L60.3038 70.2702Z" fill="white"/>
<path d="M59.0375 74.1871H58.9923L20.9028 67.5456C20.8675 67.5402 20.8339 67.5271 20.8044 67.5072C20.7748 67.4872 20.7501 67.461 20.7319 67.4304C20.7142 67.3996 20.7028 67.3656 20.6985 67.3303C20.6941 67.295 20.697 67.2592 20.7068 67.2251L21.9429 63.4285C21.9605 63.3705 21.9989 63.321 22.0509 63.2896C22.1028 63.2582 22.1646 63.247 22.2243 63.2582L60.349 70.0149C60.3848 70.0205 60.4189 70.0343 60.4485 70.0551C60.4781 70.076 60.5026 70.1034 60.5199 70.1351C60.5358 70.167 60.5441 70.2022 60.5441 70.2378C60.5441 70.2734 60.5358 70.3086 60.5199 70.3405L59.2586 74.0218C59.2426 74.0683 59.2129 74.1089 59.1735 74.1383C59.1341 74.1678 59.0867 74.1848 59.0375 74.1871ZM21.2746 67.0999L58.8717 73.6512L59.9872 70.4657L22.355 63.7841L21.2746 67.0999Z" fill="#231F20"/>
<path d="M16.7873 94.5573H18.6264V110.73C18.6264 110.973 18.5296 111.206 18.3571 111.378C18.1847 111.55 17.9508 111.647 17.7069 111.647C17.463 111.647 17.2291 111.55 17.0566 111.378C16.8842 111.206 16.7873 110.973 16.7873 110.73V94.5573Z" fill="white"/>
<path d="M17.7069 111.912C17.3968 111.911 17.0997 111.788 16.8804 111.569C16.6611 111.35 16.5374 111.054 16.536 110.745V94.5572C16.536 94.4908 16.5625 94.4271 16.6096 94.3801C16.6568 94.3332 16.7207 94.3068 16.7873 94.3068H18.6264C18.6931 94.3068 18.757 94.3332 18.8041 94.3801C18.8512 94.4271 18.8777 94.4908 18.8777 94.5572V110.73C18.8797 110.885 18.8509 111.038 18.7929 111.181C18.735 111.325 18.6491 111.455 18.5401 111.565C18.4312 111.675 18.3015 111.762 18.1584 111.822C18.0154 111.882 17.8619 111.912 17.7069 111.912ZM17.0385 94.8227V110.745C17.0385 110.922 17.109 111.091 17.2343 111.216C17.3596 111.341 17.5296 111.411 17.7069 111.411C17.8841 111.411 18.0541 111.341 18.1794 111.216C18.3048 111.091 18.3752 110.922 18.3752 110.745V94.8227H17.0385Z" fill="#231F20"/>
<path d="M24.1891 87.7255C19.9232 86.7639 15.4956 86.7639 11.2296 87.7255H5.13934V92.053C5.13934 94.8328 10.7673 97.0616 17.7018 97.0616C24.6363 97.0616 30.2643 94.8127 30.2643 92.053V87.7455L24.1891 87.7255Z" fill="#231F20"/>
<path d="M17.7069 97.3121C10.5161 97.3121 4.88809 94.9931 4.88809 92.033V87.7255C4.88809 87.6591 4.91456 87.5954 4.96168 87.5484C5.0088 87.5015 5.07271 87.4751 5.13934 87.4751H11.1995C15.4842 86.5142 19.9295 86.5142 24.2142 87.4751H30.2794C30.3461 87.4751 30.41 87.5015 30.4571 87.5484C30.5042 87.5954 30.5307 87.6591 30.5307 87.7255V92.053C30.5307 94.9931 24.8976 97.3121 17.7069 97.3121ZM5.39059 87.9759V92.053C5.39059 94.6475 11.0286 96.8313 17.7069 96.8313C24.3851 96.8313 30.0282 94.6475 30.0282 92.053V87.996H24.1891H24.1288C19.9021 87.0478 15.5167 87.0478 11.2899 87.996H11.2296L5.39059 87.9759Z" fill="#231F20"/>
<path d="M17.7069 92.7542C24.6505 92.7542 30.2794 90.5027 30.2794 87.7255C30.2794 84.9482 24.6505 82.6968 17.7069 82.6968C10.7632 82.6968 5.13432 84.9482 5.13432 87.7255C5.13432 90.5027 10.7632 92.7542 17.7069 92.7542Z" fill="white"/>
<path d="M17.7069 93.0046C10.5161 93.0046 4.88809 90.6855 4.88809 87.7254C4.88809 84.7653 10.5161 82.4413 17.7069 82.4413C24.8976 82.4413 30.5307 84.7603 30.5307 87.7254C30.5307 90.6906 24.8976 93.0046 17.7069 93.0046ZM17.7069 82.9422C11.0286 82.9422 5.39059 85.1309 5.39059 87.7254C5.39059 90.3199 11.0286 92.5037 17.7069 92.5037C24.3851 92.5037 30.0282 90.3149 30.0282 87.7254C30.0282 85.1359 24.365 82.9422 17.7069 82.9422Z" fill="#231F20"/>
<path d="M30.1287 106.373L26.7016 111.381C26.7016 111.381 33.008 115.323 33.9276 115.559C34.8471 115.794 43.1484 115.699 42.7665 114.852C42.3846 114.006 34.611 111.031 34.611 111.031L34.3748 108.977L30.1287 106.373Z" fill="#231F20"/>
<path d="M36.425 115.884C35.566 115.906 34.7065 115.871 33.8522 115.779C32.9226 115.544 27.2092 111.977 26.5609 111.577C26.5315 111.559 26.5064 111.535 26.4873 111.506C26.4682 111.478 26.4556 111.445 26.4504 111.411C26.4366 111.346 26.4492 111.277 26.4856 111.221L29.9126 106.212C29.9485 106.159 30.0034 106.122 30.066 106.108C30.1286 106.094 30.1942 106.105 30.2493 106.137L34.4954 108.722C34.5279 108.742 34.5556 108.769 34.5764 108.801C34.5972 108.833 34.6108 108.869 34.616 108.907L34.8321 110.81C36.8421 111.577 42.6108 113.861 42.9876 114.712C43.0192 114.779 43.0299 114.854 43.0182 114.927C43.0066 115.001 42.9732 115.069 42.9223 115.123C42.455 115.714 38.9375 115.884 36.425 115.884ZM27.0484 111.286C28.9378 112.463 33.2844 115.118 33.9778 115.293C34.9024 115.529 41.6259 115.388 42.4801 114.867C41.9776 114.306 38.1034 112.618 34.5105 111.246C34.468 111.229 34.4307 111.201 34.4025 111.165C34.3742 111.129 34.356 111.086 34.3497 111.041L34.1286 109.107L30.194 106.708L27.0484 111.286Z" fill="#231F20"/>
<path d="M37.7214 105.712C37.626 105.857 34.3748 108.957 34.3748 108.957L30.1287 106.373L32.9075 101.67L37.7214 105.712Z" fill="white"/>
<path d="M34.3748 109.208C34.3288 109.209 34.2834 109.196 34.2441 109.173L29.998 106.578C29.9418 106.544 29.9014 106.489 29.8854 106.425C29.8694 106.361 29.8792 106.294 29.9126 106.237L32.6964 101.539C32.7142 101.507 32.7394 101.479 32.77 101.458C32.8005 101.437 32.8356 101.424 32.8723 101.419C32.9078 101.413 32.9442 101.415 32.9789 101.424C33.0137 101.434 33.0459 101.451 33.0733 101.474L37.8822 105.516C37.93 105.555 37.9615 105.611 37.9708 105.672C37.9801 105.733 37.9664 105.795 37.9325 105.847C37.837 105.992 35.7717 107.965 34.5456 109.132C34.5008 109.179 34.4394 109.206 34.3748 109.208ZM30.4704 106.288L34.3396 108.642C35.4099 107.64 36.8521 106.227 37.3546 105.732L32.9778 102.07L30.4704 106.288Z" fill="#231F20"/>
<path d="M48.9071 116.806L49.1885 122.165L65.1278 119.485C65.1278 119.485 60.9319 116.62 54.1431 115.914L48.9071 116.806Z" fill="#231F20"/>
<path d="M49.1885 122.415C49.1319 122.415 49.0771 122.395 49.0327 122.36C49.0054 122.338 48.9829 122.311 48.9665 122.28C48.9501 122.249 48.9402 122.215 48.9372 122.18L48.6558 116.821C48.6524 116.76 48.6715 116.7 48.7094 116.652C48.7473 116.604 48.8016 116.571 48.8619 116.56L54.0979 115.669H54.1683C60.942 116.375 65.2233 119.255 65.2735 119.285C65.3148 119.313 65.3466 119.353 65.3645 119.4C65.3825 119.446 65.3858 119.497 65.374 119.546C65.3638 119.594 65.3393 119.639 65.3034 119.674C65.2676 119.709 65.2222 119.732 65.173 119.741L49.2287 122.421L49.1885 122.415ZM49.1885 117.016L49.4448 121.875L64.4444 119.37C61.2705 117.626 57.7746 116.543 54.1683 116.185L49.1885 117.016Z" fill="#231F20"/>
<path d="M48.6207 112.388C48.6207 112.528 48.9071 116.806 48.9071 116.806L54.1431 115.914L54.3793 111.637L48.6207 112.388Z" fill="white"/>
<path d="M48.9071 117.056C48.851 117.057 48.7962 117.04 48.7513 117.006C48.7241 116.984 48.7015 116.957 48.6851 116.926C48.6687 116.895 48.6588 116.861 48.6558 116.826C48.6056 116.11 48.3694 112.528 48.3694 112.388C48.3702 112.328 48.393 112.269 48.4337 112.224C48.4744 112.179 48.5301 112.15 48.5905 112.143L54.3441 111.386C54.3804 111.381 54.4174 111.385 54.4522 111.396C54.487 111.407 54.5188 111.426 54.5451 111.452C54.5727 111.477 54.5942 111.508 54.6081 111.543C54.622 111.577 54.628 111.615 54.6255 111.652L54.3894 115.929C54.3867 115.985 54.3647 116.039 54.3272 116.081C54.2897 116.123 54.239 116.151 54.1833 116.16L48.9473 117.056H48.9071ZM48.9071 112.609C48.9423 113.245 49.0629 115.113 49.1583 116.515L53.922 115.699L54.1281 111.922L48.9071 112.609Z" fill="#231F20"/>
<path d="M28.4855 74.1219C28.4855 74.1219 52.0678 71.1167 54.4246 76.476C56.7813 81.8353 36.9275 107.87 36.9275 107.87L30.5859 103.117L39.1284 85.1259C39.1284 85.1259 19.2395 88.046 17.8325 83.433C16.4255 78.82 28.2091 74.9684 28.2091 74.9684L28.4855 74.1219Z" fill="#231F20"/>
<path d="M36.9275 108.121C36.8731 108.121 36.8201 108.103 36.7768 108.071L30.4352 103.317C30.3882 103.282 30.3546 103.233 30.34 103.176C30.3254 103.12 30.3306 103.06 30.3548 103.007L38.7164 85.4364C35.626 85.8571 18.943 87.9407 17.5863 83.503C16.1793 78.9201 26.6765 75.2187 28.0031 74.773L28.2493 74.0467C28.263 74.0012 28.2898 73.9608 28.3265 73.9305C28.3631 73.9002 28.408 73.8814 28.4554 73.8764C29.4252 73.7512 52.2487 70.9063 54.6557 76.3807C57.0627 81.8552 37.9325 106.954 37.1285 108.025C37.1039 108.055 37.0732 108.079 37.0385 108.095C37.0038 108.111 36.9659 108.12 36.9275 108.121ZM30.8975 103.037L36.8773 107.52C37.7466 106.373 42.1887 100.442 46.3494 94.0463C54.0125 82.2709 54.8416 78.0286 54.1934 76.5761C53.2738 74.4825 48.5654 73.4306 40.5757 73.5408C35.0482 73.616 29.6513 74.237 28.6714 74.3522L28.4403 75.0484C28.4277 75.0857 28.4066 75.1195 28.3787 75.1473C28.3508 75.1751 28.3168 75.1961 28.2795 75.2087C28.1639 75.2438 16.722 79.0403 18.0687 83.3578C19.1742 86.969 33.6462 85.6768 39.1084 84.8604C39.1531 84.8549 39.1985 84.8613 39.2399 84.8789C39.2814 84.8965 39.3175 84.9247 39.3445 84.9606C39.372 84.9967 39.3888 85.0397 39.3933 85.0848C39.3977 85.1298 39.3895 85.1753 39.3697 85.216L30.8975 103.037Z" fill="#231F20"/>
<path d="M10.9884 77.4626C10.9884 78.0236 8.44078 85.216 14.8075 88.7421C21.1741 92.2682 47.068 90.8608 47.068 90.8608L47.5704 113.61L54.711 113.139C54.711 113.139 58.7662 91.0461 55.4647 85.5917C52.1633 80.1373 21.8827 75.5243 21.8827 75.5243L10.9884 77.4626Z" fill="#231F20"/>
<path d="M47.5654 113.861C47.5327 113.861 47.5001 113.855 47.4697 113.843C47.4392 113.831 47.4115 113.813 47.3881 113.79C47.3647 113.768 47.3461 113.74 47.3334 113.71C47.3207 113.68 47.3142 113.648 47.3142 113.615L46.8117 91.1213C43.9323 91.2715 20.7671 92.3333 14.6768 88.9625C10.8377 86.8388 9.48095 83.1024 10.6568 77.8633C10.6908 77.7313 10.7176 77.5975 10.7372 77.4626C10.7384 77.4045 10.7594 77.3484 10.7969 77.3038C10.8343 77.2592 10.886 77.2286 10.9432 77.2172L21.8525 75.2889H21.9379C23.1741 75.4742 52.3693 79.972 55.6908 85.4665C59.0124 90.961 55.1381 112.278 54.9672 113.184C54.9583 113.239 54.9311 113.289 54.8901 113.326C54.849 113.364 54.7965 113.386 54.7411 113.39L47.5956 113.861H47.5654ZM47.0629 90.6104C47.1261 90.6099 47.187 90.6332 47.2338 90.6755C47.2833 90.7227 47.3121 90.7875 47.3142 90.8558L47.8167 113.345L54.4999 112.904C54.8868 110.725 58.3038 90.7656 55.2537 85.7219C52.103 80.5229 23.164 75.9851 21.8927 75.7897L11.2146 77.678L11.1543 77.9685C10.0387 82.9772 11.3151 86.5183 14.9381 88.5268C21.1641 91.9727 46.8016 90.6204 47.0579 90.6104H47.0629Z" fill="#231F20"/>
<path d="M34.1838 35.7004C33.3849 35.7004 32.7115 34.8389 32.6763 33.7521C32.6494 33.2609 32.7739 32.7732 33.0331 32.3546C33.1407 32.1677 33.2928 32.0101 33.4759 31.8957C33.6591 31.7812 33.8677 31.7135 34.0833 31.6985C34.9024 31.6685 35.5908 32.54 35.6411 33.6419C35.6913 34.7438 35.0532 35.6453 34.2341 35.7004H34.1838ZM34.1135 32.1944C33.9779 32.2064 33.8476 32.2522 33.7343 32.3274C33.6211 32.4027 33.5286 32.505 33.4653 32.6251C33.2616 32.9553 33.1651 33.3401 33.1889 33.727C33.219 34.5434 33.6914 35.2296 34.224 35.1946C34.7567 35.1595 35.1788 34.4683 35.1486 33.6569C35.0984 32.8605 34.6361 32.1944 34.1135 32.1944Z" fill="#231F20"/>
<path d="M25.0635 42.8829C24.0785 43.1522 23.0411 43.1677 22.0485 42.928C21.4505 42.7927 20.7269 42.3319 20.9279 41.7509L21.7017 41.3903C19.9962 39.771 18.7943 37.6967 18.2395 35.415C17.9728 34.2753 17.9518 33.0922 18.1779 31.9439C18.4039 30.7955 18.872 29.7081 19.551 28.7534C19.8628 28.2912 20.2677 27.8987 20.7401 27.6012C21.2125 27.3037 21.742 27.1076 22.2947 27.0255L20.4153 26.8752C21.2525 25.9825 22.2783 25.2866 23.4186 24.8379C24.5589 24.3891 25.785 24.1988 27.0081 24.2807L25.767 23.5144C27.1262 23.0583 28.5913 23.0177 29.9738 23.3979C31.3564 23.7781 32.5933 24.5618 33.5256 25.6481C33.9394 26.0932 34.2106 26.6513 34.3044 27.2509C34.4049 28.2526 33.4703 28.9037 32.7618 29.4647C33.5205 30.3863 33.8773 30.6066 33.7668 31.7987C33.6007 32.9041 33.2419 33.972 32.7065 34.9542C32.1191 35.9772 31.4556 36.955 30.7216 37.8792C29.1387 40.068 27.4302 42.2167 25.0635 42.8829Z" fill="#FFBF08"/>
<path d="M23.5108 43.3489C23.003 43.3456 22.4973 43.2851 22.0033 43.1685C21.5034 43.0723 21.0604 42.7869 20.7671 42.3722C20.706 42.2669 20.6686 42.1498 20.6573 42.0287C20.646 41.9077 20.6612 41.7856 20.7018 41.671C20.7127 41.6393 20.7299 41.6101 20.7523 41.5851C20.7748 41.5602 20.802 41.54 20.8324 41.5257L21.2847 41.3153C19.6604 39.7048 18.5174 37.6759 17.9833 35.4552C17.7106 34.2824 17.6905 33.0653 17.9244 31.8843C18.1583 30.7032 18.6407 29.5849 19.34 28.6034C19.7733 28.0187 20.3244 27.5307 20.9581 27.1709L20.3802 27.1258C20.333 27.1212 20.2879 27.1038 20.2498 27.0756C20.2118 27.0473 20.1821 27.0093 20.1641 26.9655C20.1472 26.9218 20.1429 26.8742 20.1518 26.8281C20.1607 26.7821 20.1824 26.7395 20.2144 26.7051C21.7469 25.081 23.854 24.1162 26.0886 24.0154L25.6162 23.7249C25.5766 23.7006 25.5447 23.6656 25.5243 23.6239C25.5038 23.5822 25.4956 23.5356 25.5007 23.4895C25.5055 23.4424 25.5237 23.3977 25.553 23.3604C25.5824 23.3232 25.6217 23.295 25.6665 23.2792C27.0752 22.8097 28.5922 22.7691 30.0241 23.1625C31.4561 23.5559 32.738 24.3655 33.7065 25.488C34.152 25.9716 34.4425 26.5768 34.5406 27.226C34.6462 28.2878 33.7969 28.959 33.1035 29.5049L33.209 29.6301C33.7919 30.3063 34.1085 30.682 33.9979 31.8189C33.8267 32.9606 33.4578 34.0639 32.9075 35.0796C32.4575 35.8979 31.9415 36.6785 31.3648 37.4136L30.9025 38.0347C29.3096 40.2335 27.5509 42.4373 25.1087 43.1235C24.5893 43.2728 24.0514 43.3487 23.5108 43.3489ZM21.139 41.9264C21.1339 41.9962 21.1497 42.0659 21.1842 42.1267C21.4063 42.4196 21.7311 42.6182 22.0937 42.6827C23.0475 42.9186 24.0463 42.9047 24.9931 42.6426C27.2795 41.9965 28.9729 39.8678 30.5206 37.7442L30.988 37.1131C31.5508 36.4019 32.055 35.6465 32.4955 34.8542C33.0046 33.8922 33.3445 32.8503 33.5005 31.7738C33.5909 30.8422 33.3799 30.6018 32.8271 29.9557L32.5507 29.6251C32.5286 29.6001 32.5122 29.5705 32.5026 29.5385C32.4931 29.5065 32.4906 29.4728 32.4955 29.4398C32.5027 29.3736 32.535 29.3127 32.5859 29.2695L32.7718 29.1243C33.4351 28.6234 34.1185 28.0724 34.0381 27.2761C33.9491 26.727 33.6991 26.2164 33.3196 25.8085C32.4794 24.8369 31.3863 24.1156 30.1609 23.724C28.9354 23.3325 27.6253 23.286 26.375 23.5897L27.1489 24.0906C27.1959 24.1209 27.2316 24.1656 27.2507 24.2181C27.2697 24.2706 27.271 24.3278 27.2544 24.3811C27.2367 24.4338 27.2019 24.4791 27.1555 24.5099C27.1091 24.5408 27.0537 24.5553 26.9981 24.5514C25.9003 24.4796 24.7993 24.6319 23.7625 24.9987C22.7257 25.3656 21.7748 25.9394 20.9681 26.685L22.3098 26.7952C22.3733 26.7991 22.4329 26.8273 22.476 26.874C22.5191 26.9207 22.5423 26.9822 22.5409 27.0457C22.5423 27.1078 22.5196 27.168 22.4774 27.2138C22.4353 27.2595 22.377 27.2872 22.3148 27.2911C21.0837 27.3963 20.1792 28.3579 19.747 28.9239C19.0897 29.8495 18.6369 30.9036 18.4186 32.0165C18.2003 33.1295 18.2215 34.2759 18.4807 35.3801C19.0208 37.6068 20.1911 39.6321 21.8525 41.2152C21.8815 41.2435 21.9031 41.2785 21.9155 41.317C21.9279 41.3555 21.9308 41.3965 21.9239 41.4364C21.917 41.4763 21.9005 41.5139 21.8758 41.546C21.8511 41.5781 21.819 41.6038 21.7822 41.6209L21.139 41.9264Z" fill="#231F20"/>
<path d="M33.6813 35.36C33.6813 35.36 35.6913 38.2049 35.3145 38.821C34.9376 39.437 33.601 39.0714 33.601 39.0714" fill="white"/>
<path d="M34.415 39.432C34.1233 39.4288 33.833 39.3901 33.5507 39.3168C33.4841 39.2995 33.427 39.2565 33.3922 39.1974C33.3573 39.1382 33.3474 39.0676 33.3648 39.0012C33.3821 38.9348 33.4252 38.878 33.4846 38.8432C33.5439 38.8085 33.6147 38.7986 33.6813 38.8159C33.9778 38.896 34.8873 39.0413 35.1185 38.6706C35.2692 38.4102 34.5105 36.9226 33.4954 35.4851C33.4709 35.459 33.4523 35.4279 33.4408 35.3939C33.4294 35.36 33.4254 35.324 33.4291 35.2884C33.4328 35.2528 33.4441 35.2184 33.4623 35.1875C33.4804 35.1566 33.505 35.13 33.5344 35.1093C33.5638 35.0887 33.5972 35.0747 33.6326 35.068C33.6679 35.0614 33.7042 35.0624 33.739 35.071C33.7739 35.0795 33.8066 35.0954 33.8347 35.1176C33.8629 35.1398 33.886 35.1678 33.9024 35.1996C34.5356 36.0962 35.9677 38.2549 35.5456 38.9361C35.4156 39.1085 35.2434 39.2446 35.0454 39.3314C34.8474 39.4183 34.6303 39.4529 34.415 39.432Z" fill="#231F20"/>
<path d="M32.9075 28.984C34.1637 29.9456 34.1336 34.6137 34.1637 35.9961C34.2106 37.9227 34.2106 39.8527 34.1637 41.7861C34.1336 43.0082 30.9578 43.1284 30.3849 42.7878L29.7769 47.7364C29.7769 47.7364 29.5156 48.0619 26.9177 46.96C24.3198 45.8581 24.2796 45.2471 24.2796 45.2471L24.3198 39.6674C24.3198 39.6674 26.4202 39.6173 27.586 37.088C28.7518 34.5586 28.591 30.732 28.591 30.732C28.591 30.732 31.6663 28.0423 32.9075 28.984Z" fill="white"/>
<path d="M29.5458 48.0118C28.5908 47.8877 27.6634 47.605 26.8021 47.1753C24.2595 46.0885 24.0233 45.4273 24.0132 45.252L24.0534 39.6473C24.0534 39.5822 24.0794 39.5198 24.1256 39.4738C24.1717 39.4278 24.2344 39.4019 24.2997 39.4019C24.3801 39.4019 26.2594 39.3168 27.3448 36.9677C28.4704 34.5235 28.3197 30.767 28.3197 30.7269C28.3182 30.6893 28.3251 30.6518 28.3399 30.6172C28.3547 30.5826 28.3769 30.5516 28.4051 30.5266C28.7367 30.2411 31.6965 27.7518 33.0432 28.7835C34.1537 29.63 34.3497 32.7103 34.3949 35.6103V35.9559C34.4401 37.8843 34.4401 39.8377 34.3949 41.761C34.3793 41.9687 34.3063 42.1681 34.1839 42.337C34.0615 42.5059 33.8945 42.6377 33.7015 42.7176C32.7188 43.1448 31.6317 43.2737 30.5759 43.0883L30.003 47.7363C29.9984 47.7819 29.9809 47.8253 29.9528 47.8615C29.9005 47.9153 29.8368 47.9567 29.7664 47.9827C29.696 48.0087 29.6206 48.0187 29.5458 48.0118ZM24.5208 45.1969C24.566 45.2871 24.9177 45.823 27.0081 46.6995C28.6614 47.4007 29.3146 47.5009 29.5206 47.5009L30.1086 42.7276C30.1127 42.6863 30.1274 42.6467 30.1511 42.6125C30.1748 42.5784 30.2069 42.5508 30.2442 42.5323C30.2809 42.5112 30.3225 42.5001 30.3649 42.5001C30.4072 42.5001 30.4488 42.5112 30.4854 42.5323C31.4759 42.7684 32.5165 42.677 33.4502 42.2719C33.7316 42.1216 33.8773 41.9413 33.8824 41.7409C33.9276 39.8276 33.9276 37.8843 33.8824 35.966V35.5903C33.8572 34.0527 33.7919 29.9706 32.7316 29.1542C31.8924 28.5181 29.6613 30.1008 28.8171 30.802C28.8171 31.4932 28.8624 34.809 27.8121 37.153C26.8071 39.3067 25.1891 39.7575 24.571 39.8527L24.5208 45.1969Z" fill="#231F20"/>
<path d="M34.0582 40.3385C34.0582 40.3385 33.3045 40.5739 31.4251 38.9711L34.0582 40.3385Z" fill="white"/>
<path d="M33.9125 40.6041C33.5457 40.6041 32.7115 40.4138 31.2492 39.1616C31.1986 39.1184 31.1672 39.057 31.1621 38.9908C31.1569 38.9245 31.1783 38.859 31.2216 38.8085C31.2649 38.758 31.3266 38.7268 31.393 38.7216C31.4595 38.7164 31.5252 38.7378 31.5759 38.7809C33.2643 40.2234 33.9728 40.0982 33.9778 40.0932C34.0416 40.0805 34.1078 40.0919 34.1636 40.1253C34.2193 40.1586 34.2606 40.2115 34.2793 40.2735C34.2967 40.3346 34.2897 40.4001 34.2597 40.4561C34.2298 40.5122 34.1791 40.5544 34.1185 40.574C34.0518 40.5946 33.9823 40.6047 33.9125 40.6041Z" fill="#231F20"/>
<path d="M30.395 42.7727C30.395 42.7727 28.7317 42.3119 27.9327 41.21C27.9327 41.21 27.0534 44.8863 30.0332 45.7178L30.395 42.7727Z" fill="#231F20"/>
<path d="M30.0081 45.9732H29.9427C26.767 45.1017 27.6514 41.2149 27.6614 41.1749C27.6691 41.1201 27.6951 41.0695 27.7352 41.0314C27.7754 40.9932 27.8273 40.9696 27.8825 40.9645C27.9291 40.953 27.9781 40.956 28.023 40.973C28.0679 40.99 28.1065 41.0202 28.1338 41.0597C28.7534 41.7619 29.5629 42.2714 30.4653 42.5272C30.5232 42.5445 30.5732 42.5816 30.6063 42.632C30.6394 42.6824 30.6535 42.7429 30.6462 42.8027L30.2844 45.7378C30.2793 45.7731 30.2668 45.8069 30.2478 45.8371C30.2287 45.8673 30.2036 45.8932 30.1739 45.9131C30.1288 45.9542 30.0691 45.9758 30.0081 45.9732ZM28.0684 41.7909C27.9629 42.7326 27.973 44.711 29.797 45.3922L30.0935 42.968C29.3427 42.7127 28.6532 42.3051 28.0684 41.7709V41.7909Z" fill="#231F20"/>
<path d="M32.8819 33.2945C32.8865 32.9128 32.7688 32.6019 32.6189 32.6001C32.4691 32.5983 32.3439 32.9063 32.3393 33.288C32.3346 33.6697 32.4524 33.9806 32.6022 33.9824C32.7521 33.9842 32.8773 33.6762 32.8819 33.2945Z" fill="#231F20"/>
<path d="M28.0383 35.7406C28.0053 35.7449 27.9718 35.7426 27.9396 35.734C27.9075 35.7253 27.8774 35.7105 27.851 35.6903C27.7978 35.6494 27.763 35.5891 27.7544 35.5227C27.7457 35.4563 27.7639 35.3892 27.8049 35.3361C27.8458 35.283 27.9063 35.2484 27.9729 35.2397L35.3195 33.4015C35.3841 33.3865 35.4521 33.3975 35.5086 33.4322C35.5651 33.467 35.6055 33.5225 35.621 33.5869C35.6292 33.6184 35.6311 33.6513 35.6264 33.6836C35.6218 33.7159 35.6107 33.747 35.5939 33.775C35.577 33.803 35.5547 33.8273 35.5283 33.8466C35.5019 33.8659 35.4719 33.8798 35.4401 33.8874L28.0986 35.7256L28.0383 35.7406Z" fill="#231F20"/>
<path d="M30.0081 36.7071C29.9416 36.2253 29.7395 35.772 29.4252 35.3999C29.2287 35.0796 28.9847 34.7909 28.7016 34.5434C28.5581 34.4206 28.3889 34.3312 28.2063 34.2818C28.0237 34.2324 27.8324 34.2242 27.6463 34.2579C27.4858 34.3028 27.3368 34.3814 27.2094 34.4886C27.0819 34.5957 26.9791 34.7288 26.9076 34.879C26.7634 35.1791 26.6895 35.5079 26.6916 35.8406C26.679 36.5662 26.8581 37.2822 27.2109 37.917C27.5637 38.5517 28.0778 39.0828 28.7016 39.4569L28.591 39.3467" fill="white"/>
<path d="M28.7166 39.7074C28.6723 39.7077 28.6288 39.6955 28.591 39.6723C27.9278 39.2755 27.3803 38.7126 27.003 38.0395C26.6257 37.3664 26.4317 36.6066 26.4403 35.8357C26.4372 35.4647 26.5197 35.0979 26.6815 34.7638C26.7705 34.5811 26.8977 34.4195 27.0546 34.29C27.2115 34.1604 27.3944 34.0658 27.591 34.0125C27.8131 33.9706 28.0417 33.9791 28.26 34.0372C28.4783 34.0952 28.6807 34.2015 28.8523 34.3481C29.1591 34.608 29.4236 34.9138 29.6362 35.2547C29.9754 35.6659 30.1914 36.1641 30.2593 36.6921C30.2621 36.7591 30.2383 36.8244 30.1932 36.8741C30.1481 36.9237 30.0852 36.9537 30.0181 36.9576C29.9851 36.9589 29.9522 36.9538 29.9212 36.9424C29.8902 36.9311 29.8617 36.9137 29.8374 36.8914C29.8132 36.8691 29.7936 36.8422 29.7797 36.8123C29.7659 36.7824 29.7581 36.7501 29.7568 36.7172C29.6841 36.2847 29.4987 35.8788 29.2191 35.5402C29.0349 35.2419 28.808 34.9719 28.5458 34.7388C28.4326 34.6392 28.2984 34.5664 28.1531 34.5256C28.0079 34.4849 27.8552 34.4773 27.7066 34.5034C27.5794 34.5396 27.4617 34.6033 27.3619 34.6898C27.262 34.7764 27.1824 34.8837 27.1287 35.0042C27.0025 35.272 26.9389 35.5649 26.9428 35.8607C26.9369 36.4964 27.0862 37.1239 27.3777 37.6893C27.6692 38.2547 28.0942 38.741 28.6161 39.1063C28.6483 39.1063 28.6801 39.113 28.7095 39.1259C28.7389 39.1389 28.7653 39.1578 28.787 39.1815L28.8975 39.2916C28.9365 39.337 28.9578 39.3947 28.9578 39.4544C28.9578 39.5141 28.9365 39.5718 28.8975 39.6172C28.8751 39.6437 28.8475 39.6653 28.8164 39.6808C28.7853 39.6963 28.7513 39.7054 28.7166 39.7074Z" fill="#231F20"/>
<path d="M61.5852 43.1935C60.9505 43.2854 60.3238 43.4261 59.7109 43.6143C59.4646 43.7745 59.0224 44.0901 59.0224 44.0901C59.2191 44.2008 59.4362 44.2706 59.6606 44.2954C59.8918 44.2954 61.2133 44.04 61.2133 44.04" fill="white"/>
<path d="M59.6354 44.5459C59.3778 44.5191 59.1283 44.4407 58.9018 44.3155C58.8649 44.2944 58.8337 44.2647 58.8109 44.2289C58.7882 44.1931 58.7745 44.1524 58.7711 44.1101C58.7684 44.0675 58.7767 44.0248 58.7951 43.9862C58.8136 43.9477 58.8417 43.9144 58.8767 43.8897C58.8767 43.8897 59.3239 43.5692 59.5752 43.3889C60.2174 43.1822 60.8791 43.0412 61.55 42.9681C61.6158 42.9579 61.6831 42.9736 61.7375 43.0119C61.7919 43.0503 61.8292 43.1082 61.8414 43.1735C61.8464 43.2061 61.8449 43.2393 61.837 43.2713C61.8291 43.3033 61.8149 43.3334 61.7953 43.3599C61.7757 43.3864 61.7511 43.4088 61.7228 43.4258C61.6945 43.4428 61.6631 43.4541 61.6304 43.459C61.0275 43.5396 60.4325 43.6703 59.8515 43.8497C59.7661 43.9048 59.6556 43.9749 59.55 44.05H59.6505C59.8063 44.05 60.6555 43.8897 61.158 43.7996C61.191 43.794 61.2248 43.7949 61.2574 43.8024C61.2901 43.8098 61.3209 43.8235 61.3482 43.8428C61.3755 43.8621 61.3987 43.8866 61.4165 43.9148C61.4343 43.9431 61.4464 43.9746 61.452 44.0074C61.4576 44.0403 61.4567 44.074 61.4492 44.1065C61.4418 44.139 61.428 44.1698 61.4086 44.197C61.3892 44.2242 61.3647 44.2473 61.3364 44.2651C61.308 44.2828 61.2765 44.2949 61.2435 44.3005C61.1078 44.3255 59.9018 44.5409 59.6656 44.5559L59.6354 44.5459Z" fill="#231F20"/>
<path d="M58.942 48.2722L60.7912 46.2687C60.7655 45.4768 60.8363 44.6846 61.0023 43.9097C61.2485 43.2034 61.746 42.357 62.0073 42.5323C62.2686 42.7076 62.0073 44.2252 62.4344 44.4356C62.8615 44.6459 63.6354 43.9798 63.6354 43.519C63.6354 43.0582 62.8565 42.5173 62.962 42.1466C63.0675 41.776 63.2484 41.2651 64.0977 41.7209C64.9469 42.1767 66.1077 43.0231 66.0775 44.2803C66.0474 45.5375 62.2786 51.1221 62.2786 51.1221L58.942 48.2722Z" fill="white"/>
<path d="M62.2636 51.3976C62.203 51.3973 62.1443 51.376 62.0977 51.3375L58.7762 48.4775C58.7502 48.4561 58.7292 48.4293 58.7144 48.3991C58.6997 48.3688 58.6916 48.3358 58.6908 48.3022C58.6889 48.2685 58.6936 48.2348 58.7049 48.203C58.7161 48.1712 58.7335 48.142 58.7561 48.1169L60.54 46.2186C60.5124 45.4291 60.5884 44.6394 60.7661 43.8696C60.9319 43.3687 61.3641 42.4621 61.7962 42.3219C61.8535 42.3032 61.9143 42.2984 61.9738 42.308C62.0333 42.3176 62.0895 42.3412 62.1379 42.377C62.344 42.5222 62.359 42.8428 62.3842 43.3336C62.3842 43.5841 62.4193 44.1801 62.5299 44.2602C62.5951 44.2722 62.6621 44.2699 62.7263 44.2534C62.7905 44.237 62.8504 44.2068 62.9017 44.1651C63.0171 44.1025 63.1182 44.0168 63.1986 43.9134C63.279 43.8099 63.3371 43.691 63.3691 43.564C63.3123 43.3631 63.2071 43.1791 63.0625 43.0281C62.8465 42.7426 62.6203 42.4421 62.7058 42.1265C62.7269 41.9735 62.7832 41.8274 62.8704 41.6997C62.9576 41.572 63.0732 41.4661 63.2083 41.3903C63.3762 41.3353 63.5548 41.3207 63.7294 41.3477C63.9041 41.3747 64.0699 41.4425 64.2133 41.5455C65.6253 42.3119 66.3589 43.2735 66.3288 44.3303C66.2936 45.6176 62.8766 50.7314 62.4897 51.3074C62.4697 51.337 62.4437 51.3621 62.4135 51.3811C62.3832 51.4 62.3492 51.4125 62.3138 51.4176L62.2636 51.3976ZM59.3038 48.2521L62.2133 50.7564C63.7208 48.5226 65.7861 45.1167 65.8112 44.2803C65.8414 43.1984 64.8062 42.417 63.962 41.9512C63.6253 41.7709 63.4595 41.7859 63.4093 41.816C63.359 41.8461 63.2434 42.0364 63.1932 42.2217C63.1681 42.3018 63.354 42.5473 63.4645 42.6925C63.6855 42.9214 63.828 43.2143 63.8716 43.529C63.8376 43.7386 63.7561 43.9378 63.6334 44.1114C63.5106 44.285 63.3497 44.4284 63.163 44.5307C63.0422 44.6227 62.8994 44.6817 62.7487 44.7019C62.598 44.7221 62.4447 44.7028 62.3038 44.6459C61.9319 44.4606 61.9068 43.8695 61.8817 43.2936C61.8817 43.1533 61.8817 42.958 61.8465 42.8277C61.5813 43.1737 61.3758 43.5614 61.2385 43.9747C61.0844 44.7225 61.0186 45.4857 61.0425 46.2487C61.0429 46.314 61.0176 46.3769 60.9721 46.424L59.3038 48.2521Z" fill="#231F20"/>
<path d="M33.2844 49.4093C33.3849 49.4093 34.7919 44.6661 34.9476 44.2554C35.2066 43.4416 35.5751 42.6665 36.0431 41.9514C36.2542 41.6382 36.53 41.3735 36.8521 41.1751C36.8824 41.1538 36.9171 41.1396 36.9536 41.1335C36.9902 41.1274 37.0276 41.1297 37.0632 41.14C37.0876 41.1547 37.1087 41.1743 37.1252 41.1976C37.1416 41.2209 37.153 41.2473 37.1586 41.2752C37.1955 41.384 37.21 41.499 37.2014 41.6134C37.1927 41.7278 37.1611 41.8394 37.1084 41.9414C37.3245 41.5407 37.5405 40.7644 38.1636 40.8395C38.9023 40.9297 38.7164 41.7811 38.4501 42.1968C38.4501 42.1968 39.048 40.9647 39.6159 41.3804C39.6924 41.4283 39.7581 41.4914 39.8088 41.5658C39.8596 41.6402 39.8944 41.7243 39.9109 41.8128C39.9274 41.9013 39.9254 41.9922 39.9049 42.0799C39.8844 42.1675 39.8458 42.25 39.7917 42.3221C39.7917 42.3221 40.1837 41.3704 40.7465 41.8212C41.3093 42.272 40.9927 42.9481 40.7465 43.4039C40.5003 43.8597 38.5556 46.2989 38.5556 46.2989C38.5556 46.2989 40.2892 44.8514 40.641 45.202C40.9927 45.5526 38.0179 48.7081 37.2943 50.2808L33.2844 49.4093Z" fill="white"/>
<path d="M37.2943 50.5062H37.2441L33.2241 49.6597C33.1917 49.6531 33.161 49.6403 33.1337 49.6219C33.1063 49.6035 33.0829 49.5799 33.0647 49.5524C33.0465 49.525 33.0339 49.4942 33.0276 49.4619C33.0213 49.4296 33.0215 49.3964 33.0281 49.3642C33.0372 49.322 33.0561 49.2826 33.0834 49.249C33.2341 48.9385 33.9125 46.7447 34.2843 45.5225C34.4904 44.8364 34.6562 44.3004 34.7014 44.1752C34.967 43.3398 35.3457 42.5445 35.827 41.8111C36.0574 41.4654 36.3632 41.1761 36.7215 40.9647C36.7852 40.9224 36.8583 40.8962 36.9345 40.8884C37.0106 40.8805 37.0876 40.8912 37.1587 40.9196C37.2139 40.9444 37.2621 40.9822 37.2994 41.0298C37.3902 40.8814 37.5218 40.762 37.6785 40.6857C37.8351 40.6094 38.0105 40.5793 38.1838 40.599C38.3224 40.607 38.4563 40.6516 38.572 40.7282C38.6877 40.8047 38.7808 40.9106 38.842 41.0348C38.8674 41.0913 38.8875 41.15 38.9023 41.2101C38.992 41.145 39.0923 41.0958 39.1988 41.0648C39.2946 41.0426 39.3941 41.0414 39.4904 41.0613C39.5867 41.0811 39.6775 41.1217 39.7566 41.18C39.8907 41.2776 40.0007 41.4043 40.0782 41.5507C40.1397 41.5143 40.2055 41.4857 40.2742 41.4655C40.3797 41.4372 40.4906 41.4347 40.5973 41.4582C40.7041 41.4817 40.8035 41.5307 40.8872 41.6008C41.6711 42.1868 41.1334 43.1785 40.9576 43.5041C40.5975 44.0552 40.2083 44.5868 39.7918 45.0968C40.2239 44.8764 40.6008 44.7963 40.7968 45.0067C41.1234 45.3322 40.6963 45.9232 39.4149 47.5911C38.6951 48.4563 38.0559 49.3851 37.5054 50.3659C37.4858 50.4059 37.456 50.4399 37.4189 50.4645C37.3818 50.4892 37.3388 50.5036 37.2943 50.5062ZM33.6361 49.229L37.1536 49.9702C37.7098 49.0269 38.3381 48.1277 39.033 47.2806C39.5307 46.6755 39.9825 46.0343 40.3847 45.3623C39.7755 45.6454 39.2116 46.0167 38.7114 46.4642C38.6657 46.5068 38.6056 46.5305 38.543 46.5305C38.4805 46.5305 38.4203 46.5068 38.3747 46.4642C38.3323 46.4195 38.3087 46.3604 38.3087 46.2989C38.3087 46.2374 38.3323 46.1783 38.3747 46.1336C38.9124 45.4574 40.3445 43.6293 40.5405 43.2787C40.8973 42.6175 40.9174 42.2419 40.6108 42.0115C40.5103 41.9363 40.4551 41.9514 40.435 41.9564C40.3033 42.0198 40.1971 42.1257 40.1335 42.2569C40.1029 42.3378 40.0606 42.4137 40.0078 42.4823C39.9731 42.5324 39.9206 42.5675 39.8609 42.5805C39.8012 42.5936 39.7388 42.5835 39.6862 42.5524C39.6324 42.5235 39.5913 42.4758 39.5709 42.4184C39.5505 42.361 39.5522 42.2981 39.5757 42.2419C39.6031 42.1707 39.6368 42.1019 39.6762 42.0365C39.6968 41.9518 39.6888 41.8627 39.6533 41.783C39.6179 41.7032 39.557 41.6374 39.4802 41.5958C39.4624 41.579 39.4404 41.5674 39.4165 41.5621C39.3926 41.5568 39.3678 41.5581 39.3445 41.5657C39.1536 41.6108 38.9224 41.9163 38.7817 42.1517C38.7482 42.2218 38.713 42.287 38.6762 42.3471C38.6403 42.3999 38.5858 42.4375 38.5235 42.4523C38.4612 42.4672 38.3955 42.4582 38.3395 42.4272C38.2838 42.3964 38.2421 42.3453 38.2234 42.2846C38.2046 42.2239 38.2102 42.1583 38.239 42.1016C38.239 42.1016 38.2843 42.0115 38.3345 41.9213C38.4428 41.7184 38.4697 41.4821 38.4099 41.2602C38.4099 41.2051 38.3295 41.1249 38.1486 41.1049C37.8471 41.0698 37.6461 41.3754 37.4702 41.8161C37.425 41.9113 37.3848 41.9964 37.3446 42.0716C37.3292 42.101 37.3082 42.1271 37.2826 42.1483C37.2571 42.1696 37.2276 42.1856 37.1958 42.1954C37.164 42.2051 37.1306 42.2085 37.0975 42.2053C37.0643 42.2022 37.0322 42.1924 37.0029 42.1768C36.9451 42.1441 36.9023 42.0903 36.8836 42.0267C36.8648 41.9632 36.8716 41.8949 36.9024 41.8362C36.9675 41.7132 36.9871 41.5714 36.9576 41.4355C36.6802 41.6083 36.4437 41.839 36.2642 42.1116C35.8065 42.8068 35.448 43.562 35.1989 44.3555C35.1537 44.4807 34.9929 45.0067 34.7868 45.6778C34.1386 47.7264 33.8271 48.7381 33.6361 49.229Z" fill="#231F20"/>
<path d="M35.6009 46.9751C35.6009 46.9751 22.4505 40.534 16.6466 47.7264C10.8427 54.9188 8.60658 77.3426 10.2799 80.1625C10.2799 80.1625 24.4253 81.1992 31.0784 73.3006L34.0381 58.8656C34.0381 58.8656 46.2187 69.4139 53.2939 63.9294C57.5965 60.5494 61.0395 56.2064 63.3439 51.2525L59.0978 47.5861C59.0978 47.5861 50.1834 56.0458 46.6458 54.9188C43.1082 53.7919 35.6009 46.9751 35.6009 46.9751Z" fill="#7800FF"/>
<path d="M52.0678 82.6467C52.0379 82.6515 52.0073 82.6515 51.9774 82.6467C48.4599 81.3545 29.0583 77.0571 28.8624 77.012C28.83 77.0049 28.7993 76.9914 28.7721 76.9725C28.7449 76.9535 28.7218 76.9293 28.7041 76.9014C28.6863 76.8734 28.6743 76.8423 28.6687 76.8097C28.6631 76.7771 28.664 76.7437 28.6714 76.7115C28.687 76.6469 28.7272 76.5909 28.7835 76.5554C28.8397 76.5199 28.9077 76.5076 28.9729 76.5211C29.7719 76.7014 48.5955 80.8686 52.1532 82.1759C52.1844 82.1876 52.2129 82.2053 52.2371 82.228C52.2614 82.2507 52.2808 82.278 52.2944 82.3083C52.3079 82.3386 52.3153 82.3713 52.3161 82.4044C52.3169 82.4376 52.3111 82.4706 52.299 82.5015C52.2797 82.5461 52.2473 82.5839 52.206 82.6099C52.1647 82.6358 52.1166 82.6486 52.0678 82.6467Z" fill="white"/>
<path d="M35.229 91.3867C35.1624 91.3867 35.0985 91.3603 35.0514 91.3133C35.0043 91.2664 34.9778 91.2027 34.9778 91.1363C34.9778 91.0698 35.0043 91.0061 35.0514 90.9592C35.0985 90.9122 35.1624 90.8858 35.229 90.8858L47.0679 90.6103C47.1337 90.609 47.1974 90.6334 47.2454 90.6784C47.2933 90.7233 47.3216 90.7852 47.3242 90.8508C47.3256 90.9177 47.3006 90.9824 47.2545 91.0311C47.2085 91.0798 47.1451 91.1086 47.078 91.1112L35.2391 91.3867H35.229Z" fill="white"/>
<path d="M68.4996 42.1015C67.6001 42.1015 62.1228 43.1984 62.1228 43.1984L62.1681 43.8646C62.1681 43.8646 68.0725 42.9279 68.59 42.8127C69.1076 42.6975 69.4041 42.1015 68.4996 42.1015Z" fill="white"/>
<path d="M62.168 44.1152C62.1114 44.1145 62.0567 44.0951 62.0123 44.0601C61.985 44.038 61.9625 44.0106 61.9461 43.9796C61.9297 43.9486 61.9197 43.9147 61.9168 43.8798L61.8766 43.2136C61.8719 43.1531 61.8898 43.093 61.9269 43.0449C61.964 42.9968 62.0177 42.9641 62.0776 42.9532C62.2987 42.9081 67.6051 41.8513 68.4995 41.8513C69.198 41.8513 69.3136 42.1868 69.3287 42.3521C69.3638 42.6677 69.0623 42.9882 68.6402 43.0834C68.1377 43.1986 62.4495 44.0851 62.2083 44.1352L62.168 44.1152ZM62.3892 43.3989V43.5742C63.5549 43.3889 68.0825 42.6677 68.5247 42.5725C68.6408 42.5504 68.7436 42.4839 68.8111 42.3872C68.7059 42.3618 68.5978 42.35 68.4895 42.3521C67.8312 42.3521 64.3338 43.0133 62.3892 43.3989Z" fill="#231F20"/>
<path d="M41.1485 63.7491H41.0681C35.3647 61.8758 29.0081 54.6734 28.7267 54.3678C28.6803 54.3202 28.6544 54.2564 28.6544 54.19C28.6544 54.1237 28.6803 54.0599 28.7267 54.0122C28.7513 53.9905 28.7799 53.9738 28.8111 53.9633C28.8422 53.9527 28.8751 53.9485 28.9079 53.9508C28.9407 53.9532 28.9726 53.962 29.0019 53.9768C29.0312 53.9917 29.0572 54.0122 29.0784 54.0373C29.1438 54.1124 35.6109 61.4401 41.2038 63.2732C41.235 63.2834 41.264 63.2997 41.2888 63.3211C41.3137 63.3426 41.3339 63.3688 41.3485 63.3982C41.363 63.4277 41.3715 63.4597 41.3734 63.4924C41.3753 63.5251 41.3706 63.5579 41.3596 63.5888C41.3439 63.6331 41.3156 63.672 41.2781 63.7004C41.2406 63.7289 41.1955 63.7458 41.1485 63.7491Z" fill="#231F20"/>
<path d="M83.3133 87.0042L98.6898 82.3962L98.8606 84.7002L82.4289 89.3131L83.3133 87.0042Z" fill="#231F20"/>
<path d="M82.4288 89.5486C82.3939 89.5491 82.3593 89.5422 82.3272 89.5284C82.2952 89.5146 82.2664 89.4942 82.2429 89.4684C82.2132 89.4337 82.193 89.392 82.1842 89.3473C82.1754 89.3025 82.1783 89.2563 82.1927 89.213L83.0771 86.899C83.0907 86.8634 83.1122 86.8314 83.1401 86.8053C83.1679 86.7793 83.2014 86.7599 83.2379 86.7487L98.6194 82.1408C98.6559 82.1313 98.6939 82.1296 98.7312 82.1356C98.7684 82.1416 98.8039 82.1553 98.8355 82.1758C98.866 82.1978 98.8913 82.2263 98.9096 82.2592C98.9278 82.2921 98.9386 82.3286 98.941 82.3661L99.1119 84.6701C99.1153 84.7268 99.0992 84.783 99.0663 84.8294C99.0334 84.8759 98.9857 84.9098 98.931 84.9256L82.4992 89.5486H82.4288ZM83.5042 87.1945L82.8409 88.9225L98.5943 84.5399L98.4636 82.7518L83.5042 87.1945Z" fill="#231F20"/>
<path d="M77.5295 42.0565H77.4793L69.7458 40.4087C69.7098 40.4018 69.6758 40.387 69.6463 40.3654C69.6168 40.3438 69.5925 40.3159 69.5752 40.2838C69.5579 40.2517 69.5479 40.2161 69.5462 40.1796C69.5444 40.1432 69.5508 40.1068 69.5649 40.0731L70.2432 38.3802C70.2679 38.3184 70.3162 38.2689 70.3774 38.2426C70.4387 38.2163 70.5079 38.2153 70.5699 38.2399C70.6318 38.2645 70.6815 38.3126 70.7079 38.3737C70.7343 38.4347 70.7352 38.5037 70.7106 38.5655L70.1428 39.9629L77.3737 41.5006L78.0521 39.7976C78.0643 39.767 78.0824 39.7391 78.1054 39.7155C78.1284 39.6919 78.1559 39.673 78.1862 39.66C78.2166 39.647 78.2492 39.64 78.2822 39.6396C78.3153 39.6391 78.3481 39.6452 78.3787 39.6574C78.4099 39.669 78.4383 39.6867 78.4624 39.7095C78.4865 39.7324 78.5057 39.7598 78.5188 39.7902C78.5319 39.8206 78.5388 39.8534 78.5389 39.8865C78.539 39.9196 78.5324 39.9524 78.5194 39.9829L77.7657 41.8812C77.7492 41.9311 77.7176 41.9747 77.6754 42.0061C77.6331 42.0374 77.5822 42.0551 77.5295 42.0565Z" fill="#D1D3D4"/>
<path d="M61.359 36.8174C61.3308 36.8225 61.3018 36.8225 61.2736 36.8174C61.2109 36.7947 61.1595 36.7485 61.1304 36.6886C61.1013 36.6287 61.0968 36.5599 61.1178 36.4968L63.0575 31.0925L60.2535 26.5446C60.2182 26.4881 60.2069 26.42 60.2219 26.3552C60.237 26.2904 60.2773 26.2342 60.3339 26.199C60.3906 26.1638 60.4589 26.1525 60.5239 26.1675C60.589 26.1825 60.6453 26.2227 60.6807 26.2791L63.56 30.9472C63.5801 30.9789 63.5928 31.0148 63.5971 31.052C63.6015 31.0893 63.5974 31.1271 63.5851 31.1626L61.6053 36.6721C61.5834 36.718 61.5482 36.7563 61.5044 36.7822C61.4605 36.808 61.4099 36.8203 61.359 36.8174Z" fill="#D1D3D4"/>
<path d="M65.2484 26.6599C65.2168 26.6647 65.1846 26.6647 65.1529 26.6599C65.0918 26.6343 65.0429 26.5861 65.0167 26.5254C64.9905 26.4647 64.9889 26.3962 65.0122 26.3344L67.3941 20.4291C67.4217 20.3687 67.4713 20.3211 67.533 20.2959C67.5946 20.2708 67.6636 20.2701 67.7257 20.2939C67.7564 20.306 67.7844 20.3241 67.8079 20.3471C67.8314 20.3702 67.8501 20.3977 67.8627 20.4281C67.8754 20.4584 67.8818 20.491 67.8816 20.5239C67.8813 20.5568 67.8745 20.5893 67.8614 20.6195L65.4796 26.4946C65.4636 26.543 65.4326 26.5851 65.391 26.6149C65.3495 26.6446 65.2995 26.6603 65.2484 26.6599Z" fill="#D1D3D4"/>
<path d="M34.3647 20.7848C34.3028 20.785 34.243 20.7619 34.1974 20.7201C34.1517 20.6784 34.1236 20.621 34.1185 20.5594L33.4954 14.2184C33.4894 14.152 33.5102 14.0859 33.553 14.0348C33.5959 13.9836 33.6574 13.9514 33.7241 13.9455C33.7907 13.9395 33.857 13.9601 33.9083 14.0029C33.9597 14.0456 33.9919 14.1069 33.9979 14.1734L34.616 20.5093C34.6195 20.5422 34.6164 20.5755 34.6068 20.6072C34.5973 20.6389 34.5816 20.6685 34.5606 20.6941C34.5396 20.7197 34.5136 20.7409 34.4843 20.7565C34.455 20.772 34.4229 20.7817 34.3899 20.7848H34.3647Z" fill="#D1D3D4"/>
<path d="M42.3947 49.4793C42.3647 49.4841 42.3342 49.4841 42.3042 49.4793C42.2422 49.4547 42.1922 49.4069 42.165 49.3461C42.1378 49.2853 42.1354 49.2163 42.1585 49.1538L48.5503 32.8856C48.5775 32.8285 48.6254 32.7838 48.6843 32.7604C48.7432 32.7371 48.8088 32.7367 48.8679 32.7596C48.9271 32.7824 48.9754 32.8266 49.0031 32.8835C49.0309 32.9403 49.0361 33.0055 49.0176 33.0659L42.6258 49.3341C42.6066 49.3787 42.5742 49.4165 42.5329 49.4425C42.4916 49.4684 42.4434 49.4813 42.3947 49.4793Z" fill="#D1D3D4"/>
<path d="M76.1225 59.5918H76.0723L64.8263 57.403C64.7611 57.3908 64.7034 57.3534 64.6658 57.299C64.6281 57.2446 64.6136 57.1775 64.6253 57.1125C64.6387 57.0471 64.6772 56.9895 64.7326 56.9521C64.788 56.9147 64.8559 56.9003 64.9218 56.9121L76.1677 59.1009C76.2003 59.1063 76.2315 59.1182 76.2594 59.1358C76.2873 59.1535 76.3113 59.1766 76.33 59.2037C76.3488 59.2308 76.3619 59.2614 76.3685 59.2936C76.3752 59.3259 76.3753 59.3591 76.3687 59.3914C76.3563 59.4475 76.3252 59.4979 76.2806 59.5342C76.2359 59.5706 76.1802 59.5909 76.1225 59.5918Z" fill="#D1D3D4"/>
<path d="M75.007 62.502H74.9617L63.7107 60.3132C63.6783 60.3078 63.6472 60.2959 63.6196 60.2782C63.5919 60.2605 63.5682 60.2373 63.5498 60.2101C63.5314 60.1829 63.5189 60.1522 63.5128 60.12C63.5068 60.0878 63.5075 60.0546 63.5148 60.0227C63.527 59.9577 63.5645 59.9002 63.6191 59.8626C63.6737 59.8251 63.7409 59.8106 63.8062 59.8223L75.0572 62.0011C75.0897 62.0064 75.1207 62.0183 75.1484 62.036C75.176 62.0538 75.1998 62.0769 75.2181 62.1042C75.2365 62.1314 75.2491 62.162 75.2551 62.1943C75.2611 62.2265 75.2605 62.2596 75.2532 62.2916C75.2447 62.3504 75.215 62.4042 75.1697 62.4429C75.1244 62.4816 75.0666 62.5026 75.007 62.502Z" fill="#D1D3D4"/>
<path d="M73.3738 65.2515H73.3236L62.0776 63.0678C62.0121 63.0544 61.9543 63.016 61.9167 62.9608C61.8792 62.9056 61.8648 62.8379 61.8766 62.7722C61.8832 62.74 61.8961 62.7094 61.9146 62.6821C61.9331 62.6549 61.9568 62.6315 61.9843 62.6134C62.0118 62.5952 62.0427 62.5827 62.0751 62.5764C62.1075 62.5702 62.1408 62.5703 62.1731 62.5769L73.4191 64.7607C73.4857 64.7667 73.5472 64.7988 73.5901 64.85C73.633 64.9012 73.6537 64.9672 73.6477 65.0336C73.6417 65.1001 73.6095 65.1614 73.5581 65.2041C73.5068 65.2469 73.4405 65.2675 73.3738 65.2615V65.2515Z" fill="#D1D3D4"/>
<path d="M51.5 23.6798H51.4598L42.7816 22.1772C42.7449 22.1723 42.7098 22.1589 42.6793 22.138C42.6487 22.1171 42.6235 22.0893 42.6057 22.057C42.5897 22.0233 42.5813 21.9865 42.5813 21.9493C42.5813 21.912 42.5897 21.8752 42.6057 21.8416L45.7765 13.5172C45.8002 13.4557 45.8472 13.406 45.9074 13.3788C45.9676 13.3516 46.0361 13.3491 46.0981 13.3719C46.1291 13.3831 46.1575 13.4003 46.1817 13.4225C46.2059 13.4448 46.2253 13.4717 46.2389 13.5015C46.2525 13.5314 46.2599 13.5637 46.2608 13.5965C46.2616 13.6293 46.2559 13.662 46.2438 13.6925L43.1836 21.7364L51.3593 23.1338L54.5301 15.12C54.5558 15.0589 54.6039 15.0099 54.6645 14.9829C54.7252 14.9559 54.7939 14.953 54.8567 14.9747C54.8874 14.9869 54.9154 15.0049 54.9391 15.0279C54.9628 15.0508 54.9817 15.0782 54.9948 15.1084C55.0078 15.1387 55.0148 15.1712 55.0152 15.2041C55.0157 15.237 55.0096 15.2697 54.9974 15.3003L51.7563 23.5195C51.7361 23.5699 51.7005 23.6125 51.6544 23.6413C51.6083 23.6702 51.5542 23.6836 51.5 23.6798Z" fill="#D1D3D4"/>
<path d="M47.0428 11.3835H46.9775L36.0984 9.46015C36.0654 9.45423 36.0339 9.44189 36.0057 9.42384C35.9775 9.40579 35.9531 9.38237 35.934 9.35493C35.9148 9.32749 35.9013 9.29656 35.8942 9.26391C35.887 9.23126 35.8864 9.19753 35.8923 9.16464C35.8983 9.13175 35.9107 9.10035 35.9288 9.07224C35.9469 9.04412 35.9704 9.01983 35.9979 9.00076C36.0254 8.98169 36.0565 8.96822 36.0892 8.9611C36.122 8.95398 36.1558 8.95337 36.1888 8.95929L47.088 10.9127C47.1547 10.9186 47.2162 10.9508 47.2591 11.002C47.302 11.0531 47.3227 11.1192 47.3167 11.1856C47.3107 11.2521 47.2785 11.3134 47.2271 11.3561C47.1757 11.3989 47.1095 11.4195 47.0428 11.4135V11.3835Z" fill="#D1D3D4"/>
<path d="M76.8109 39.8628C76.7736 39.8632 76.7366 39.8553 76.7027 39.8397C76.6688 39.8241 76.6388 39.8012 76.615 39.7726L71.8663 33.9976C71.8247 33.9463 71.805 33.8808 71.8116 33.8151C71.8182 33.7495 71.8505 33.6891 71.9015 33.647C71.9271 33.6257 71.9567 33.6096 71.9886 33.5999C72.0205 33.5901 72.054 33.5867 72.0873 33.59C72.1205 33.5932 72.1527 33.603 72.1821 33.6189C72.2114 33.6347 72.2373 33.6562 72.2583 33.6821L77.0019 39.4621C77.0233 39.4876 77.0394 39.5171 77.0492 39.5489C77.059 39.5807 77.0624 39.6141 77.0591 39.6472C77.0559 39.6803 77.046 39.7125 77.0301 39.7417C77.0143 39.771 76.9927 39.7968 76.9667 39.8177C76.921 39.8491 76.8664 39.8649 76.8109 39.8628Z" fill="#D1D3D4"/>
</svg>
