<svg width="338" height="330" viewBox="0 0 338 330" fill="none" xmlns="http://www.w3.org/2000/svg">
<path d="M259.89 256.719C267.167 250.138 273.73 242.637 279.451 234.311C286.813 223.577 292.472 211.884 296.268 199.568L292.801 198.498C289.112 210.47 283.611 221.827 276.449 232.261C257.985 259.181 230.347 277.188 198.636 282.979C167.329 288.684 135.627 281.743 109.366 263.413C82.5002 244.665 64.5808 216.4 58.9183 183.811C53.3028 151.522 60.3853 118.909 78.861 91.9792C95.2269 68.1261 118.353 51.4525 145.741 43.7876L144.762 40.2961C116.55 48.2012 92.7238 65.358 75.8651 89.9356C56.8542 117.65 49.5662 151.211 55.3431 184.437C61.1716 217.981 79.6177 247.089 107.289 266.396C134.351 285.278 167.022 292.437 199.29 286.55C222.143 282.375 242.944 272.041 259.89 256.719Z" fill="#F08300"/>
<path d="M195.528 263.347C169.224 268.142 142.588 262.307 120.523 246.91C97.9676 231.172 82.9297 207.447 78.1755 180.098C73.4646 153.01 79.4096 125.652 94.9061 103.068C110.409 80.4672 133.614 65.3525 160.248 60.4836C180.001 56.8798 200.134 59.2839 218.462 67.4395C249.597 81.2872 271.701 109.802 277.6 143.733C282.311 170.82 276.366 198.178 260.87 220.762C256.207 227.553 250.863 233.662 244.925 239.031C231.114 251.519 214.161 259.94 195.528 263.347ZM97.896 105.117C82.9342 126.928 77.2005 153.333 81.7448 179.477C86.3275 205.865 100.833 228.753 122.588 243.937C143.853 258.77 169.519 264.399 194.873 259.776C220.546 255.089 242.924 240.508 257.874 218.719C272.835 196.919 278.564 170.508 274.019 144.364C268.33 111.627 247.015 84.1151 216.983 70.7623C199.327 62.9109 179.933 60.5891 160.891 64.0652C142.934 67.3424 126.588 75.4612 113.272 87.5014C107.559 92.6677 102.389 98.5655 97.896 105.117Z" fill="#F08300"/>
<path d="M191.401 241.214C170.883 244.95 150.112 240.399 132.904 228.393C115.316 216.12 103.588 197.618 99.8764 176.29C96.2052 155.172 100.837 133.843 112.915 116.225C124.994 98.6076 143.098 86.8121 163.866 83.0209C179.275 80.2085 194.977 82.0912 209.266 88.4539C233.55 99.2468 250.784 121.492 255.385 147.95C259.056 169.068 254.425 190.397 242.352 208.009C238.722 213.306 234.545 218.068 229.92 222.251C219.153 231.997 205.936 238.56 191.401 241.214ZM115.906 118.278C104.357 135.106 99.9415 155.49 103.452 175.671C106.992 196.04 118.188 213.705 134.983 225.42C151.392 236.874 171.2 241.214 190.753 237.654C210.567 234.04 227.84 222.782 239.372 205.969C250.922 189.14 255.337 168.757 251.827 148.575C247.435 123.309 230.984 102.071 207.806 91.7668C194.182 85.7021 179.218 83.9128 164.531 86.5873C150.667 89.1175 138.061 95.3846 127.783 104.677C123.359 108.668 119.372 113.226 115.906 118.278Z" fill="#F08300"/>
</svg>
