<svg width="865" height="652" viewBox="0 0 865 652" fill="none" xmlns="http://www.w3.org/2000/svg">
<path d="M303.766 533.487C303.766 533.487 317.563 575.703 320.007 574.903C322.45 574.103 371.561 545.663 369.939 540.797C368.317 535.931 334.214 546.074 334.214 546.074L326.537 523.344" fill="white"/>
<path d="M320.05 575.984C319.825 575.988 319.602 575.936 319.401 575.832C316.352 574.297 306.816 545.944 302.858 533.833C302.811 533.697 302.791 533.553 302.801 533.409C302.81 533.265 302.848 533.124 302.913 532.995C302.977 532.866 303.067 532.752 303.176 532.658C303.286 532.564 303.413 532.493 303.55 532.449C303.825 532.367 304.122 532.396 304.376 532.529C304.631 532.663 304.823 532.89 304.913 533.163C310.795 551.156 317.996 570.988 320.201 573.691C326.884 570.837 368.706 545.274 368.987 541.035C368.404 539.305 353.569 541.468 334.625 547.112C334.356 547.184 334.069 547.152 333.822 547.024C333.574 546.896 333.382 546.681 333.285 546.42L325.586 523.69C325.496 523.418 325.515 523.121 325.64 522.862C325.765 522.604 325.986 522.404 326.256 522.306C326.532 522.222 326.829 522.248 327.086 522.376C327.344 522.505 327.542 522.728 327.64 522.998L335.015 544.625C365.787 535.563 370.48 538.591 371.063 540.3C371.496 541.576 372.383 544.214 347.276 560.131C334.906 567.939 321.953 575.27 320.569 575.768C320.413 575.875 320.236 575.949 320.05 575.984Z" fill="#231F20"/>
<path d="M245.314 462.854C245.314 462.854 216.899 463.265 216.099 465.687C215.298 468.11 206.757 513.266 214.477 509.547C222.197 505.827 234.761 480.307 234.761 480.307L248.969 478.144L245.314 462.854Z" fill="white"/>
<path d="M213.633 510.823C213.044 510.82 212.476 510.605 212.033 510.217C206.735 505.502 214.542 466.963 215.061 465.341C215.32 464.563 216.12 462.184 245.336 461.773C245.578 461.783 245.812 461.868 246.005 462.014C246.198 462.161 246.342 462.364 246.417 462.595L250.071 477.842C250.132 478.132 250.078 478.434 249.92 478.685C249.839 478.812 249.731 478.921 249.604 479.003C249.477 479.085 249.334 479.139 249.185 479.161L235.518 481.324C233.658 485.065 222.413 507.038 214.974 510.563C214.552 510.748 214.094 510.836 213.633 510.823ZM217.072 466.207C215.926 470.164 209.784 505.329 213.482 508.595C213.482 508.595 213.633 508.746 214.001 508.595C220.056 505.74 230.328 486.968 233.788 479.875C233.86 479.717 233.972 479.581 234.112 479.479C234.252 479.376 234.416 479.312 234.588 479.291L247.563 477.128L244.384 463.892C232.144 464.152 218.888 465.039 217.072 466.207Z" fill="#231F20"/>
<path d="M407.004 130.277L419.157 123.313C419.157 123.313 422.574 112.37 426.013 109.732C429.451 107.093 434.187 110.683 434.187 110.683C434.187 110.683 446.751 100.194 449.778 100.54C452.806 100.887 448.805 106.25 445.713 108.953L439.225 114.641C439.225 114.641 444.913 126.233 441.626 130.796C438.339 135.36 411.87 149.46 411.87 149.46L407.004 130.277Z" fill="white"/>
<path d="M411.826 150.52C411.676 150.541 411.523 150.541 411.372 150.52C411.225 150.448 411.094 150.345 410.99 150.218C410.885 150.091 410.809 149.944 410.767 149.785L405.966 130.623C405.907 130.398 405.923 130.159 406.013 129.944C406.103 129.729 406.261 129.55 406.463 129.434L418.249 122.708C418.984 120.545 422.012 111.549 425.277 108.953C428.543 106.358 432.435 108.413 434.057 109.408C437.647 106.445 446.794 99.2213 449.822 99.5457C450.256 99.5665 450.675 99.718 451.022 99.9804C451.369 100.243 451.629 100.604 451.768 101.016C452.59 103.633 448.027 108.391 446.383 109.862L440.501 115.009C441.82 117.864 445.626 127.12 442.447 131.532C439.269 135.944 415.049 149.049 412.324 150.498C412.163 150.548 411.991 150.555 411.826 150.52ZM408.258 130.818L412.583 147.838C420.606 143.513 438.295 133.543 440.696 130.148C443.096 126.752 439.701 118.166 438.209 115.009C438.106 114.794 438.076 114.551 438.123 114.317C438.169 114.083 438.291 113.87 438.468 113.711L444.956 108.045C447.875 105.471 449.93 102.227 449.713 101.557C448.048 101.406 440.696 106.618 434.835 111.505C434.645 111.656 434.408 111.738 434.165 111.738C433.922 111.738 433.686 111.656 433.495 111.505C433.495 111.505 429.321 108.413 426.64 110.532C423.958 112.652 421.125 120.653 420.152 123.508C420.064 123.768 419.888 123.99 419.655 124.135L408.258 130.818Z" fill="#231F20"/>
<path d="M450 112L440.5 115.5L440 116L442 120.5L453.5 115.5L460 111.5V109.5L458.5 109L450 112Z" fill="white"/>
<path d="M440.5 115L457 109.5C458.333 109 460.9 108.5 460.5 110.5C460.1 112.5 448 118 442 120.5L440 115.5H440.5" stroke="#231F20" stroke-width="2"/>
<path d="M259.803 201.516C269.318 206.836 406.55 126.709 406.55 126.709L426.986 147.86L288.045 248.511L259.803 201.516Z" fill="#7800FF"/>
<path d="M306.037 200.175C306.037 200.175 224.403 200.175 203.362 216.936C187.77 229.35 184.829 315.9 184.829 315.9L340.702 303.746C340.702 303.746 349.655 212.503 306.037 200.175Z" fill="#7800FF"/>
<path d="M317.887 250.717C317.624 250.717 317.371 250.612 317.184 250.426C316.998 250.239 316.893 249.986 316.893 249.722V207.269C316.893 207.005 316.998 206.752 317.184 206.565C317.371 206.379 317.624 206.274 317.887 206.274C318.151 206.274 318.404 206.379 318.591 206.565C318.777 206.752 318.882 207.005 318.882 207.269V249.722C318.882 249.986 318.777 250.239 318.591 250.426C318.404 250.612 318.151 250.717 317.887 250.717Z" fill="#231F20"/>
<path d="M494.629 428.9C493.288 427.841 444.891 422.888 441.885 423.818C438.879 424.748 426.748 464.757 426.986 468.175C427.375 475.009 454.103 447.629 454.103 447.629L494.629 455.761" fill="white"/>
<path d="M427.851 470.315C427.637 470.36 427.416 470.36 427.202 470.315C426.806 470.166 426.468 469.895 426.235 469.541C426.002 469.188 425.886 468.77 425.904 468.347C425.753 465.795 437.387 424.207 441.582 422.931C444.74 421.958 493.483 426.737 495.299 428.208C495.522 428.386 495.665 428.646 495.697 428.929C495.73 429.213 495.649 429.498 495.472 429.722C495.309 429.929 495.077 430.069 494.818 430.117C494.559 430.165 494.292 430.117 494.066 429.981C490.671 428.705 444.934 424.294 442.166 425.007C439.571 426.997 427.807 464.909 428.024 468.261C430.186 468.931 442.858 457.685 453.282 447.023C453.407 446.892 453.565 446.795 453.739 446.742C453.914 446.689 454.099 446.681 454.276 446.721L494.78 454.787C495.062 454.845 495.311 455.011 495.472 455.249C495.634 455.488 495.696 455.78 495.645 456.063C495.617 456.203 495.561 456.335 495.482 456.452C495.402 456.57 495.3 456.671 495.182 456.749C495.063 456.828 494.931 456.882 494.791 456.909C494.652 456.936 494.508 456.935 494.369 456.907L454.428 448.948C447.637 455.761 432.803 470.315 427.851 470.315Z" fill="#231F20"/>
<path d="M673.922 525.226C673.922 526.631 687.091 568.89 690.94 569.561C694.79 570.231 749.025 553.124 744.549 550.097C740.072 547.069 715.528 549.296 715.528 549.296L702.445 514.153" fill="white"/>
<path d="M690.962 570.642H690.746C685.642 569.734 672.862 525.723 672.84 525.226C672.817 524.939 672.909 524.655 673.096 524.436C673.282 524.217 673.548 524.081 673.835 524.058C674.122 524.035 674.406 524.127 674.625 524.313C674.844 524.5 674.98 524.766 675.003 525.053C675.608 528.881 687.978 566.771 691.243 568.458C692.692 568.652 704.045 565.603 718.08 560.953C733.217 555.914 741.543 552.303 743.424 550.681C739.38 548.972 724.87 549.513 715.636 550.334C715.402 550.358 715.166 550.303 714.966 550.178C714.766 550.052 714.614 549.864 714.533 549.642L701.558 514.542C701.489 514.407 701.449 514.258 701.441 514.106C701.433 513.954 701.458 513.802 701.513 513.66C701.568 513.518 701.652 513.389 701.76 513.282C701.868 513.175 701.998 513.092 702.14 513.038C702.283 512.984 702.435 512.961 702.587 512.971C702.739 512.98 702.887 513.021 703.022 513.092C703.157 513.162 703.275 513.261 703.37 513.38C703.464 513.5 703.532 513.638 703.569 513.785L716.35 548.107C721.172 547.718 740.937 546.269 745.262 549.167C745.579 549.36 745.814 549.662 745.926 550.016C746.037 550.369 746.016 550.752 745.868 551.091C743.641 556.433 695.568 570.642 690.962 570.642Z" fill="#231F20"/>
<path d="M616.853 323.21C616.853 323.21 595.488 483.486 573.603 478.599C551.719 473.711 464.159 455.09 464.159 455.09L472.074 420.487C472.074 420.487 534.375 427.105 542.679 427.711C550.983 428.316 545.145 315.922 545.145 315.922L616.853 323.21Z" fill="#231F20"/>
<path d="M574.555 479.788C574.14 479.787 573.727 479.744 573.322 479.658C551.697 474.857 464.765 456.323 463.9 456.15C463.616 456.086 463.368 455.916 463.208 455.674C463.051 455.43 462.997 455.135 463.056 454.852L470.971 420.249C471.036 419.994 471.189 419.77 471.402 419.616C471.615 419.462 471.876 419.387 472.139 419.406C472.766 419.406 534.527 426.045 542.723 426.629C547.048 424.466 546.767 368.691 544.042 315.965C544.029 315.812 544.052 315.658 544.108 315.516C544.164 315.373 544.252 315.246 544.366 315.143C544.479 315.032 544.616 314.948 544.765 314.895C544.914 314.843 545.074 314.824 545.231 314.84L616.961 322.15C617.109 322.162 617.253 322.204 617.383 322.275C617.514 322.346 617.628 322.443 617.718 322.561C617.806 322.673 617.871 322.802 617.908 322.939C617.945 323.077 617.954 323.22 617.934 323.361C617.178 329.114 598.948 464.152 578.447 478.469C577.314 479.295 575.956 479.755 574.555 479.788ZM465.413 454.268C475.512 456.431 553.449 473.019 573.798 477.56C574.398 477.661 575.012 477.634 575.601 477.481C576.19 477.329 576.739 477.053 577.215 476.674C595.985 463.546 613.826 337.375 615.642 324.161L546.248 317.111C547.026 332.444 551.2 421.287 544.236 428.1C544.021 428.327 543.758 428.505 543.467 428.621C543.176 428.736 542.863 428.787 542.55 428.77C534.894 428.208 480.767 422.477 472.874 421.633L465.413 454.268Z" fill="#231F20"/>
<path d="M597.391 335.775L672.559 548.431L714.814 525.767L650.047 323.21L597.391 335.775Z" fill="#231F20"/>
<path d="M672.537 549.513C672.409 549.537 672.277 549.537 672.148 549.513C671.999 549.459 671.864 549.372 671.752 549.26C671.639 549.148 671.553 549.013 671.499 548.864L596.353 336.208C596.294 336.067 596.263 335.916 596.263 335.764C596.263 335.612 596.294 335.461 596.353 335.321C596.513 335.056 596.768 334.863 597.066 334.78L649.701 322.215C649.968 322.148 650.25 322.188 650.488 322.325C650.726 322.462 650.901 322.686 650.977 322.95L715.852 525.507C715.928 525.747 715.917 526.005 715.822 526.238C715.728 526.471 715.555 526.664 715.333 526.783L673.056 549.448C672.892 549.515 672.713 549.538 672.537 549.513ZM598.796 336.554L673.121 546.896L713.495 525.269L649.312 324.486L598.796 336.554Z" fill="#231F20"/>
<path d="M659.173 238.584L685.491 229.934C684.28 228.16 671.002 187.372 655.216 179.608C641.441 170.482 615.988 172.212 587.184 174.223C577.942 174.678 568.829 176.575 560.174 179.846C527.736 192.822 523.065 235.535 523.065 235.535L553.016 245.981C553.016 245.981 548.172 304.092 543.609 334.478C543.609 334.478 580.112 348.319 661.703 334.802C661.725 334.651 659.325 247.17 659.173 238.584Z" fill="#7800FF"/>
<path d="M624.984 190.637L595.769 257.313L588.611 192.995L624.984 190.637Z" fill="#231F20"/>
<path d="M595.769 258.394H595.617C595.382 258.358 595.166 258.245 595.002 258.073C594.838 257.901 594.735 257.679 594.709 257.443L587.551 193.103C587.529 192.816 587.614 192.531 587.789 192.303C587.882 192.19 587.998 192.097 588.128 192.031C588.258 191.964 588.4 191.924 588.546 191.914L624.963 189.556C625.146 189.548 625.329 189.586 625.495 189.665C625.661 189.744 625.805 189.863 625.914 190.01C626.022 190.163 626.089 190.34 626.108 190.526C626.127 190.712 626.097 190.899 626.022 191.07L596.85 257.745C596.758 257.951 596.605 258.124 596.411 258.24C596.218 258.356 595.994 258.41 595.769 258.394ZM589.822 194.076L596.309 253.29L623.297 191.914L589.822 194.076Z" fill="#231F20"/>
<path d="M640.251 106.747C636.627 102.627 631.877 99.6575 626.585 98.2049C621.294 96.7522 615.693 96.8799 610.474 98.5723C601.218 101.557 592.784 106.726 583.507 109.688C574.23 112.651 563.288 113.041 555.611 107.072C555.659 109.302 556.182 111.497 557.147 113.509C558.112 115.521 559.496 117.304 561.206 118.737C562.916 120.171 564.912 121.222 567.061 121.821C569.211 122.42 571.463 122.553 573.668 122.21C573.322 124.373 570.381 124.697 568.283 124.243C566.186 123.789 563.504 123.27 562.207 125C561.865 125.576 561.662 126.224 561.613 126.892C561.564 127.56 561.671 128.23 561.926 128.85C563.504 134.062 568.262 137.501 572.738 140.658C579.226 145.135 585.713 146.065 592.33 149.157C599.337 152.466 604.57 157.051 612.615 158.176C619.931 159.161 627.349 157.337 633.375 153.072C637.159 150.39 644.857 146.735 643.344 140.982C642.608 138.257 647.409 133.067 647.669 129.066C648.045 125.035 647.58 120.97 646.303 117.128C645.026 113.286 642.965 109.751 640.251 106.747Z" fill="white"/>
<path d="M616.312 159.473C614.995 159.477 613.68 159.384 612.377 159.192C607.199 158.233 602.265 156.248 597.866 153.353C595.942 152.228 593.931 151.19 591.768 150.066C589.388 148.981 586.948 148.035 584.459 147.233C580.062 145.914 575.876 143.977 572.024 141.48C567.029 138.02 562.423 134.473 560.801 129.109C560.491 128.327 560.371 127.482 560.45 126.644C560.529 125.805 560.805 124.998 561.255 124.287C561.878 123.58 562.685 123.058 563.585 122.78C564.485 122.501 565.445 122.476 566.359 122.708C564.224 122.006 562.243 120.905 560.52 119.464C558.643 117.962 557.13 116.057 556.092 113.888C555.055 111.72 554.521 109.346 554.53 106.942C554.531 106.742 554.588 106.547 554.695 106.379C554.803 106.211 554.955 106.076 555.135 105.99C555.317 105.908 555.517 105.877 555.715 105.9C555.913 105.923 556.102 105.999 556.26 106.12C565.364 113.192 578.123 110.186 583.183 108.564C587.764 107.068 592.249 105.291 596.612 103.244C601.007 101.11 605.528 99.2471 610.149 97.6641C615.563 95.9015 621.374 95.7631 626.866 97.2658C632.358 98.7685 637.289 101.847 641.051 106.12C643.86 109.225 645.995 112.879 647.32 116.851C648.645 120.823 649.132 125.026 648.75 129.196C648.327 131.503 647.461 133.707 646.198 135.684C645.182 137.544 644.036 139.663 644.317 140.68C645.787 146.259 640.122 149.914 635.991 152.575C635.256 153.05 634.542 153.504 633.937 153.937C628.766 157.542 622.615 159.474 616.312 159.473ZM565.104 124.871C564.73 124.828 564.351 124.875 563.998 125.006C563.644 125.138 563.327 125.351 563.072 125.628C562.852 126.076 562.729 126.566 562.71 127.065C562.691 127.564 562.778 128.062 562.964 128.526C564.369 133.219 568.673 136.506 573.344 139.75C577.032 142.137 581.045 143.979 585.259 145.221C587.816 146.071 590.328 147.053 592.784 148.163C594.947 149.201 597.109 150.325 599.034 151.515C603.192 154.276 607.861 156.173 612.766 157.095C619.806 158.012 626.934 156.261 632.747 152.185C633.375 151.731 634.11 151.255 634.91 150.758C638.694 148.314 643.387 145.286 642.306 141.242C641.83 139.382 642.998 137.198 644.468 134.754C645.514 132.964 646.232 131.001 646.587 128.958C646.938 125.093 646.485 121.198 645.257 117.517C644.029 113.836 642.052 110.449 639.451 107.569C635.965 103.609 631.397 100.756 626.31 99.3611C621.222 97.9661 615.837 98.0904 610.82 99.7186C606.277 101.271 601.835 103.106 597.52 105.212C593.078 107.351 588.514 109.228 583.853 110.835C573.43 114.165 563.72 113.581 556.822 109.321C557.41 112.726 559.216 115.801 561.904 117.972C563.46 119.348 565.306 120.355 567.306 120.917C569.306 121.478 571.407 121.581 573.452 121.216C573.621 121.183 573.796 121.192 573.962 121.241C574.127 121.29 574.278 121.377 574.403 121.497C574.537 121.612 574.637 121.761 574.694 121.929C574.751 122.096 574.763 122.275 574.728 122.448C574.653 122.888 574.488 123.308 574.243 123.681C573.997 124.053 573.676 124.37 573.3 124.611C571.702 125.508 569.821 125.756 568.045 125.303C567.081 125.066 566.096 124.921 565.104 124.871Z" fill="#231F20"/>
<path d="M593.866 172.45L588.632 192.995C588.632 192.995 594.45 206.404 608.333 203.808C622.216 201.213 624.984 190.832 625.006 190.832L627.341 168.708L628.79 155.105C629.154 153.708 629.322 152.266 629.288 150.823C628.423 147.73 624.552 146.043 623.427 142.842C621.178 136.431 621.48 129.4 624.271 123.205C618.475 127.877 611.815 132.635 604.376 132.137C605.877 130.563 607.23 128.855 608.419 127.033L593.866 132.224C591.976 132.846 590.037 133.309 588.07 133.608C585.908 134.019 586.751 132.656 585.108 135.295C581.042 141.783 580.48 152.985 581.302 160.447C582.469 171.044 593.866 172.45 593.866 172.45Z" fill="white"/>
<path d="M604.765 205.149C592.893 205.149 587.681 193.536 587.638 193.427C587.551 193.197 587.551 192.944 587.638 192.714L592.59 173.25C589.498 172.493 581.302 169.638 580.285 160.274C579.442 152.683 580.004 141.35 584.264 134.43L584.372 134.235C585.389 132.613 585.713 132.072 586.924 132.267C587.258 132.348 587.607 132.348 587.941 132.267C589.849 131.976 591.729 131.528 593.563 130.926L608.117 125.714C608.332 125.64 608.564 125.636 608.782 125.702C608.999 125.768 609.19 125.901 609.328 126.082C609.455 126.266 609.523 126.485 609.523 126.709C609.523 126.933 609.455 127.152 609.328 127.336C608.548 128.52 607.703 129.661 606.798 130.753C612.982 130.191 618.648 126.038 623.535 122.102C623.726 121.951 623.962 121.869 624.206 121.869C624.449 121.869 624.685 121.951 624.876 122.102C625.074 122.246 625.216 122.454 625.275 122.692C625.334 122.929 625.308 123.18 625.2 123.4C622.531 129.352 622.245 136.101 624.4 142.258C625.019 143.674 625.95 144.932 627.125 145.935C628.555 147.135 629.65 148.685 630.304 150.433C630.467 151.591 630.386 152.77 630.066 153.894C630.066 154.326 629.915 154.716 629.871 155.018L626.087 190.746C626.087 190.746 623.276 201.927 608.571 204.782C607.317 205.027 606.042 205.15 604.765 205.149ZM589.757 192.887C590.752 194.898 596.245 204.955 608.117 202.662C621.2 200.132 623.925 190.465 623.946 190.356L627.709 154.802C627.709 154.434 627.839 153.98 627.925 153.483C628.151 152.681 628.246 151.849 628.206 151.017C627.641 149.631 626.733 148.41 625.568 147.471C624.186 146.286 623.085 144.809 622.346 143.145C620.458 137.719 620.299 131.84 621.892 126.32C616.745 130.191 610.841 133.586 604.267 133.154C604.062 133.141 603.865 133.069 603.699 132.946C603.534 132.823 603.409 132.655 603.338 132.462C603.263 132.269 603.244 132.06 603.282 131.857C603.32 131.655 603.414 131.467 603.554 131.315C604.224 130.623 604.873 129.91 605.478 129.153L594.212 133.175C592.325 133.814 590.386 134.285 588.416 134.581C587.858 134.67 587.288 134.67 586.73 134.581L586.146 135.511L586.038 135.684C582.318 141.739 581.518 152.337 582.361 160.165C583.421 169.876 593.563 171.347 593.996 171.39C594.148 171.412 594.294 171.466 594.424 171.548C594.555 171.629 594.666 171.738 594.752 171.866C594.839 171.99 594.898 172.132 594.924 172.281C594.95 172.431 594.943 172.584 594.904 172.731L589.757 192.887Z" fill="#231F20"/>
<path d="M591.098 183.263C593.438 183.833 595.883 183.824 598.219 183.236C600.556 182.648 602.713 181.499 604.505 179.889C610.82 174.331 610.582 169.422 610.582 169.422C605.605 172.539 599.62 173.623 593.866 172.449L591.098 183.263Z" fill="#231F20"/>
<path d="M594.687 184.798C593.41 184.817 592.136 184.657 590.903 184.322C590.637 184.242 590.413 184.062 590.276 183.821C590.139 183.579 590.1 183.294 590.168 183.025L592.914 172.211C592.949 172.073 593.012 171.944 593.097 171.83C593.183 171.716 593.29 171.621 593.412 171.548C593.535 171.476 593.67 171.428 593.811 171.409C593.952 171.389 594.096 171.397 594.233 171.433C599.699 172.488 605.361 171.437 610.085 168.492C610.242 168.382 610.425 168.317 610.616 168.304C610.807 168.29 610.998 168.329 611.169 168.416C611.34 168.502 611.484 168.633 611.586 168.795C611.689 168.957 611.745 169.144 611.75 169.335C611.75 169.551 611.944 174.828 605.262 180.667C602.368 183.303 598.601 184.774 594.687 184.798ZM592.525 182.484C594.552 182.8 596.625 182.662 598.592 182.078C600.559 181.494 602.372 180.481 603.9 179.11C606.358 177.123 608.209 174.486 609.241 171.498C604.79 173.819 599.705 174.631 594.752 173.812L592.525 182.484Z" fill="#231F20"/>
<path d="M602.472 140.139C602.472 140.139 594.428 150.26 595.985 152.272C597.542 154.283 602.472 153.418 602.472 153.418" fill="white"/>
<path d="M600.159 154.694C599.246 154.781 598.325 154.674 597.456 154.38C596.588 154.085 595.792 153.61 595.12 152.985C593.412 150.823 597.715 144.335 601.608 139.512C601.694 139.399 601.802 139.305 601.926 139.235C602.05 139.165 602.186 139.12 602.328 139.104C602.469 139.088 602.612 139.101 602.748 139.141C602.885 139.181 603.011 139.248 603.121 139.339C603.344 139.517 603.487 139.776 603.52 140.06C603.552 140.344 603.471 140.629 603.294 140.853C599.553 145.567 596.526 150.65 596.807 151.666C597.629 152.726 600.786 152.596 602.148 152.358C602.431 152.314 602.721 152.382 602.955 152.547C603.189 152.713 603.35 152.963 603.402 153.245C603.427 153.385 603.424 153.53 603.393 153.669C603.361 153.808 603.303 153.94 603.221 154.057C603.138 154.173 603.033 154.273 602.912 154.349C602.791 154.424 602.657 154.476 602.516 154.499C601.735 154.617 600.948 154.682 600.159 154.694Z" fill="#231F20"/>
<path d="M611.167 142.595C612.146 142.591 612.936 141.464 612.93 140.079C612.924 138.693 612.125 137.573 611.146 137.577C610.167 137.582 609.377 138.708 609.383 140.094C609.389 141.479 610.188 142.599 611.167 142.595Z" fill="#231F20"/>
<path d="M596.081 139.337C596.483 138.011 596.05 136.706 595.113 136.421C594.175 136.137 593.09 136.981 592.687 138.306C592.284 139.632 592.718 140.937 593.655 141.222C594.592 141.507 595.678 140.663 596.081 139.337Z" fill="#231F20"/>
<path d="M600.937 162.718C595.567 162.481 590.385 160.668 586.037 157.506C585.915 157.423 585.811 157.316 585.732 157.191C585.653 157.067 585.6 156.927 585.577 156.781C585.553 156.636 585.56 156.487 585.597 156.344C585.633 156.201 585.698 156.066 585.788 155.95C585.879 155.833 585.992 155.736 586.121 155.664C586.25 155.593 586.393 155.549 586.54 155.534C586.686 155.52 586.835 155.536 586.975 155.581C587.116 155.626 587.246 155.7 587.357 155.797C587.854 156.186 599.661 165.14 609.868 157.57C609.98 157.467 610.112 157.389 610.256 157.341C610.4 157.292 610.553 157.275 610.704 157.289C610.855 157.303 611.002 157.35 611.134 157.425C611.266 157.499 611.381 157.601 611.471 157.724C611.562 157.846 611.625 157.986 611.657 158.134C611.69 158.283 611.691 158.436 611.66 158.585C611.629 158.734 611.567 158.875 611.478 158.998C611.389 159.121 611.276 159.224 611.144 159.301C608.209 161.528 604.622 162.729 600.937 162.718Z" fill="#231F20"/>
<path d="M623.319 148.963C624.141 148.158 625.115 147.526 626.185 147.103C627.254 146.679 628.397 146.474 629.547 146.497C630.701 146.55 631.816 146.932 632.759 147.599C633.702 148.266 634.433 149.19 634.867 150.26C635.17 151.524 635.147 152.845 634.798 154.097C634.45 155.35 633.789 156.493 632.877 157.419C631.574 158.909 629.973 160.11 628.178 160.944C626.383 161.778 624.433 162.228 622.454 162.263" fill="white"/>
<path d="M622.454 163.388C622.167 163.388 621.892 163.274 621.689 163.071C621.487 162.868 621.373 162.593 621.373 162.306C621.37 162.165 621.395 162.025 621.447 161.894C621.499 161.763 621.577 161.644 621.675 161.543C621.774 161.442 621.892 161.362 622.022 161.308C622.152 161.253 622.291 161.225 622.432 161.225C624.261 161.199 626.064 160.787 627.723 160.016C629.381 159.244 630.858 158.131 632.055 156.748C632.84 155.963 633.414 154.993 633.724 153.926C634.034 152.86 634.07 151.733 633.829 150.65C633.471 149.785 632.874 149.041 632.108 148.505C631.342 147.968 630.438 147.662 629.504 147.622C628.5 147.597 627.501 147.776 626.569 148.148C625.636 148.52 624.788 149.076 624.076 149.784C623.87 149.984 623.595 150.096 623.308 150.096C623.022 150.096 622.746 149.984 622.54 149.784C622.439 149.684 622.359 149.564 622.304 149.433C622.249 149.301 622.221 149.159 622.221 149.017C622.221 148.874 622.249 148.733 622.304 148.601C622.359 148.469 622.439 148.349 622.54 148.249C623.474 147.348 624.579 146.645 625.79 146.18C627.002 145.716 628.294 145.5 629.59 145.546C630.951 145.617 632.262 146.077 633.369 146.87C634.477 147.664 635.334 148.757 635.84 150.022C636.221 151.466 636.222 152.983 635.843 154.427C635.464 155.871 634.718 157.192 633.677 158.262C632.271 159.869 630.544 161.163 628.607 162.061C626.671 162.958 624.567 163.44 622.432 163.474L622.454 163.388Z" fill="#231F20"/>
<path d="M337.609 361.208C337.609 361.208 362.154 461.989 345.957 468.996C329.76 476.003 237.594 489.477 237.594 489.477L233.42 460.41C233.42 460.41 304.329 444.882 308.199 441.357C312.07 437.832 284.412 352.19 283.763 351.498C283.114 350.806 337.609 361.208 337.609 361.208Z" fill="#231F20"/>
<path d="M237.594 490.558C237.368 490.552 237.149 490.476 236.967 490.342C236.851 490.257 236.753 490.151 236.679 490.028C236.605 489.906 236.555 489.77 236.534 489.628L232.339 460.562C232.3 460.29 232.365 460.015 232.522 459.79C232.679 459.565 232.915 459.408 233.182 459.351C260.495 453.382 304.804 442.979 307.464 440.557C309.627 435.864 285.234 357.056 282.855 352.06C282.754 351.894 282.7 351.703 282.7 351.508C282.7 351.314 282.754 351.123 282.855 350.957C283.352 350.005 283.482 349.746 337.847 360.148C338.051 360.185 338.239 360.28 338.389 360.422C338.538 360.565 338.643 360.747 338.691 360.949C341.242 371.351 362.997 462.811 346.432 469.991C330.279 476.998 241.573 489.996 237.81 490.536L237.594 490.558ZM234.631 461.254L238.524 488.201C248.861 486.665 330.581 474.446 345.524 467.958C349.027 466.444 353.828 457.253 346.8 412.615C343.102 389.236 337.718 366.29 336.723 362.095C318.45 358.613 292.219 353.704 285.428 352.687C290.143 364.971 309.886 429.311 309.648 439.843C309.689 440.252 309.644 440.664 309.518 441.055C309.391 441.446 309.185 441.806 308.913 442.114C305.085 445.661 245.379 458.896 234.631 461.254Z" fill="#231F20"/>
<path d="M224.403 357.748L301.15 539.045L334.214 532.665L283.98 341.29L224.403 357.748Z" fill="#231F20"/>
<path d="M301.15 540.105C300.939 540.103 300.734 540.041 300.558 539.926C300.381 539.811 300.242 539.648 300.155 539.456L223.408 358.137C223.35 357.994 223.323 357.841 223.329 357.687C223.334 357.533 223.371 357.382 223.439 357.243C223.506 357.105 223.601 356.982 223.719 356.883C223.837 356.783 223.974 356.71 224.121 356.666L283.677 340.23C283.81 340.172 283.953 340.142 284.098 340.142C284.244 340.142 284.387 340.172 284.52 340.23C284.761 340.376 284.939 340.608 285.018 340.879L335.188 532.406C335.231 532.547 335.243 532.696 335.22 532.842C335.198 532.989 335.142 533.128 335.058 533.249C334.981 533.378 334.877 533.489 334.754 533.574C334.631 533.66 334.492 533.719 334.344 533.747L301.366 540.105H301.15ZM225.895 358.44L301.799 537.791L332.874 531.8L283.136 342.609L225.895 358.44Z" fill="#231F20"/>
<path d="M251.52 120.048C245.995 116.154 239.365 114.136 232.607 114.292C225.849 114.448 219.32 116.769 213.979 120.913C209.921 124.088 206.839 128.343 205.087 133.189C203.336 138.036 202.985 143.278 204.075 148.314C205.465 153.259 208.382 157.639 212.409 160.828C216.437 164.017 221.368 165.851 226.5 166.07C236.426 166.567 246.871 158.068 252.147 150.282C258.527 140.875 262.809 127.834 251.52 120.048Z" fill="white"/>
<path d="M227.344 167.173H226.435C221.076 166.96 215.922 165.053 211.714 161.727C207.506 158.4 204.461 153.826 203.015 148.66C201.897 143.418 202.268 137.968 204.087 132.926C205.906 127.885 209.101 123.454 213.309 120.134C218.836 115.813 225.611 113.393 232.624 113.233C239.638 113.073 246.516 115.183 252.234 119.248C265.988 128.655 257.338 144.508 253.013 150.823C247.671 158.846 237.421 167.173 227.344 167.173ZM233.118 115.268C226.405 115.279 219.895 117.567 214.65 121.756C210.767 124.815 207.816 128.898 206.131 133.545C204.446 138.192 204.094 143.218 205.113 148.055C206.43 152.784 209.215 156.973 213.067 160.017C216.919 163.061 221.638 164.802 226.543 164.988C235.626 165.399 245.876 157.635 251.261 149.677C255.218 143.816 263.111 129.326 250.915 120.956C245.686 117.33 239.48 115.377 233.118 115.355V115.268Z" fill="#231F20"/>
<path d="M231.561 136.527C227.981 139.67 225.268 143.678 223.678 148.169C222.088 152.659 221.675 157.482 222.478 162.177C222.777 164.78 223.987 167.193 225.895 168.989C229.722 172.103 235.518 170.287 239.627 167.562C246.263 162.914 251.732 156.792 255.607 149.676C258.484 144.659 262.83 133.348 255.045 130.558C247.26 127.769 237.27 131.596 231.561 136.527Z" fill="#231F20"/>
<path d="M230.782 171.692C228.762 171.743 226.788 171.085 225.203 169.833C223.07 167.884 221.724 165.222 221.418 162.35C220.573 157.469 220.996 152.454 222.647 147.784C224.298 143.114 227.122 138.948 230.847 135.684C236.794 130.558 247.433 126.665 255.413 129.52C256.446 129.853 257.391 130.415 258.177 131.164C258.964 131.913 259.571 132.83 259.954 133.846C262.117 139.988 257.143 149.114 256.537 150.131C252.593 157.399 247.011 163.648 240.232 168.384C237.457 170.356 234.181 171.504 230.782 171.692ZM249.509 130.753C243.169 130.965 237.081 133.286 232.209 137.349C228.784 140.374 226.19 144.226 224.676 148.539C223.161 152.851 222.777 157.479 223.559 161.982C223.805 164.331 224.878 166.516 226.587 168.146C229.982 170.892 235.237 169.162 239.064 166.653C245.565 162.108 250.918 156.11 254.699 149.136C256.624 145.762 259.5 138.928 257.943 134.689C257.682 133.956 257.253 133.294 256.689 132.757C256.126 132.219 255.444 131.822 254.699 131.596C253.032 131.015 251.275 130.729 249.509 130.753Z" fill="#231F20"/>
<path d="M271.567 197.904C269.862 199.556 268.064 201.108 266.182 202.554C262.454 204.737 258.234 205.94 253.915 206.049C249.596 206.159 245.32 205.172 241.486 203.181C223.213 193.773 223.646 172.406 227.43 155.018C228.966 147.946 234.134 133.197 243.671 140.572C240.881 138.409 252.321 131.25 254.072 130.58C266.225 125.627 279.136 132.743 286.25 142.626C290.458 148.277 294.027 154.377 296.89 160.814C299.701 167.908 296.63 177.64 292.565 183.674C289.424 188.35 285.074 192.086 279.979 194.487C277.622 195.59 274.594 195.871 272.41 197.234L271.567 197.904Z" fill="white"/>
<path d="M253.467 207.052C249.134 207.057 244.864 206.027 241.011 204.046C225.873 196.26 220.943 179.673 226.371 154.715C227.106 151.342 229.982 140.139 236.361 137.803C237.361 137.457 238.424 137.331 239.477 137.436C240.53 137.541 241.547 137.872 242.46 138.409C244.211 134.689 253.034 129.758 253.661 129.499C266.788 124.157 280.217 132.18 287.137 141.912C291.426 147.618 295.054 153.792 297.949 160.317C300.912 167.756 297.776 177.899 293.624 184.106C290.397 188.949 285.911 192.822 280.649 195.309C279.518 195.805 278.346 196.203 277.146 196.498C275.777 196.829 274.454 197.33 273.21 197.991C272.929 198.185 272.648 198.38 272.389 198.596C271.63 199.163 270.908 199.777 270.226 200.434C269.192 201.511 268.047 202.476 266.809 203.311C262.796 205.774 258.176 207.07 253.467 207.052ZM238.697 139.555C238.151 139.552 237.609 139.647 237.097 139.836C232.772 141.393 229.809 149.071 228.447 155.17C223.257 178.959 227.798 194.855 241.941 202.121C245.608 204.029 249.698 204.978 253.831 204.88C257.964 204.782 262.004 203.639 265.577 201.559C266.68 200.801 267.708 199.939 268.647 198.985C269.332 198.277 270.054 197.606 270.81 196.974C271.135 196.717 271.474 196.479 271.826 196.26C273.23 195.455 274.746 194.865 276.324 194.509C277.412 194.237 278.475 193.875 279.503 193.427C284.426 191.111 288.627 187.501 291.656 182.982C295.506 177.164 298.447 167.843 295.787 161.117C293.019 154.795 289.552 148.803 285.45 143.253C278.963 134.192 266.571 126.687 254.548 131.596C252.385 132.461 244.276 138.084 244.384 139.706C244.495 139.792 244.588 139.898 244.658 140.019C244.727 140.14 244.772 140.274 244.79 140.412C244.809 140.551 244.799 140.692 244.763 140.826C244.727 140.961 244.664 141.088 244.579 141.199C244.494 141.309 244.387 141.402 244.266 141.472C244.145 141.542 244.012 141.587 243.873 141.605C243.734 141.623 243.594 141.614 243.459 141.577C243.324 141.541 243.197 141.478 243.087 141.393C241.859 140.336 240.314 139.72 238.697 139.642V139.555Z" fill="#231F20"/>
<path d="M285.169 156.922C285.169 156.922 292.327 172.515 290.597 185.037C290.198 188.507 288.798 191.787 286.567 194.475C284.336 197.164 281.37 199.144 278.033 200.175L279.914 221.802C279.914 221.802 280.995 232.875 267.263 232.356C263.279 232.201 259.4 231.031 255.994 228.957C252.588 226.883 249.768 223.974 247.801 220.504L242.849 180.841C242.849 180.841 257.467 170.655 254.872 156.468C254.872 156.468 273.924 163.799 285.169 156.922Z" fill="white"/>
<path d="M268.15 233.459H267.177C263.007 233.304 258.946 232.078 255.386 229.9C251.827 227.723 248.887 224.666 246.849 221.023C246.84 220.908 246.84 220.792 246.849 220.677L241.854 180.971C241.823 180.775 241.849 180.575 241.93 180.395C242.01 180.214 242.142 180.061 242.308 179.954C242.438 179.954 256.299 169.984 253.877 156.662C253.849 156.472 253.867 156.278 253.931 156.097C253.995 155.916 254.103 155.753 254.245 155.624C254.397 155.507 254.575 155.43 254.764 155.4C254.953 155.37 255.146 155.387 255.326 155.451C255.521 155.451 274.032 162.436 284.671 155.992C284.808 155.933 284.955 155.903 285.104 155.903C285.253 155.903 285.4 155.933 285.536 155.992C285.684 156.035 285.82 156.109 285.936 156.21C286.052 156.311 286.144 156.435 286.207 156.575C286.51 157.224 293.494 172.601 291.743 185.253C291.311 188.779 289.916 192.117 287.711 194.902C285.506 197.687 282.576 199.811 279.244 201.04L281.06 221.845C281.152 223.326 280.95 224.81 280.468 226.212C279.986 227.615 279.231 228.909 278.249 230.02C276.899 231.267 275.303 232.217 273.564 232.81C271.824 233.402 269.98 233.623 268.15 233.459ZM248.86 220.202C250.736 223.46 253.408 226.187 256.628 228.128C259.847 230.069 263.507 231.159 267.263 231.296C268.924 231.518 270.613 231.377 272.214 230.885C273.816 230.392 275.292 229.558 276.54 228.441C278.083 226.645 278.86 224.316 278.703 221.953L276.822 200.326C276.803 200.07 276.875 199.814 277.025 199.605C277.175 199.395 277.394 199.245 277.643 199.18C280.784 198.214 283.572 196.346 285.66 193.809C287.748 191.271 289.043 188.175 289.386 184.907C290.813 174.72 286.056 162.198 284.52 158.5C274.832 163.474 260.884 159.69 256.062 158.133C257.186 170.503 246.46 179.435 243.865 181.403L248.86 220.202Z" fill="#231F20"/>
<path d="M250.115 177.38C250.115 177.38 242.092 162.934 235.388 173.055C228.684 183.176 240.578 192.519 247.195 191.135" fill="white"/>
<path d="M245.725 192.389C243.486 192.234 241.313 191.569 239.372 190.444C237.43 189.32 235.772 187.766 234.523 185.901C233.116 183.937 232.36 181.581 232.36 179.165C232.36 176.748 233.116 174.392 234.523 172.428C235.141 171.229 236.068 170.218 237.209 169.499C238.35 168.78 239.663 168.38 241.011 168.34C246.482 168.557 250.936 176.472 251.131 176.818C251.199 176.943 251.242 177.08 251.257 177.222C251.272 177.363 251.26 177.506 251.219 177.643C251.179 177.78 251.113 177.907 251.023 178.018C250.934 178.129 250.824 178.221 250.699 178.289C250.574 178.357 250.436 178.4 250.295 178.415C250.153 178.43 250.01 178.417 249.874 178.377C249.737 178.337 249.61 178.27 249.499 178.181C249.388 178.092 249.296 177.981 249.228 177.856C248.125 175.867 244.449 170.633 240.924 170.503C239.958 170.579 239.029 170.907 238.228 171.453C237.428 171.999 236.784 172.746 236.361 173.617C235.192 175.223 234.562 177.157 234.562 179.143C234.562 181.129 235.192 183.063 236.361 184.669C238.935 188.388 243.692 190.811 247.022 190.075C247.309 190.012 247.609 190.066 247.857 190.224C248.104 190.382 248.278 190.632 248.341 190.919C248.405 191.206 248.351 191.506 248.193 191.753C248.035 192.001 247.785 192.175 247.498 192.238C246.915 192.359 246.32 192.41 245.725 192.389Z" fill="#231F20"/>
<path d="M278.141 186.918C277.133 186.915 276.128 186.828 275.135 186.658C274.993 186.634 274.857 186.582 274.735 186.506C274.613 186.429 274.507 186.329 274.424 186.212C274.341 186.094 274.281 185.961 274.249 185.821C274.217 185.681 274.213 185.535 274.237 185.393C274.262 185.251 274.313 185.115 274.39 184.993C274.467 184.871 274.567 184.766 274.684 184.682C274.802 184.599 274.934 184.54 275.075 184.508C275.215 184.476 275.36 184.472 275.502 184.496C277.514 184.896 279.597 184.754 281.536 184.085C281.536 182.83 278.314 178.181 274.443 173.877C274.342 173.778 274.262 173.661 274.208 173.531C274.153 173.401 274.125 173.261 274.125 173.12C274.125 172.979 274.153 172.839 274.208 172.709C274.262 172.58 274.342 172.462 274.443 172.363C274.543 172.262 274.663 172.181 274.795 172.126C274.926 172.071 275.068 172.043 275.211 172.043C275.353 172.043 275.495 172.071 275.626 172.126C275.758 172.181 275.878 172.262 275.978 172.363C277.86 174.526 283.979 181.511 283.569 184.409C283.542 184.686 283.451 184.952 283.305 185.188C283.159 185.425 282.961 185.624 282.725 185.772C281.326 186.554 279.743 186.949 278.141 186.918Z" fill="#231F20"/>
<path d="M273.556 194.076C272.833 194.081 272.11 194.03 271.394 193.925C267.509 193.357 263.973 191.369 261.468 188.345C261.328 188.095 261.292 187.801 261.369 187.525C261.446 187.249 261.63 187.015 261.879 186.874C262.13 186.74 262.423 186.708 262.697 186.784C262.971 186.861 263.204 187.04 263.349 187.285C265.604 189.776 268.669 191.385 271.999 191.827C276.324 192.324 280.39 190.594 284.347 186.745C284.445 186.632 284.565 186.541 284.699 186.477C284.834 186.413 284.98 186.378 285.129 186.373C285.278 186.369 285.426 186.395 285.565 186.45C285.703 186.506 285.829 186.589 285.933 186.695C286.038 186.801 286.119 186.928 286.173 187.067C286.226 187.206 286.25 187.355 286.243 187.503C286.237 187.652 286.199 187.798 286.133 187.932C286.067 188.065 285.975 188.184 285.861 188.28C282.684 191.759 278.262 193.843 273.556 194.076Z" fill="#231F20"/>
<path d="M278.033 200.175C278.033 200.175 266.593 202.641 259.803 201.516C259.803 201.516 268.453 217.953 279.525 216.893L278.033 200.175Z" fill="#231F20"/>
<path d="M278.508 218.017C267.48 218.017 259.197 202.706 258.851 202.035C258.746 201.862 258.691 201.664 258.691 201.462C258.691 201.26 258.746 201.062 258.851 200.889C258.973 200.729 259.136 200.604 259.322 200.528C259.508 200.452 259.712 200.427 259.911 200.456C266.398 201.516 277.622 199.137 277.73 199.115C277.883 199.082 278.041 199.082 278.195 199.115C278.348 199.149 278.492 199.215 278.616 199.31C278.738 199.398 278.84 199.512 278.914 199.642C278.989 199.773 279.035 199.917 279.049 200.067L280.541 216.785C280.556 216.927 280.543 217.07 280.502 217.207C280.461 217.344 280.393 217.472 280.303 217.582C280.212 217.693 280.101 217.784 279.975 217.852C279.848 217.919 279.71 217.961 279.568 217.974L278.508 218.017ZM261.835 202.879C264.322 206.815 270.788 215.855 278.357 215.855L277.059 201.473C272.05 202.485 266.945 202.942 261.835 202.835V202.879Z" fill="#231F20"/>
<path d="M267.904 174.527C268.838 174.394 269.407 172.963 269.174 171.331C268.941 169.7 267.996 168.485 267.062 168.618C266.128 168.751 265.559 170.182 265.791 171.813C266.024 173.445 266.97 174.66 267.904 174.527Z" fill="#231F20"/>
<path d="M283.501 172.285C284.435 172.152 285.004 170.721 284.771 169.089C284.539 167.457 283.593 166.242 282.659 166.376C281.725 166.509 281.156 167.939 281.389 169.571C281.621 171.203 282.567 172.418 283.501 172.285Z" fill="#231F20"/>
<path d="M647.474 237.892L470.495 145.286C468.811 144.404 466.913 144.012 465.017 144.157C463.122 144.301 461.305 144.976 459.774 146.103C458.243 147.23 457.06 148.766 456.359 150.533C455.658 152.301 455.469 154.23 455.812 156.1L462.71 195.028L166.231 247.581C165.419 247.725 164.642 248.027 163.946 248.471C163.251 248.916 162.649 249.493 162.177 250.17C161.705 250.847 161.371 251.611 161.195 252.417C161.019 253.224 161.003 254.057 161.149 254.869L187.813 405.111C188.103 406.748 189.031 408.203 190.394 409.156C191.757 410.109 193.442 410.482 195.079 410.193L491.579 357.575L498.478 396.503C498.813 398.365 499.662 400.096 500.93 401.5C502.197 402.905 503.832 403.927 505.649 404.451C507.467 404.975 509.395 404.98 511.215 404.466C513.035 403.953 514.676 402.94 515.951 401.542L650.285 253.68C651.319 252.53 652.078 251.16 652.502 249.673C652.927 248.186 653.007 246.622 652.736 245.099C652.465 243.577 651.85 242.136 650.938 240.887C650.026 239.639 648.842 238.614 647.474 237.892Z" fill="white"/>
<path d="M193.976 411.382C192.474 411.373 191.01 410.905 189.781 410.041C188.987 409.493 188.311 408.791 187.791 407.978C187.271 407.165 186.918 406.256 186.754 405.305L160.025 255.042C159.857 254.091 159.878 253.115 160.087 252.172C160.296 251.229 160.689 250.336 161.244 249.545C161.798 248.753 162.503 248.079 163.318 247.56C164.133 247.041 165.042 246.688 165.994 246.521L461.456 194.076L454.752 156.208C454.395 154.146 454.621 152.026 455.405 150.086C456.188 148.146 457.498 146.464 459.187 145.23C460.876 143.995 462.876 143.257 464.962 143.099C467.048 142.94 469.137 143.369 470.993 144.334L647.993 236.962C649.512 237.756 650.829 238.888 651.842 240.271C652.855 241.654 653.537 243.251 653.836 244.939C654.135 246.627 654.042 248.361 653.565 250.008C653.088 251.654 652.24 253.169 651.085 254.437L516.838 402.299C515.425 403.845 513.608 404.964 511.592 405.531C509.576 406.098 507.442 406.09 505.431 405.507C503.419 404.924 501.611 403.79 500.21 402.234C498.81 400.677 497.873 398.759 497.505 396.698L490.779 358.829L195.274 411.252C194.847 411.338 194.412 411.382 193.976 411.382ZM465.759 145.178C463.843 145.193 461.981 145.814 460.44 146.951C459.06 147.939 457.992 149.301 457.36 150.875C456.728 152.45 456.558 154.172 456.871 155.84L463.791 194.768C463.836 195.052 463.768 195.341 463.602 195.575C463.437 195.809 463.187 195.97 462.905 196.023L166.513 248.641C165.156 248.897 163.954 249.673 163.161 250.803C162.345 251.901 161.995 253.277 162.188 254.631L188.851 404.873C189.094 406.231 189.865 407.438 190.996 408.229C192.127 409.019 193.525 409.329 194.885 409.09L491.363 356.472C491.643 356.427 491.93 356.492 492.164 356.653C492.397 356.814 492.56 357.059 492.618 357.337L499.516 396.265C499.808 397.934 500.563 399.486 501.695 400.747C502.827 402.007 504.29 402.923 505.917 403.392C507.545 403.861 509.271 403.863 510.9 403.399C512.529 402.934 513.994 402.021 515.129 400.763L649.464 252.901C650.391 251.876 651.071 250.652 651.452 249.324C651.833 247.995 651.906 246.597 651.664 245.236C651.422 243.875 650.872 242.588 650.055 241.472C649.239 240.357 648.179 239.443 646.955 238.8L469.976 146.238C468.679 145.544 467.231 145.18 465.759 145.178Z" fill="#231F20"/>
<path d="M462.17 182.225C459.791 181.425 457.369 180.711 454.947 180.062C453.443 179.531 451.814 179.471 450.276 179.889C448.113 180.732 447.01 183.306 446.232 185.577C445.086 189.059 443.896 192.779 444.891 196.39C446.34 201.537 451.833 204.371 456.98 205.776C459.5 206.575 462.165 206.811 464.786 206.468C480.075 203.7 472.333 185.642 462.17 182.225Z" fill="white"/>
<path d="M462.645 207.701C460.631 207.653 458.631 207.34 456.698 206.771C452.655 205.69 445.605 202.922 443.853 196.65C442.729 192.671 444.113 188.583 445.216 185.274C446.059 182.744 447.205 179.932 449.886 178.916C451.632 178.406 453.493 178.459 455.206 179.067C457.672 179.673 460.137 180.408 462.516 181.23C469.241 183.393 474.907 191.676 474.409 198.402C474.215 201.213 472.701 206.122 464.981 207.528C464.208 207.649 463.427 207.707 462.645 207.701ZM451.962 180.733C451.506 180.725 451.052 180.798 450.622 180.949C448.805 181.619 447.919 183.89 447.227 185.966C445.972 189.664 445.064 192.973 445.886 196.066C447.356 201.3 453.628 203.722 457.217 204.717C459.583 205.471 462.083 205.707 464.548 205.409C469.284 204.565 471.922 202.078 472.204 198.25C472.636 192.519 467.554 185.274 461.78 183.284C459.445 182.506 457.044 181.814 454.644 181.122C453.77 180.879 452.869 180.748 451.962 180.733Z" fill="#231F20"/>
<path d="M193.738 261.401C194.313 261.4 194.882 261.274 195.403 261.033C200.918 258.632 200.139 248.446 200.615 243.472C200.875 240.682 200.81 237.308 198.453 235.859C193.133 232.637 185.737 234.043 180.915 237.59C176.092 241.136 175.033 247.841 175.573 253.593C175.768 255.886 175.941 260.968 178.017 262.395C180.785 264.342 184.05 258.978 183.985 256.6V258.524C183.954 259.411 184.079 260.297 184.353 261.141C184.488 261.568 184.727 261.956 185.047 262.269C185.368 262.582 185.761 262.811 186.191 262.936C187.575 263.217 188.829 262.006 189.392 260.773C189.79 259.427 190.266 258.106 190.819 256.816C190.4 257.405 190.218 258.131 190.311 258.849C190.403 259.566 190.762 260.222 191.316 260.687C192.007 261.218 192.87 261.472 193.738 261.401Z" fill="white"/>
<path d="M186.624 264.061C186.408 264.082 186.191 264.082 185.975 264.061C185.364 263.904 184.802 263.596 184.341 263.165C183.88 262.734 183.535 262.194 183.337 261.595C183.337 261.595 183.337 261.444 183.337 261.357C182.776 262.223 182.04 262.96 181.174 263.52C180.586 263.882 179.901 264.053 179.212 264.01C178.523 263.968 177.864 263.713 177.325 263.282C175.054 261.703 174.708 257.356 174.492 254.48V253.701C173.995 248.273 174.492 240.92 180.288 236.724C184.98 233.243 192.852 231.21 199.015 234.929C202.021 236.746 201.999 240.725 201.74 243.58C201.74 244.488 201.61 245.548 201.545 246.694C201.329 252.231 201.004 259.8 195.879 262.049C195.199 262.352 194.462 262.507 193.717 262.504C192.577 262.549 191.459 262.189 190.56 261.487L190.3 261.119C190.021 261.903 189.529 262.593 188.88 263.112C188.23 263.632 187.449 263.96 186.624 264.061ZM185.024 256.578V258.481C184.998 259.257 185.101 260.031 185.326 260.773C185.4 261.029 185.535 261.264 185.72 261.456C185.905 261.648 186.133 261.792 186.386 261.876C187.121 262.028 187.965 261.184 188.354 260.276C188.562 259.769 188.736 259.249 188.873 258.719L189.197 257.638C189.314 257.057 189.575 256.514 189.954 256.059C190.132 255.868 190.373 255.748 190.633 255.721C190.892 255.695 191.153 255.763 191.366 255.913C191.58 256.063 191.732 256.285 191.794 256.539C191.856 256.792 191.825 257.059 191.706 257.292C191.55 257.575 191.42 257.872 191.316 258.178C191.295 258.285 191.295 258.396 191.316 258.503C191.355 259.003 191.588 259.469 191.965 259.8C192.446 260.188 193.058 260.375 193.674 260.319C194.104 260.311 194.529 260.223 194.928 260.06C198.82 258.351 199.101 251.56 199.253 246.586C199.253 245.397 199.253 244.294 199.426 243.364C199.772 239.774 199.231 237.698 197.761 236.876C192.679 233.805 185.694 235.384 181.412 238.541C176.547 242.153 176.049 248.706 176.482 253.68V254.48C176.655 256.491 176.979 260.687 178.406 261.682C178.606 261.821 178.844 261.896 179.087 261.896C179.331 261.896 179.569 261.821 179.769 261.682C180.567 261.109 181.238 260.377 181.741 259.532C182.243 258.687 182.566 257.748 182.688 256.772C182.682 256.489 182.788 256.215 182.982 256.009C183.176 255.803 183.443 255.681 183.726 255.67C184.013 255.669 184.29 255.779 184.499 255.976C184.708 256.173 184.834 256.442 184.851 256.729L185.024 256.578Z" fill="#231F20"/>
<path d="M681.187 230.647C681.187 230.647 694.465 294.468 678.744 298.62C657.4 304.373 568.737 282.617 568.737 282.617C568.737 282.617 545.599 288.304 541.555 282.206C537.511 276.107 541.555 267.586 543.588 267.067C545.62 266.548 563.05 265.337 563.05 265.337C563.05 265.337 548.864 254.891 553.319 254.091C557.774 253.291 573.625 258.546 573.625 258.546C573.625 258.546 660.471 265.034 659.671 260.536C658.87 256.037 654.848 239.125 654.848 239.125" fill="white"/>
<path d="M668.861 300.653C638.911 300.653 574.338 285.06 568.824 283.719C565.407 284.541 545.036 289.148 540.711 282.811C539.599 280.917 538.954 278.786 538.83 276.593C538.706 274.4 539.106 272.21 539.998 270.203C540.344 269.338 541.663 266.483 543.436 266.115C545.209 265.748 555.135 264.991 560.196 264.58C555.979 261.314 550.962 256.859 551.546 254.566C551.644 254.179 551.863 253.833 552.169 253.577C552.476 253.321 552.855 253.168 553.254 253.139C557.752 252.317 571.787 256.881 573.949 257.594C604.397 259.757 653.335 262.525 658.633 260.362C657.681 255.345 653.983 239.644 653.94 239.471C653.874 239.184 653.925 238.883 654.081 238.633C654.237 238.384 654.486 238.207 654.773 238.141C655.059 238.075 655.361 238.126 655.61 238.282C655.859 238.438 656.037 238.687 656.103 238.974C656.276 239.666 660.125 256.015 660.925 260.449C660.968 260.669 660.957 260.896 660.893 261.111C660.829 261.325 660.714 261.521 660.557 261.682C657.054 265.596 593.217 261.184 573.733 259.735H573.473C569.148 258.286 557.341 254.718 553.795 255.28C554.335 256.751 558.768 260.838 563.893 264.623C564.071 264.754 564.205 264.936 564.278 265.144C564.351 265.352 564.361 265.577 564.304 265.791C564.237 266.002 564.109 266.189 563.935 266.327C563.762 266.466 563.552 266.55 563.331 266.569C558.509 266.937 545.599 267.975 543.977 268.278C542.907 269.244 542.153 270.51 541.814 271.911C541.216 273.492 540.979 275.186 541.121 276.87C541.263 278.555 541.781 280.186 542.636 281.643C545.296 285.623 559.936 283.806 568.586 281.643C568.756 281.6 568.935 281.6 569.105 281.643C569.992 281.859 657.616 303.27 678.571 297.669C690.659 294.468 683.869 248.424 680.236 230.95C680.179 230.663 680.238 230.365 680.4 230.122C680.562 229.879 680.814 229.71 681.101 229.652C681.388 229.595 681.686 229.654 681.929 229.816C682.172 229.978 682.341 230.231 682.399 230.517C683.783 237.157 695.374 295.398 679.176 299.723C675.79 300.462 672.325 300.774 668.861 300.653Z" fill="#231F20"/>
<path d="M654.935 240.314C654.692 240.31 654.458 240.225 654.27 240.072C654.081 239.919 653.95 239.707 653.897 239.471L644.101 198.012C644.065 197.874 644.058 197.731 644.08 197.59C644.101 197.45 644.151 197.315 644.225 197.194C644.3 197.073 644.398 196.968 644.514 196.885C644.63 196.803 644.762 196.745 644.901 196.715C645.178 196.655 645.468 196.705 645.71 196.854C645.952 197.004 646.127 197.24 646.198 197.515L655.994 238.973C656.059 239.252 656.012 239.544 655.862 239.787C655.712 240.03 655.472 240.204 655.194 240.271L654.935 240.314Z" fill="#231F20"/>
<path d="M429.278 129.477C429.116 129.476 428.958 129.435 428.815 129.36C428.672 129.285 428.549 129.177 428.456 129.045C428.382 128.937 428.33 128.815 428.303 128.687C428.276 128.559 428.275 128.427 428.299 128.299C428.323 128.17 428.372 128.048 428.444 127.938C428.515 127.829 428.608 127.734 428.716 127.661C429.487 127.146 430.099 126.426 430.482 125.581C430.864 124.736 431.001 123.8 430.878 122.881C430.212 121.509 429.732 120.054 429.451 118.556C429.417 118.331 429.461 118.102 429.576 117.906C429.69 117.71 429.868 117.559 430.08 117.478C430.293 117.397 430.526 117.391 430.742 117.461C430.958 117.532 431.143 117.674 431.267 117.864C432.062 119.189 432.584 120.659 432.803 122.189C433.057 122.744 433.471 123.211 433.992 123.53C434.162 123.606 434.349 123.633 434.533 123.606C434.717 123.579 434.89 123.5 435.03 123.378C436.998 122.211 435.03 115.268 433.17 110.965C433.117 110.847 433.087 110.72 433.083 110.59C433.079 110.461 433.1 110.332 433.147 110.211C433.193 110.091 433.263 109.98 433.352 109.887C433.442 109.793 433.549 109.719 433.668 109.667C433.909 109.563 434.182 109.557 434.428 109.65C434.674 109.743 434.874 109.927 434.987 110.164C435.895 112.219 440.22 122.578 436.047 125.065C435.636 125.356 435.156 125.534 434.654 125.579C434.153 125.625 433.648 125.537 433.192 125.325C433.015 125.254 432.847 125.159 432.695 125.044C432.305 126.758 431.267 128.254 429.797 129.218C429.651 129.35 429.471 129.44 429.278 129.477Z" fill="#231F20"/>
<path d="M317.887 471.483C317.669 471.485 317.457 471.413 317.285 471.28C317.112 471.147 316.989 470.959 316.936 470.748L297.647 398.666C297.601 398.529 297.585 398.385 297.601 398.242C297.616 398.099 297.663 397.961 297.737 397.838C297.811 397.714 297.91 397.608 298.029 397.527C298.148 397.446 298.283 397.392 298.425 397.368C298.68 397.303 298.951 397.341 299.178 397.475C299.405 397.608 299.57 397.827 299.636 398.082L318.925 470.164C318.992 470.416 318.957 470.685 318.827 470.911C318.698 471.138 318.485 471.304 318.233 471.375L317.887 471.483Z" fill="white"/>
<path d="M440 120.5L438.5 117L440.981 116.008L441 116L442 115.5L441.5 116L443 119L440 120.5Z" fill="white"/>
<g clip-path="url(#clip0)">
<path d="M268.775 346.505C268.648 345.724 268.65 344.995 268.784 344.32C268.915 343.646 269.138 343.063 269.449 342.579C269.761 342.095 270.117 341.637 270.517 341.212C270.917 340.786 271.319 340.389 271.726 340.025C272.134 339.661 272.503 339.305 272.838 338.961C273.172 338.616 273.427 338.235 273.601 337.818C273.774 337.4 273.827 336.969 273.754 336.523C273.65 335.882 273.369 335.41 272.91 335.104C272.452 334.799 271.867 334.704 271.152 334.82C270.805 334.877 270.488 334.994 270.204 335.168C269.921 335.342 269.71 335.53 269.57 335.733C269.43 335.934 269.313 336.133 269.214 336.329C269.115 336.526 269.053 336.693 269.028 336.83L268.997 337.026L267.252 336.568C267.262 336.482 267.28 336.37 267.303 336.233C267.325 336.096 267.413 335.847 267.561 335.485C267.712 335.124 267.902 334.793 268.132 334.497C268.361 334.201 268.717 333.905 269.196 333.608C269.675 333.313 270.229 333.113 270.86 333.01C272.104 332.808 273.184 333.016 274.102 333.632C275.02 334.248 275.565 335.103 275.744 336.197C275.837 336.772 275.807 337.326 275.649 337.858C275.492 338.391 275.263 338.851 274.954 339.241C274.645 339.631 274.285 340.039 273.874 340.467C273.461 340.892 273.059 341.286 272.664 341.646C272.269 342.005 271.891 342.422 271.527 342.894C271.166 343.366 270.906 343.844 270.748 344.327L276.903 343.326L277.197 345.133L268.774 346.503L268.775 346.505Z" fill="#FF4F12"/>
<path d="M279.119 333.485C279.959 332.139 281.128 331.345 282.624 331.101C284.121 330.858 285.481 331.24 286.704 332.251C287.928 333.261 288.7 334.753 289.021 336.727C289.343 338.702 289.083 340.362 288.243 341.708C287.403 343.054 286.234 343.848 284.738 344.091C283.241 344.335 281.881 343.952 280.658 342.942C279.434 341.931 278.662 340.44 278.341 338.465C278.02 336.49 278.279 334.831 279.119 333.485ZM285.487 333.773C284.695 333.045 283.837 332.756 282.918 332.906C281.999 333.055 281.277 333.601 280.757 334.543C280.236 335.484 280.093 336.683 280.33 338.139C280.567 339.595 281.083 340.689 281.876 341.419C282.668 342.15 283.525 342.439 284.445 342.289C285.364 342.14 286.085 341.594 286.606 340.65C287.126 339.706 287.268 338.504 287.032 337.049C286.795 335.593 286.281 334.501 285.487 333.773Z" fill="#FF4F12"/>
<path d="M291.863 342.749C291.735 341.968 291.737 341.239 291.871 340.564C292.003 339.889 292.225 339.307 292.537 338.823C292.849 338.338 293.204 337.881 293.604 337.455C294.004 337.027 294.406 336.632 294.814 336.268C295.221 335.904 295.591 335.549 295.925 335.205C296.26 334.86 296.515 334.479 296.688 334.062C296.862 333.644 296.915 333.212 296.842 332.767C296.738 332.126 296.457 331.654 295.998 331.347C295.539 331.043 294.955 330.948 294.24 331.064C293.892 331.12 293.576 331.237 293.292 331.411C293.009 331.585 292.798 331.774 292.658 331.977C292.518 332.177 292.398 332.377 292.302 332.573C292.202 332.769 292.14 332.936 292.116 333.074L292.084 333.269L290.34 332.811C290.35 332.726 290.368 332.613 290.39 332.476C290.413 332.34 290.501 332.09 290.649 331.729C290.8 331.368 290.99 331.036 291.219 330.74C291.449 330.444 291.805 330.149 292.283 329.851C292.762 329.557 293.317 329.357 293.948 329.254C295.192 329.052 296.272 329.26 297.19 329.876C298.108 330.492 298.653 331.346 298.831 332.441C298.925 333.016 298.894 333.569 298.737 334.102C298.58 334.634 298.351 335.095 298.042 335.484C297.733 335.874 297.372 336.283 296.962 336.71C296.549 337.135 296.146 337.53 295.751 337.89C295.356 338.249 294.978 338.666 294.615 339.138C294.254 339.609 293.993 340.088 293.836 340.571L299.991 339.569L300.285 341.376L291.862 342.747L291.863 342.749Z" fill="#FF4F12"/>
<path d="M304.293 327.756L306.349 340.392L304.359 340.716L302.803 331.154L300.541 331.523L300.32 330.166C301.068 329.961 301.618 329.686 301.968 329.341C302.321 328.997 302.582 328.552 302.755 328.007L304.293 327.756Z" fill="#FF4F12"/>
<path fill-rule="evenodd" clip-rule="evenodd" d="M284.761 316.631L290.22 315.913L295.289 315.339C296.073 315.259 296.833 315.279 297.572 315.033C297.855 315.191 298.114 315.078 298.535 315.088L299.005 315.223C299.015 315.232 299.038 315.265 299.045 315.274C299.052 315.283 299.074 315.322 299.081 315.331C299.087 315.338 299.095 315.373 299.111 315.389L301.634 314.845L307.391 314.282L310.552 313.812C309.586 314.11 308.652 314.301 307.623 314.484C307.027 314.589 304.769 314.907 304.338 315.403L312.764 314.327C313.778 314.225 315.147 314.099 315.296 313.16C315.388 313.033 315.4 313.073 315.475 312.878C315.551 312.68 315.518 312.735 315.55 312.547C315.599 311.899 314.987 311.087 314.753 310.532C314.816 310.37 314.793 310.507 314.825 310.204C314.84 310.071 314.843 309.88 314.837 309.745C314.825 309.446 314.785 309.118 314.754 308.818L314.462 304.923L314.448 304.534L314.248 302.659L314.172 301.932L313.352 296.669L314.124 299.012C314.153 298.161 313.517 295.025 313.232 293.888L312.969 293.285C313.044 292.346 312.112 287.725 311.858 286.358L311.585 285.263L310.966 282.501L310.605 280.898L308.93 274C308.823 273.583 308.834 273.315 308.577 273.088C308.553 272.473 308.419 272.262 308.28 271.699C308.176 271.319 308.419 269.67 308.113 269.386C308.104 268.685 307.685 267.734 307.273 267.36C306.839 266.965 305.908 266.931 305.187 266.978L303.559 266.869C299.986 267.14 296.33 267.889 292.822 268.629L292.016 268.93C291.564 268.87 290.913 269.062 290.432 269.201L287.94 269.755C286.015 270.277 283.226 270.473 281.138 270.841C275.718 271.798 273.314 272.247 267.915 273.643C264.416 274.549 265.54 274.076 261.918 275.457L260.439 276.063C259.472 276.354 258.804 276.536 258.823 277.523C258.837 278.239 258.994 279.817 259.237 280.457C259.1 280.759 259.225 281.46 259.285 281.907L259.989 288.041C260.299 287.079 259.69 285.626 260.003 284.677L260.285 285.592C260.377 286.011 260.446 286.695 260.685 286.935C260.683 287.664 260.92 288.334 261.06 289.048L261.428 290.696L262.072 293.463C262.112 293.66 262.15 293.912 262.197 294.106C262.227 294.221 262.256 294.336 262.3 294.447C262.412 294.732 262.331 294.572 262.447 294.721C262.394 295.377 262.691 296.126 262.805 296.763C262.928 297.388 263.063 298.505 263.393 298.906C263.352 299.623 263.917 302.292 264.086 303.187C264.362 304.642 264.601 306.11 264.826 307.573C265.271 310.466 265.011 310.803 265.466 313.681L265.627 314.494L266.039 316.459C266.345 317.778 266.587 319.23 266.899 319.475C271.215 319.721 278.74 317.569 284.761 316.631ZM281.623 324.77L267.477 327.652C264.817 328.079 264.691 327.449 263.569 325.291C263.354 324.626 262.271 321.244 262.658 320.465C262.707 321.131 263.543 323.934 263.877 324.428L262.785 318.78L262.174 316.422C262.246 315.948 262.11 315.625 261.996 315.118L261.633 313.532L261.263 311.596L258.834 301.134L258.684 300.276C258.642 300.097 258.604 299.86 258.555 299.693C258.434 299.253 258.533 299.362 258.303 299.139C258.322 298.467 258.102 297.745 257.929 297.086C257.815 296.53 257.704 295.506 257.401 295.173L257.286 294.241C257.117 293.365 256.656 290.258 256.275 289.805L256.202 289.028C256.102 288.449 255.978 287.249 255.684 286.876C255.747 286.409 255.674 286.319 255.587 285.831L254.298 279.022L254.055 277.674L254.148 277.129C254.158 276.855 254.131 276.606 254.112 276.348C254.133 275.752 254.175 275.055 254.245 274.427C254.312 273.821 254.595 273.049 254.499 272.458C254.7 272.29 254.606 272.645 254.678 272.157C254.818 271.387 255.103 270.382 255.463 269.765C256.029 268.792 256.2 268.78 257.214 268.132C257.952 267.978 259.263 267.835 259.681 267.263L260.888 266.897C261.158 266.801 261.411 266.697 261.693 266.596C261.696 266.595 262.083 266.449 262.103 266.44L262.46 266.199L267.913 264.704C268.337 264.606 268.189 264.69 268.389 264.472C268.875 264.526 269.477 264.342 269.996 264.231L270.619 264.078L273.894 263.373C274.646 263.193 276.076 263.059 276.552 262.614C277.205 262.617 277.479 262.429 278.077 262.321C278.901 262.323 274.887 263.451 274.494 263.581L270.602 264.911C270.339 265.051 270.434 265.001 270.318 265.096C271.567 264.945 279.644 263.009 280.155 262.542C280.78 262.547 281.177 262.36 281.756 262.229C282.302 262.075 283.723 261.802 284.041 261.531C284.94 261.56 289.322 260.183 290.61 259.885C295.084 258.846 299.953 257.706 304.497 257.114C305.901 256.93 310.284 256.88 311.122 256.602C311.86 257.141 311.815 256.495 312.215 257.76L312.493 258.357C312.447 259.075 313.309 262.135 313.547 263.05L313.87 264.29C314.275 266.265 314.15 268.43 314.638 270.398C315.208 272.707 315.107 275.646 315.503 278.116C316.465 284.106 317.609 289.881 318.451 295.622C318.635 296.815 318.81 299.245 319.174 299.935L319.124 300.63C319.148 300.89 319.22 301.25 319.261 301.517C319.342 302.047 319.397 302.579 319.482 303.106L319.742 305.7L319.787 306.656C319.888 307.465 319.75 308.36 320.03 309.112L320.573 311.244L320.528 313.563L320.384 314.253L320.366 315.193C320.285 315.308 320.287 315.285 320.209 315.467C320.161 315.577 320.15 315.623 320.11 315.747C320.045 315.959 320.01 316.116 319.958 316.326C319.629 317.186 319.405 317.275 319.079 317.832C318.765 318.017 318.654 318.17 318.331 318.328C318.161 318.41 318.054 318.43 317.899 318.492C317.759 318.549 317.804 318.52 317.687 318.576C317.417 318.704 317.585 318.595 317.444 318.725C316.549 318.69 314.392 319.418 313.302 319.611C311.852 319.868 310.786 320.101 309.356 320.352C306.582 320.835 303.534 321.32 300.823 321.915L291.452 323.369L285.626 324.108L284.598 324.268L281.623 324.77ZM292.209 315.051L291.334 315.264L290.327 315.556C291.295 315.477 293.747 315.305 294.491 314.946C294.308 314.757 294.732 314.85 294.21 314.783C294.097 314.768 293.726 314.807 293.594 314.818C293.093 314.866 292.704 314.952 292.209 315.051Z" fill="#FFBE08"/>
<path d="M291.634 242.04C291.928 241.993 292.223 242.13 292.517 242.453C292.743 242.735 292.962 243.243 293.171 243.977C293.379 244.711 293.447 245.774 293.372 247.163C293.296 248.552 293.228 249.809 293.17 250.931C293.111 252.054 293.023 252.995 292.906 253.756C292.814 254.673 292.705 255.485 292.579 256.195C292.286 258.097 292.05 259.805 291.874 261.317C291.698 262.83 291.563 263.857 291.471 264.403L291.447 264.804C291.305 265.78 291.149 266.772 290.982 267.779C290.813 268.786 290.669 269.831 290.543 270.91C290.09 273.685 289.649 276.632 289.223 279.748C288.794 282.864 288.486 286.239 288.293 289.873L288.318 290.028C288.385 290.441 288.401 291.102 288.37 292.008C288.337 292.915 288.306 293.834 288.276 294.764C288.247 295.696 288.205 296.549 288.15 297.326C288.096 298.103 288.056 298.6 288.031 298.816L288.056 298.971C287.947 299.783 287.801 300.562 287.621 301.307C287.441 302.052 287.228 302.79 286.984 303.516L286.923 303.686C286.897 303.901 286.768 304.215 286.533 304.624C286.298 305.033 286.05 305.458 285.791 305.897C285.529 306.337 285.266 306.75 284.997 307.139C284.729 307.527 284.519 307.812 284.368 307.996L284.217 308.18C283.906 308.865 283.196 309.511 282.088 310.115L282.012 310.206C281.693 310.469 281.407 310.662 281.156 310.781C280.905 310.9 280.67 311.033 280.452 311.173C280.234 311.315 280.011 311.43 279.785 311.519L279.695 311.533L279.531 311.638C279.313 311.781 278.991 311.847 278.567 311.835C278.143 311.825 277.696 311.765 277.227 311.655C276.756 311.547 276.281 311.399 275.797 311.212C275.313 311.026 274.902 310.801 274.557 310.538C273.038 309.354 271.835 307.987 270.951 306.436C270.064 304.884 269.246 303.27 268.49 301.59C267.81 300.006 267.185 298.386 266.614 296.731C266.044 295.076 265.477 293.447 264.915 291.843L264.902 291.766C264.365 290.318 263.867 288.837 263.411 287.32C262.952 285.806 262.515 284.313 262.095 282.845C261.886 282.296 261.725 281.779 261.617 281.292C261.509 280.806 261.349 280.288 261.139 279.74C260.946 279.296 260.797 278.842 260.693 278.381C260.587 277.923 260.44 277.469 260.246 277.022C259.827 275.554 259.394 274.102 258.95 272.664C258.506 271.226 258.073 269.774 257.654 268.306C257.427 267.653 257.259 266.993 257.15 266.322C257.041 265.65 256.899 264.959 256.723 264.246L256.396 262.233C256.295 261.986 256.206 261.629 256.13 261.164C256.021 260.863 255.94 260.56 255.889 260.249C255.839 259.939 255.789 259.631 255.738 259.32L254.795 251.846C254.769 251.319 254.775 250.71 254.814 250.014C254.853 249.318 254.998 248.646 255.254 247.996C255.51 247.346 255.913 246.763 256.461 246.25C257.012 245.738 257.777 245.347 258.759 245.082C259.28 244.946 259.98 244.897 260.862 244.939C261.744 244.981 262.317 245.086 262.586 245.254C263.467 246.965 264.471 249.331 265.594 252.353C266.72 255.376 267.87 258.658 269.05 262.201C270.229 265.745 271.389 269.345 272.527 273C273.664 276.655 274.688 279.986 275.599 282.991C276.51 285.996 277.256 288.455 277.841 290.374C278.426 292.293 278.72 293.278 278.728 293.328L280.568 299.625L284.767 254.281C284.935 253.46 285.153 252.575 285.422 251.633C285.69 250.688 285.959 249.743 286.227 248.801C286.571 247.95 286.976 247.103 287.442 246.26C287.908 245.416 288.39 244.674 288.889 244.036C289.388 243.399 289.88 242.895 290.363 242.524C290.84 242.157 291.265 241.993 291.634 242.04Z" fill="#FF4F12"/>
<path fill-rule="evenodd" clip-rule="evenodd" d="M290.605 271.568C290.19 274.17 289.785 276.905 289.391 279.78C288.938 283.072 288.611 286.637 288.407 290.474L288.433 290.636C288.504 291.072 288.523 291.769 288.487 292.725C288.451 293.682 288.418 294.654 288.387 295.636C288.355 296.621 288.311 297.524 288.253 298.343C288.195 299.165 288.152 299.69 288.126 299.916L288.153 300.079C288.038 300.936 287.883 301.76 287.694 302.546C287.654 302.717 287.611 302.886 287.565 303.056C287.266 302.318 286.982 301.57 286.71 300.815C286.156 299.278 285.605 297.763 285.059 296.274L285.047 296.203C284.524 294.857 284.043 293.48 283.602 292.073C283.16 290.664 282.738 289.277 282.333 287.914C282.129 287.404 281.975 286.925 281.87 286.472C281.81 286.212 281.734 285.943 281.641 285.662L284.465 255.226C285.012 256.428 285.598 257.824 286.219 259.418C287.313 262.226 288.433 265.276 289.574 268.567C289.92 269.564 290.263 270.563 290.605 271.568Z" fill="#FFBE08"/>
<path d="M311.267 249.468C311.548 249.422 311.824 249.542 312.101 249.823C312.314 250.068 312.515 250.516 312.706 251.162C312.898 251.807 312.951 252.744 312.862 253.973C312.774 255.202 312.698 256.312 312.629 257.306C312.56 258.299 312.464 259.13 312.346 259.805C312.247 260.615 312.133 261.333 312.007 261.963C311.707 263.647 311.463 265.157 311.279 266.496C311.094 267.835 310.956 268.743 310.861 269.226L310.832 269.581C310.685 270.446 310.526 271.323 310.354 272.216C310.182 273.109 310.031 274.032 309.901 274.988C309.438 277.446 308.984 280.054 308.541 282.812C308.099 285.569 307.764 288.555 307.54 291.768L307.562 291.905C307.621 292.269 307.63 292.853 307.587 293.654C307.544 294.455 307.503 295.266 307.467 296.09C307.428 296.914 307.378 297.669 307.319 298.355C307.258 299.042 307.214 299.483 307.187 299.673L307.21 299.81C307.096 300.529 306.948 301.219 306.77 301.877C306.589 302.536 306.38 303.189 306.14 303.837L306.078 303.988C306.051 304.181 305.923 304.458 305.697 304.821C305.468 305.185 305.228 305.564 304.977 305.954C304.723 306.346 304.469 306.714 304.208 307.062C303.947 307.407 303.745 307.662 303.598 307.827L303.452 307.992C303.151 308.603 302.466 309.179 301.406 309.725L301.333 309.807C301.026 310.046 300.752 310.218 300.511 310.328C300.269 310.438 300.044 310.555 299.835 310.684C299.625 310.812 299.411 310.917 299.196 310.996L299.112 311.01L298.954 311.106C298.745 311.234 298.44 311.294 298.035 311.29C297.631 311.285 297.206 311.237 296.762 311.147C296.314 311.055 295.864 310.93 295.408 310.772C294.95 310.614 294.559 310.419 294.236 310.192C292.803 309.163 291.675 307.97 290.851 306.61C290.027 305.249 289.264 303.832 288.563 302.358C287.933 300.966 287.357 299.542 286.832 298.086C286.307 296.63 285.788 295.197 285.27 293.787L285.259 293.718C284.763 292.443 284.307 291.14 283.888 289.806C283.47 288.474 283.07 287.159 282.687 285.869C282.493 285.385 282.348 284.931 282.25 284.503C282.151 284.075 282.006 283.62 281.813 283.137C281.633 282.746 281.498 282.347 281.403 281.942C281.308 281.537 281.173 281.138 280.994 280.747C280.61 279.453 280.216 278.175 279.809 276.911C279.401 275.645 279.007 274.367 278.624 273.076C278.415 272.504 278.263 271.92 278.166 271.33C278.07 270.739 277.942 270.128 277.782 269.501L277.494 267.727C277.401 267.509 277.32 267.193 277.254 266.786C277.154 266.523 277.081 266.253 277.037 265.98C276.992 265.708 276.948 265.433 276.903 265.161L276.09 258.566C276.072 258.102 276.084 257.564 276.128 256.948C276.173 256.335 276.319 255.739 276.571 255.16C276.823 254.581 277.213 254.063 277.741 253.603C278.27 253.144 279.004 252.792 279.942 252.545C280.437 252.417 281.106 252.366 281.944 252.394C282.782 252.423 283.328 252.509 283.582 252.653C284.401 254.155 285.329 256.235 286.367 258.893C287.403 261.551 288.462 264.438 289.543 267.556C290.625 270.674 291.688 273.84 292.728 277.059C293.768 280.275 294.706 283.208 295.538 285.852C296.372 288.496 297.054 290.663 297.586 292.35C298.12 294.037 298.389 294.905 298.397 294.951L300.075 300.493L304.588 260.364C304.758 259.636 304.974 258.854 305.241 258.016C305.509 257.179 305.774 256.341 306.041 255.504C306.377 254.749 306.773 253.995 307.225 253.245C307.678 252.495 308.147 251.833 308.628 251.264C309.11 250.694 309.584 250.243 310.047 249.912C310.509 249.581 310.917 249.431 311.267 249.468Z" fill="#FF4F12"/>
<path d="M370.705 259.811C370.648 260.894 370.585 261.957 370.521 262.994C370.456 264.031 370.393 265.094 370.336 266.177L370.405 266.166C370.588 265.857 370.76 265.547 370.923 265.241C371.083 264.935 371.228 264.606 371.361 264.258C371.922 262.811 372.482 261.353 373.04 259.886C373.598 258.416 374.154 256.935 374.708 255.445C375.364 253.703 375.925 251.966 376.393 250.231C376.86 248.496 377.087 246.719 377.072 244.901C377.094 243.309 376.327 242.337 374.77 241.981C374.23 241.837 373.887 242.031 373.741 242.569C373.601 242.872 373.452 243.178 373.292 243.483C373.132 243.789 372.956 244.076 372.763 244.34C372.518 244.848 372.244 245.323 371.941 245.77C371.639 246.216 371.434 246.68 371.324 247.166C371.137 248.317 371.018 249.457 370.966 250.586C370.916 251.715 370.868 252.867 370.826 254.042C370.747 254.99 370.714 255.951 370.732 256.93C370.748 257.913 370.741 258.873 370.705 259.811ZM384.018 280.699C384.529 280.663 384.959 280.792 385.311 281.084C385.662 281.377 385.852 281.757 385.883 282.217C385.911 282.68 385.978 283.672 386.087 285.195C386.193 286.719 386.255 288.533 386.269 290.631C386.283 292.732 386.216 294.994 386.074 297.423C385.929 299.853 385.659 302.222 385.261 304.528C384.863 306.834 384.267 308.94 383.476 310.845C382.684 312.748 381.664 314.199 380.421 315.195C379.422 315.964 378.375 316.44 377.279 316.618C375.038 316.377 373.096 315.546 371.461 314.132C369.825 312.716 368.427 310.971 367.269 308.895C366.111 306.818 365.168 304.553 364.442 302.103C363.715 299.653 363.143 297.293 362.726 295.025C362.667 294.662 362.618 294.296 362.582 293.928C362.546 293.561 362.497 293.195 362.438 292.831L362.038 290.373C361.958 289.591 361.878 288.81 361.798 288.029C361.74 287.385 361.664 286.708 361.572 285.999C361.481 285.291 361.412 284.659 361.369 284.105C361.378 283.871 361.368 283.661 361.338 283.48C361.309 283.299 361.286 283.162 361.272 283.07C361.05 281.706 360.921 280.337 360.884 278.964C360.849 277.59 360.791 276.234 360.714 274.893C360.579 272.626 360.577 270.372 360.705 268.133C360.834 265.895 361.04 263.63 361.322 261.34C361.497 259.818 361.66 258.307 361.815 256.811C361.97 255.315 362.233 253.836 362.605 252.372C363.04 250.434 363.635 248.55 364.394 246.721C365.15 244.892 366.147 243.154 367.378 241.504C367.494 241.344 367.767 241.091 368.203 240.74C368.639 240.39 369.093 240.023 369.571 239.643C370.049 239.262 370.497 238.92 370.917 238.619C371.337 238.318 371.592 238.159 371.684 238.144C371.858 238.069 372.096 238.02 372.399 237.994C372.699 237.969 373.017 237.974 373.351 238.014C373.685 238.054 373.989 238.119 374.262 238.216C374.535 238.313 374.728 238.42 374.842 238.542C375.106 238.732 375.362 238.936 375.61 239.154C375.855 239.37 376.104 239.528 376.356 239.628C377.398 239.973 378.098 240.478 378.466 241.142C378.831 241.806 379.067 242.599 379.169 243.515C379.36 244.978 379.367 246.39 379.19 247.751C379.013 249.112 378.712 250.504 378.288 251.926C377.985 253.237 377.624 254.464 377.199 255.607C376.844 256.6 376.496 257.555 376.153 258.475C375.81 259.396 375.462 260.351 375.107 261.344C374.908 261.844 374.706 262.345 374.507 262.842C374.308 263.342 374.106 263.842 373.906 264.34C373.537 265.241 373.2 266.124 372.896 266.991C372.591 267.859 372.251 268.718 371.874 269.574C371.706 269.975 371.515 270.393 371.304 270.824C371.094 271.255 370.879 271.677 370.665 272.085C370.29 272.661 370.094 273.265 370.082 273.896C370.067 274.528 370.066 275.171 370.078 275.825C370.112 276.614 370.173 277.421 370.263 278.248C370.35 279.075 370.411 279.883 370.447 280.671C370.459 281.322 370.454 282.002 370.427 282.707C370.4 283.411 370.441 284.084 370.545 284.72C370.684 285.865 370.868 286.992 371.095 288.1C371.322 289.207 371.575 290.323 371.849 291.446C372.162 293.078 372.566 294.692 373.06 296.294C373.278 297.052 373.507 297.82 373.752 298.597C373.996 299.375 374.249 300.139 374.513 300.89C374.91 301.899 375.294 302.889 375.664 303.856C376.031 304.823 376.415 305.813 376.815 306.822C376.951 307.079 377.077 307.351 377.194 307.635C377.311 307.919 377.44 308.214 377.584 308.518C377.781 308.859 377.995 309.174 378.23 309.463C378.466 309.751 378.705 309.934 378.951 310.011C379.197 310.089 379.452 310.058 379.71 309.922C379.969 309.786 380.223 309.465 380.468 308.957C380.667 308.457 380.864 307.924 381.052 307.355C381.24 306.786 381.417 306.138 381.58 305.412C381.612 305.033 381.654 304.71 381.703 304.446C381.754 304.182 381.807 303.927 381.859 303.684C382.062 302.624 382.224 301.464 382.347 300.206C382.47 298.948 382.569 297.542 382.647 295.988C382.738 294.244 382.782 292.567 382.777 290.956C382.772 289.345 382.74 287.926 382.682 286.698C382.624 285.469 382.567 284.475 382.514 283.713C382.461 282.951 382.432 282.569 382.432 282.569C382.397 282.06 382.528 281.642 382.826 281.314C383.116 280.984 383.515 280.781 384.018 280.699ZM349.88 263.199C349.823 264.282 349.76 265.345 349.696 266.382C349.631 267.42 349.568 268.483 349.511 269.566L349.58 269.554C349.763 269.245 349.935 268.935 350.098 268.629C350.258 268.323 350.403 267.994 350.536 267.646C351.097 266.199 351.657 264.741 352.215 263.274C352.773 261.804 353.329 260.324 353.883 258.833C354.539 257.091 355.1 255.354 355.568 253.619C356.035 251.884 356.262 250.107 356.247 248.289C356.269 246.697 355.502 245.725 353.945 245.369C353.405 245.225 353.062 245.419 352.916 245.957C352.776 246.26 352.627 246.566 352.467 246.872C352.307 247.177 352.131 247.465 351.938 247.728C351.693 248.236 351.419 248.712 351.117 249.158C350.814 249.604 350.609 250.068 350.5 250.554C350.312 251.705 350.193 252.845 350.141 253.974C350.091 255.103 350.043 256.255 350.001 257.43C349.922 258.378 349.889 259.339 349.907 260.319C349.923 261.301 349.916 262.261 349.88 263.199ZM363.193 284.087C363.704 284.051 364.134 284.18 364.486 284.473C364.837 284.765 365.028 285.145 365.058 285.605C365.086 286.068 365.153 287.06 365.262 288.584C365.368 290.108 365.43 291.921 365.444 294.019C365.458 296.12 365.391 298.383 365.249 300.812C365.104 303.241 364.834 305.61 364.436 307.916C364.038 310.222 363.442 312.328 362.651 314.233C361.859 316.136 360.839 317.587 359.596 318.584C358.597 319.352 357.55 319.828 356.454 320.007C354.213 319.765 352.271 318.934 350.636 317.521C349 316.104 347.602 314.359 346.444 312.283C345.286 310.206 344.343 307.941 343.617 305.491C342.89 303.041 342.318 300.681 341.901 298.414C341.842 298.05 341.793 297.684 341.757 297.316C341.721 296.949 341.672 296.583 341.613 296.219L341.213 293.761C341.133 292.98 341.053 292.198 340.973 291.417C340.915 290.774 340.839 290.096 340.748 289.388C340.656 288.679 340.587 288.047 340.544 287.493C340.553 287.259 340.543 287.049 340.513 286.868C340.484 286.688 340.462 286.55 340.447 286.458C340.225 285.094 340.096 283.725 340.059 282.352C340.024 280.979 339.966 279.622 339.89 278.281C339.754 276.015 339.752 273.76 339.88 271.522C340.009 269.283 340.215 267.018 340.497 264.728C340.672 263.206 340.835 261.695 340.99 260.199C341.145 258.703 341.408 257.224 341.781 255.76C342.215 253.822 342.81 251.938 343.569 250.109C344.325 248.28 345.322 246.542 346.553 244.892C346.669 244.732 346.942 244.479 347.378 244.129C347.814 243.778 348.268 243.412 348.746 243.031C349.224 242.65 349.672 242.308 350.092 242.007C350.512 241.706 350.767 241.547 350.859 241.532C351.035 241.457 351.271 241.408 351.574 241.382C351.874 241.357 352.192 241.363 352.526 241.402C352.86 241.442 353.164 241.507 353.437 241.604C353.71 241.701 353.903 241.808 354.017 241.93C354.281 242.12 354.537 242.324 354.785 242.542C355.03 242.758 355.279 242.916 355.531 243.016C356.573 243.361 357.274 243.867 357.641 244.53C358.006 245.195 358.242 245.987 358.344 246.903C358.535 248.366 358.542 249.778 358.365 251.139C358.188 252.501 357.888 253.892 357.464 255.314C357.16 256.625 356.799 257.852 356.374 258.995C356.019 259.988 355.671 260.943 355.328 261.864C354.985 262.784 354.637 263.739 354.282 264.732C354.083 265.232 353.881 265.733 353.682 266.23C353.483 266.73 353.281 267.231 353.081 267.728C352.712 268.629 352.375 269.512 352.071 270.379C351.766 271.247 351.426 272.107 351.049 272.962C350.881 273.363 350.69 273.781 350.479 274.212C350.269 274.643 350.054 275.065 349.84 275.473C349.465 276.049 349.269 276.653 349.257 277.285C349.242 277.917 349.241 278.559 349.253 279.213C349.287 280.002 349.348 280.81 349.438 281.636C349.525 282.463 349.586 283.271 349.622 284.059C349.634 284.71 349.629 285.39 349.602 286.095C349.575 286.799 349.617 287.472 349.72 288.108C349.859 289.253 350.043 290.381 350.27 291.488C350.497 292.595 350.75 293.711 351.024 294.834C351.337 296.466 351.741 298.08 352.235 299.682C352.453 300.441 352.682 301.208 352.927 301.986C353.171 302.764 353.424 303.527 353.688 304.278C354.085 305.287 354.469 306.278 354.839 307.244C355.206 308.211 355.59 309.201 355.99 310.21C356.126 310.467 356.252 310.739 356.369 311.023C356.486 311.307 356.615 311.603 356.759 311.906C356.956 312.247 357.17 312.562 357.405 312.851C357.641 313.139 357.88 313.322 358.126 313.4C358.372 313.477 358.627 313.446 358.885 313.31C359.144 313.174 359.398 312.853 359.643 312.346C359.842 311.845 360.039 311.312 360.227 310.743C360.415 310.175 360.592 309.526 360.755 308.8C360.787 308.421 360.829 308.098 360.878 307.834C360.929 307.57 360.98 307.316 361.035 307.072C361.237 306.012 361.4 304.852 361.523 303.594C361.645 302.336 361.744 300.93 361.822 299.376C361.913 297.632 361.957 295.955 361.952 294.344C361.947 292.733 361.916 291.315 361.857 290.086C361.799 288.857 361.742 287.863 361.689 287.101C361.636 286.339 361.608 285.957 361.608 285.957C361.572 285.448 361.703 285.03 362.001 284.702C362.291 284.373 362.69 284.169 363.193 284.087ZM328.763 283.803C328.774 284.455 328.834 285.111 328.941 285.77C329.049 286.429 329.166 287.006 329.294 287.5C329.436 288.083 329.578 288.668 329.72 289.251C330.179 288.335 330.521 287.263 330.744 286.036C330.966 284.809 331.127 283.638 331.226 282.525C331.326 281.412 331.377 280.421 331.375 279.557C331.376 278.692 331.355 278.146 331.319 277.92C331.194 276.866 331.015 276.263 330.779 276.116C330.545 275.966 330.339 276.07 330.161 276.426C329.963 276.646 329.752 276.947 329.535 277.332C329.317 277.718 329.115 278.218 328.934 278.83C328.753 279.442 328.637 280.175 328.589 281.023C328.538 281.873 328.581 282.846 328.713 283.947L328.763 283.803ZM342.664 287.566C343.136 287.583 343.519 287.777 343.813 288.15C344.107 288.522 344.219 288.925 344.15 289.356C344.141 289.59 344.077 290.129 343.956 290.966C343.835 291.803 343.643 292.78 343.379 293.897C343.115 295.013 342.759 296.205 342.309 297.47C341.859 298.734 341.308 299.957 340.656 301.137C340.004 302.317 339.238 303.364 338.354 304.278C337.473 305.192 336.45 305.837 335.295 306.213L334.815 306.291C334.365 306.411 333.885 306.489 333.377 306.525C332.913 306.553 332.397 306.556 331.831 306.531C331.264 306.506 330.705 306.374 330.15 306.138C329.314 305.9 328.47 305.547 327.621 305.079C326.771 304.611 325.925 303.954 325.085 303.109C323.655 301.521 322.656 299.698 322.085 297.641C321.703 296.162 321.451 294.614 321.33 292.999C321.296 292.21 321.282 291.418 321.295 290.622C321.307 289.826 321.362 289.023 321.466 288.212C321.578 286.885 321.794 285.473 322.113 283.974C322.424 282.708 322.867 281.259 323.445 279.622C324.023 277.986 324.809 276.341 325.806 274.684L325.795 274.615C325.872 274.509 325.936 274.404 325.99 274.304C326.045 274.201 326.109 274.097 326.186 273.993L326.175 273.924C326.772 272.986 327.513 272.35 328.398 272.021C329.282 271.689 330.127 271.565 330.937 271.642C331.746 271.719 332.474 271.94 333.118 272.303C333.764 272.666 334.168 273.068 334.333 273.506C334.394 273.59 334.434 273.688 334.453 273.802C334.471 273.917 334.511 274.015 334.572 274.099C334.991 275.246 335.218 276.41 335.246 277.597C335.273 278.784 335.2 279.974 335.02 281.174C334.776 282.849 334.51 284.514 334.216 286.174C333.922 287.833 333.61 289.507 333.274 291.197C333.127 292.015 332.917 292.819 332.647 293.61C332.377 294.401 332.074 295.198 331.736 296C331.551 296.592 331.523 297.145 331.654 297.659C331.786 298.176 331.938 298.676 332.109 299.163C332.26 299.512 332.421 299.859 332.595 300.205C332.769 300.55 332.954 300.893 333.151 301.235C333.348 301.576 333.672 301.921 334.126 302.268C334.581 302.614 335.121 302.55 335.747 302.074C336.113 301.735 336.469 301.327 336.814 300.851C336.968 300.637 337.058 300.484 337.089 300.385C337.571 299.607 338.017 298.74 338.425 297.785C338.834 296.831 339.188 295.851 339.494 294.845C339.799 293.837 340.058 292.838 340.272 291.845C340.485 290.851 340.639 289.928 340.735 289.071C340.753 288.6 340.948 288.219 341.322 287.925C341.691 287.633 342.141 287.512 342.664 287.566Z" fill="#7800FF"/>
<path d="M399.343 329.162C399.356 329.738 399.407 330.314 399.502 330.895C399.596 331.475 399.7 331.983 399.812 332.417C399.938 332.932 400.061 333.445 400.187 333.96C400.593 333.154 400.893 332.21 401.089 331.127C401.285 330.045 401.427 329.017 401.514 328.036C401.601 327.055 401.645 326.183 401.647 325.423C401.647 324.663 401.632 324.182 401.599 323.981C401.49 323.053 401.33 322.522 401.123 322.392C400.915 322.261 400.734 322.353 400.58 322.665C400.404 322.858 400.222 323.123 400.029 323.466C399.837 323.805 399.66 324.246 399.501 324.784C399.34 325.325 399.24 325.968 399.197 326.715C399.153 327.461 399.19 328.32 399.306 329.289L399.343 329.162ZM411.586 332.479C412.002 332.492 412.339 332.664 412.597 332.993C412.858 333.322 412.955 333.675 412.893 334.056C412.885 334.263 412.828 334.735 412.72 335.471C412.612 336.209 412.443 337.07 412.212 338.054C411.979 339.037 411.664 340.086 411.269 341.201C410.874 342.315 410.388 343.39 409.813 344.431C409.24 345.47 408.564 346.393 407.786 347.199C407.01 348.004 406.111 348.571 405.09 348.902L404.668 348.97C404.274 349.076 403.85 349.145 403.402 349.176C402.992 349.201 402.539 349.204 402.039 349.181C401.54 349.16 401.047 349.045 400.56 348.837C399.823 348.627 399.081 348.317 398.334 347.903C397.585 347.489 396.841 346.913 396.102 346.168C394.841 344.77 393.961 343.165 393.459 341.353C393.124 340.049 392.902 338.687 392.794 337.265C392.763 336.571 392.754 335.874 392.763 335.173C392.772 334.471 392.823 333.766 392.913 333.051C393.012 331.883 393.202 330.637 393.483 329.316C393.755 328.204 394.148 326.925 394.655 325.484C395.163 324.043 395.857 322.592 396.734 321.136L396.725 321.075C396.793 320.982 396.849 320.89 396.898 320.801C396.946 320.71 397.002 320.619 397.07 320.525L397.06 320.464C397.587 319.639 398.237 319.078 399.016 318.787C399.794 318.496 400.539 318.385 401.253 318.454C401.967 318.524 402.607 318.717 403.175 319.038C403.744 319.358 404.1 319.71 404.247 320.096C404.3 320.169 404.336 320.257 404.352 320.356C404.368 320.455 404.403 320.544 404.457 320.616C404.828 321.624 405.027 322.652 405.05 323.699C405.076 324.745 405.008 325.793 404.85 326.848C404.636 328.322 404.4 329.789 404.143 331.252C403.885 332.713 403.609 334.189 403.313 335.677C403.181 336.398 402.998 337.107 402.76 337.805C402.522 338.502 402.254 339.204 401.957 339.91C401.793 340.431 401.77 340.918 401.885 341.372C402.001 341.826 402.133 342.267 402.287 342.696C402.421 343.003 402.563 343.31 402.714 343.614C402.866 343.918 403.031 344.221 403.203 344.522C403.375 344.823 403.663 345.126 404.064 345.432C404.465 345.738 404.941 345.681 405.491 345.263C405.815 344.962 406.126 344.603 406.43 344.185C406.565 343.999 406.645 343.863 406.673 343.775C407.099 343.089 407.491 342.325 407.85 341.485C408.209 340.646 408.522 339.783 408.791 338.895C409.061 338.007 409.288 337.127 409.476 336.255C409.664 335.38 409.799 334.567 409.884 333.814C409.9 333.398 410.071 333.062 410.401 332.805C410.727 332.535 411.124 332.429 411.586 332.479ZM394.372 335.154C394.783 335.129 395.138 335.236 395.447 335.473C395.753 335.71 395.941 336.03 396.006 336.432C396.031 336.841 396.084 337.47 396.159 338.319C396.235 339.172 396.278 340.131 396.286 341.198C396.295 342.266 396.239 343.387 396.12 344.559C396.001 345.73 395.798 346.832 395.513 347.866C395.227 348.9 394.815 349.8 394.279 350.566C393.743 351.333 393.064 351.843 392.238 352.103L391.574 352.211C391.132 352.283 390.536 352.307 389.79 352.284C389.045 352.262 388.284 351.902 387.51 351.205C386.695 350.515 386.009 349.65 385.446 348.61C384.884 347.57 384.436 346.523 384.099 345.467C383.945 345.04 383.779 344.388 383.594 343.512C383.41 342.638 383.216 341.752 383.008 340.861C382.801 339.97 382.603 339.19 382.41 338.521C382.218 337.853 382.039 337.513 381.872 337.499C381.41 337.451 380.988 337.838 380.606 338.661C380.223 339.483 379.87 340.549 379.547 341.855C379.222 343.162 378.938 344.588 378.693 346.13C378.449 347.672 378.242 349.124 378.071 350.489C377.9 351.855 377.753 353.031 377.623 354.018C377.495 355.006 377.4 355.567 377.338 355.7C377.15 356.06 376.932 356.445 376.69 356.856C376.447 357.266 376.113 357.566 375.691 357.757C374.376 358.3 373.259 358.297 372.344 357.746C371.428 357.194 370.81 356.185 370.487 354.714C370.095 352.803 369.767 350.85 369.503 348.858C369.241 346.863 369.012 345.019 368.82 343.324C368.627 341.38 368.461 339.474 368.322 337.605C368.313 337.032 368.29 336.459 368.261 335.889C368.231 335.319 368.208 334.745 368.199 334.172C368.21 333.224 368.433 332.499 368.867 331.997C369.302 331.495 369.768 331.119 370.263 330.874C371.108 330.491 371.785 330.399 372.293 330.606C372.801 330.811 373.185 331.078 373.446 331.406C373.74 331.687 373.999 332.212 374.228 332.977C374.455 333.742 374.658 334.542 374.836 335.378C375.014 336.214 375.157 336.961 375.264 337.623C375.372 338.284 375.429 338.636 375.435 338.674C375.564 338.447 375.749 338.056 375.987 337.505C376.227 336.951 376.511 336.341 376.834 335.669C377.158 335 377.546 334.339 377.999 333.69C378.452 333.042 378.948 332.486 379.493 332.029C379.747 331.823 380.046 331.63 380.39 331.452C380.733 331.273 381.092 331.142 381.471 331.059C381.851 330.976 382.223 330.989 382.591 331.094C382.959 331.198 383.313 331.407 383.653 331.723C384.227 332.207 384.592 332.803 384.75 333.519L386.14 339.772C386.349 340.561 386.565 341.503 386.786 342.598C387.006 343.693 387.273 344.71 387.591 345.646C387.697 346.039 387.877 346.454 388.133 346.885C388.389 347.316 388.673 347.722 388.982 348.105C389.29 348.486 389.633 348.801 390.003 349.049C390.374 349.297 390.761 349.389 391.162 349.323C391.563 349.258 391.921 348.912 392.23 348.285C392.543 347.659 392.791 346.785 392.981 345.663C393.171 344.542 393.277 343.229 393.299 341.724C393.322 340.218 393.23 338.576 393.025 336.799C393.001 336.393 393.108 336.036 393.346 335.728C393.589 335.417 393.931 335.226 394.372 335.154ZM358.148 358.389C358.469 358.336 358.743 358.117 358.969 357.73C359.194 357.343 359.384 356.85 359.532 356.248C359.681 355.649 359.797 354.962 359.878 354.186C359.96 353.412 360.015 352.612 360.046 351.784C360.15 349.876 360.15 347.736 360.055 345.364C359.66 345.222 359.247 345.085 358.811 344.95C358.456 344.801 358.077 344.628 357.672 344.425C357.267 344.224 356.877 343.987 356.503 343.719C356.462 343.725 356.44 343.718 356.437 343.698C356.433 343.678 356.411 343.671 356.37 343.678C355.996 343.409 355.631 343.066 355.275 342.651C354.919 342.236 354.566 341.852 354.22 341.496C353.826 341.108 353.447 340.676 353.081 340.2C353.221 343.592 353.484 346.613 353.874 349.267C354.057 350.389 354.268 351.496 354.506 352.589C354.747 353.681 355.029 354.654 355.353 355.505C355.678 356.356 356.047 357.048 356.463 357.576C356.88 358.104 357.379 358.383 357.963 358.411L358.146 358.381L358.148 358.389ZM356.067 338.364C355.93 338.799 356.066 339.31 356.472 339.902C356.877 340.494 357.277 340.986 357.671 341.373C357.918 341.621 358.177 341.827 358.452 341.986C358.727 342.147 358.976 342.292 359.204 342.42C359.432 342.547 359.674 342.651 359.936 342.732C359.891 342.452 359.825 342.175 359.738 341.899C359.658 341.667 359.573 341.401 359.486 341.107C359.396 340.813 359.29 340.533 359.163 340.263C359.012 339.836 358.791 339.449 358.51 339.105C358.226 338.76 357.895 338.435 357.514 338.126C357.252 338.045 357.037 337.976 356.863 337.923C356.434 337.831 356.169 337.976 356.067 338.364ZM370.542 339.402C370.896 339.551 371.147 339.818 371.291 340.205C371.438 340.591 371.415 340.966 371.227 341.326C370.518 342.8 369.627 343.869 368.559 344.537C367.49 345.204 366.393 345.628 365.266 345.812C364.582 345.923 363.928 345.967 363.306 345.945C363.35 346.473 363.395 346.939 363.442 347.342C363.487 347.747 363.505 348.052 363.499 348.257C363.516 349.119 363.523 350.116 363.521 351.247C363.519 352.379 363.457 353.51 363.331 354.64C363.206 355.771 363.025 356.819 362.789 357.782C362.552 358.746 362.21 359.491 361.758 360.016C360.859 361.602 359.488 362.567 357.645 362.906C357.403 362.946 357.164 362.995 356.927 363.054C356.691 363.114 356.47 363.16 356.268 363.193C355.237 363.444 354.322 363.345 353.526 362.9C352.73 362.454 352.006 361.872 351.354 361.155C350.649 360.366 350.097 359.518 349.704 358.615C349.308 357.713 348.951 356.774 348.627 355.797C348.396 355.134 348.171 354.463 347.957 353.777C347.743 353.091 347.559 352.413 347.408 351.737C347.092 350.555 346.893 349.331 346.811 348.07C346.781 347.129 346.766 346.215 346.769 345.331C346.769 344.445 346.775 343.53 346.786 342.583C346.787 342.089 346.821 341.59 346.883 341.086C346.945 340.582 347.021 340.097 347.11 339.63C347.227 338.83 347.363 338.006 347.513 337.159C347.676 336.887 347.945 336.637 348.32 336.411C348.622 336.239 349.025 336.121 349.531 336.06C350.038 335.998 350.658 336.072 351.395 336.282C351.611 336.082 351.764 335.892 351.86 335.712C351.916 335.538 352.005 335.391 352.129 335.266C352.253 335.144 352.389 335.028 352.537 334.923C353.034 334.432 353.467 334.421 353.833 334.897C354.302 334.737 354.764 334.592 355.216 334.456C355.668 334.319 356.136 334.214 356.619 334.136C357.619 333.931 358.528 334.074 359.351 334.556C360.171 335.039 360.83 335.653 361.323 336.396C361.488 336.656 361.616 336.925 361.7 337.199C361.786 337.472 361.876 337.766 361.966 338.08C362.197 338.743 362.437 339.443 362.681 340.185C362.686 340.471 362.711 340.757 362.757 341.037C362.796 341.276 362.833 341.571 362.868 341.915C362.903 342.259 362.95 342.612 363.008 342.971C363.223 343.017 363.463 343.041 363.733 343.039C364 343.037 364.276 343.013 364.557 342.967C366.46 342.741 367.791 341.783 368.55 340.097C368.737 339.737 369.026 339.484 369.417 339.34C369.805 339.193 370.181 339.215 370.542 339.402ZM329.637 346.057C329.668 343.461 329.648 341.675 329.571 340.7C329.496 339.724 329.408 339.182 329.306 339.076C329.194 338.888 329.137 338.795 329.137 338.795C328.554 338.767 328.042 339.036 327.596 339.602C327.226 340.115 326.876 340.942 326.546 342.088C326.215 343.231 326.012 344.962 325.935 347.279C325.859 349.595 325.891 351.327 326.039 352.476C326.184 353.625 326.357 354.431 326.555 354.892C326.808 355.428 327.093 355.669 327.415 355.617L327.476 355.607C327.517 355.6 327.55 355.605 327.571 355.623C327.594 355.64 327.644 355.621 327.716 355.568L327.778 355.558L327.768 355.497C327.922 355.43 328.11 355.245 328.328 354.943C328.546 354.641 328.756 354.142 328.953 353.454C329.15 352.764 329.307 351.824 329.422 350.632C329.537 349.438 329.609 347.914 329.637 346.057ZM349.085 342.648C349.499 342.661 349.837 342.823 350.092 343.132C350.349 343.44 350.468 343.802 350.454 344.214C350.467 344.296 350.439 344.619 350.366 345.185C350.293 345.753 350.186 346.499 350.049 347.428C349.911 348.354 349.741 349.401 349.537 350.565C349.333 351.73 349.106 352.929 348.854 354.164C348.499 355.784 348.139 357.201 347.78 358.411C347.419 359.622 347.024 360.674 346.59 361.567C346.556 361.615 346.348 361.915 345.964 362.471C345.58 363.027 345.015 363.55 344.269 364.043C343.523 364.535 342.627 364.793 341.577 364.82C340.528 364.847 339.264 364.363 337.781 363.371C336.814 362.5 335.98 361.567 335.281 360.57C334.682 359.68 334.163 358.777 333.726 357.861C333.288 356.945 333.013 356.394 332.898 356.206C332.798 356.345 332.705 356.486 332.625 356.621C332.545 356.757 332.452 356.895 332.352 357.037C332.115 357.611 331.724 358.126 331.18 358.586C330.709 358.992 330.075 359.351 329.282 359.665C328.487 359.98 327.482 360.091 326.272 360.001C324.905 359.978 323.708 359.595 322.681 358.858C322.273 358.637 321.886 358.288 321.52 357.814C321.12 357.386 320.807 356.862 320.582 356.24C320.371 355.7 320.186 355.079 320.034 354.386C319.879 353.69 319.747 353.003 319.636 352.321C319.512 351.56 319.405 350.776 319.315 349.967C319.298 349.106 319.312 348.241 319.357 347.369C319.401 346.497 319.518 345.635 319.709 344.783C319.758 344.569 319.802 344.337 319.844 344.082C319.912 343.742 320.027 343.303 320.188 342.762C320.346 342.221 320.554 341.644 320.805 341.026C321.056 340.41 321.345 339.786 321.678 339.157C322.008 338.529 322.378 337.933 322.782 337.374C323.172 336.981 323.528 336.625 323.846 336.304C324.166 335.986 324.632 335.672 325.242 335.367C326.203 334.923 326.971 334.694 327.546 334.684C328.12 334.671 328.568 334.745 328.881 334.897C329.242 335.084 329.495 335.372 329.64 335.761C329.422 332.134 329.322 328.862 329.342 325.935C329.348 324.701 329.394 323.469 329.483 322.242C329.571 321.013 329.698 319.892 329.863 318.878C330.029 317.864 330.261 317.003 330.558 316.296C330.854 315.59 331.236 315.136 331.7 314.938C332.592 314.586 333.392 314.498 334.102 314.669C334.812 314.841 335.404 315.116 335.877 315.491C336.403 315.941 336.888 316.499 337.327 317.167L337.265 317.177C337.638 317.694 337.817 318.281 337.799 318.943C337.872 319.137 337.917 319.344 337.932 319.569C337.948 319.794 337.951 320.007 337.946 320.215C337.969 321.115 337.982 322.019 337.982 322.923C337.985 323.826 337.982 324.754 337.971 325.702C337.969 325.95 337.96 326.33 337.94 326.848C337.921 327.366 337.895 327.914 337.867 328.496C337.838 329.075 337.813 329.615 337.789 330.112C337.768 330.609 337.752 330.962 337.743 331.17C337.756 331.745 337.75 332.289 337.732 332.807C337.714 333.325 337.708 333.871 337.72 334.444C337.713 334.897 337.741 335.326 337.806 335.726C337.871 336.128 337.916 336.531 337.94 336.937C337.985 337.217 338.036 337.59 338.09 338.054C338.145 338.518 338.201 338.992 338.259 339.477C338.317 339.961 338.366 340.395 338.408 340.78C338.449 341.165 338.48 341.416 338.499 341.535C338.734 342.978 338.957 344.413 339.168 345.839C339.379 347.265 339.619 348.676 339.888 350.071C340.098 351.106 340.328 352.15 340.583 353.198C340.835 354.246 341.108 355.283 341.398 356.304L341.408 356.365C341.541 356.673 341.664 356.992 341.781 357.324C341.898 357.655 342.041 357.971 342.213 358.272C342.213 358.272 342.306 358.39 342.489 358.629C342.672 358.866 342.918 358.98 343.226 358.972C343.534 358.964 343.879 358.732 344.259 358.279C344.639 357.825 345.01 356.931 345.372 355.598C345.474 355.21 345.572 354.794 345.664 354.346C345.757 353.9 345.868 353.438 345.998 352.964C346.229 351.858 346.434 350.764 346.61 349.686C346.786 348.607 346.929 347.648 347.041 346.807C347.172 345.84 347.291 344.914 347.395 344.035C347.411 343.62 347.582 343.284 347.912 343.026C348.236 342.765 348.63 342.638 349.085 342.648Z" fill="#7800FF"/>
</g>
<defs>
<clipPath id="clip0">
<rect width="182.677" height="141.844" fill="white" transform="translate(241.809 247.825) rotate(-9.24093)"/>
</clipPath>
</defs>
</svg>
