<svg width="351" height="455" viewBox="0 0 351 455" fill="none" xmlns="http://www.w3.org/2000/svg">
<ellipse cx="330.686" cy="290.475" rx="80" ry="80.5" transform="rotate(27.0637 330.686 290.475)" fill="#F08300"/>
<path d="M444.823 83.5388L440.721 82.7691C437.98 97.3575 433.866 111.838 428.492 125.803C405.117 186.482 359.25 234.377 299.334 260.669C238.046 287.564 169.68 288.713 106.836 263.9C82.3054 254.216 59.6151 240.986 39.3942 224.571L36.7662 227.814C57.3165 244.497 80.3749 257.944 105.302 267.783C169.189 293.009 238.694 291.842 301.011 264.494C361.952 237.75 408.608 189.031 432.385 127.303C437.848 113.103 442.033 98.3788 444.823 83.5388Z" fill="#00672A"/>
<path d="M421.71 175.076L418.164 172.873C352.74 278.218 220.059 321.042 102.677 274.691C76.8951 264.517 53.0567 250.596 31.8287 233.318L29.1953 236.554C50.7574 254.103 74.9678 268.241 101.147 278.574C220.401 325.664 355.218 282.137 421.71 175.076Z" fill="#00672A"/>
<path d="M109.456 256.989C93.1417 250.549 77.5329 242.418 63.0673 232.819L65.3757 229.338C79.601 238.776 94.9459 246.772 110.989 253.105C170.885 276.757 236.044 275.662 294.458 250.03C351.564 224.972 395.28 179.321 417.558 121.486C432.124 83.6534 436.612 42.5734 430.54 2.68914L430.273 1.17322L434.389 0.394101L434.668 2.0611C440.848 42.6637 436.281 84.4774 421.455 122.985C398.773 181.865 354.268 228.34 296.138 253.85C236.691 279.936 170.397 281.048 109.456 256.989Z" fill="#00672A"/>
</svg>
