<svg width="246" height="734" viewBox="0 0 246 734" fill="none" xmlns="http://www.w3.org/2000/svg">
<path d="M115.523 662.973L111.121 658.184C253.493 527.441 280.613 311.813 175.593 145.473C152.537 108.938 124.306 76.465 91.6888 48.9598L95.8841 43.9866C129.014 71.924 157.683 104.904 181.103 142.004C287.793 310.995 260.218 530.097 115.523 662.973Z" fill="#F08300"/>
<path d="M-17.9692 724.905L-20.3376 718.842C1.21477 710.417 22.1967 699.918 42.026 687.632C128.184 634.241 188.242 550.105 211.138 450.716C234.563 349.051 216.497 244.015 160.276 154.958C138.332 120.198 111.489 89.2812 80.4862 63.0726L84.6872 58.1051C116.197 84.7402 143.478 116.158 165.774 151.484C222.928 242.021 241.294 348.803 217.477 452.174C194.184 553.263 133.094 638.845 45.4491 693.158C25.2855 705.657 3.94627 716.336 -17.9692 724.905Z" fill="#F08300"/>
<path d="M-159.477 714.826C-187.461 714.826 -215.698 711.518 -243.722 704.827C-253.507 702.494 -263.292 699.728 -272.801 696.621L-270.916 690.847C-261.563 693.907 -251.94 696.621 -242.316 698.921C-150.638 720.807 -56.5676 705.865 22.5771 656.836C100.702 608.424 155.159 532.132 175.922 442.009C197.163 349.823 180.78 254.584 129.798 173.831C79.2992 93.8279 0.990112 37.6994 -90.7172 15.807C-115.399 9.91757 -140.582 6.63861 -165.569 6.0681L-165.43 0C-140.017 0.576268 -114.402 3.9071 -89.3053 9.90028C3.94638 32.1673 83.5866 89.2351 134.932 170.598C186.785 252.728 203.445 349.604 181.84 443.381C160.714 535.088 105.289 612.734 25.7754 662.005C-30.5548 696.898 -94.3246 714.826 -159.477 714.826Z" fill="#F08300"/>
<path d="M-159.835 696.65C-186.395 696.65 -213.197 693.51 -239.798 687.159C-254.348 683.69 -268.778 679.247 -282.701 673.968L-280.546 668.292C-266.871 673.479 -252.683 677.841 -238.386 681.252C-151.462 701.998 -62.2495 687.839 12.8036 641.346C86.8828 595.44 138.528 523.09 158.213 437.635C178.354 350.215 162.818 259.903 114.475 183.328C66.5867 107.457 -7.67697 54.2384 -94.6415 33.4755L-93.2297 27.5687C-4.71494 48.7005 70.8683 102.87 119.609 180.095C168.828 258.047 184.635 349.996 164.132 439.007C144.077 526.052 91.4699 599.751 16.0019 646.521C-37.47 679.633 -97.9954 696.65 -159.835 696.65Z" fill="#F08300"/>
<path d="M-160.198 678.152C-185.312 678.152 -210.65 675.184 -235.798 669.179C-295.477 654.928 -349.663 624.473 -392.509 581.097L-388.648 577.288C-346.517 619.943 -293.229 649.898 -234.536 663.907C-152.257 683.546 -67.8336 670.136 3.19717 626.138C38.7126 604.13 68.7995 575.755 92.6167 541.807L97.0539 544.919C72.8103 579.472 42.1932 608.349 6.04968 630.748C-44.5063 662.057 -101.73 678.152 -160.198 678.152Z" fill="#00672A"/>
<path d="M-119.94 657.199L-120.677 651.828C-80.0851 646.25 -41.6941 632.396 -6.58211 610.648C26.9567 589.862 55.3494 563.06 77.8123 530.991C146.152 433.428 148.618 304.35 84.0936 202.149C69.952 179.738 53.0674 159.315 33.9007 141.445L37.6003 137.48C57.1012 155.667 74.2856 176.453 88.675 199.256C154.37 303.307 151.845 434.742 82.2496 534.102C59.366 566.777 30.4373 594.086 -3.72957 615.258C-39.4928 637.41 -78.5868 651.517 -119.94 657.199Z" fill="#00672A"/>
<path d="M-160.918 641.692C-183.179 641.692 -205.637 639.064 -227.921 633.739C-302.092 616.03 -365.436 570.638 -406.276 505.923C-417.582 488.018 -426.912 468.938 -434 449.224L-429.102 447.46C-422.14 466.823 -412.978 485.558 -401.873 503.145C-361.759 566.708 -299.551 611.282 -226.716 628.674C-153.899 646.06 -79.1746 634.189 -16.3038 595.244C45.7487 556.79 89.0092 496.19 105.502 424.606C122.369 351.379 109.363 275.727 68.8628 211.583C37.8193 162.392 -6.53607 124.359 -59.4029 101.596L-57.3456 96.8188C-3.51065 119.996 41.6515 158.716 73.2598 208.805C114.503 274.131 127.752 351.183 110.567 425.776C93.7634 498.719 49.6731 560.478 -13.5665 599.67C-58.3771 627.429 -109.094 641.692 -160.918 641.692Z" fill="#00672A"/>
<path d="M-115.174 618.992L-115.935 614.722C-83.9921 609.006 -53.6862 597.365 -25.8524 580.123C32.2584 544.112 72.7701 487.361 88.2141 420.324C104.01 351.754 91.8272 280.908 53.903 220.843C16.3361 161.326 -41.913 119.576 -110.126 103.29C-165.891 89.9785 -222.631 94.8249 -274.207 117.305L-275.941 113.329C-223.495 90.4683 -165.805 85.5412 -109.123 99.072C-39.8039 115.622 19.3961 158.047 57.5681 218.527C96.1089 279.576 108.493 351.587 92.4323 421.298C76.729 489.47 35.5258 547.184 -23.5762 583.811C-51.8709 601.341 -82.6897 613.178 -115.174 618.992Z" fill="#00672A"/>
<path d="M6.14766 536.085L3.15683 532.944C84.8025 455.252 99.6241 328.478 38.4014 231.504C19.8456 202.109 -3.9831 177.496 -32.4392 158.341L-30.0189 154.745C-1.06142 174.235 23.1937 199.285 42.0664 229.188C104.39 327.908 89.2858 456.975 6.14766 536.085Z" fill="#00672A"/>
<path d="M-161.898 584.457C-179.676 584.457 -197.621 582.353 -215.422 578.106C-274.662 563.965 -325.253 527.711 -357.869 476.02C-360.416 471.992 -362.877 467.82 -365.182 463.619L-361.379 461.533C-359.12 465.653 -356.705 469.75 -354.204 473.704C-322.193 524.433 -272.547 560.006 -214.419 573.882C-156.314 587.753 -96.6701 578.285 -46.5002 547.207C3.01849 516.515 37.5427 468.154 50.7047 411.029C64.1663 352.589 53.7819 292.214 21.4648 241.024C-10.5468 190.301 -60.1923 154.722 -118.332 140.84C-140.72 135.498 -163.511 133.579 -186.044 135.135L-186.343 130.807C-163.362 129.217 -140.144 131.17 -117.324 136.622C-58.0832 150.763 -7.49265 187.022 25.1299 238.707C58.0694 290.883 68.6554 352.428 54.9287 412.003C41.5074 470.263 6.29745 519.592 -44.2182 550.895C-79.9987 573.07 -120.51 584.457 -161.898 584.457Z" fill="#00672A"/>
<path d="M-76.9098 547.99L-78.5176 544.435C-70.519 540.822 -62.6471 536.626 -55.1326 531.97C-9.56136 503.727 22.2025 459.222 34.3157 406.655C46.7054 352.878 37.1509 297.325 7.40971 250.221C-22.0491 203.544 -67.7298 170.806 -121.231 158.036C-134.329 154.907 -147.704 153.039 -160.97 152.48L-160.803 148.579C-147.284 149.15 -133.666 151.051 -120.32 154.238C-65.8281 167.25 -19.2888 200.599 10.7117 248.141C41.0119 296.133 50.7451 352.739 38.119 407.537C25.7754 461.13 -6.61664 506.499 -53.0811 535.295C-60.7397 540.032 -68.7614 544.308 -76.9098 547.99Z" fill="#00672A"/>
<path d="M-162.745 548.601C-177.688 548.601 -192.769 546.838 -207.734 543.265C-257.53 531.377 -300.052 500.904 -327.471 457.459C-340.95 436.108 -350.009 412.833 -354.4 388.272L-350.556 387.586C-346.257 411.645 -337.377 434.454 -324.169 455.373C-297.298 497.953 -255.622 527.815 -206.824 539.467C-158.048 551.114 -107.982 543.161 -65.8686 517.074C-24.3024 491.314 4.6781 450.716 15.7251 402.759C27.0258 353.707 18.3069 303.025 -8.81808 260.058C-13.3591 252.861 -18.3957 245.928 -23.7895 239.445L-20.7929 236.95C-15.2896 243.565 -10.1493 250.636 -5.52185 257.978C22.1678 301.838 31.0654 353.563 19.5285 403.641C8.24521 452.618 -21.3519 494.081 -63.8171 520.399C-93.8983 539.029 -127.95 548.601 -162.745 548.601Z" fill="#00672A"/>
<path d="M-162.705 527.262C-176.005 527.262 -189.426 525.689 -202.744 522.514C-216.442 519.24 -229.673 514.348 -242.074 507.957L-240.288 504.488C-228.163 510.735 -215.231 515.518 -201.839 518.716C-158.538 529.054 -114.096 521.995 -76.7081 498.84C-39.8097 475.974 -14.0851 439.934 -4.27704 397.365C5.75578 353.817 -1.98349 308.828 -26.0657 270.685C-49.9232 232.881 -86.9196 206.367 -130.243 196.029C-148.096 191.765 -166.249 190.428 -184.176 192.053L-184.528 188.163C-166.174 186.503 -147.606 187.869 -129.339 192.231C-85.0179 202.812 -47.1744 229.937 -22.7695 268.604C1.87749 307.635 9.78964 353.679 -0.473679 398.247C-10.518 441.836 -36.8592 478.746 -74.6566 502.166C-101.43 518.739 -131.742 527.262 -162.705 527.262Z" fill="#00672A"/>
<path d="M150.445 160.986C135.854 137.866 118.871 116.32 99.9756 96.9455L95.3194 101.487C113.898 120.532 130.593 141.722 144.942 164.455C198.529 249.334 215.748 349.443 193.423 446.337C171.6 541.064 114.359 621.251 32.2411 672.142C-21.4786 705.415 -83.0932 724.202 -145.935 726.472L-148.338 726.501V733.03L-145.705 732.972C-81.7274 730.667 -19.0122 711.547 35.6641 677.674C119.263 625.867 177.541 544.227 199.756 447.8C222.479 349.201 204.966 247.346 150.445 160.986Z" fill="#F08300"/>
</svg>
