<svg width="377" height="867" viewBox="0 0 377 867" fill="none" xmlns="http://www.w3.org/2000/svg">
<path d="M195.471 761.535L202.068 754.354C-11.294 558.421 -51.9354 235.283 105.45 -13.9955C140.004 -68.7492 182.313 -117.415 231.192 -158.631L224.909 -166.081C175.261 -124.216 132.294 -74.7907 97.2033 -19.1938C-62.6934 234.059 -21.3663 562.405 195.471 761.535Z" fill="#F5871F"/>
<path d="M395.527 854.354L399.076 845.273C366.783 832.644 335.334 816.91 305.617 798.507C176.503 718.494 86.5007 592.409 52.1881 443.465C17.088 291.111 44.1544 133.698 128.411 0.237534C161.297 -51.8568 201.521 -98.1875 247.982 -137.467L241.681 -144.907C194.461 -104.989 153.578 -57.9076 120.165 -4.97006C34.5083 130.705 6.98785 290.741 42.6811 445.652C77.5866 597.144 169.136 725.397 300.484 806.791C330.701 825.5 362.678 841.502 395.527 854.354Z" fill="#F5871F"/>
<path d="M607.592 839.241C649.531 839.241 691.849 834.284 733.843 824.258C748.502 820.755 763.171 816.623 777.422 811.962L774.596 803.307C760.576 807.894 746.158 811.962 731.731 815.409C594.341 848.211 453.366 825.815 334.759 752.343C217.682 679.789 136.075 565.454 104.959 430.4C73.1296 292.251 97.6756 149.525 174.075 28.5086C249.752 -91.3954 367.117 -175.504 504.543 -208.316C541.524 -217.146 579.275 -222.057 616.719 -222.91L616.506 -232C578.422 -231.138 540.033 -226.144 502.43 -217.165C362.678 -183.797 243.34 -98.2709 166.384 23.6531C88.6783 146.735 63.7153 291.908 96.0912 432.448C127.754 569.884 210.815 686.239 329.969 760.081C414.384 812.37 509.945 839.241 607.592 839.241Z" fill="#F5871F"/>
<path d="M608.13 812.008C647.937 812.008 688.106 807.301 727.959 797.785C749.763 792.586 771.39 785.933 792.248 778.02L789.023 769.513C768.527 777.288 747.27 783.82 725.847 788.935C595.574 820.023 461.882 798.804 349.419 729.132C238.392 660.33 161.01 551.916 131.497 423.849C101.317 292.844 124.594 157.503 197.046 42.7415C268.812 -70.9635 380.099 -150.726 510.418 -181.842L508.305 -190.691C375.66 -159.02 262.382 -77.8482 189.346 37.886C115.587 154.704 91.8938 292.501 122.63 425.888C152.68 556.336 231.525 666.78 344.619 736.869C424.752 786.508 515.45 812.008 608.13 812.008Z" fill="#F5871F"/>
<path d="M608.676 784.274C646.315 784.274 684.288 779.827 721.974 770.829C811.401 749.48 892.61 703.835 956.824 638.833L951.042 633.125C887.903 697.052 808.047 741.937 720.093 762.934C596.788 792.373 470.268 772.275 363.828 706.337C310.603 673.349 265.514 630.836 229.821 579.956L223.167 584.617C259.5 636.396 305.386 679.669 359.547 713.24C435.288 760.164 521.056 784.274 608.676 784.274Z" fill="white"/>
<path d="M548.344 752.881L549.447 744.828C488.615 736.47 431.081 715.705 378.468 683.116C328.208 651.963 285.658 611.804 251.994 563.74C149.585 417.53 145.888 224.099 242.58 70.9384C263.772 37.3578 289.077 6.75173 317.793 -20.0274L312.252 -25.967C283.027 1.28471 257.276 32.4375 235.714 66.6111C137.27 222.542 141.051 419.512 245.341 568.41C279.635 617.382 322.992 658.301 374.187 690.028C427.773 723.22 486.372 744.374 548.344 752.881Z" fill="white"/>
<path d="M609.751 729.641C643.109 729.641 676.764 725.703 710.168 717.725C821.316 691.187 916.238 623.164 977.45 526.185C994.398 499.35 1008.37 470.754 1019 441.214L1011.66 438.573C1001.23 467.585 987.504 495.662 970.853 522.024C910.734 617.271 817.517 684.08 708.362 710.145C599.234 736.202 487.253 718.411 393.044 660.053C300.048 602.426 235.222 511.609 210.51 404.335C185.232 294.596 204.728 181.224 265.412 85.0972C311.937 11.3757 378.403 -45.6204 457.629 -79.7291L454.543 -86.8918C373.872 -52.1623 306.192 5.87157 258.814 80.9274C197.009 178.824 177.152 294.299 202.902 406.077C228.088 515.399 294.155 607.949 388.929 666.678C456.072 708.274 532.091 729.641 609.751 729.641Z" fill="white"/>
<path d="M541.2 695.625L542.34 689.232C494.471 680.661 449.058 663.222 407.341 637.388C320.258 583.422 259.546 498.377 236.399 397.913C212.724 295.152 230.988 188.989 287.817 98.9686C344.109 9.77261 431.406 -52.7832 533.63 -77.1902C617.201 -97.1402 702.227 -89.8756 779.516 -56.1931L782.111 -62.1512C703.515 -96.4082 617.062 -103.793 532.119 -83.519C428.237 -58.7135 339.522 4.86156 282.323 95.4938C224.567 186.988 206.006 294.901 230.071 399.368C253.607 501.527 315.347 588.018 403.922 642.91C446.333 669.18 492.516 686.915 541.2 695.625Z" fill="white"/>
<path d="M359.38 571.375L363.865 566.668C241.514 450.239 219.294 260.264 311.047 114.934C338.855 70.8826 374.567 33.9941 417.21 5.29682L413.577 -0.0960693C370.184 29.1108 333.833 66.648 305.543 111.468C212.15 259.402 234.796 452.824 359.38 571.375Z" fill="white"/>
<path d="M611.225 643.874C637.874 643.874 664.755 640.723 691.432 634.357C780.211 613.166 856.018 558.838 904.906 481.373C908.723 475.332 912.411 469.077 915.858 462.785L910.16 459.663C906.768 465.843 903.155 471.977 899.411 477.908C851.44 553.927 777.042 607.245 689.922 628.038C602.848 648.831 513.467 634.635 438.281 588.064C364.068 542.076 312.336 469.596 292.608 383.986C272.436 296.412 287.993 205.928 336.428 129.213C384.408 53.1937 458.806 -0.123695 545.926 -20.9169C579.479 -28.9229 613.634 -31.7954 647.4 -29.4696L647.854 -35.9559C613.421 -38.3373 578.617 -35.4092 544.425 -27.2457C455.646 -6.04477 379.83 48.2827 330.942 125.738C281.572 203.935 265.718 296.161 286.288 385.441C306.405 472.756 359.176 546.672 434.871 593.586C488.485 626.806 549.188 643.874 611.225 643.874Z" fill="white"/>
<path d="M483.852 589.222L486.261 583.894C474.271 578.482 462.484 572.191 451.217 565.213C382.925 522.895 335.316 456.197 317.163 377.416C298.594 296.829 312.919 213.572 357.48 142.983C401.624 73.0325 470.092 23.9682 550.253 4.82432C569.888 0.135653 589.922 -2.66272 609.807 -3.49668L609.557 -9.34363C589.301 -8.49114 568.887 -5.63716 548.891 -0.865091C467.228 18.6309 397.491 68.6125 352.532 139.86C307.128 211.784 292.534 296.615 311.455 378.732C329.96 459.042 378.496 527.037 448.122 570.189C459.621 577.296 471.639 583.699 483.852 589.222Z" fill="white"/>
<path d="M612.485 590.139C634.881 590.139 657.481 587.498 679.905 582.143C754.526 564.324 818.249 518.66 859.344 453.547C879.544 421.551 893.119 386.673 899.698 349.868L893.944 348.839C887.495 384.894 874.198 419.077 854.396 450.424C814.125 514.231 751.672 558.986 678.543 576.444C605.452 593.892 530.424 581.976 467.312 542.891C405.016 504.288 361.594 443.447 345.036 371.579C328.097 298.07 341.163 222.115 381.822 157.725C388.633 146.939 396.176 136.552 404.256 126.832L399.762 123.088C391.515 133.003 383.815 143.603 376.874 154.602C335.381 220.327 322.047 297.848 339.337 372.894C356.248 446.291 400.605 508.43 464.236 547.867C509.315 575.795 560.344 590.139 612.485 590.139Z" fill="white"/>
<path d="M612.429 558.152C632.361 558.152 652.468 555.799 672.427 551.036C692.952 546.134 712.782 538.796 731.369 529.224L728.692 524.025C710.53 533.384 691.145 540.556 671.075 545.347C606.184 560.84 539.579 550.258 483.556 515.556C428.255 481.29 389.708 427.277 375.012 363.48C359.982 298.218 371.574 230.798 407.666 173.635C443.415 116.991 498.863 77.2486 563.782 61.7556C590.533 55.3619 617.739 53.3604 644.601 55.7974L645.129 49.969C617.618 47.4764 589.801 49.5243 562.42 56.0662C496 71.9205 439.282 112.571 402.718 170.512C365.783 229.01 353.922 298.005 369.313 364.796C384.361 430.122 423.844 485.432 480.479 520.532C520.602 545.384 566.024 558.152 612.429 558.152Z" fill="white"/>
<path d="M143.136 9.25346C165.004 -25.3927 190.449 -57.6852 218.766 -86.7161L225.752 -79.9054C197.908 -51.3564 172.889 -19.6106 151.382 14.4611C71.0726 141.658 45.2757 291.686 78.7265 436.896C111.427 578.853 197.213 699.026 320.276 775.286C400.781 825.157 493.118 853.307 587.299 856.699L590.894 856.745V866.53L586.947 866.446C491.07 862.99 397.084 834.339 315.143 783.579C189.855 705.938 102.522 583.597 69.2287 439.092C35.1849 291.315 61.4359 138.674 143.136 9.25346Z" fill="#F5871F"/>
</svg>
