<svg width="274" height="789" viewBox="0 0 274 789" fill="none" xmlns="http://www.w3.org/2000/svg">
<path d="M421.639 758.592C450.552 758.592 479.727 755.173 508.674 748.261C524.51 744.486 540.218 739.653 555.368 733.906L553.026 727.728C538.139 733.374 522.7 738.119 507.14 741.834C412.52 764.414 315.416 749.002 233.732 698.397C153.091 648.426 96.8871 569.682 75.4514 476.664C53.5312 381.513 70.4374 283.212 123.061 199.858C175.186 117.272 256.016 59.3385 350.669 36.7386L349.135 30.3112C252.792 53.315 170.515 112.272 117.468 196.332C63.8957 281.179 46.6866 381.264 69.0106 478.145C90.8367 572.893 148.104 653.11 230.246 704.017C288.449 740.071 354.324 758.592 421.639 758.592Z" fill="#F5871F"/>
<path d="M421.249 778.372C451.71 778.372 482.446 774.772 512.948 767.49C523.595 764.946 534.249 761.944 544.6 758.559L542.547 752.273C532.364 755.604 521.892 758.559 511.413 761.062C411.625 784.887 309.231 768.62 223.085 715.257C138.049 662.559 78.7761 579.515 56.1761 481.423C33.0579 381.082 50.8861 277.417 106.377 189.521C161.342 102.432 246.587 41.3421 346.402 17.5105C373.262 11.0966 400.681 7.5296 427.878 6.91043L427.723 0.308105C400.062 0.934013 372.179 4.56159 344.868 11.0831C243.363 35.3186 156.685 97.4383 100.791 185.994C44.3512 275.391 26.22 380.833 49.7353 482.91C72.7324 582.732 133.062 667.243 219.605 720.876C280.917 758.855 350.326 778.372 421.249 778.372Z" fill="#F5871F"/>
<path d="M266.889 789L269.462 782.41C246.047 773.245 223.244 761.828 201.697 748.474C108.077 690.411 42.8175 598.915 17.9378 490.832C-7.51293 380.273 12.1127 266.044 73.2066 169.196C97.0515 131.393 126.218 97.7721 159.906 69.2684L155.337 63.869C121.098 92.8365 91.4548 127.002 67.2268 165.417C5.11838 263.872 -14.8364 380.004 11.0444 492.418C36.354 602.351 102.736 695.42 197.974 754.485C219.884 768.061 243.071 779.674 266.889 789Z" fill="#F5871F"/>
</svg>
