<svg width="370" height="399" fill="none" xmlns="http://www.w3.org/2000/svg"><path d="M70.78 360.188l2.392-2.604c-77.35-71.032-92.085-188.18-35.027-278.55C50.67 59.183 66.01 41.54 83.73 26.597l-2.278-2.7c-17.999 15.177-33.576 33.095-46.297 53.25-57.968 91.813-42.985 210.849 35.625 283.04z" fill="#F5871F"/><path d="M143.306 393.838l1.287-3.292a209.479 209.479 0 01-33.882-16.954c-46.808-29.008-79.437-74.717-91.876-128.714C6.11 189.644 15.922 132.577 46.468 84.193 58.39 65.308 72.973 48.511 89.817 34.271l-2.285-2.697c-17.119 14.471-31.94 31.54-44.053 50.731-31.053 49.187-41.03 107.205-28.09 163.365 12.654 54.921 45.843 101.417 93.461 130.925a213.27 213.27 0 0034.456 17.243z" fill="#F5871F"/><path d="M220.187 388.359c15.204 0 30.546-1.797 45.77-5.432a202.211 202.211 0 0015.799-4.458l-1.025-3.137a198.536 198.536 0 01-15.54 4.387c-49.808 11.892-100.916 3.773-143.914-22.863-42.445-26.303-72.03-67.753-83.31-116.715-11.54-50.083-2.64-101.826 25.056-145.698C90.46 50.973 133.007 20.48 182.83 8.586c13.406-3.201 27.092-4.982 40.667-5.29L223.419 0c-13.807.312-27.724 2.123-41.356 5.378-50.665 12.097-93.929 43.103-121.828 87.304-28.17 44.622-37.22 97.251-25.483 148.202 11.478 49.824 41.591 92.007 84.788 118.777 30.603 18.956 65.247 28.698 100.647 28.698z" fill="#F5871F"/><path d="M220.382 378.486c14.431 0 28.994-1.706 43.442-5.156a190.568 190.568 0 0023.307-7.166l-1.169-3.083a187.972 187.972 0 01-22.904 7.041c-47.228 11.27-95.696 3.577-136.467-21.681-40.251-24.943-68.304-64.246-79.004-110.675-10.94-47.493-2.502-96.559 23.764-138.163 26.017-41.222 66.362-70.139 113.607-81.42l-.766-3.207C136.104 26.458 95.037 55.885 68.559 97.842c-26.74 42.351-35.33 92.306-24.186 140.663 10.894 47.292 39.478 87.331 80.478 112.741 29.051 17.995 61.931 27.24 95.531 27.24z" fill="#F5871F"/><path d="M220.58 368.431c13.646 0 27.412-1.612 41.074-4.874 32.421-7.74 61.861-24.287 85.141-47.853l-2.096-2.069c-22.89 23.176-51.841 39.448-83.727 47.06-44.702 10.672-90.569 3.386-129.157-20.518-19.296-11.959-35.642-27.372-48.582-45.818l-2.412 1.69c13.172 18.772 29.807 34.46 49.442 46.63 27.459 17.012 58.552 25.752 90.317 25.752z" fill="#00672A"/><path d="M198.708 357.051l.4-2.92c-22.054-3.03-42.911-10.558-61.985-22.372-18.221-11.294-33.647-25.853-45.851-43.278-37.127-53.006-38.467-123.131-3.413-178.656 7.682-12.174 16.857-23.27 27.267-32.978l-2.009-2.154c-10.595 9.88-19.93 21.174-27.748 33.563-35.688 56.53-34.318 127.938 3.49 181.918 12.434 17.754 28.152 32.588 46.712 44.091 19.426 12.033 40.67 19.702 63.137 22.786z" fill="#00672A"/><path d="M220.97 348.625c12.093 0 24.294-1.427 36.404-4.32 40.295-9.621 74.707-34.281 96.899-69.439a157.934 157.934 0 0015.063-30.805l-2.661-.957a154.889 154.889 0 01-14.794 30.253c-21.795 34.53-55.589 58.751-95.162 68.2-39.562 9.447-80.159 2.997-114.312-18.16-33.714-20.891-57.216-53.815-66.175-92.706-9.164-39.784-2.096-80.884 19.904-115.734 16.867-26.726 40.963-47.389 69.685-59.754l-1.119-2.597c-29.246 12.59-53.782 33.63-70.958 60.84-22.406 35.491-29.605 77.354-20.27 117.877 9.13 39.633 33.082 73.185 67.441 94.476 24.341 15.08 51.901 22.826 80.055 22.826z" fill="#00672A"/><path d="M196.118 336.294l.413-2.318c-17.354-3.107-33.818-9.429-48.941-18.795-31.571-19.564-53.58-50.396-61.972-86.817-8.583-37.255-1.962-75.742 18.64-108.377 20.408-32.337 52.056-55.015 89.115-63.863 30.298-7.233 61.122-4.6 89.142 7.612l.941-2.16c-28.494-12.42-59.836-15.097-90.63-7.747-37.661 8.993-69.823 32.041-90.56 64.898-20.938 33.17-27.667 72.292-18.943 110.164 8.533 37.036 30.916 68.392 63.027 88.292 15.376 9.524 32.118 15.953 49.768 19.111z" fill="#00672A"/><path d="M130.202 291.249l1.626-1.706c-44.356-42.209-52.411-111.081-19.148-163.768 10.081-15.97 23.028-29.344 38.487-39.747l-1.316-1.955c-15.732 10.588-28.91 24.197-39.166 40.445-33.859 53.631-25.648 123.753 19.517 166.731z" fill="#00672A"/><path d="M221.504 317.533c9.661 0 19.407-1.142 29.078-3.45 32.185-7.683 59.667-27.378 77.391-55.462a126.168 126.168 0 003.971-6.738l-2.066-1.132c-1.23 2.24-2.54 4.464-3.897 6.614-17.391 27.559-44.363 46.889-75.947 54.427-31.567 7.538-63.97 2.392-91.227-14.492-26.905-16.672-45.66-42.948-52.812-73.985-7.313-31.748-1.673-64.552 15.886-92.363 17.395-27.559 44.366-46.889 75.95-54.427 12.164-2.902 24.546-3.944 36.788-3.1l.164-2.352c-12.483-.863-25.1.198-37.496 3.158-32.185 7.686-59.671 27.381-77.394 55.461-17.899 28.349-23.646 61.784-16.189 94.151 7.293 31.654 26.424 58.451 53.866 75.459 19.437 12.043 41.444 18.231 63.934 18.231z" fill="#00672A"/><path d="M175.328 297.719l.873-1.931a110.764 110.764 0 01-12.705-6.773c-24.758-15.341-42.018-39.521-48.598-68.082-6.732-29.216-1.539-59.399 14.616-84.99 16.003-25.359 40.825-43.146 69.886-50.087a113.709 113.709 0 0121.59-3.016l-.09-2.12a116.009 116.009 0 00-21.994 3.074c-29.605 7.068-54.887 25.188-71.186 51.017-16.46 26.075-21.751 56.829-14.892 86.599 6.709 29.115 24.305 53.765 49.546 69.409a114.229 114.229 0 0012.954 6.9z" fill="#00672A"/><path d="M221.961 298.052c8.119 0 16.312-.958 24.442-2.899 27.052-6.46 50.154-23.015 65.052-46.62 7.323-11.6 12.245-24.244 14.63-37.587l-2.086-.373c-2.338 13.071-7.159 25.463-14.338 36.828-14.599 23.132-37.241 39.357-63.752 45.686-26.498 6.325-53.698 2.005-76.578-12.164-22.584-13.995-38.326-36.052-44.329-62.106-6.141-26.649-1.404-54.185 13.336-77.529a106.722 106.722 0 018.133-11.2l-1.629-1.357a108.316 108.316 0 00-8.298 11.425c-15.042 23.827-19.876 51.931-13.608 79.138 6.131 26.608 22.212 49.136 45.28 63.433 16.343 10.125 34.842 15.325 53.745 15.325z" fill="#00672A"/><path d="M221.941 286.455a93.63 93.63 0 0021.751-2.58 94.809 94.809 0 0021.368-7.907l-.97-1.885a92.563 92.563 0 01-20.888 7.73c-23.525 5.616-47.672 1.78-67.982-10.8-20.048-12.423-34.023-32.004-39.351-55.133-5.448-23.659-1.246-48.101 11.838-68.825 12.961-20.535 33.062-34.943 56.598-40.559 9.698-2.318 19.561-3.044 29.299-2.161l.192-2.112c-9.974-.904-20.059-.162-29.985 2.21-24.08 5.748-44.642 20.485-57.897 41.49-13.39 21.207-17.69 46.221-12.111 70.434 5.456 23.683 19.77 43.735 40.302 56.46 14.545 9.009 31.012 13.638 47.836 13.638z" fill="#00672A"/><path d="M222.169 276.804c4.511 0 9.04-.373 13.551-1.125l-.329-1.976c-19.128 3.192-38.669-.634-55.038-10.773-17.889-11.085-30.358-28.554-35.112-49.19-4.864-21.109-1.112-42.918 10.562-61.411l-1.693-1.068c-11.963 18.947-15.806 41.296-10.82 62.93 4.874 21.16 17.663 39.071 36.008 50.442 12.919 8.002 27.774 12.171 42.871 12.171z" fill="#00672A"/><path d="M216.559 266.384l.121-1.525c-11.143-.884-21.644-4.334-31.211-10.26-15.769-9.772-26.76-25.171-30.949-43.358-4.287-18.607-.981-37.829 9.312-54.128 10.195-16.151 26.001-27.479 44.51-31.899a72.356 72.356 0 0114.519-1.949l-.047-1.532a73.818 73.818 0 00-14.825 1.992c-18.899 4.512-35.04 16.081-45.45 32.572-10.512 16.649-13.888 36.284-9.507 55.29 4.283 18.591 15.516 34.329 31.634 44.316 9.776 6.053 20.505 9.581 31.893 10.481z" fill="#00672A"/><path d="M51.807 87.462c7.928-12.56 17.152-24.267 27.418-34.792l2.533 2.47C71.663 65.49 62.593 76.998 54.797 89.35c-29.115 46.113-38.467 100.503-26.34 153.146 11.854 51.464 42.955 95.031 87.569 122.678 29.185 18.079 62.661 28.285 96.804 29.514l1.304.017v3.548l-1.431-.031c-34.759-1.253-68.832-11.64-98.538-30.042-45.42-28.147-77.082-72.5-89.152-124.887-12.342-53.574-2.825-108.912 26.794-155.83z" fill="#F5871F"/></svg>