<svg width="45" height="45" viewBox="0 0 45 45" fill="none" xmlns="http://www.w3.org/2000/svg">
<path opacity="0.4" d="M7.5 15C7.5 10.8581 10.8581 7.5 15 7.5C19.1419 7.5 22.5 10.8581 22.5 15C22.5 19.1419 19.1419 22.5 15 22.5C10.8581 22.5 7.5 19.1419 7.5 15ZM30 22.5C34.1419 22.5 37.5 19.1419 37.5 15C37.5 10.8581 34.1419 7.5 30 7.5C25.8581 7.5 22.5 10.8581 22.5 15C22.5 19.1419 25.8581 22.5 30 22.5ZM30 26.25C26.8894 26.25 24.4538 26.5837 22.5 27.0937C20.5462 26.5837 18.1106 26.25 15 26.25C0 26.25 0 33.75 0 33.75V37.5H45V33.75C45 33.75 45 26.25 30 26.25Z" fill="white"/>
<path d="M22.5001 22.5C18.3582 22.5 15.0001 19.1419 15.0001 15C15.0001 10.8581 18.3582 7.5 22.5001 7.5C26.6419 7.5 30.0001 10.8581 30.0001 15C30.0001 19.1419 26.6419 22.5 22.5001 22.5ZM22.5001 26.25C7.50006 26.25 7.50006 33.75 7.50006 33.75V37.5H37.5001V33.75C37.5001 33.75 37.5001 26.25 22.5001 26.25Z" fill="white"/>
</svg>
