<svg width="562" height="1005" viewBox="0 0 562 1005" fill="none" xmlns="http://www.w3.org/2000/svg">
<path d="M687.157 -46.1704L679.541 -40.4314C699.944 -13.3398 718.052 15.9034 733.348 46.4791C799.775 179.374 809.988 330.549 762.101 472.172C713.12 617.037 609.782 734.204 471.123 802.071C417.003 828.564 359.73 846.49 300.885 855.345L302.312 864.774C362.118 855.777 420.323 837.564 475.317 810.64C616.277 741.647 721.339 622.53 771.139 475.231C819.841 331.183 809.452 177.407 741.874 42.2171C726.319 11.1299 707.909 -18.6082 687.157 -46.1704Z" fill="#F5871F"/>
<path d="M806.076 133.803L796.897 136.395C873.964 409.048 741.93 698.951 482.935 825.709C426.06 853.559 365.853 872.36 304 881.585L305.407 891.013C368.233 881.642 429.378 862.547 487.133 834.27C750.259 705.492 884.396 410.901 806.076 133.803Z" fill="#F5871F"/>
<path d="M463.492 787.006C427.501 804.627 389.739 818.452 351.261 828.087L348.94 818.83C386.778 809.354 423.903 795.765 459.299 778.437C591.456 713.759 689.946 602.089 736.633 464.019C782.276 329.041 772.538 184.951 709.223 58.2874C667.795 -24.5582 605.366 -95.394 528.693 -146.562L525.723 -148.446L530.746 -156.593L533.99 -154.497C612.042 -102.405 675.587 -30.3057 717.754 54.0177C782.212 182.973 792.126 329.662 745.668 467.065C698.157 607.578 597.948 721.19 463.492 787.006Z" fill="#F5871F"/>
</svg>
