<svg width="313" height="637" viewBox="0 0 313 637" fill="none" xmlns="http://www.w3.org/2000/svg">
<path d="M199.469 576.044L195.644 571.883C319.349 458.282 342.912 270.928 251.663 126.399C231.63 94.6537 207.1 66.4389 178.76 42.5401L182.405 38.219C211.191 62.4933 236.101 91.1488 256.45 123.384C349.151 270.217 325.192 460.591 199.469 576.044Z" fill="#F08300"/>
<path d="M83.4806 629.855L81.4227 624.587C100.149 617.267 118.38 608.144 135.609 597.469C210.47 551.078 262.654 477.975 282.547 391.618C302.901 303.283 287.203 212.019 238.354 134.64C219.287 104.438 195.964 77.5746 169.026 54.8024L172.677 50.4863C200.055 73.629 223.759 100.928 243.131 131.621C292.791 210.287 308.749 303.068 288.055 392.885C267.816 480.719 214.736 555.079 138.583 602.271C121.064 613.131 102.523 622.409 83.4806 629.855Z" fill="#F08300"/>
<path d="M-39.4732 621.097C-63.7875 621.097 -88.3222 618.223 -112.672 612.41C-121.174 610.382 -129.676 607.979 -137.937 605.28L-136.3 600.263C-128.173 602.922 -119.812 605.28 -111.45 607.278C-31.7923 626.295 49.9431 613.311 118.71 570.711C186.591 528.647 233.908 462.358 251.948 384.052C270.405 303.954 256.169 221.202 211.872 151.038C167.995 81.5251 99.9538 32.7563 20.2712 13.7344C-1.17409 8.61717 -23.055 5.76815 -44.7657 5.27245L-44.6455 0C-22.5643 0.500707 -0.307861 3.3948 21.4979 8.60215C102.522 27.9495 171.72 77.5345 216.333 148.229C261.387 219.59 275.862 303.764 257.091 385.244C238.735 464.927 190.577 532.392 121.489 575.202C72.545 605.52 17.1368 621.097 -39.4732 621.097Z" fill="#F08300"/>
<path d="M-39.7835 605.305C-62.8611 605.305 -86.149 602.576 -109.262 597.058C-121.905 594.044 -134.442 590.184 -146.539 585.597L-144.667 580.665C-132.785 585.172 -120.457 588.962 -108.035 591.926C-32.5082 609.952 45.0063 597.649 110.218 557.252C174.584 517.366 219.458 454.502 236.562 380.252C254.062 304.295 240.562 225.824 198.558 159.29C156.949 93.3669 92.4232 47.1266 16.8615 29.0861L18.0882 23.9539C94.9969 42.3148 160.67 89.3813 203.019 156.481C245.785 224.212 259.519 304.105 241.704 381.444C224.279 457.076 178.57 521.111 112.997 561.748C66.5367 590.519 13.9474 605.305 -39.7835 605.305Z" fill="#F08300"/>
<path d="M-40.099 589.232C-61.9198 589.232 -83.9359 586.654 -105.787 581.436C-157.64 569.054 -204.722 542.591 -241.949 504.903L-238.594 501.593C-201.988 538.656 -155.687 564.683 -104.69 576.855C-33.1992 593.919 40.1543 582.267 101.872 544.038C132.73 524.916 158.872 500.262 179.566 470.765L183.422 473.469C162.357 503.491 135.754 528.582 104.35 548.044C60.423 575.247 10.7028 589.232 -40.099 589.232Z" fill="white"/>
<path d="M-5.11961 571.027L-5.7605 566.36C29.5093 561.513 62.8664 549.476 93.3745 530.579C122.516 512.519 147.186 489.231 166.703 461.367C226.082 376.597 228.225 264.444 172.161 175.643C159.873 156.171 145.203 138.426 128.549 122.899L131.764 119.454C148.708 135.256 163.639 153.317 176.141 173.13C233.222 263.537 231.029 377.739 170.559 464.07C150.675 492.461 125.54 516.189 95.853 534.585C64.7791 553.832 30.8111 566.09 -5.11961 571.027Z" fill="white"/>
<path d="M-40.7249 557.552C-60.0672 557.552 -79.5798 555.269 -98.9421 550.643C-163.388 535.256 -218.426 495.815 -253.911 439.586C-263.735 424.029 -271.841 407.45 -278 390.321L-273.744 388.789C-267.695 405.613 -259.734 421.891 -250.086 437.172C-215.231 492.4 -161.18 531.13 -97.8956 546.241C-34.6263 561.348 30.3004 551.033 84.9276 517.195C138.844 483.783 176.432 431.129 190.762 368.931C205.418 305.306 194.117 239.573 158.927 183.84C131.954 141.099 93.4146 108.053 47.4797 88.2746L49.2672 84.1238C96.0433 104.262 135.284 137.905 162.748 181.426C198.583 238.186 210.094 305.136 195.163 369.947C180.563 433.327 142.254 486.988 87.306 521.041C48.371 545.16 4.30374 557.552 -40.7249 557.552Z" fill="white"/>
<path d="M-0.978699 537.83L-1.63963 534.119C26.1146 529.152 52.4468 519.038 76.6309 504.057C127.122 472.768 162.322 423.458 175.741 365.211C189.465 305.632 178.88 244.075 145.929 191.886C113.288 140.173 62.6762 103.897 3.4075 89.7468C-45.0459 78.1804 -94.3456 82.3914 -139.159 101.924L-140.666 98.4691C-95.0966 78.606 -44.9708 74.325 4.27873 86.0816C64.5088 100.462 115.946 137.324 149.113 189.873C182.601 242.918 193.361 305.487 179.406 366.057C165.762 425.291 129.961 475.437 78.6087 507.262C54.024 522.493 27.2462 532.778 -0.978699 537.83Z" fill="white"/>
<path d="M104.435 465.793L101.837 463.064C172.777 395.559 185.655 285.408 132.46 201.149C116.337 175.608 95.6328 154.223 70.9078 137.579L73.0108 134.455C98.1714 151.389 119.246 173.154 135.644 199.136C189.796 284.912 176.672 397.056 104.435 465.793Z" fill="white"/>
<path d="M-41.5761 507.822C-57.0229 507.822 -72.6149 505.995 -88.0818 502.304C-139.554 490.017 -183.512 458.518 -211.852 413.604C-214.065 410.104 -216.203 406.479 -218.206 402.829L-214.901 401.016C-212.938 404.596 -210.84 408.156 -208.667 411.591C-180.853 455.669 -137.717 486.577 -87.2106 498.634C-36.7242 510.686 15.099 502.46 58.6905 475.457C101.716 448.789 131.714 406.77 143.15 357.134C154.846 306.358 145.824 253.899 117.744 209.421C89.9297 165.349 46.7937 134.435 -3.72261 122.373C-23.1751 117.731 -42.9781 116.064 -62.5557 117.416L-62.8161 113.656C-42.8479 112.274 -22.6744 113.971 -2.84636 118.708C48.6263 130.995 92.5834 162.5 120.928 207.408C149.549 252.742 158.747 306.218 146.82 357.981C135.159 408.602 104.565 451.463 60.6733 478.661C29.5844 497.928 -5.6153 507.822 -41.5761 507.822Z" fill="white"/>
<path d="M32.2682 476.137L30.8713 473.048C37.8211 469.909 44.6608 466.264 51.19 462.218C90.7859 437.678 118.385 399.009 128.91 353.334C139.675 306.608 131.373 258.34 105.532 217.412C79.9356 176.855 40.2445 148.41 -6.24113 137.314C-17.6222 134.595 -29.2436 132.973 -40.7699 132.487L-40.6247 129.097C-28.8781 129.593 -17.0464 131.245 -5.45001 134.014C41.8969 145.32 82.334 174.296 108.401 215.604C134.728 257.303 143.185 306.488 132.214 354.1C121.489 400.666 93.3445 440.087 52.9725 465.107C46.3181 469.223 39.3482 472.938 32.2682 476.137Z" fill="white"/>
<path d="M-42.3121 476.668C-55.2954 476.668 -68.3989 475.136 -81.4023 472.032C-124.668 461.702 -161.616 435.225 -185.439 397.476C-197.151 378.925 -205.022 358.702 -208.837 337.362L-205.498 336.766C-201.762 357.67 -194.046 377.488 -182.57 395.664C-159.222 432.661 -123.011 458.608 -80.6112 468.732C-38.2313 478.851 5.27013 471.942 41.8618 449.275C77.9778 426.893 103.158 391.618 112.757 349.949C122.576 307.329 115 263.292 91.4318 225.959C87.4863 219.705 83.1101 213.682 78.4235 208.049L81.0271 205.881C85.8089 211.629 90.2752 217.773 94.2959 224.152C118.355 262.261 126.086 307.204 116.062 350.715C106.258 393.271 80.5414 429.296 43.6443 452.164C17.5074 468.352 -12.0794 476.668 -42.3121 476.668Z" fill="white"/>
<path d="M-42.2771 458.127C-53.8334 458.127 -65.4949 456.76 -77.0662 454.001C-88.968 451.157 -100.464 446.906 -111.24 441.353L-109.687 438.339C-99.1524 443.767 -87.9166 447.923 -76.2801 450.702C-38.657 459.684 -0.0424347 453.551 32.4435 433.432C64.5037 413.564 86.8553 382.25 95.3773 345.263C104.095 307.424 97.3702 268.334 76.4456 235.192C55.7163 202.346 23.5709 179.308 -14.0723 170.326C-29.5842 166.62 -45.3564 165.459 -60.9334 166.871L-61.2389 163.491C-45.2913 162.049 -29.1586 163.236 -13.2861 167.026C25.2233 176.219 58.1047 199.787 79.3096 233.385C100.725 267.298 107.6 307.304 98.682 346.029C89.9547 383.902 67.0674 415.973 34.226 436.321C10.9631 450.722 -15.3741 458.127 -42.2771 458.127Z" fill="white"/>
<path d="M-42.6426 442.685C-49.8578 442.685 -57.103 442.089 -64.3132 440.888L-63.7875 437.728C-33.1993 442.83 -1.94514 436.712 24.2318 420.499C52.8372 402.769 72.7804 374.834 80.3862 341.833C88.1621 308.07 82.1637 273.191 63.4923 243.619L66.2011 241.912C85.3331 272.214 91.4768 307.955 83.5056 342.554C75.7095 376.392 55.2556 405.042 25.9192 423.223C5.25502 436.021 -18.4985 442.685 -42.6426 442.685Z" fill="white"/>
<path d="M-33.6749 426.027L-33.8702 423.583C-16.045 422.171 0.74371 416.653 16.0453 407.175C41.2609 391.548 58.8408 366.923 65.5402 337.832C72.3949 308.075 67.1074 277.332 50.6492 251.265C34.3462 225.433 9.06546 207.318 -20.5363 200.248C-28.1922 198.42 -36.0032 197.374 -43.7542 197.128L-43.679 194.68C-35.7629 194.925 -27.7866 195.997 -19.9655 197.864C10.2622 205.08 36.0736 223.581 52.7221 249.953C69.5309 276.576 74.9285 307.98 67.9286 338.378C61.0789 368.11 43.1136 393.28 17.3372 409.253C1.70007 418.942 -15.4592 424.585 -33.6749 426.027Z" fill="white"/>
<path d="M-43.4437 410.991C-51.2898 410.991 -59.211 410.064 -67.0671 408.187C-83.4101 404.286 -98.6466 396.375 -111.119 385.314L-109.497 383.482C-97.3198 394.277 -82.4488 401.993 -66.4962 405.803C-40.9802 411.892 -14.8032 407.731 7.22289 394.092C28.9636 380.623 44.115 359.388 49.8931 334.312C55.8015 308.656 51.245 282.149 37.055 259.672L39.1279 258.365C53.6685 281.398 58.3401 308.566 52.2815 334.863C46.3582 360.584 30.8112 382.355 8.51469 396.175C-7.28763 405.963 -25.1729 410.991 -43.4437 410.991Z" fill="white"/>
<path d="M-43.7141 395.118C-50.3385 395.118 -57.0229 394.337 -63.6573 392.75C-72.2044 390.707 -80.3308 387.417 -87.8114 382.966L-86.5596 380.863C-79.2894 385.189 -71.3932 388.384 -63.0865 390.366C-41.6512 395.489 -19.6552 391.989 -1.15401 380.527C17.1068 369.212 29.8398 351.376 34.6916 330.307C39.6586 308.751 35.8282 286.485 23.9064 267.598C12.0947 248.887 -6.21615 235.763 -27.6614 230.641C-46.6583 226.104 -65.7853 228.232 -82.9746 236.789L-84.0661 234.596C-66.3611 225.779 -46.6583 223.586 -27.0906 228.257C-5.02448 233.525 13.8271 247.034 25.9793 266.286C38.2516 285.724 42.1922 308.656 37.08 330.852C32.0779 352.563 18.9594 370.939 0.137817 382.605C-13.201 390.872 -28.2973 395.118 -43.7141 395.118Z" fill="#00672A"/>
<path d="M229.812 139.877C217.134 119.789 202.378 101.068 185.96 84.2339L181.915 88.1795C198.057 104.728 212.563 123.139 225.031 142.892C271.591 216.641 286.552 303.624 267.155 387.813C248.193 470.119 198.458 539.792 127.107 584.01C80.4313 612.921 26.8956 629.244 -27.7065 631.216L-29.7944 631.241V636.915L-27.5062 636.864C28.0823 634.862 82.5743 618.248 130.081 588.817C202.719 543.803 253.356 472.868 272.658 389.084C292.401 303.413 277.184 214.913 229.812 139.877Z" fill="#F08300"/>
</svg>
