<svg width="41" height="41" viewBox="0 0 41 41" fill="none" xmlns="http://www.w3.org/2000/svg">
<path opacity="0.4" d="M6.83333 13.6667C6.83333 9.893 9.89296 6.83337 13.6667 6.83337C17.4404 6.83337 20.5 9.893 20.5 13.6667C20.5 17.4404 17.4404 20.5 13.6667 20.5C9.89296 20.5 6.83333 17.4404 6.83333 13.6667ZM27.3333 20.5C31.107 20.5 34.1667 17.4404 34.1667 13.6667C34.1667 9.893 31.107 6.83337 27.3333 6.83337C23.5596 6.83337 20.5 9.893 20.5 13.6667C20.5 17.4404 23.5596 20.5 27.3333 20.5ZM27.3333 23.9167C24.4992 23.9167 22.2801 24.2208 20.5 24.6855C18.7199 24.2208 16.5008 23.9167 13.6667 23.9167C0 23.9167 0 30.75 0 30.75V34.1667H41V30.75C41 30.75 41 23.9167 27.3333 23.9167Z" fill="white"/>
<path d="M20.4999 20.5C16.7262 20.5 13.6666 17.4404 13.6666 13.6667C13.6666 9.893 16.7262 6.83337 20.4999 6.83337C24.2736 6.83337 27.3333 9.893 27.3333 13.6667C27.3333 17.4404 24.2736 20.5 20.4999 20.5ZM20.4999 23.9167C6.83325 23.9167 6.83325 30.75 6.83325 30.75V34.1667H34.1666V30.75C34.1666 30.75 34.1666 23.9167 20.4999 23.9167Z" fill="white"/>
</svg>
