<svg width="132" height="119" viewBox="0 0 132 119" fill="none" xmlns="http://www.w3.org/2000/svg">
<path fill-rule="evenodd" clip-rule="evenodd" d="M21.122 68.1725L25.9561 68.3211L30.4298 68.5391C31.1208 68.5815 31.7772 68.706 32.4528 68.596C32.6758 68.7735 32.917 68.7118 33.2812 68.7822L33.6695 68.9655C33.6762 68.9741 33.6916 69.0069 33.6964 69.0147C33.7012 69.0233 33.7137 69.061 33.7185 69.0687C33.7224 69.0764 33.7262 69.1073 33.7358 69.1246L35.9981 69.0069L41.0667 69.332L43.872 69.3706C42.9927 69.4941 42.1556 69.5288 41.2388 69.5414C40.7063 69.5491 38.7054 69.5047 38.2624 69.8781L45.7182 70.1356C46.611 70.1906 47.8152 70.2745 48.0776 69.4767C48.1756 69.3783 48.1814 69.416 48.2737 69.2558C48.3669 69.0938 48.3313 69.1381 48.3851 68.978C48.5197 68.4194 48.1045 67.6236 47.9796 67.1065C48.0574 66.9734 48.0171 67.0911 48.0891 66.8316C48.1208 66.7177 48.1497 66.5509 48.1641 66.4322C48.1968 66.1698 48.2073 65.8794 48.2218 65.6122L48.5168 62.1702L48.56 61.8287L48.6504 60.1646L48.6869 59.5202L48.7196 54.8078L49.0569 56.9629C49.2011 56.2249 49.0925 53.3964 49.0069 52.3623L48.8647 51.7989C49.0627 50.9886 48.906 46.8231 48.8791 45.5941L48.7984 44.5985L48.6504 42.099L48.5648 40.6471L48.0814 34.3844C48.0468 34.0063 48.0959 33.7728 47.9046 33.5384C47.97 32.9982 47.8835 32.7956 47.8431 32.2833C47.8066 31.9351 48.2496 30.5324 48.0247 30.2392C48.1151 29.6256 47.8854 28.7352 47.5817 28.3503C47.2607 27.9451 46.4582 27.7821 45.8278 27.7213L44.4333 27.3943C41.2983 27.1232 38.0221 27.2583 34.8795 27.4059L34.1395 27.5545C33.756 27.4377 33.1649 27.513 32.7286 27.566L30.4903 27.6953C28.747 27.8767 26.3021 27.6519 24.4415 27.677C19.6093 27.7426 17.4614 27.7927 12.5859 28.2452C9.42504 28.5384 10.4668 28.2857 7.13389 28.9764L5.76631 29.2947C4.88599 29.4115 4.28245 29.4751 4.1604 30.3395C4.07198 30.9675 3.98644 32.3663 4.10658 32.9596C3.94512 33.2027 3.95377 33.8326 3.94224 34.232L3.68852 39.6883C4.09312 38.8914 3.76925 37.537 4.17481 36.7527L4.29014 37.591C4.31032 37.9701 4.27476 38.576 4.44679 38.821C4.34203 39.4577 4.45352 40.0761 4.47466 40.7185L4.56019 42.2109L4.72742 44.7162C4.73318 44.8947 4.73222 45.1204 4.74664 45.295C4.75529 45.4001 4.7649 45.5053 4.787 45.6076C4.84466 45.8719 4.79565 45.7224 4.87638 45.8671C4.73895 46.4333 4.88983 47.1279 4.89944 47.7C4.91674 48.2643 4.87638 49.2579 5.10703 49.6554C4.97056 50.2747 5.08397 52.6855 5.10511 53.4929C5.13875 54.8029 5.13778 56.1168 5.12721 57.4269C5.10511 60.0161 4.83217 60.2737 4.81968 62.8494L4.84466 63.5825L4.92539 65.3566C5.00612 66.5518 5.009 67.8551 5.24446 68.1117C8.94643 68.9462 15.7709 68.1358 21.122 68.1725ZM17.2547 74.8336L4.58806 75.3391C2.22387 75.3353 2.20273 74.7671 1.53384 72.7229C1.44158 72.1132 0.978351 69.006 1.42428 68.3799C1.37238 68.9674 1.70202 71.5335 1.92114 72.0139L1.77218 66.9271L1.57324 64.7816C1.70395 64.3784 1.62994 64.0774 1.60304 63.6192L1.51174 62.1828L1.46464 60.4415L0.835154 50.9635L0.826505 50.1937C0.815933 50.0316 0.814972 49.8203 0.797673 49.666C0.754426 49.2647 0.824583 49.3747 0.656399 49.147C0.76692 48.5643 0.679464 47.9025 0.622762 47.3015C0.60258 46.7999 0.650632 45.8902 0.434396 45.5574L0.46611 44.7278C0.443045 43.9377 0.482448 41.1613 0.216237 40.7127L0.261406 40.024C0.256601 39.503 0.318108 38.44 0.115326 38.0724C0.236419 37.6721 0.185483 37.5833 0.177795 37.1453L0.0211431 31.0167L0 29.8051L0.157613 29.341C0.204704 29.1047 0.216237 28.8819 0.236419 28.6552C0.339251 28.1362 0.472838 27.5361 0.621801 26.9978C0.765959 26.4779 1.12059 25.8431 1.11866 25.3145C1.31664 25.1968 1.18498 25.492 1.3176 25.0762C1.54633 24.4241 1.93652 23.5877 2.33536 23.0995C2.96196 22.3316 3.11189 22.3452 4.08255 21.9217C4.74375 21.8908 5.8999 21.9545 6.34487 21.5126L7.44239 21.3641C7.68938 21.3178 7.92388 21.2647 8.1824 21.2155C8.18432 21.2155 8.54183 21.1432 8.55913 21.1383L8.90223 20.9782L13.8392 20.4467C14.2217 20.4216 14.0813 20.4737 14.2841 20.3116C14.6983 20.4283 15.2461 20.3521 15.7113 20.3309L16.2725 20.2865L19.2105 20.1351C19.888 20.0849 21.146 20.1708 21.6208 19.8486C22.1859 19.9441 22.4502 19.8196 22.9836 19.81C23.6967 19.9286 20.0591 20.3425 19.7006 20.4013L16.1399 21.0091C15.892 21.094 15.9804 21.0631 15.867 21.1306C16.9722 21.175 24.2445 20.6328 24.7529 20.2991C25.2939 20.3936 25.6639 20.2856 26.1829 20.2547C26.6788 20.1968 27.9474 20.1611 28.2626 19.9701C29.0382 20.1235 33.0304 19.5447 34.1875 19.4665C38.2124 19.1955 42.5919 18.8916 46.6139 19.0189C47.8575 19.0585 51.6614 19.6363 52.4292 19.5148C52.9934 20.0907 53.0443 19.5206 53.2135 20.6791L53.3692 21.2396C53.2269 21.8609 53.545 24.6527 53.6209 25.4862L53.7257 26.6158C53.7987 28.3966 53.3855 30.27 53.5296 32.0566C53.6988 34.1519 53.1952 36.7045 53.1904 38.9165C53.1779 44.284 53.3557 49.4875 53.2769 54.6196C53.2673 55.6875 53.0779 57.833 53.2951 58.488L53.1539 59.0881C53.1385 59.3186 53.15 59.6408 53.1481 59.881C53.1443 60.3557 53.1164 60.8284 53.1164 61.3001L52.9761 63.6009L52.88 64.443C52.8521 65.1636 52.608 65.9257 52.7445 66.6203L52.9146 68.5584L52.5494 70.5784L52.3264 71.1611L52.1794 71.9811C52.0929 72.0698 52.0977 72.0496 52.0035 72.1972C51.9478 72.2859 51.9305 72.3235 51.8795 72.4277C51.793 72.6033 51.7402 72.7364 51.6662 72.9101C51.2587 73.6152 51.0521 73.6615 50.6917 74.1014C50.3928 74.2182 50.2755 74.3359 49.9728 74.4265C49.8133 74.4748 49.7191 74.4767 49.574 74.5085C49.4442 74.5375 49.4884 74.5201 49.3789 74.551C49.1271 74.6233 49.2885 74.5539 49.1472 74.6465C48.3755 74.4883 46.4054 74.8182 45.4328 74.8307C44.1402 74.8491 43.183 74.9021 41.9076 74.9166C39.4368 74.9446 36.7237 74.9349 34.2923 75.069L25.9638 75.0063L20.8106 74.825L19.8967 74.8172L17.2547 74.8336ZM27.8013 67.8532L27.0142 67.9149L26.1003 68.0259C26.9489 68.0944 29.1007 68.2931 29.7955 68.0857C29.6638 67.8947 30.0185 68.0365 29.5745 67.9033C29.4784 67.8744 29.1516 67.8551 29.0363 67.8474C28.5923 67.8165 28.2444 67.8358 27.8013 67.8532Z" fill="#FFBE08"/>
<path d="M25.0451 54.6467C24.7817 53.2247 24.5184 51.825 24.2551 50.4464V50.3818C23.9918 49.1325 23.7678 47.862 23.5843 46.5694C23.3997 45.2767 23.2287 44.0062 23.0711 42.7569C22.9654 42.2833 22.9 41.8414 22.8741 41.4324C22.8692 41.3533 22.8606 41.2713 22.8519 41.1893L19.8813 52.7318L19.1759 46.9726C19.1759 46.9263 19.0587 46.0243 18.8232 44.2667C18.5878 42.509 18.2879 40.2545 17.9218 37.5023C17.5556 34.75 17.1375 31.6978 16.6676 28.3436C16.1967 24.9903 15.7008 21.6834 15.1779 18.4218C14.6551 15.1612 14.1198 12.1311 13.5711 9.33253C13.0223 6.53398 12.487 4.32582 11.9642 2.70611C11.7556 2.52089 11.2713 2.34725 10.514 2.18615C9.75569 2.02408 9.14158 1.9662 8.67163 2.01251C7.78265 2.10511 7.06475 2.33664 6.51599 2.70611C5.96723 3.07655 5.53571 3.52706 5.22241 4.0586C4.90911 4.59111 4.6871 5.15738 4.5564 5.75838C4.4257 6.35937 4.3344 6.89188 4.28154 7.35396L4.04608 14.0141C4.04608 14.292 4.04608 14.5688 4.04608 14.8467C4.04608 15.1245 4.07203 15.4014 4.12489 15.6792C4.12489 16.0959 4.15084 16.4191 4.20369 16.6506V18.4546C4.25559 19.1019 4.28154 19.727 4.28154 20.328C4.28154 20.929 4.33344 21.531 4.43819 22.132C4.59484 23.4729 4.76495 24.8032 4.94755 26.1219C5.13015 27.4397 5.30025 28.77 5.45691 30.1109C5.56166 30.5267 5.62701 30.9434 5.65296 31.3592C5.67891 31.7759 5.74426 32.1917 5.84902 32.6084C5.95377 33.1178 6.01912 33.5915 6.04507 34.0304C6.07102 34.4703 6.13637 34.9439 6.24112 35.4523C6.39778 36.7932 6.56788 38.1583 6.75048 39.5455C6.93308 40.9327 7.15509 42.2977 7.41649 43.6386V43.7081C7.6779 45.1879 7.9393 46.6919 8.20071 48.218C8.46212 49.7441 8.77542 51.2481 9.14158 52.7279C9.55964 54.3003 10.043 55.8265 10.5918 57.3073C11.1406 58.7871 11.9901 60.1521 13.1396 61.4004C13.401 61.6783 13.7277 61.9329 14.1198 62.1635C14.5119 62.395 14.904 62.5918 15.2962 62.7529C15.6883 62.915 16.0669 63.0307 16.4331 63.1002C16.7992 63.1697 17.0866 63.1581 17.2951 63.0655L17.4518 62.996H17.5306C17.7401 62.9497 17.9487 62.8802 18.1572 62.7876C18.3667 62.695 18.5887 62.614 18.8232 62.5445C19.0587 62.4751 19.3326 62.3477 19.6468 62.1625L19.7256 62.0931C20.7713 61.7236 21.4767 61.2605 21.8419 60.7058L21.9985 60.5669C22.1552 60.428 22.3772 60.2081 22.6645 59.9081C22.9519 59.6071 23.2393 59.2839 23.5266 58.9366C23.814 58.5893 24.0888 58.2546 24.3502 57.9305C24.6116 57.6063 24.7683 57.3526 24.8211 57.1674L24.899 57.0285C25.0537 56.7313 25.2027 56.4313 25.3449 56.1284C25.2382 55.6413 25.1373 55.1464 25.0451 54.6467Z" fill="#FF4F12"/>
<path d="M38.6578 5.93592C38.579 5.26547 38.4617 4.79084 38.3051 4.51398C38.0965 4.18985 37.8611 4.02874 37.5997 4.02874C37.2863 3.93613 36.8942 4.01717 36.4233 4.27184C35.9534 4.52652 35.4565 4.89599 34.9337 5.3822C34.4109 5.86743 33.8881 6.44624 33.3662 7.1167C32.8434 7.78715 32.3735 8.46919 31.9554 9.16376C31.5892 9.94998 31.224 10.7362 30.8579 11.5224C30.4917 12.3086 30.1784 13.0485 29.917 13.7422L29.6229 14.8863C29.8968 15.9272 30.1746 17.1079 30.4552 18.4324C31.0078 21.0381 31.5479 23.8598 32.0736 26.8966C32.2149 27.7117 32.3542 28.5298 32.4917 29.3507C32.5224 29.2591 32.5522 29.1665 32.583 29.0748C32.8444 28.1497 33.1183 27.2593 33.4066 26.4036C33.6939 25.548 33.9688 24.7039 34.2302 23.8713L34.308 23.5241C34.4647 23.062 34.7261 22.1831 35.0923 20.8876C35.4584 19.592 35.9024 18.1353 36.4252 16.5166C36.6338 15.9156 36.8433 15.222 37.0528 14.4348C37.2623 13.7875 37.4709 12.9781 37.6804 12.0067C37.8899 11.0352 38.1244 9.94805 38.3858 8.74605C38.6443 7.54309 38.7356 6.60638 38.6578 5.93592Z" fill="#FF4F12"/>
<path d="M53.5672 13.3012C53.8161 13.3012 54.041 13.444 54.2399 13.7295C54.3899 13.9746 54.5013 14.3923 54.5763 14.9836C54.6513 15.575 54.5638 16.4007 54.3149 17.4609C54.066 18.5211 53.8411 19.48 53.6422 20.3367C53.4423 21.1933 53.2433 21.9072 53.0444 22.4782C52.8445 23.1719 52.6455 23.7835 52.4466 24.3131C51.9478 25.7408 51.525 27.0248 51.1761 28.167C50.8272 29.3092 50.5783 30.0838 50.4284 30.4919L50.3534 30.7977C50.1045 31.5318 49.8422 32.2765 49.5683 33.0309C49.2944 33.7853 49.032 34.5706 48.7831 35.3867C48.0354 37.4665 47.2752 39.6795 46.5025 42.0237C45.7298 44.3689 45.0196 46.9282 44.3718 49.7016V49.8242C44.3718 50.1502 44.2969 50.6605 44.1479 51.3532C43.998 52.0468 43.849 52.75 43.6991 53.4639C43.5492 54.1778 43.4002 54.8299 43.2503 55.4213C43.1004 56.0126 43.0014 56.3898 42.9514 56.5528V56.6753C42.7515 57.287 42.5276 57.8687 42.2787 58.4185C42.0298 58.9694 41.7549 59.5096 41.456 60.0402L41.381 60.1627C41.3311 60.3257 41.1812 60.5505 40.9322 60.836C40.6833 61.1216 40.421 61.4177 40.1471 61.7235C39.8732 62.0293 39.5993 62.3149 39.3244 62.5802C39.0505 62.8455 38.8381 63.0394 38.6891 63.1609L38.5392 63.2834C38.1904 63.7725 37.5176 64.1806 36.521 64.5066L36.446 64.5674C36.1472 64.7305 35.8848 64.8424 35.6609 64.9041C35.4369 64.9649 35.2245 65.0363 35.0256 65.1183C34.8257 65.1993 34.6268 65.261 34.4278 65.3015H34.3529L34.203 65.3633C34.0031 65.4443 33.7291 65.4549 33.3803 65.3942C33.0314 65.3334 32.6701 65.2311 32.2962 65.0883C31.9224 64.9456 31.5485 64.7719 31.1747 64.5684C30.8008 64.3648 30.4894 64.1401 30.2405 63.895C29.144 62.7943 28.3338 61.5904 27.811 60.2862C27.2872 58.9809 26.8269 57.6352 26.428 56.249C26.0792 54.9437 25.7803 53.6183 25.5314 52.2725C25.2825 50.9268 25.0326 49.6013 24.7837 48.2961V48.2353C24.5348 47.0526 24.3224 45.8497 24.1484 44.6264C23.9735 43.4032 23.8121 42.2003 23.6621 41.0176C23.5622 40.569 23.4997 40.1513 23.4757 39.7635C23.4507 39.3757 23.3882 38.958 23.2892 38.5094C23.1893 38.1428 23.1268 37.7752 23.1018 37.4087C23.0768 37.0411 23.0144 36.6745 22.9154 36.308C22.7664 35.1253 22.604 33.9532 22.4291 32.7907C22.2542 31.6283 22.0927 30.4562 21.9428 29.2735C21.8429 28.7429 21.7929 28.2133 21.7929 27.6827C21.7929 27.1521 21.7679 26.6023 21.7179 26.0312V24.4404C21.6679 24.2369 21.643 23.9513 21.643 23.5838C21.593 23.3387 21.568 23.0947 21.568 22.8497C21.568 22.6046 21.568 22.3606 21.568 22.1155L21.7919 16.2425C21.8419 15.8345 21.9293 15.3656 22.0533 14.8351C22.1783 14.3045 22.3897 13.8057 22.6886 13.3359C22.9875 12.8671 23.3988 12.4697 23.9226 12.1426C24.4463 11.8166 25.1316 11.612 25.9783 11.531C26.4271 11.4905 27.0124 11.5416 27.7351 11.6844C28.4578 11.8272 28.9191 11.9796 29.118 12.1436C29.6168 13.5713 30.1271 15.5181 30.6509 17.9857C31.1747 20.4534 31.685 23.1246 32.1838 25.9993C32.6826 28.8751 33.1554 31.7903 33.6042 34.7471C34.053 37.7039 34.4519 40.3953 34.8007 42.8225C35.1496 45.2487 35.436 47.2369 35.6609 48.7871C35.8848 50.3364 35.9972 51.1323 35.9972 51.1728L36.67 56.2499L46.2392 21.8695C46.4881 21.2579 46.787 20.6048 47.1358 19.9122C47.4847 19.2186 47.8336 18.5259 48.1824 17.8323C48.5813 17.2207 49.0301 16.6188 49.5279 16.0274C50.0267 15.4361 50.5245 14.9267 51.0233 14.4984C51.5221 14.0701 51.9949 13.744 52.4437 13.5192C52.8945 13.2906 53.2683 13.2202 53.5672 13.3012Z" fill="#FF4F12"/>
<path d="M103.624 30.7747C103.422 31.7124 103.218 32.6308 103.015 33.5279C102.812 34.4251 102.608 35.3425 102.406 36.2811H102.466C102.669 36.0361 102.862 35.792 103.045 35.547C103.227 35.302 103.4 35.0367 103.563 34.7521C104.254 33.5694 104.944 32.3761 105.635 31.1731C106.326 29.9702 107.016 28.7566 107.707 27.5334C108.52 26.1056 109.251 24.6683 109.901 23.2203C110.551 21.7723 110.998 20.2529 111.242 18.6631C111.486 17.2768 110.957 16.3179 109.657 15.7874C109.21 15.5838 108.885 15.7063 108.681 16.1549C108.519 16.3999 108.346 16.644 108.163 16.889C107.981 17.1341 107.788 17.3579 107.585 17.5624C107.3 17.9705 106.996 18.3476 106.671 18.694C106.346 19.0403 106.102 19.4175 105.939 19.8255C105.615 20.8047 105.35 21.7829 105.148 22.762C104.945 23.7412 104.741 24.7396 104.538 25.7593C104.335 26.5754 104.173 27.4109 104.051 28.2675C103.929 29.1232 103.787 29.9586 103.624 30.7747ZM112.217 50.9009C112.664 50.9414 113.02 51.1151 113.284 51.4209C113.548 51.7267 113.66 52.0836 113.619 52.4917C113.579 52.8997 113.497 53.7766 113.375 55.1224C113.253 56.4681 113.05 58.0589 112.766 59.8937C112.481 61.7285 112.106 63.6965 111.639 65.7966C111.171 67.8967 110.603 69.9255 109.932 71.8838C109.261 73.8411 108.449 75.5949 107.494 77.1452C106.539 78.6945 105.452 79.8164 104.233 80.51C103.257 81.0406 102.283 81.3049 101.307 81.3049C99.3976 80.7743 97.833 79.7759 96.6144 78.3076C95.3958 76.8394 94.4309 75.1164 93.7197 73.1388C93.0085 71.1612 92.5107 69.0505 92.2262 66.8076C91.9418 64.5647 91.7794 62.4231 91.739 60.3838C91.739 60.0577 91.7496 59.7316 91.7697 59.4046C91.7899 59.0786 91.8005 58.7525 91.8005 58.4255V56.2231C91.8409 55.5295 91.8822 54.8368 91.9226 54.1432C91.9629 53.5721 91.9937 52.9711 92.0139 52.3383C92.034 51.7064 92.0648 51.146 92.1052 50.6559C92.1455 50.4523 92.1657 50.2681 92.1657 50.1051C92.1657 49.942 92.1657 49.8195 92.1657 49.7385C92.1657 48.5153 92.2464 47.3017 92.4098 46.0987C92.5722 44.8958 92.7145 43.7024 92.8365 42.5197C93.0393 40.5209 93.3545 38.5539 93.7812 36.6159C94.2079 34.6788 94.7058 32.7311 95.2747 30.7737C95.6399 29.4685 95.9955 28.1739 96.3415 26.889C96.6865 25.604 97.1238 24.3499 97.6514 23.1267C98.3011 21.4954 99.0833 19.9355 99.9973 18.447C100.911 16.9585 102.018 15.5819 103.319 14.3182C103.441 14.1956 103.715 14.0124 104.141 13.7673C104.568 13.5223 105.015 13.2676 105.482 13.0023C105.949 12.737 106.386 12.5026 106.792 12.2991C107.198 12.0955 107.442 11.9933 107.523 11.9933C107.686 11.9528 107.899 11.9421 108.163 11.9624C108.428 11.9827 108.702 12.0338 108.986 12.1158C109.271 12.1968 109.524 12.2991 109.748 12.4216C109.972 12.5441 110.124 12.6666 110.206 12.7891C110.408 12.9927 110.602 13.2068 110.784 13.4316C110.967 13.6564 111.16 13.8291 111.363 13.9516C112.216 14.4002 112.754 14.9404 112.978 15.5732C113.201 16.2051 113.293 16.9296 113.252 17.7447C113.212 19.0499 113.019 20.2838 112.674 21.4462C112.329 22.6087 111.871 23.7807 111.302 24.9635C110.855 26.0642 110.368 27.0838 109.839 28.0225C109.393 28.8386 108.956 29.6229 108.53 30.3773C108.103 31.1316 107.667 31.9169 107.219 32.7321C106.975 33.1401 106.731 33.5482 106.487 33.9553C106.243 34.3633 106 34.7714 105.756 35.1785C105.309 35.9126 104.893 36.6361 104.507 37.35C104.12 38.0639 103.704 38.7671 103.257 39.4607C103.054 39.7868 102.83 40.1235 102.586 40.4698C102.342 40.8161 102.099 41.1528 101.855 41.4788C101.448 41.9274 101.195 42.4271 101.093 42.978C100.991 43.5288 100.9 44.0893 100.819 44.6604C100.738 45.354 100.677 46.0679 100.636 46.801C100.596 47.5351 100.535 48.249 100.454 48.9426C100.372 49.5137 100.271 50.1051 100.149 50.7167C100.027 51.3283 99.9666 51.9196 99.9666 52.4907C99.9262 53.5104 99.9262 54.5195 99.9666 55.5189C100.007 56.5183 100.068 57.5273 100.149 58.547C100.19 60.0153 100.312 61.4835 100.515 62.9518C100.597 63.6454 100.688 64.3486 100.789 65.0625C100.891 65.7764 101.003 66.4796 101.125 67.1732C101.327 68.1109 101.521 69.0293 101.703 69.9264C101.886 70.8236 102.079 71.741 102.282 72.6796C102.363 72.9247 102.435 73.1793 102.495 73.4446C102.556 73.7099 102.627 73.9849 102.708 74.2704C102.83 74.5965 102.973 74.9023 103.135 75.1878C103.298 75.4734 103.48 75.6673 103.684 75.7686C103.887 75.8708 104.111 75.8805 104.355 75.7994C104.599 75.7174 104.862 75.4734 105.147 75.0653C105.391 74.6572 105.634 74.2193 105.878 73.7504C106.122 73.2816 106.365 72.7414 106.609 72.1298C106.691 71.8037 106.772 71.5278 106.853 71.304C106.934 71.0802 107.016 70.866 107.098 70.6615C107.422 69.7644 107.727 68.7756 108.012 67.6942C108.296 66.6137 108.58 65.4001 108.865 64.0544C109.19 62.5456 109.465 61.088 109.688 59.6805C109.912 58.274 110.084 57.0296 110.206 55.9491C110.328 54.8687 110.419 53.9918 110.479 53.3184C110.54 52.6451 110.571 52.3094 110.571 52.3094C110.611 51.8608 110.784 51.5145 111.089 51.2694C111.394 51.0234 111.77 50.9009 112.217 50.9009ZM85.0972 30.7747C84.8944 31.7124 84.6906 32.6308 84.4879 33.5279C84.2851 34.4251 84.0813 35.3425 83.8786 36.2811H83.9391C84.1419 36.0361 84.335 35.792 84.5176 35.547C84.7002 35.302 84.8732 35.0367 85.0357 34.7521C85.7267 33.5694 86.4167 32.3761 87.1077 31.1731C87.7987 29.9702 88.4887 28.7566 89.1797 27.5334C89.9928 26.1056 90.7241 24.6683 91.3738 23.2203C92.0235 21.7723 92.4703 20.2529 92.7145 18.6631C92.9586 17.2768 92.43 16.3179 91.1297 15.7874C90.6828 15.5838 90.358 15.7063 90.1542 16.1549C89.9918 16.3999 89.8188 16.644 89.6362 16.889C89.4536 17.1341 89.2604 17.3579 89.0577 17.5624C88.7732 17.9705 88.4685 18.3476 88.1437 18.694C87.8189 19.0403 87.5748 19.4175 87.4123 19.8255C87.0875 20.8047 86.8232 21.7829 86.6204 22.762C86.4176 23.7412 86.2139 24.7396 86.0111 25.7593C85.8083 26.5754 85.6459 27.4109 85.5239 28.2675C85.4018 29.1232 85.2596 29.9586 85.0972 30.7747ZM93.6899 50.9009C94.1368 50.9414 94.4924 51.1151 94.7567 51.4209C95.021 51.7267 95.1325 52.0836 95.0921 52.4917C95.0517 52.8997 94.97 53.7766 94.848 55.1224C94.7259 56.4681 94.5232 58.0589 94.2387 59.8937C93.9542 61.7285 93.5784 63.6965 93.1114 65.7966C92.6443 67.8967 92.0754 69.9255 91.4045 71.8838C90.7337 73.8411 89.9216 75.5949 88.9664 77.1452C88.0111 78.6945 86.9251 79.8164 85.7055 80.51C84.73 81.0406 83.7555 81.3049 82.7801 81.3049C80.8705 80.7743 79.3059 79.7759 78.0873 78.3076C76.8686 76.8394 75.9037 75.1164 75.1926 73.1388C74.4814 71.1612 73.9836 69.0505 73.6991 66.8076C73.4146 64.5647 73.2522 62.4231 73.2118 60.3838C73.2118 60.0577 73.2224 59.7316 73.2426 59.4046C73.2628 59.0786 73.2733 58.7525 73.2733 58.4255V56.2231C73.3137 55.5295 73.355 54.8368 73.3954 54.1432C73.4358 53.5721 73.4665 52.9711 73.4867 52.3383C73.5069 51.7064 73.5376 51.146 73.578 50.6559C73.6184 50.4523 73.6385 50.2681 73.6385 50.1051C73.6385 49.942 73.6385 49.8195 73.6385 49.7385C73.6385 48.5153 73.7193 47.3017 73.8827 46.0987C74.0451 44.8958 74.1873 43.7024 74.3094 42.5197C74.5121 40.5209 74.8274 38.5539 75.2541 36.6159C75.6808 34.6788 76.1786 32.7311 76.7475 30.7737C77.1127 29.4685 77.4683 28.1739 77.8143 26.889C78.1593 25.604 78.5966 24.3499 79.1242 23.1267C79.7739 21.4954 80.5562 19.9355 81.4702 18.447C82.3841 16.9585 83.4912 15.5819 84.7916 14.3182C84.9136 14.1956 85.1875 14.0124 85.6142 13.7673C86.0409 13.5223 86.4878 13.2676 86.9549 13.0023C87.4219 12.737 87.8592 12.5026 88.2648 12.2991C88.6713 12.0955 88.9154 11.9933 88.9962 11.9933C89.1586 11.9528 89.3719 11.9421 89.6362 11.9624C89.9005 11.9827 90.1744 12.0338 90.4589 12.1158C90.7433 12.1968 90.9971 12.2991 91.221 12.4216C91.4449 12.5441 91.5968 12.6666 91.6784 12.7891C91.8812 12.9927 92.0744 13.2068 92.257 13.4316C92.4396 13.6564 92.6328 13.8291 92.8356 13.9516C93.689 14.4002 94.2272 14.9404 94.4511 15.5732C94.674 16.2051 94.7663 16.9296 94.725 17.7447C94.6846 19.0499 94.4914 20.2838 94.1464 21.4462C93.8014 22.6087 93.3439 23.7807 92.775 24.9635C92.3281 26.0642 91.8409 27.0838 91.3123 28.0225C90.8654 28.8386 90.4291 29.6229 90.0024 30.3773C89.5757 31.1316 89.1393 31.9169 88.6925 32.7321C88.4484 33.1401 88.2052 33.5482 87.9611 33.9553C87.717 34.3633 87.4738 34.7714 87.2297 35.1785C86.7829 35.9126 86.3667 36.6361 85.9804 37.35C85.594 38.0639 85.1779 38.7671 84.731 39.4607C84.5282 39.7868 84.3043 40.1235 84.0602 40.4698C83.8161 40.8161 83.5729 41.1528 83.3288 41.4788C82.9223 41.9274 82.6686 42.4271 82.5667 42.978C82.4648 43.5288 82.3735 44.0893 82.2928 44.6604C82.2121 45.354 82.1506 46.0679 82.1102 46.801C82.0699 47.5351 82.0083 48.249 81.9276 48.9426C81.8459 49.5137 81.745 50.1051 81.623 50.7167C81.5009 51.3283 81.4404 51.9196 81.4404 52.4907C81.4 53.5104 81.4 54.5195 81.4404 55.5189C81.4807 56.5183 81.5422 57.5273 81.623 58.547C81.6633 60.0153 81.7854 61.4835 81.9891 62.9518C82.0708 63.6454 82.1621 64.3486 82.263 65.0625C82.3649 65.7764 82.4764 66.4796 82.5984 67.1732C82.8012 68.1109 82.9944 69.0293 83.177 69.9264C83.3596 70.8236 83.5528 71.741 83.7555 72.6796C83.8372 72.9247 83.9083 73.1793 83.9689 73.4446C84.0304 73.7099 84.1006 73.9849 84.1822 74.2704C84.3043 74.5965 84.4465 74.9023 84.6089 75.1878C84.7714 75.4734 84.954 75.6673 85.1577 75.7686C85.3605 75.8708 85.5844 75.8805 85.8285 75.7994C86.0726 75.7174 86.3369 75.4734 86.6204 75.0653C86.8645 74.6572 87.1077 74.2193 87.3518 73.7504C87.5959 73.2816 87.839 72.7414 88.0832 72.1298C88.1648 71.8037 88.2456 71.5278 88.3273 71.304C88.408 71.0802 88.4897 70.866 88.5714 70.6615C88.8962 69.7644 89.2009 68.7756 89.4853 67.6942C89.7698 66.6137 90.0543 65.4001 90.3387 64.0544C90.6636 62.5456 90.9375 61.088 91.1614 59.6805C91.3853 58.274 91.5574 57.0296 91.6794 55.9491C91.8015 54.8687 91.8928 53.9918 91.9533 53.3184C92.0148 52.6451 92.0446 52.3094 92.0446 52.3094C92.085 51.8608 92.258 51.5145 92.5626 51.2694C92.8673 51.0234 93.243 50.9009 93.6899 50.9009ZM63.8887 45.7621C63.807 46.3331 63.7666 46.9139 63.7666 47.5052C63.7666 48.0966 63.7868 48.6166 63.8272 49.0651C63.8675 49.5957 63.9089 50.1253 63.9492 50.6559C64.4778 49.9218 64.9247 49.0352 65.2899 47.9953C65.656 46.9554 65.9607 45.9559 66.2038 44.998C66.448 44.0391 66.6306 43.1834 66.7526 42.4291C66.8747 41.6747 66.9352 41.1952 66.9352 40.9917C66.9756 40.054 66.9045 39.5032 66.7219 39.3401C66.5393 39.1771 66.3461 39.2379 66.1433 39.5234C65.9405 39.6865 65.7166 39.9209 65.4725 40.2267C65.2284 40.5325 64.9852 40.9406 64.7411 41.4499C64.497 41.9593 64.2942 42.5815 64.1318 43.3156C63.9694 44.0497 63.8675 44.9064 63.8272 45.8846L63.8887 45.7621ZM75.4069 51.0234C75.8134 51.1054 76.1181 51.3292 76.3208 51.6968C76.5236 52.0643 76.5649 52.4309 76.4429 52.7975C76.4025 53.001 76.2699 53.4602 76.0469 54.1741C75.823 54.888 75.5184 55.7137 75.133 56.6514C74.7466 57.5891 74.27 58.5788 73.701 59.6188C73.1321 60.6587 72.4824 61.6475 71.751 62.5861C71.0197 63.5238 70.2076 64.3293 69.3128 65.0027C68.4191 65.676 67.4436 66.0937 66.3874 66.2568H65.9607C65.5542 66.2973 65.1275 66.2973 64.6806 66.2568C64.2741 66.2163 63.8272 66.1449 63.3399 66.0426C62.8527 65.9404 62.3846 65.7474 61.9377 65.4619C61.2467 65.1358 60.5663 64.7075 59.8965 64.1769C59.2257 63.6463 58.5866 62.9537 57.9763 62.097C56.9605 60.5063 56.3511 58.7727 56.1484 56.8974C56.0263 55.5517 56.0263 54.1645 56.1484 52.7377C56.2301 52.0441 56.331 51.3514 56.453 50.6578C56.5751 49.9642 56.7375 49.2716 56.9403 48.578C57.2247 47.4358 57.6111 46.2328 58.0983 44.9691C58.5452 43.9089 59.1344 42.7059 59.8657 41.3602C60.5971 40.0145 61.511 38.689 62.6086 37.3838V37.323C62.6902 37.241 62.7614 37.16 62.8219 37.078C62.8825 36.996 62.9536 36.9149 63.0353 36.8329V36.7722C63.6849 36.038 64.4163 35.5895 65.2293 35.4264C66.0424 35.2634 66.7939 35.273 67.484 35.4573C68.175 35.6406 68.7737 35.9367 69.2821 36.3438C69.7905 36.7519 70.0846 37.16 70.1663 37.5671C70.2066 37.6491 70.2268 37.7407 70.2268 37.842C70.2268 37.9442 70.247 38.0359 70.2874 38.1169C70.4901 39.1771 70.5209 40.2277 70.3787 41.2676C70.2364 42.3075 70.0029 43.3378 69.6781 44.3565C69.2312 45.7842 68.7641 47.2014 68.2759 48.6079C67.7886 50.0144 67.2802 51.4325 66.7526 52.8592C66.5085 53.5528 66.2144 54.2252 65.8684 54.8783C65.5234 55.5304 65.1477 56.1835 64.7411 56.8357C64.497 57.3248 64.3961 57.8042 64.4365 58.273C64.4768 58.7419 64.5383 59.2011 64.6191 59.6496C64.7008 59.9757 64.7921 60.3018 64.893 60.6288C64.9948 60.9549 65.1063 61.2819 65.2284 61.608C65.3504 61.934 65.584 62.2813 65.929 62.6479C66.274 63.0154 66.7516 63.0357 67.361 62.7087C67.7271 62.4636 68.0923 62.1578 68.4575 61.7912C68.6199 61.6282 68.7218 61.5057 68.7622 61.4247C69.2907 60.8131 69.7982 60.1194 70.2854 59.3448C70.7727 58.5702 71.2196 57.7647 71.6261 56.9283C72.0326 56.0919 72.3978 55.2565 72.7227 54.4201C73.0475 53.5837 73.3118 52.7994 73.5146 52.0653C73.5963 51.6572 73.8192 51.3514 74.1854 51.1479C74.5535 50.9414 74.96 50.9009 75.4069 51.0234Z" fill="#7800FF"/>
<path d="M118.665 95.3902C118.594 95.8927 118.557 96.405 118.557 96.9259C118.557 97.4469 118.576 97.9041 118.611 98.2996C118.647 98.7665 118.682 99.2334 118.719 99.7004C119.184 99.054 119.578 98.2726 119.9 97.3571C120.222 96.4417 120.49 95.5609 120.705 94.7178C120.92 93.8737 121.081 93.1193 121.189 92.4546C121.296 91.7899 121.35 91.3684 121.35 91.1889C121.386 90.3632 121.323 89.8779 121.163 89.7342C121.001 89.5905 120.832 89.6445 120.652 89.8963C120.474 90.04 120.277 90.2465 120.062 90.5156C119.848 90.7847 119.633 91.1446 119.418 91.5931C119.204 92.0417 119.024 92.5897 118.881 93.236C118.738 93.8823 118.649 94.6367 118.613 95.4992L118.665 95.3902ZM128.809 100.024C129.166 100.095 129.436 100.293 129.614 100.616C129.793 100.939 129.829 101.262 129.722 101.585C129.686 101.765 129.57 102.169 129.373 102.798C129.176 103.427 128.908 104.154 128.568 104.98C128.227 105.806 127.807 106.677 127.307 107.593C126.806 108.509 126.233 109.38 125.589 110.207C124.945 111.033 124.229 111.743 123.442 112.335C122.655 112.927 121.796 113.296 120.866 113.439H120.49C120.133 113.475 119.757 113.475 119.363 113.439C119.005 113.404 118.611 113.341 118.182 113.25C117.752 113.161 117.341 112.99 116.947 112.738C116.338 112.451 115.739 112.073 115.148 111.606C114.558 111.14 113.994 110.529 113.458 109.775C112.563 108.374 112.027 106.848 111.848 105.195C111.741 104.01 111.741 102.788 111.848 101.531C111.919 100.921 112.01 100.31 112.116 99.6994C112.224 99.0887 112.367 98.4781 112.546 97.8675C112.797 96.8613 113.136 95.8021 113.566 94.6888C113.96 93.755 114.478 92.6958 115.123 91.5102C115.766 90.3246 116.572 89.1573 117.538 88.0084V87.9544C117.61 87.883 117.672 87.8106 117.726 87.7392C117.78 87.6669 117.842 87.5955 117.913 87.5241V87.4701C118.486 86.8237 119.13 86.4282 119.846 86.2845C120.562 86.1408 121.223 86.1494 121.832 86.3115C122.44 86.4736 122.968 86.734 123.415 87.0929C123.862 87.4518 124.122 87.8116 124.194 88.1704C124.229 88.2418 124.248 88.3229 124.248 88.4126C124.248 88.5023 124.266 88.5833 124.302 88.6547C124.48 89.5885 124.507 90.5137 124.382 91.4292C124.257 92.3446 124.052 93.2524 123.765 94.1496C123.371 95.4065 122.96 96.6548 122.53 97.8935C122.101 99.1331 121.654 100.38 121.189 101.637C120.974 102.248 120.715 102.84 120.41 103.415C120.107 103.99 119.775 104.564 119.417 105.139C119.203 105.57 119.113 105.992 119.149 106.405C119.185 106.818 119.239 107.222 119.311 107.618C119.382 107.905 119.463 108.192 119.552 108.48C119.641 108.767 119.739 109.055 119.847 109.342C119.955 109.63 120.16 109.935 120.464 110.258C120.768 110.581 121.189 110.599 121.725 110.312C122.047 110.097 122.369 109.827 122.691 109.503C122.834 109.36 122.923 109.252 122.959 109.18C123.424 108.642 123.871 108.031 124.301 107.348C124.73 106.666 125.123 105.956 125.482 105.22C125.839 104.484 126.162 103.748 126.448 103.011C126.734 102.275 126.967 101.583 127.145 100.937C127.216 100.578 127.413 100.308 127.735 100.129C128.058 99.9512 128.416 99.9155 128.809 100.024ZM113.513 99.9155C113.87 99.9512 114.166 100.095 114.398 100.347C114.63 100.598 114.747 100.903 114.747 101.262C114.711 101.621 114.666 102.178 114.612 102.932C114.558 103.686 114.46 104.531 114.317 105.464C114.174 106.398 113.968 107.368 113.7 108.374C113.432 109.379 113.1 110.314 112.707 111.175C112.313 112.038 111.831 112.764 111.258 113.357C110.685 113.95 110.024 114.3 109.273 114.408H108.683C108.289 114.408 107.771 114.345 107.126 114.22C106.482 114.094 105.873 113.672 105.301 112.954C104.692 112.235 104.218 111.383 103.878 110.395C103.538 109.407 103.297 108.429 103.154 107.458C103.082 107.064 103.029 106.471 102.992 105.68C102.957 104.89 102.911 104.092 102.858 103.283C102.804 102.475 102.741 101.766 102.67 101.155C102.599 100.544 102.491 100.221 102.348 100.186C101.955 100.078 101.534 100.356 101.087 101.021C100.64 101.686 100.184 102.565 99.7188 103.661C99.2536 104.757 98.8068 105.96 98.3772 107.271C97.9476 108.582 97.5632 109.821 97.2229 110.988C96.8827 112.155 96.5877 113.162 96.3378 114.006C96.087 114.85 95.9265 115.325 95.8544 115.433C95.6401 115.721 95.3979 116.026 95.1298 116.349C94.8616 116.672 94.5301 116.888 94.137 116.995C92.9203 117.283 91.9545 117.121 91.2385 116.51C90.5225 115.899 90.1294 114.93 90.0573 113.6C89.9862 111.877 89.9766 110.126 90.0304 108.348C90.0842 106.57 90.1467 104.927 90.2188 103.418C90.3264 101.694 90.4514 100.006 90.5946 98.3537C90.6666 97.8511 90.7291 97.3485 90.7829 96.8449C90.8368 96.3423 90.8992 95.8397 90.9703 95.3361C91.1135 94.5104 91.4086 93.9084 91.8564 93.5312C92.3033 93.154 92.7598 92.8935 93.225 92.7498C94.0121 92.5347 94.6118 92.552 95.0231 92.8038C95.4344 93.0556 95.7295 93.3421 95.9092 93.6663C96.1235 93.9537 96.2763 94.4477 96.3657 95.148C96.4551 95.8484 96.5175 96.5757 96.5541 97.3301C96.5896 98.0845 96.6079 98.7579 96.6079 99.3502C96.6079 99.9425 96.6079 100.257 96.6079 100.293C96.7511 100.113 96.9654 99.7988 97.2518 99.3502C97.5382 98.9016 97.8688 98.4077 98.2445 97.8684C98.6203 97.3292 99.0499 96.8092 99.5324 96.3056C100.016 95.803 100.525 95.3901 101.062 95.066C101.313 94.9223 101.599 94.7969 101.922 94.6888C102.243 94.5808 102.574 94.5181 102.914 94.5007C103.255 94.4824 103.576 94.5451 103.88 94.6888C104.184 94.8326 104.462 95.066 104.712 95.3892C105.142 95.8918 105.375 96.4667 105.41 97.1131L105.732 102.77C105.803 103.489 105.857 104.341 105.893 105.329C105.928 106.317 106.018 107.242 106.161 108.104C106.196 108.463 106.295 108.849 106.456 109.262C106.617 109.675 106.805 110.071 107.019 110.448C107.233 110.825 107.484 111.148 107.77 111.417C108.057 111.687 108.379 111.822 108.736 111.822C109.094 111.822 109.452 111.57 109.81 111.067C110.167 110.565 110.508 109.837 110.83 108.885C111.151 107.933 111.429 106.801 111.662 105.491C111.894 104.18 112.046 102.734 112.118 101.154C112.154 100.795 112.297 100.499 112.548 100.266C112.797 100.032 113.119 99.9155 113.513 99.9155ZM78.8399 115.055C79.1263 115.055 79.3945 114.903 79.6453 114.597C79.8961 114.291 80.1287 113.888 80.343 113.384C80.5573 112.882 80.7543 112.298 80.9331 111.633C81.1119 110.969 81.2733 110.277 81.4165 109.559C81.774 107.907 82.0787 106.039 82.3286 103.957C82.0066 103.777 81.6664 103.598 81.3089 103.418C81.0225 103.239 80.7188 103.032 80.3968 102.799C80.0749 102.565 79.7702 102.305 79.4848 102.018C79.4492 102.018 79.431 102.009 79.431 101.991C79.431 101.972 79.4127 101.964 79.3772 101.964C79.0908 101.676 78.8226 101.326 78.5718 100.913C78.321 100.5 78.0711 100.113 77.8203 99.7544C77.5339 99.3589 77.2657 98.9286 77.0149 98.4617C76.6574 101.443 76.4604 104.119 76.4248 106.489C76.4248 107.494 76.4517 108.492 76.5055 109.479C76.5594 110.467 76.667 111.356 76.8275 112.146C76.9889 112.936 77.2119 113.592 77.4983 114.112C77.7847 114.633 78.1778 114.947 78.6794 115.054H78.8399V115.055ZM79.8596 97.2761C79.6809 97.635 79.7251 98.1019 79.9942 98.6768C80.2623 99.2518 80.54 99.736 80.8264 100.132C81.0052 100.383 81.2022 100.598 81.4165 100.778C81.6308 100.957 81.8278 101.119 82.0066 101.263C82.1854 101.407 82.3824 101.532 82.5967 101.64C82.5967 101.389 82.5784 101.138 82.5429 100.886C82.5073 100.671 82.4708 100.428 82.4352 100.159C82.3997 99.8894 82.3459 99.629 82.2738 99.3772C82.2027 98.9817 82.0681 98.6141 81.8711 98.2726C81.6741 97.9311 81.4328 97.5993 81.1465 97.2761C80.9321 97.1681 80.7524 97.0783 80.6092 97.007C80.2536 96.8632 80.0028 96.9529 79.8596 97.2761ZM92.2581 100.239C92.5445 100.418 92.7233 100.687 92.7944 101.047C92.8665 101.406 92.7944 101.729 92.5801 102.017C91.7574 103.202 90.8358 104.01 89.8161 104.441C88.7964 104.872 87.7854 105.087 86.784 105.087C86.1756 105.087 85.6029 105.033 85.0666 104.925C85.031 105.392 85.0041 105.805 84.9859 106.164C84.9676 106.523 84.9417 106.793 84.9051 106.972C84.7975 107.727 84.6639 108.598 84.5025 109.585C84.341 110.573 84.1267 111.552 83.8585 112.522C83.5904 113.491 83.2858 114.381 82.9465 115.188C82.6073 115.996 82.2036 116.598 81.7385 116.993C80.7361 118.25 79.4127 118.897 77.7664 118.932C77.5521 118.932 77.3368 118.941 77.1225 118.959C76.9082 118.978 76.7112 118.986 76.5324 118.986C75.6021 119.059 74.8237 118.843 74.198 118.34C73.5714 117.837 73.0265 117.227 72.5614 116.508C72.0607 115.718 71.7022 114.901 71.4879 114.057C71.2736 113.213 71.0939 112.342 70.9507 111.443C70.843 110.833 70.745 110.213 70.6556 109.585C70.5662 108.956 70.5038 108.336 70.4672 107.726C70.3596 106.648 70.3596 105.553 70.4672 104.439C70.5749 103.613 70.6912 102.813 70.8161 102.042C70.941 101.27 71.0756 100.47 71.2188 99.6444C71.2899 99.2132 71.3889 98.782 71.5138 98.3517C71.6388 97.9205 71.7733 97.5076 71.9165 97.1121C72.1308 96.4301 72.3634 95.7297 72.6142 95.011C72.793 94.7959 73.0621 94.6155 73.4196 94.4727C73.706 94.3647 74.0722 94.3203 74.52 94.3377C74.9669 94.356 75.4945 94.5084 76.1029 94.7959C76.3172 94.6522 76.4786 94.5084 76.5863 94.3647C76.6583 94.221 76.7564 94.1042 76.8813 94.0145C77.0062 93.9248 77.1408 93.8438 77.284 93.7724C77.7847 93.4135 78.1605 93.4675 78.4113 93.9344C78.8409 93.8621 79.2609 93.7994 79.6722 93.7454C80.0835 93.6913 80.5045 93.6643 80.9331 93.6643C81.8278 93.6286 82.5967 93.8795 83.2406 94.4187C83.8845 94.957 84.3679 95.586 84.6899 96.3047C84.7975 96.5565 84.8686 96.8073 84.9042 97.0591C84.9397 97.3108 84.9763 97.58 85.0118 97.8675C85.1194 98.4781 85.2261 99.1244 85.3338 99.8065C85.2982 100.058 85.2799 100.309 85.2799 100.561C85.2799 100.776 85.2713 101.036 85.253 101.342C85.2348 101.647 85.2261 101.962 85.2261 102.285C85.4049 102.356 85.6105 102.41 85.8431 102.446C86.0757 102.482 86.3169 102.5 86.5678 102.5C88.2496 102.572 89.5374 101.925 90.4321 100.561C90.6465 100.273 90.9329 100.094 91.2913 100.023C91.6498 99.9512 91.9718 100.024 92.2581 100.239ZM55.8679 100.239C56.2619 97.9755 56.4945 96.4137 56.5656 95.5513C56.6377 94.6888 56.6377 94.2045 56.5656 94.0965C56.4945 93.9171 56.458 93.8274 56.458 93.8274C55.9573 93.7193 55.4739 93.8814 55.0087 94.3126C54.6147 94.7081 54.1947 95.3815 53.7478 96.3326C53.3 97.2848 52.88 98.7656 52.4869 100.777C52.0938 102.788 51.8786 104.306 51.843 105.329C51.8074 106.353 51.843 107.08 51.9506 107.511C52.0938 108.014 52.3082 108.266 52.5946 108.266H52.6484C52.6839 108.266 52.7108 108.274 52.7291 108.293C52.7474 108.311 52.7916 108.301 52.8636 108.266H52.9175V108.212C53.0607 108.176 53.2481 108.041 53.4806 107.808C53.7132 107.574 53.964 107.17 54.2322 106.595C54.5003 106.02 54.7684 105.221 55.0375 104.198C55.3047 103.175 55.5815 101.855 55.8679 100.239ZM73.2043 100.024C73.5618 100.095 73.8309 100.284 74.0097 100.589C74.1884 100.894 74.2423 101.226 74.1711 101.585C74.1711 101.658 74.1 101.936 73.9568 102.421C73.8136 102.906 73.6166 103.544 73.3667 104.334C73.1159 105.124 72.8209 106.013 72.4816 107C72.1414 107.988 71.7752 109.003 71.3812 110.044C70.8449 111.409 70.3346 112.593 69.8512 113.6C69.3678 114.605 68.8757 115.467 68.375 116.186C68.3395 116.222 68.1155 116.455 67.7042 116.886C67.2929 117.317 66.7297 117.695 66.0137 118.018C65.2977 118.341 64.4837 118.44 63.5717 118.314C62.6597 118.189 61.6304 117.587 60.4858 116.509C59.7698 115.611 59.1797 114.677 58.7145 113.708C58.3205 112.845 57.9985 111.984 57.7487 111.121C57.4978 110.259 57.3373 109.739 57.2653 109.558C57.1576 109.667 57.0596 109.774 56.9702 109.882C56.8808 109.99 56.7828 110.097 56.6752 110.205C56.3888 110.672 55.9775 111.067 55.4412 111.39C54.976 111.678 54.3763 111.903 53.6431 112.064C52.9098 112.226 52.0237 112.18 50.9867 111.929C49.8056 111.714 48.8215 111.21 48.0344 110.42C47.7124 110.168 47.426 109.809 47.1752 109.342C46.8888 108.911 46.6918 108.409 46.5851 107.834C46.4775 107.331 46.4063 106.765 46.3708 106.137C46.3352 105.508 46.317 104.888 46.317 104.278C46.317 103.596 46.3352 102.895 46.3708 102.177C46.4784 101.422 46.612 100.668 46.7735 99.9135C46.9349 99.1592 47.1579 98.4231 47.4443 97.7044C47.5164 97.525 47.5875 97.3272 47.6586 97.1121C47.7662 96.8246 47.9267 96.4571 48.142 96.0075C48.3563 95.559 48.6158 95.0824 48.9204 94.5798C49.2241 94.0772 49.5644 93.5746 49.9401 93.071C50.3159 92.5684 50.7186 92.1015 51.1482 91.6703C51.5422 91.3829 51.8997 91.1224 52.2217 90.8889C52.5436 90.6555 52.9905 90.449 53.5633 90.2696C54.458 90.0178 55.1558 89.9281 55.6565 90.0005C56.1572 90.0718 56.5329 90.1982 56.7838 90.3776C57.0702 90.5928 57.2489 90.8802 57.32 91.2401C57.642 88.0431 58.0178 85.1703 58.4474 82.6197C58.6261 81.5421 58.8414 80.4732 59.0913 79.414C59.3421 78.3548 59.6102 77.394 59.8966 76.5315C60.183 75.6691 60.505 74.9514 60.8625 74.3764C61.22 73.8015 61.614 73.4609 62.0436 73.3529C62.8663 73.1735 63.5736 73.2092 64.1637 73.4609C64.7538 73.7127 65.2285 74.0359 65.5861 74.4304C65.9801 74.8974 66.3193 75.454 66.6057 76.1003H66.5519C66.8027 76.6029 66.8739 77.1422 66.7662 77.7162C66.8018 77.8956 66.8114 78.0847 66.7931 78.2815C66.7749 78.4792 66.7489 78.6673 66.7124 78.8468C66.6048 79.6368 66.4885 80.4269 66.3636 81.217C66.2386 82.0071 66.1041 82.8155 65.9609 83.6413C65.9253 83.8564 65.8628 84.1892 65.7735 84.6378C65.6841 85.0864 65.5861 85.5629 65.4784 86.0655C65.3708 86.5681 65.2728 87.035 65.1834 87.4662C65.094 87.8974 65.0315 88.2023 64.995 88.3817C64.9239 88.8843 64.8432 89.3609 64.7538 89.8094C64.6644 90.258 64.5837 90.7346 64.5126 91.2372C64.4414 91.6327 64.4049 92.0089 64.4049 92.3688C64.4049 92.7276 64.3867 93.0874 64.3511 93.4463C64.3511 93.6981 64.3425 94.0299 64.3242 94.4428C64.3059 94.8557 64.2886 95.2782 64.2704 95.7085C64.2521 96.1397 64.2348 96.5256 64.2166 96.8671C64.1983 97.2086 64.1896 97.4324 64.1896 97.5404C64.1896 98.8331 64.181 100.117 64.1627 101.392C64.1445 102.668 64.1541 103.933 64.1896 105.19C64.2252 106.124 64.279 107.067 64.3511 108.019C64.4222 108.971 64.5126 109.913 64.6192 110.847V110.901C64.6913 111.189 64.7538 111.485 64.8076 111.79C64.8614 112.096 64.9422 112.392 65.0488 112.678C65.0488 112.678 65.1113 112.795 65.2372 113.028C65.3621 113.262 65.5591 113.397 65.8273 113.433C66.0954 113.468 66.427 113.316 66.8201 112.974C67.2141 112.633 67.661 111.906 68.1617 110.792C68.3049 110.469 68.4481 110.119 68.5913 109.742C68.7345 109.365 68.8959 108.979 69.0747 108.583C69.4322 107.649 69.7638 106.724 70.0674 105.809C70.3711 104.893 70.6306 104.075 70.8459 103.357C71.0967 102.532 71.3293 101.742 71.5436 100.987C71.6157 100.628 71.8118 100.358 72.1337 100.179C72.4528 100.005 72.8113 99.9512 73.2043 100.024Z" fill="#7800FF"/>
</svg>
