<svg width="301" height="78" viewBox="0 0 301 78" fill="none" xmlns="http://www.w3.org/2000/svg">
<path fill-rule="evenodd" clip-rule="evenodd" d="M132.757 60.9741C132.757 59.6169 132.864 58.3747 133.277 57.1249C133.591 55.875 134.005 54.8322 134.633 53.6897C135.253 52.6469 135.988 51.7114 136.923 50.7759C137.757 49.9401 138.692 49.2117 139.733 48.5906C140.874 47.9695 141.916 47.4481 143.164 47.1337C144.412 46.8193 145.66 46.6123 147.008 46.6123C148.256 46.6123 149.504 46.8193 150.753 47.1337C152.001 47.4481 153.142 47.9695 154.183 48.5906C155.225 49.2117 156.159 49.9478 157.093 50.7759C157.928 51.7114 158.656 52.6469 159.276 53.6897C159.896 54.8322 160.417 55.875 160.731 57.1249C161.045 58.3747 161.252 59.6246 161.252 60.9741C161.252 62.2239 161.045 63.4738 160.731 64.7236C160.417 65.9735 159.896 67.116 159.276 68.1588C158.656 69.2016 157.92 70.1371 157.093 70.9729C156.159 71.9084 155.225 72.6368 154.183 73.2656C153.142 73.8867 152.001 74.3084 150.753 74.6228C149.504 75.0368 148.256 75.1442 147.008 75.1442C145.653 75.1442 144.412 75.0368 143.164 74.6228C141.916 74.3084 140.874 73.8943 139.733 73.2656C138.692 72.6445 137.757 71.9084 136.923 70.9729C135.988 70.1371 135.261 69.2016 134.633 68.1588C134.013 67.116 133.591 65.9735 133.277 64.7236C132.864 63.4738 132.757 62.2239 132.757 60.9741ZM139.932 60.8744C139.932 61.9172 140.139 62.96 140.453 63.7882C140.767 64.7236 141.288 65.4521 141.908 66.1805C142.528 66.8016 143.263 67.323 144.09 67.7447C145.025 68.1588 145.959 68.3658 147 68.3658C148.042 68.3658 148.976 68.1588 149.811 67.7447C150.645 67.3307 151.373 66.8093 151.993 66.1805C152.614 65.4521 153.134 64.7236 153.448 63.7882C153.862 62.9524 153.969 61.9172 153.969 60.8744C153.969 59.9389 153.862 58.8961 153.448 58.0603C153.134 57.1249 152.614 56.3964 151.993 55.668C151.373 55.0469 150.638 54.5255 149.811 54.1037C148.976 53.6897 148.042 53.4826 147 53.4826C145.959 53.4826 145.025 53.6897 144.09 54.1037C143.256 54.5178 142.528 55.0392 141.908 55.668C141.288 56.3964 140.767 57.1249 140.453 58.0603C140.139 58.8961 139.932 59.9313 139.932 60.8744Z" fill="#00672A"/>
<path fill-rule="evenodd" clip-rule="evenodd" d="M165.41 47.8545C165.41 47.6475 165.41 47.4404 165.617 47.2334C165.724 47.126 165.931 47.0264 166.137 47.0264H178.099C178.934 47.0264 179.761 47.1337 180.595 47.4404C181.323 47.6475 182.05 47.9618 182.678 48.3759C183.299 48.79 183.819 49.3114 184.34 49.8328C184.861 50.4539 185.274 51.0826 185.696 51.7037C186.01 52.4322 186.316 53.1606 186.53 53.889C186.637 54.6175 186.737 55.3459 186.737 56.0744C186.737 57.2169 186.53 58.2597 186.117 59.4099C185.703 60.4527 185.182 61.3881 184.455 62.2239C183.727 63.0597 182.793 63.7882 181.752 64.3096C180.71 64.831 179.569 65.038 178.214 65.038H172.601V73.8867C172.601 74.5077 172.287 74.7224 171.766 74.7224H166.153C165.946 74.7224 165.739 74.6151 165.632 74.5154C165.41 74.4081 165.41 74.201 165.41 73.8867V47.8545ZM179.447 56.082C179.447 55.668 179.339 55.3536 179.24 54.9395C179.133 54.5255 178.926 54.2111 178.62 53.8967C178.413 53.6897 178.099 53.3753 177.785 53.2756C177.371 53.0686 177.057 52.9612 176.537 52.9612H172.585V59.2105H176.537C177.057 59.2105 177.371 59.1031 177.785 58.8961C178.099 58.6891 178.405 58.4821 178.62 58.1677C178.934 57.9606 179.14 57.6463 179.24 57.2322C179.339 56.8105 179.447 56.4961 179.447 56.082Z" fill="#00672A"/>
<path fill-rule="evenodd" clip-rule="evenodd" d="M190.053 47.8543C190.053 47.3329 190.367 47.0186 190.888 47.0186H207.528C207.735 47.0186 207.942 47.1259 208.148 47.3329C208.256 47.54 208.355 47.6473 208.355 47.954V52.8461C208.355 53.0531 208.248 53.2601 208.041 53.3675C207.934 53.5745 207.727 53.6819 207.52 53.6819H197.228V73.9862C197.228 74.1932 197.121 74.4003 196.914 74.6073C196.807 74.7146 196.6 74.8143 196.394 74.8143H190.88C190.566 74.8143 190.359 74.707 190.26 74.4999C190.152 74.3926 190.053 74.1856 190.053 73.9785V47.8543Z" fill="#00672A"/>
<path fill-rule="evenodd" clip-rule="evenodd" d="M209.91 74.3006C210.017 74.0935 210.116 73.8865 210.224 73.7792C210.331 73.5721 210.538 73.3651 210.637 73.1581L219.061 60.6672C217.606 58.4819 216.151 56.2966 214.795 54.2109C213.34 52.1253 211.985 49.94 210.53 47.862C210.423 47.7547 210.423 47.655 210.323 47.5476C210.323 47.4403 210.323 47.3406 210.323 47.2333C210.323 47.2333 210.323 47.1259 210.53 47.1259C210.637 47.1259 210.737 47.1259 210.844 47.0186H217.391C217.805 47.0186 218.226 47.3329 218.433 47.747L223.005 54.6173L227.576 47.747C227.783 47.3329 228.197 47.0186 228.618 47.0186H234.545C234.652 47.0186 234.752 47.0186 234.859 47.0186C235.066 47.0186 235.173 47.0186 235.273 47.0186C235.38 47.0186 235.479 47.1259 235.587 47.1259C235.694 47.1259 235.694 47.2333 235.694 47.3329C235.694 47.4326 235.694 47.6473 235.487 47.747L226.964 60.6596L235.701 73.6718C235.809 73.8788 235.908 73.9862 235.908 74.0859C236.015 74.2929 236.115 74.4003 236.015 74.4999C236.015 74.707 235.908 74.8143 235.701 74.8143H229.047C228.84 74.8143 228.633 74.707 228.426 74.6073C228.319 74.4999 228.112 74.2929 228.013 74.0859L223.02 66.5868L218.027 74.0859C217.92 74.2929 217.713 74.4999 217.614 74.6073C217.407 74.7146 217.2 74.8143 216.993 74.8143H210.339C210.231 74.8143 210.132 74.707 210.025 74.707C209.917 74.5996 209.917 74.5996 209.917 74.3926C209.91 74.4079 209.91 74.4079 209.91 74.3006Z" fill="#00672A"/>
<path fill-rule="evenodd" clip-rule="evenodd" d="M239.752 47.8545C239.752 47.6475 239.86 47.4404 239.959 47.2334C240.066 47.126 240.273 47.0264 240.579 47.0264H245.779C246.193 47.0264 246.399 47.1337 246.507 47.2334C246.614 47.4404 246.713 47.6475 246.713 47.8545V63.8878C248.375 61.1811 250.045 58.4744 251.599 55.7677C253.261 53.0609 254.823 50.3542 256.485 47.6475C256.692 47.4404 256.799 47.3331 256.898 47.2334C257.006 47.126 257.212 47.0264 257.312 47.0264H263.239C263.553 47.0264 263.76 47.1337 263.859 47.2334C264.066 47.3407 264.066 47.5478 264.066 47.7548V73.8867C264.066 74.201 264.066 74.4081 263.859 74.5077C263.653 74.6151 263.446 74.7148 263.239 74.7148H257.94C257.733 74.7148 257.526 74.7148 257.419 74.5077C257.212 74.4004 257.105 74.1934 257.105 74.0937V59.1031C255.443 61.6028 253.881 64.2022 252.319 66.6022C250.864 69.102 249.302 71.6017 247.64 74.201C247.533 74.4081 247.326 74.5154 247.226 74.6151C247.02 74.7224 246.813 74.7224 246.706 74.7224H240.572C240.258 74.7224 240.051 74.6151 239.952 74.5154C239.844 74.3084 239.745 74.1014 239.745 73.8943V47.8545H239.752Z" fill="#00672A"/>
<path fill-rule="evenodd" clip-rule="evenodd" d="M271.678 47.8543C271.785 47.6473 271.785 47.4403 271.992 47.3329C272.099 47.1259 272.306 47.0186 272.612 47.0186H279.06C279.474 47.0186 279.788 47.3329 279.994 47.747L284.987 64.7158L290.08 47.747C290.287 47.3329 290.601 47.0186 291.014 47.0186H297.462C297.669 47.0186 297.876 47.1259 298.082 47.2256C298.19 47.4326 298.289 47.6396 298.396 47.8467C298.81 52.2173 299.231 56.5956 299.645 60.8589C300.165 65.2296 300.579 69.5005 301 73.8712V73.9785C301 74.4999 300.686 74.707 300.165 74.707H294.966C294.345 74.707 294.031 74.3926 294.031 73.8712L292.37 59.5017L288.211 73.9709C288.211 74.0782 288.104 74.2852 287.897 74.3849C287.79 74.5919 287.583 74.6993 287.484 74.6993H282.598C282.391 74.6993 282.284 74.5919 282.077 74.3849C281.97 74.2776 281.871 74.1779 281.871 73.9709L277.712 59.5017L276.051 73.8712C275.943 74.3926 275.737 74.707 275.116 74.707H269.817C269.296 74.707 269.09 74.3926 269.09 73.8712L271.678 47.8543Z" fill="#00672A"/>
<path fill-rule="evenodd" clip-rule="evenodd" d="M79.3354 35.8086C81.3724 49.4649 87.7744 58.7353 87.7744 58.7353C87.7744 58.7353 90.3475 58.0835 94.6435 56.619C97.6224 55.7372 102.378 53.0995 102.378 53.0995C93.7629 51.5506 84.7879 44.9179 79.3354 35.8086Z" fill="#F08300"/>
<path fill-rule="evenodd" clip-rule="evenodd" d="M89.1605 61.4807C94.6129 70.4826 101.811 74.9146 101.811 74.9146C101.811 74.9146 125.206 63.942 128.989 27.2593C114.562 51.1291 101.551 57.4167 89.1605 61.4807Z" fill="#00672A"/>
<path fill-rule="evenodd" clip-rule="evenodd" d="M88.8006 0C73.3547 0 60.0453 9.11701 53.9343 22.2673C51.7672 9.63842 40.7628 0 27.5453 0C13.0949 0 1.34013 11.3253 0.78876 25.7791C0.78876 25.8175 0.811734 26.6073 0.811734 26.6073H16.4108V25.8788C16.8856 20.128 21.779 15.627 27.5453 15.627C33.7099 15.627 38.7258 20.6494 38.7258 26.8143C38.7258 29.8431 37.4623 32.7952 35.2185 34.9421C35.1649 35.0035 35.0271 35.1185 35.0271 35.1185C35.0194 35.1262 35.0041 35.1415 35.0041 35.1415L31.4738 38.0476C31.4508 38.0706 31.4202 38.0859 31.4049 38.1013L15.8211 51.2362C13.34 53.3985 11.4102 55.1468 10.0777 56.4196C3.7983 62.4389 0.313972 69.2632 0 76.1719V77.0077H54.2943V61.9404H26.6417L29.9652 59.2644L43.4124 48.4221C43.9944 47.9927 44.5458 47.5403 45.1125 47.0496C47.2184 45.2093 49.0027 43.0777 50.4194 40.739C51.5757 60.959 68.3158 77.0077 88.8006 77.0077C90.4087 77.0077 91.9863 76.9003 93.5408 76.7086C91.0367 74.3546 88.41 71.7782 86.6334 69.7309C84.0527 66.7558 81.786 63.3743 80.3387 61.074C71.2181 57.6465 64.7319 48.8362 64.7319 38.5153C64.7319 25.204 75.5065 14.4155 88.8006 14.4155C100.846 14.4155 110.832 23.2794 112.594 34.8578C114.631 32.7952 120.382 26.7529 123.269 21.4468C116.982 8.73362 103.91 0 88.8006 0Z" fill="#00672A"/>
</svg>
